<svg viewBox="0 0 16 16" xmlns="http://www.w3.org/2000/svg" xmlns:xlink="http://www.w3.org/1999/xlink" width="16.000000" height="16.000000" fill="none" customFrame="#000000">
	<rect id="third-party icon/java" width="16.000000" height="16.000000" x="0.000000" y="0.000000" />
	<path id="Vector" d="M11.0112 9.118C11 9.5 11.0206 10.0075 10.8708 10.4382C10.7396 10.8689 10.5149 11.2528 10.1966 11.5898C9.8783 11.9082 9.5131 12.1517 9.10115 12.3202C8.68915 12.47 8.375 12.5 7.809 12.5C7.243 12.5 6.74155 12.4419 6.23595 12.2359C5.74905 12.0112 5.3371 11.6929 5 11.2809L6.01125 9.9888C6.21725 10.2509 6.47005 10.457 6.76965 10.6068C7.0693 10.7565 7.397 10.8315 7.7528 10.8315C8.22095 10.8315 8.58615 10.6816 8.8483 10.382C9.1105 10.0637 9.24155 9.5955 9.24155 8.97755L9.24155 3.5L11.0112 3.5L11.0112 9.118Z" fill="rgb(222,82,88)" fill-rule="evenodd" />
</svg>
