<svg viewBox="0 0 16 16" xmlns="http://www.w3.org/2000/svg" xmlns:xlink="http://www.w3.org/1999/xlink" width="16.000000" height="16.000000" fill="none" customFrame="#000000">
	<rect id="third-party icon/javascript" width="16.000000" height="16.000000" x="0.000000" y="0.000000" />
	<path id="Shape" d="M9.8498 10.1C9.2998 10.1 8.69981 9.9 8.3498 9.7L8.0498 10.85C8.39981 11 9.0498 11.2 9.7498 11.2C11.3998 11.2 12.1998 10.35 12.1998 9.35C12.1998 8.5 11.6998 7.95 10.6498 7.55C9.89981 7.25 9.5498 7.1 9.5498 6.7C9.5498 6.35 9.8498 6.1 10.4498 6.1C11.0498 6.1 11.4498 6.3 11.6998 6.4L11.9998 5.3C11.6498 5.15 11.1498 5 10.4498 5C8.9998 5 8.14981 5.75 8.14981 6.8C8.14981 7.7 8.7998 8.25 9.7998 8.6C10.4998 8.85 10.7998 9.05 10.7998 9.45C10.7998 9.85 10.4998 10.1 9.8498 10.1ZM5.8 5.10005L7.15 5.10005L7.15 8.90005C7.15 10.6 6.35 11.2 5 11.2C4.7 11.2 4.25 11.15 4 11.05L4.15 9.95005C4.35 10.05 4.6 10.1 4.85 10.1C5.4 10.1 5.8 9.85005 5.8 8.90005L5.8 5.10005Z" fill="rgb(217,195,48)" fill-rule="evenodd" />
</svg>
