<?xml version="1.0" encoding="UTF-8"?>
<svg width="16px" height="16px" viewBox="0 0 32 32" version="1.1" xmlns="http://www.w3.org/2000/svg" xmlns:xlink="http://www.w3.org/1999/xlink">
    <title>画板@3x</title>
    <g id="画板" stroke="none" stroke-width="1" fill="none" fill-rule="evenodd">
        <g id="画板@3x" transform="translate(1.850000, 3.400000)" fill="#FFFFFF" fill-rule="nonzero">
            <path d="M26.8515345,0.508094637 C27.2336633,0.906837712 27.2201948,1.53985942 26.8214517,1.92198821 L2.82145168,24.9219882 C2.42270861,25.304117 1.7896869,25.2906484 1.40755811,24.8919054 C1.02542933,24.4931623 1.03889788,23.8601406 1.43764096,23.4780118 L25.437641,0.478011795 C25.836384,0.0958830144 26.4694057,0.109351562 26.8515345,0.508094637 Z M19.643,11.549 L19.6433922,24.3692308 L19.4270558,24.3643675 C16.9172883,24.2512955 14.9172384,22.1807545 14.9172384,19.6430769 L14.9167883,18.3205919 C14.1003719,18.6342523 13.2136629,18.806154 12.2868041,18.806154 L12.016,18.8 L19.643,11.549 Z M28.3080076,6.30153846 L28.3080076,19.6430769 C28.3080076,22.1807545 26.3079578,24.2512955 23.7981903,24.3643675 L23.5818538,24.3692308 L23.5818538,11.0276923 C23.5818538,8.49001468 25.5819037,6.41947375 28.0916712,6.30640178 L28.3080076,6.30153846 Z M2.36339224,-1.77635684e-15 C3.66848359,-1.77635684e-15 4.72646917,1.05798558 4.72646917,2.36307692 L4.72674196,6.04059819 C5.53734822,5.73204193 6.41679213,5.56307692 7.33569994,5.56307692 C10.0331403,5.56307692 12.3905174,7.01906095 13.6648134,9.1880111 L11.508,11.271 L10.1933153,11.4240769 L10.1693636,11.4249657 C10.150174,11.428782 10.1307834,11.4320405 10.1112096,11.4347237 L10.0523153,11.4400769 L9.97624399,11.4438974 C9.71622755,11.4438974 9.4797515,11.3431089 9.30375262,11.1784688 L9.22096395,11.0909987 C8.73857988,10.5949057 8.07283701,10.2892308 7.33569994,10.2892308 C5.95008613,10.2892308 4.81673374,11.3692903 4.73160251,12.7334497 L4.72646917,12.8984615 L4.726,17.825 L-1.77635684e-15,22.392 L0.000315315027,2.36307692 C0.000315315027,1.05798558 1.0583009,-1.77635684e-15 2.36339224,-1.77635684e-15 Z M9.64626002,12.9253335 C9.69382401,12.9253335 9.74060029,12.9287061 9.78636275,12.9352253 L6.55942676,16.054321 C6.10276629,15.4844401 5.72939813,14.844934 5.45778132,14.1542617 C5.43066522,14.0840306 5.41570002,14.0099169 5.41570002,13.9323078 C5.41570002,13.606035 5.68019642,13.3415386 6.00646922,13.3415386 C6.01926422,13.3415386 6.03060972,13.3400615 6.04059982,13.3372429 L9.42918872,12.945154 L9.45314042,12.9442652 C9.47233002,12.940449 9.49172052,12.9371905 9.51129442,12.9345072 L9.57018872,12.929154 L9.64626002,12.9253335 Z M17.2803153,-1.77635684e-15 C18.5854066,-1.77635684e-15 19.6433922,1.05798558 19.6433922,2.36307692 L19.643,3.411 L14.896,7.998 L14.896,2.3630771 C14.896,1.0579857 15.9540204,-1.77635684e-15 17.2591118,-1.77635684e-15 L17.2803153,-1.77635684e-15 Z" id="形状结合"></path>
        </g>
    </g>
</svg>