<?xml version="1.0" encoding="UTF-8"?>
<svg width="16px" height="16px" viewBox="0 0 32 32" version="1.1" xmlns="http://www.w3.org/2000/svg" xmlns:xlink="http://www.w3.org/1999/xlink">
    <title>32</title>
    <g id="32" stroke="none" stroke-width="1" fill="none" fill-rule="evenodd">
        <g id="编组" transform="translate(1.870769, 3.840000)" fill="#FFFFFF">
            <path d="M2.36307692,0 C3.66816827,-2.39741391e-16 4.72615385,1.05798558 4.72615385,2.36307692 L4.72615385,19.6430769 C4.72615385,22.2532596 2.61018269,24.3692308 0,24.3692308 L0,24.3692308 L0,24.3692308 L0,2.36307692 C-1.59827594e-16,1.05798558 1.05798558,1.59827594e-16 2.36307692,0 Z" id="矩形"></path>
            <path d="M17.28,0 C18.5850913,-2.39741391e-16 19.6430769,1.05798558 19.6430769,2.36307692 L19.6430769,19.6430769 C19.6430769,22.2532596 17.5271058,24.3692308 14.9169231,24.3692308 L14.9169231,24.3692308 L14.9169231,24.3692308 L14.9169231,2.36307692 C14.9169231,1.05798558 15.9749087,1.59827594e-16 17.28,0 Z" id="矩形备份" transform="translate(17.280000, 12.184615) scale(-1, 1) translate(-17.280000, -12.184615) "></path>
            <path d="M28.3076923,6.30153846 L28.3076923,6.30153846 L28.3076923,6.30153846 L28.3076923,19.6430769 C28.3076923,22.2532596 26.1917212,24.3692308 23.5815385,24.3692308 L23.5815385,24.3692308 L23.5815385,24.3692308 L23.5815385,11.0276923 C23.5815385,8.41750961 25.6975096,6.30153846 28.3076923,6.30153846 Z" id="矩形备份-2"></path>
            <circle id="椭圆形" cx="25.9446154" cy="2.36307692" r="2.36307692"></circle>
            <path d="M7.33538462,5.56307692 C10.4394597,5.56307692 13.0932155,7.49112263 14.1644074,10.2149692 C14.1915235,10.2852003 14.2064887,10.359314 14.2064887,10.4369231 C14.2064887,10.7631959 13.9419923,11.0276923 13.6157195,11.0276923 C13.6029245,11.0276923 13.591579,11.0291694 13.5815889,11.031988 L10.193,11.4240769 L10.1690483,11.4249657 C10.1498587,11.428782 10.1304681,11.4320405 10.1108943,11.4347237 L10.052,11.4400769 L9.97592867,11.4438974 C9.71591223,11.4438974 9.47943618,11.3431089 9.3034373,11.1784688 L9.22064863,11.0909987 C8.73826456,10.5949057 8.07252169,10.2892308 7.33538462,10.2892308 C5.94977081,10.2892308 4.81641842,11.3692903 4.73128719,12.7334497 L4.72615385,12.8984615 L4.72642664,19.7563249 L4.723,19.7550769 L4.72129052,19.8594134 C4.61144918,22.2974732 2.65439631,24.2545261 0.216336456,24.3643674 L0,24.3692308 L0,12.8984615 C0,8.84724048 3.28416356,5.56307692 7.33538462,5.56307692 Z" id="形状结合"></path>
            <path d="M10.1415385,16.4430769 C10.1415385,17.7481683 9.08355289,18.8061538 7.77846154,18.8061538 C6.47337019,18.8061538 5.41538462,17.7481683 5.41538462,16.4430769 L5.41538462,7.33538462 C5.41538462,3.28416356 8.69954817,0 12.7507692,0 C15.8548443,0 18.5086002,1.92804571 19.579792,4.65189232 C19.6069081,4.72212339 19.6218733,4.79623712 19.6218733,4.87384615 C19.6218733,5.20011899 19.3573769,5.46461538 19.0311041,5.46461538 C19.0183091,5.46461538 19.0069636,5.46609247 18.9969735,5.46891113 L15.6083846,5.861 L15.5844329,5.86188881 C15.5652433,5.86570503 15.5458528,5.86896354 15.5262789,5.87164675 L15.4673846,5.877 L15.3913133,5.88082047 C15.1312968,5.88082047 14.8948208,5.78003201 14.7188219,5.61539185 L14.6360332,5.52792179 C14.1536492,5.03182876 13.4879063,4.72615385 12.7507692,4.72615385 C11.3651554,4.72615385 10.231803,5.80621339 10.1466718,7.17037275 L10.1415385,7.33538462 L10.1415385,16.4430769 Z" id="形状结合" transform="translate(12.518629, 9.403077) scale(-1, -1) translate(-12.518629, -9.403077) "></path>
        </g>
    </g>
</svg>