<svg viewBox="0 0 16 16" xmlns="http://www.w3.org/2000/svg" xmlns:xlink="http://www.w3.org/1999/xlink" width="16.000000" height="16.000000" fill="none" customFrame="#000000">
	<rect id="third-party icon/python" width="16.000000" height="16.000000" x="0.000000" y="0.000000" />
	<path id="Shape" d="M8.02778 7.56969L7.02778 7.56969C6.32778 7.56969 5.87778 8.01969 5.87778 8.71969L5.87778 9.61969C5.87778 9.71969 5.82778 9.76969 5.72778 9.76969L5.27778 9.76969C4.82778 9.76969 4.47778 9.56969 4.27778 9.16969C4.12778 8.86969 4.02778 8.56969 4.02778 8.26969C3.97778 7.71969 3.97778 7.16969 4.17778 6.61969C4.32778 6.16969 4.62778 5.81969 5.12778 5.71969L8.02778 5.71969C8.07778 5.71969 8.17778 5.71969 8.17778 5.66969L8.17778 5.41969C8.17778 5.41969 8.07778 5.36969 8.02778 5.36969L6.32778 5.36969C6.17778 5.36969 6.12778 5.31969 6.12778 5.16969L6.12778 4.51969C6.12778 4.16969 6.27778 3.91969 6.57778 3.81969C6.82778 3.71969 7.07778 3.61969 7.32778 3.56969C7.92778 3.46969 8.52778 3.46969 9.12778 3.61969C9.37778 3.66969 9.62778 3.76969 9.82778 3.91969C10.0278 4.11969 10.1778 4.31969 10.1278 4.61969L10.1278 6.41969C10.1278 7.11969 9.72778 7.51969 9.02778 7.51969C8.67778 7.56969 8.32778 7.56969 8.02778 7.56969ZM7.02772 4.96966C6.77772 4.96966 6.62772 4.76966 6.62772 4.56966C6.62772 4.36966 6.77772 4.16966 7.02772 4.16966C7.22772 4.21966 7.42772 4.36966 7.42772 4.56966C7.42772 4.76966 7.22772 4.96966 7.02772 4.96966ZM8.42756 8.06963L9.42756 8.06963C10.1276 8.06963 10.5776 7.61963 10.5776 6.91963L10.5776 6.01963C10.5776 5.96963 10.5901 5.93213 10.6151 5.90713C10.6401 5.88213 10.6776 5.86963 10.7276 5.86963L11.1776 5.86963C11.6276 5.86963 11.9776 6.06963 12.1776 6.46963C12.3276 6.76963 12.4276 7.06963 12.4276 7.36963C12.4776 7.91963 12.4776 8.46963 12.2776 9.01963C12.1276 9.46963 11.8276 9.81963 11.3276 9.91963L8.42756 9.91963C8.37756 9.91963 8.27756 9.91963 8.27756 9.96963L8.27756 10.2196C8.27756 10.2196 8.37756 10.2696 8.42756 10.2696L10.1276 10.2696C10.2776 10.2696 10.3276 10.3196 10.3276 10.4696L10.3276 11.1196C10.3276 11.4696 10.1776 11.7196 9.87756 11.8196C9.62756 11.9196 9.37756 12.0196 9.12756 12.0696C8.52756 12.1696 7.92756 12.1696 7.32756 12.0196C7.07756 11.9696 6.82756 11.8696 6.62756 11.7196C6.42756 11.5196 6.27756 11.3196 6.32756 11.0196L6.32756 9.21963C6.32756 8.51963 6.72756 8.11963 7.42756 8.11963C7.77756 8.06963 8.12756 8.06963 8.42756 8.06963ZM9.42762 10.6697C9.67762 10.6697 9.82762 10.8697 9.82762 11.0697C9.82762 11.2697 9.67762 11.4697 9.42762 11.4697C9.22762 11.4197 9.02762 11.2697 9.02762 11.0697C9.02762 10.8697 9.22762 10.6697 9.42762 10.6697Z" fill="rgb(108,186,225)" fill-rule="evenodd" />
</svg>
