<svg viewBox="0 0 16 16" xmlns="http://www.w3.org/2000/svg" xmlns:xlink="http://www.w3.org/1999/xlink" width="16.000000" height="16.000000" fill="none">
	<rect id="Back(arrow-left)" width="16.000000" height="16.000000" x="0.000000" y="0.000000" />
	<path id="Merge" d="M8.90618 13.1978C9.10144 13.0024 9.10144 12.686 8.90618 12.4907L4.8097 8.39551L14.6049 8.39551C14.881 8.39551 15.1049 8.17188 15.1049 7.89551C15.1049 7.61963 14.881 7.39551 14.6049 7.39551L4.81026 7.39551L8.90618 3.29834C9.10144 3.10303 9.10144 2.78662 8.90618 2.59131C8.71092 2.396 8.39434 2.396 8.19907 2.59131L3.25661 7.53369C3.2282 7.5625 3.20376 7.59326 3.18334 7.62646C3.13366 7.7041 3.10486 7.79639 3.10486 7.89551C3.10486 7.96143 3.11757 8.02393 3.14066 8.08154C3.16439 8.14258 3.20054 8.19922 3.24932 8.24805L8.19907 13.1978C8.39434 13.3931 8.71092 13.3931 8.90618 13.1978Z" fill="rgb(255,255,255)" fill-rule="evenodd" />
</svg>
