<svg viewBox="0 0 14 14" xmlns="http://www.w3.org/2000/svg" xmlns:xlink="http://www.w3.org/1999/xlink" width="14.000000" height="14.000000" fill="none">
	<rect width="14.000000" height="14.000000" x="0.000000" y="0.000000" fill="rgb(255,255,255)" fill-opacity="0" />
	<g id="ai-inspiratior">
		<path d="M11.0441 0.522008C11.1005 0.304798 11.4149 0.278257 11.4735 0.494895C11.5705 0.830984 11.8512 1.12936 12.1908 1.21483C12.4111 1.27033 12.4113 1.58353 12.1908 1.63907C11.8396 1.72754 11.5628 2.00439 11.4745 2.35541C11.419 2.57584 11.1058 2.57587 11.0503 2.35545C10.9619 2.00439 10.685 1.72756 10.3338 1.63918C10.1136 1.58368 10.1133 1.27047 10.3338 1.21493C10.6777 1.12829 10.951 0.860704 11.0441 0.522008ZM5.76419 2.14164L5.80307 1.99215C5.91586 1.55773 6.53174 1.55467 6.6488 1.98794L6.7114 2.21952C7.37811 4.5256 9.2345 6.32155 11.5641 6.90807C12.005 7.01907 12.005 7.64548 11.5641 7.75657C9.15503 8.36364 7.25784 10.261 6.65137 12.6699C6.54028 13.1107 5.91394 13.1108 5.80286 12.67C5.19574 10.2609 3.29834 8.36364 0.889526 7.75715C0.448608 7.64615 0.448608 7.01974 0.889526 6.90865C3.24878 6.31409 5.12097 4.48032 5.76419 2.14164ZM11.3506 10.4287C11.2015 10.9707 10.7542 11.4388 10.2041 11.5774C9.85144 11.6663 9.85144 12.1674 10.2041 12.2562C10.7657 12.3976 11.2088 12.8406 11.3502 13.4023C11.4391 13.7549 11.9402 13.7549 12.0291 13.4022C12.1705 12.8406 12.6134 12.3976 13.175 12.2561C13.5277 12.1672 13.5277 11.6661 13.175 11.5773C12.632 11.4405 12.1985 11.0212 12.043 10.4835C11.9492 10.1369 11.441 10.0812 11.3506 10.4287Z" fill="rgb(255,255,255)" fill-rule="nonzero" />
		<path d="M10.2038 8.26068C10.6333 8.04639 11.0887 7.87636 11.5641 7.75657C12.005 7.64548 12.005 7.01907 11.5641 6.90807C11.0889 6.78843 10.6334 6.61847 10.2036 6.40411C10.0859 6.34537 9.97002 6.28329 9.85625 6.21801C8.81202 5.61877 7.94138 4.749 7.34108 3.70315C7.2758 3.5894 7.21371 3.47357 7.15494 3.35577C6.97461 2.99432 6.82556 2.6144 6.7114 2.21952L6.6488 1.98794C6.53174 1.55467 5.91586 1.55773 5.80307 1.99215L5.76419 2.14164C5.64787 2.56455 5.49137 2.97096 5.29906 3.35651C5.24097 3.47297 5.17961 3.58754 5.11511 3.70008C4.51538 4.74641 3.64372 5.61791 2.5973 6.21837C2.4835 6.28368 2.36763 6.34577 2.24982 6.40454C1.82019 6.61885 1.36474 6.78889 0.889526 6.90865C0.448608 7.01974 0.448608 7.64615 0.889526 7.75715C1.36493 7.87684 1.82041 8.04682 2.24999 8.26108C2.3677 8.31979 2.48347 8.38183 2.59717 8.44707C3.6423 9.04677 4.51266 9.91704 5.11255 10.9622C5.17784 11.076 5.23994 11.1918 5.2987 11.3096C5.51301 11.7391 5.68305 12.1946 5.80286 12.67C5.91394 13.1108 6.54028 13.1107 6.65137 12.6699C6.77106 12.1945 6.94102 11.739 7.15527 11.3094C7.21401 11.1917 7.27609 11.0758 7.34137 10.9621C7.94111 9.91688 8.81144 9.04651 9.85667 8.44666C9.97034 8.38142 10.0861 8.31939 10.2038 8.26068ZM7.91943 7.33202C7.64446 7.12177 7.37939 6.89334 7.12422 6.64671C6.79625 6.32972 6.49747 5.99438 6.22787 5.6407C5.96904 5.97915 5.68276 6.30185 5.36902 6.60879C5.1019 6.87013 4.82375 7.11136 4.53457 7.33249C4.84819 7.57242 5.14866 7.83602 5.43597 8.12331C5.72326 8.41057 5.98689 8.711 6.22685 9.02459C6.46672 8.71106 6.73026 8.41067 7.01745 8.12344C7.30493 7.83593 7.60559 7.57212 7.91943 7.33202ZM10.3692 1.20532C10.3575 1.20873 10.3457 1.21194 10.3338 1.21493C10.1133 1.27047 10.1136 1.58368 10.3338 1.63918C10.3457 1.64217 10.3575 1.64537 10.3692 1.64879C10.3605 1.5764 10.3561 1.50264 10.3561 1.42751C10.3561 1.35206 10.3604 1.278 10.3692 1.20532ZM11.044 2.33176C11.0462 2.33962 11.0483 2.34752 11.0503 2.35545C11.1058 2.57587 11.419 2.57584 11.4745 2.35541C11.4764 2.34799 11.4784 2.34061 11.4804 2.33326C11.4544 2.33624 11.4283 2.33867 11.4019 2.34058C11.2798 2.34938 11.1605 2.34644 11.044 2.33176ZM12.1555 1.64869C12.1672 1.64527 12.179 1.64206 12.1908 1.63907C12.4113 1.58353 12.4111 1.27033 12.1908 1.21483C12.179 1.21184 12.1672 1.20859 12.1554 1.20509C12.1641 1.27752 12.1685 1.35132 12.1685 1.42649C12.1686 1.50194 12.1642 1.576 12.1555 1.64869ZM11.4856 0.534005C11.4813 0.521032 11.4773 0.507992 11.4735 0.494895C11.4149 0.278257 11.1005 0.304798 11.0441 0.522008C11.043 0.525952 11.0419 0.529886 11.0408 0.533811C11.1132 0.525113 11.187 0.52076 11.2622 0.520752C11.3381 0.520744 11.4126 0.525162 11.4856 0.534005ZM11.3172 10.5354C11.3296 10.5002 11.3408 10.4646 11.3506 10.4287C11.441 10.0812 11.9492 10.1369 12.043 10.4835C12.0481 10.5013 12.0536 10.5189 12.0593 10.5365C12.0671 10.5601 12.0754 10.5834 12.0842 10.6065C12.2452 11.029 12.5823 11.3643 13.0041 11.5236C13.023 11.5308 13.0421 11.5376 13.0614 11.544C13.0987 11.5565 13.1366 11.5676 13.175 11.5773C13.5277 11.6661 13.5277 12.1672 13.175 12.2561C13.1394 12.265 13.1044 12.2752 13.0698 12.2865C13.0462 12.2943 13.0228 12.3025 12.9997 12.3114C12.5793 12.4717 12.2445 12.8065 12.0844 13.227C12.0756 13.25 12.0673 13.2733 12.0596 13.2968C12.0483 13.3314 12.0381 13.3666 12.0291 13.4022C11.9402 13.7549 11.4391 13.7549 11.3502 13.4023C11.3411 13.366 11.3307 13.3301 11.3191 13.2949C11.3115 13.272 11.3035 13.2494 11.295 13.227C11.1347 12.8066 10.7998 12.4717 10.3795 12.3115C10.3563 12.3027 10.333 12.2944 10.3094 12.2867C10.2748 12.2754 10.2397 12.2652 10.2041 12.2562C9.85144 12.1674 9.85144 11.6663 10.2041 11.5774C10.2398 11.5685 10.2749 11.5581 10.3097 11.5464C10.3255 11.5411 10.3412 11.5355 10.3568 11.5297C10.778 11.3716 11.1223 11.02 11.2912 10.6038C11.3004 10.5812 11.309 10.5583 11.3172 10.5354ZM11.4554 11.6827C11.4448 11.759 11.4395 11.837 11.4395 11.9166C11.4395 12.0071 11.4463 12.0955 11.46 12.1818C11.4774 12.1839 11.4948 12.1858 11.5124 12.1874C11.6517 12.2002 11.7876 12.1962 11.9201 12.1754C11.9331 12.0913 11.9396 12.0051 11.9396 11.9169C11.9396 11.8371 11.9343 11.7591 11.9237 11.6826C11.8473 11.672 11.7692 11.6667 11.6895 11.6667C11.6098 11.6668 11.5318 11.6721 11.4554 11.6827Z" fill="rgb(151,151,151)" fill-opacity="0" fill-rule="evenodd" />
	</g>
</svg>
