<svg viewBox="0 0 16 16" xmlns="http://www.w3.org/2000/svg" xmlns:xlink="http://www.w3.org/1999/xlink" width="16.000000" height="16.000000" fill="none" customFrame="#000000">
	<rect id="third-party icon/c-sharp" width="16.000000" height="16.000000" x="0.000000" y="0.000000" />
	<path id="Shape" d="M10.8999 5.5L10.6999 6.7L11.1999 6.7L11.3999 5.5L11.9999 5.5L11.7999 6.7L12.4499 6.7L12.4499 7.25L11.6499 7.25L11.5499 8.05L12.1999 8.05L12.1999 8.6L11.3999 8.6L11.1999 9.8L10.5999 9.8L10.6294 9.67815L10.8499 8.6L10.3499 8.6L10.1499 9.8L9.5499 9.8L9.7499 8.6L9.1499 8.6L9.1499 8.05L9.8999 8.05L9.9999 7.25L9.3499 7.25L9.3499 6.7L10.0999 6.7L10.2999 5.5L10.8999 5.5ZM10.5499 7.3L11.0499 7.3L10.9499 8.1L10.4499 8.1L10.5499 7.3Z" fill="rgb(108,186,225)" fill-rule="evenodd" />
	<path id="形状结合" d="M9.6168 4.89718C8.97131 4.33629 8.14747 4 7.25 4C5.17893 4 3.5 5.79086 3.5 8C3.5 10.2091 5.17893 12 7.25 12C8.20263 12 9.07229 11.6211 9.73376 10.9969L8.40668 9.49839C8.09391 9.81263 7.68526 10 7.25 10C6.31338 10 5.5 9.13239 5.5 8C5.5 6.86761 6.31338 6 7.25 6C7.649 6 8.02564 6.15745 8.32656 6.42576L9.6168 4.89718Z" fill="rgb(108,186,225)" fill-rule="evenodd" />
</svg>
