<svg viewBox="0 0 16 16" xmlns="http://www.w3.org/2000/svg" xmlns:xlink="http://www.w3.org/1999/xlink" width="16.000000" height="16.000000" fill="none" customFrame="#000000">
	<rect id="third-party icon/c" width="16.000000" height="16.000000" x="0.000000" y="0.000000" />
	<path id="Path" d="M11.35 11.4825C10.9933 11.6732 10.6233 11.817 10.24 11.914C9.86 12.0113 9.46167 12.06 9.045 12.06C7.80167 12.06 6.81667 11.7 6.09 10.98C5.36333 10.2567 5 9.275 5 8.035C5 6.795 5.36333 5.81333 6.09 5.09C6.81667 4.36333 7.80167 4 9.045 4C9.45833 4 9.85667 4.04867 10.24 4.146C10.6267 4.243 10.9967 4.38683 11.35 4.5775L11.35 6.1875C10.99 5.93417 10.6367 5.74917 10.29 5.6325C9.94667 5.51483 9.58333 5.456 9.2 5.456C8.51 5.456 7.97 5.68433 7.58 6.141C7.18667 6.59767 6.99 7.22933 6.99 8.036C6.99 8.836 7.18667 9.466 7.58 9.926C7.97333 10.3827 8.51333 10.611 9.2 10.611C9.58 10.611 9.94333 10.552 10.29 10.434C10.6367 10.316 10.99 10.131 11.35 9.879L11.35 11.4825Z" fill="rgb(185,128,212)" fill-rule="evenodd" />
</svg>
