<svg width="16" height="16" viewBox="0 0 16 16" fill="none" xmlns="http://www.w3.org/2000/svg">
<path d="M8.00021 11.8947C10.1514 11.8947 11.8951 10.1508 11.8951 7.99965C11.8951 5.8485 10.1514 4.10461 8.00021 4.10461C5.84906 4.10461 4.10523 5.8485 4.10523 7.99965C4.10523 10.1508 5.84906 11.8947 8.00021 11.8947Z" fill="white"/>
<path d="M2.96273 6.08579C2.67217 5.5825 2.33065 5.05427 1.9381 4.5011C1.32361 5.56518 1.00009 6.77229 1.00007 8.00106C1.00005 9.22982 1.32353 10.4369 1.93798 11.501C2.55243 12.5651 3.4362 13.4487 4.50044 14.063C5.56467 14.6772 6.77186 15.0004 8.00063 15.0001C8.64485 14.0965 9.08235 13.445 9.31292 13.0456C9.75583 12.2784 10.3286 11.1801 11.0314 9.75058V9.74976C10.7244 10.2821 10.2826 10.7241 9.75055 11.0315C9.21848 11.3389 8.61486 11.5008 8.00038 11.5009C7.3859 11.501 6.78222 11.3393 6.25006 11.0321C5.7179 10.7248 5.27602 10.2829 4.96884 9.75069C4.01438 7.97071 3.34571 6.74904 2.96273 6.08579Z" fill="#229342"/>
<path d="M8.00047 14.9999C8.91975 15 9.83004 14.819 10.6794 14.4673C11.5287 14.1156 12.3004 13.5999 12.9504 12.9499C13.6004 12.2999 14.116 11.5281 14.4677 10.6788C14.8194 9.82945 15.0003 8.91914 15.0001 7.99987C14.9999 6.77108 14.6761 5.56401 14.0615 4.50001C12.7354 4.36931 11.7568 4.30396 11.1255 4.30396C10.4097 4.30396 9.36789 4.36931 7.99998 4.50001L7.99921 4.50056C8.6137 4.50027 9.21744 4.66179 9.7497 4.96886C10.282 5.27594 10.724 5.71775 11.0313 6.24986C11.3386 6.78199 11.5004 7.38565 11.5004 8.00015C11.5004 8.61465 11.3386 9.21831 11.0313 9.75043L8.00047 14.9999Z" fill="#FBC116"/>
<path d="M8.00017 10.7714C9.53055 10.7714 10.7711 9.53084 10.7711 8.0004C10.7711 6.46991 9.53055 5.22937 8.00011 5.22937C6.46978 5.22937 5.22913 6.47002 5.22913 8.0004C5.22913 9.53079 6.46978 10.7714 8.00017 10.7714Z" fill="#1A73E8"/>
<path d="M8.00022 4.50026H14.0617C13.4474 3.43601 12.5638 2.55223 11.4997 1.93779C10.4356 1.32336 9.22846 0.999917 7.99968 1C6.7709 1.00008 5.56381 1.32369 4.49977 1.93827C3.43573 2.55285 2.55225 3.43675 1.93818 4.50108L4.96892 9.75057L4.96974 9.751C4.66226 9.21897 4.50029 8.61536 4.50011 8.00087C4.49993 7.38638 4.66155 6.78268 4.96872 6.25047C5.27588 5.71826 5.71777 5.27631 6.24993 4.96906C6.7821 4.66182 7.38578 4.50011 8.00027 4.5002L8.00022 4.50026Z" fill="#E33B2E"/>
</svg>
