<svg viewBox="0 0 16 16" xmlns="http://www.w3.org/2000/svg" xmlns:xlink="http://www.w3.org/1999/xlink" width="16.000000" height="16.000000" fill="none">
	<rect width="16.000000" height="16.000000" x="0.000000" y="0.000000" />
	<g>
		<g>
			<g>
				<path d="M4 15C2.94564 15 2.08183 14.1841 2.00549 13.1493L2 13L2 9C1.44772 9 1 8.55229 1 8L1 6C1 5.44772 1.44772 5 2 5L6 5L6 2C6 1.44772 6.44772 1 7 1L9 1C9.55229 1 10 1.44772 10 2L10 5L14 5C14.5523 5 15 5.44772 15 6L15 8C15 8.55229 14.5523 9 14 9L14 13C14 14.0544 13.1841 14.9182 12.1493 14.9945L12 15L4 15ZM13 9L3 9L3 13C3 13.5128 3.38604 13.9355 3.88338 13.9933L4 14L5 14L5 12.5C5 12.2545 5.17688 12.0504 5.41012 12.0081L5.5 12C5.77614 12 6 12.2239 6 12.5L6 14L7.5 14L7.5 12.5C7.5 12.2545 7.67688 12.0504 7.91012 12.0081L8 12C8.27614 12 8.5 12.2239 8.5 12.5L8.5 14L10 14L10 12.5C10 12.2545 10.1769 12.0504 10.4101 12.0081L10.5 12C10.7761 12 11 12.2239 11 12.5L11 14L12 14C12.5128 14 12.9355 13.614 12.9933 13.1166L13 13L13 9ZM9 2L7 2L7 5C7 5.51284 6.61396 5.93551 6.11662 5.99327L6 6L2 6L2 8L14 8L14 6L10 6C9.48716 6 9.06449 5.61396 9.00673 5.11662L9 5L9 2Z" fill="rgb(179,179,179)" fill-rule="nonzero" />
			</g>
		</g>
	</g>
</svg>
