<svg viewBox="0 0 1024 1024" xmlns="http://www.w3.org/2000/svg" xmlns:xlink="http://www.w3.org/1999/xlink" width="1024.000000" height="1024.000000" fill="none">
	<mask id="mask_0" width="1024.000000" height="1024.000000" x="0.000000" y="0.000000" maskUnits="userSpaceOnUse">
		<g filter="url(#pixso_custom_mask_type_alpha)">
			<g id="b">
				<rect id="rect" width="1024.000000" height="1024.000000" x="0.000000" y="0.000000" fill="rgb(0,0,0)" />
			</g>
		</g>
	</mask>
	<defs>
		<clipPath id="clipPath_0">
			<rect width="1024.000000" height="1024.000000" x="0.000000" y="0.000000" fill="rgb(255,255,255)" />
		</clipPath>
		<filter id="pixso_custom_mask_type_alpha">
			<feColorMatrix type="matrix" values="0 0 0 0 1 0 0 0 0 1 0 0 0 0 1 0 0 0 1 0 " />
		</filter>
		<linearGradient id="paint_linear_0" x1="162.576233" x2="417.056183" y1="942.400208" y2="949.472229" gradientUnits="userSpaceOnUse">
			<stop stop-color="rgb(21,247,142)" offset="0" stop-opacity="1" />
			<stop stop-color="rgb(22,243,108)" offset="1" stop-opacity="1" />
		</linearGradient>
		<linearGradient id="paint_linear_1" x1="814.303894" x2="269.471863" y1="155.375946" y2="656.416016" gradientUnits="userSpaceOnUse">
			<stop stop-color="rgb(77,65,255)" offset="0" stop-opacity="1" />
			<stop stop-color="rgb(70,69,255)" offset="0.0799999982" stop-opacity="1" />
			<stop stop-color="rgb(65,123,251)" offset="0.300000012" stop-opacity="1" />
			<stop stop-color="rgb(58,180,243)" offset="0.495999992" stop-opacity="1" />
			<stop stop-color="rgb(45,219,228)" offset="1" stop-opacity="1" />
		</linearGradient>
		<linearGradient id="paint_linear_2" x1="192.816193" x2="180.672241" y1="704.175842" y2="946.367798" gradientUnits="userSpaceOnUse">
			<stop stop-color="rgb(46,216,230)" offset="0" stop-opacity="1" />
			<stop stop-color="rgb(34,225,221)" offset="0.264999986" stop-opacity="1" />
			<stop stop-color="rgb(25,241,201)" offset="0.503000021" stop-opacity="1" />
			<stop stop-color="rgb(21,246,153)" offset="0.661000013" stop-opacity="1" />
			<stop stop-color="rgb(21,247,145)" offset="0.816999972" stop-opacity="1" />
			<stop stop-color="rgb(22,245,123)" offset="1" stop-opacity="1" />
		</linearGradient>
		<linearGradient id="paint_linear_3" x1="184.816177" x2="221.184174" y1="781.855896" y2="924.543945" gradientUnits="userSpaceOnUse">
			<stop stop-color="rgb(36,223,224)" offset="0" stop-opacity="0" />
			<stop stop-color="rgb(22,245,123)" offset="1" stop-opacity="1" />
		</linearGradient>
		<linearGradient id="paint_linear_4" x1="834.608154" x2="601.264221" y1="947.040161" y2="947.040161" gradientUnits="userSpaceOnUse">
			<stop stop-color="rgb(248,157,16)" offset="0" stop-opacity="1" />
			<stop stop-color="rgb(254,188,17)" offset="0.234999999" stop-opacity="1" />
			<stop stop-color="rgb(255,193,18)" offset="0.441000015" stop-opacity="1" />
			<stop stop-color="rgb(255,188,18)" offset="1" stop-opacity="1" />
		</linearGradient>
		<linearGradient id="paint_linear_5" x1="172.640228" x2="870.240234" y1="188.14389" y2="847.839966" gradientUnits="userSpaceOnUse">
			<stop stop-color="rgb(215,9,1)" offset="0" stop-opacity="1" />
			<stop stop-color="rgb(229,37,5)" offset="0.0790000036" stop-opacity="1" />
			<stop stop-color="rgb(233,42,4)" offset="0.136999995" stop-opacity="1" />
			<stop stop-color="rgb(249,73,5)" offset="0.481000006" stop-opacity="1" />
			<stop stop-color="rgb(248,157,16)" offset="1" stop-opacity="1" />
		</linearGradient>
		<linearGradient id="paint_linear_6" x1="815.119568" x2="702.719543" y1="916.83197" y2="939.407959" gradientUnits="userSpaceOnUse">
			<stop stop-color="rgb(254,184,16)" offset="0" stop-opacity="1" />
			<stop stop-color="rgb(255,190,18)" offset="1" stop-opacity="1" />
		</linearGradient>
		<linearGradient id="paint_linear_7" x1="853.52002" x2="833.023865" y1="813.28009" y2="945.504089" gradientUnits="userSpaceOnUse">
			<stop stop-color="rgb(248,138,13)" offset="0" stop-opacity="1" />
			<stop stop-color="rgb(251,162,14)" offset="0.551999986" stop-opacity="1" />
			<stop stop-color="rgb(251,162,14)" offset="0.870000005" stop-opacity="0.109803922" />
			<stop stop-color="rgb(253,178,14)" offset="1" stop-opacity="0" />
		</linearGradient>
		<linearGradient id="paint_linear_8" x1="824.527649" x2="870.095642" y1="51.4079666" y2="230.527924" gradientUnits="userSpaceOnUse">
			<stop stop-color="rgb(179,44,243)" offset="0" stop-opacity="1" />
			<stop stop-color="rgb(81,63,255)" offset="0.786000013" stop-opacity="0" />
			<stop stop-color="rgb(54,8,252)" offset="0.996999979" stop-opacity="0" />
			<stop stop-color="rgb(46,64,249)" offset="1" stop-opacity="0" />
		</linearGradient>
		<linearGradient id="paint_linear_9" x1="177.79187" x2="951.424072" y1="78.144165" y2="84.0480652" gradientUnits="userSpaceOnUse">
			<stop stop-color="rgb(221,1,19)" offset="0" stop-opacity="0.00784313772" />
			<stop stop-color="rgb(223,0,25)" offset="0.0599999987" stop-opacity="1" />
			<stop stop-color="rgb(220,5,46)" offset="0.140000001" stop-opacity="1" />
			<stop stop-color="rgb(216,10,69)" offset="0.231000006" stop-opacity="1" />
			<stop stop-color="rgb(206,24,129)" offset="0.470999986" stop-opacity="1" />
			<stop stop-color="rgb(201,46,213)" offset="0.68599999" stop-opacity="1" />
			<stop stop-color="rgb(175,43,247)" offset="0.791000009" stop-opacity="1" />
			<stop stop-color="rgb(175,43,247)" offset="0.893999994" stop-opacity="0" />
			<stop stop-color="rgb(0,0,0)" offset="0.944999993" stop-opacity="0" />
			<stop stop-color="rgb(97,2,250)" offset="1" stop-opacity="0" />
		</linearGradient>
		<linearGradient id="paint_linear_10" x1="410.000214" x2="963.135986" y1="-396.352081" y2="303.103912" gradientUnits="userSpaceOnUse">
			<stop stop-color="rgb(221,1,19)" offset="0" stop-opacity="0.00784313772" />
			<stop stop-color="rgb(223,0,25)" offset="0.0599999987" stop-opacity="1" />
			<stop stop-color="rgb(220,5,46)" offset="0.140000001" stop-opacity="1" />
			<stop stop-color="rgb(216,10,69)" offset="0.231000006" stop-opacity="1" />
			<stop stop-color="rgb(206,24,129)" offset="0.470999986" stop-opacity="1" />
			<stop stop-color="rgb(202,43,202)" offset="0.573000014" stop-opacity="1" />
			<stop stop-color="rgb(201,46,213)" offset="0.68599999" stop-opacity="1" />
			<stop stop-color="rgb(175,43,247)" offset="0.731000006" stop-opacity="1" />
			<stop stop-color="rgb(175,43,247)" offset="0.822000027" stop-opacity="0" />
			<stop stop-color="rgb(0,0,0)" offset="0.944999993" stop-opacity="0" />
			<stop stop-color="rgb(97,2,250)" offset="1" stop-opacity="0" />
		</linearGradient>
		<linearGradient id="paint_linear_11" x1="140.464203" x2="390.864227" y1="94.3199768" y2="94.3199768" gradientUnits="userSpaceOnUse">
			<stop stop-color="rgb(209,5,15)" offset="0" stop-opacity="0" />
			<stop stop-color="rgb(205,9,6)" offset="0.363000005" stop-opacity="1" />
			<stop stop-color="rgb(211,8,36)" offset="0.708999991" stop-opacity="1" />
			<stop stop-color="rgb(217,8,62)" offset="1" stop-opacity="0" />
		</linearGradient>
		<linearGradient id="paint_linear_12" x1="164.960297" x2="203.152237" y1="92.5439758" y2="244.880005" gradientUnits="userSpaceOnUse">
			<stop stop-color="rgb(221,1,19)" offset="0" stop-opacity="0" />
			<stop stop-color="rgb(215,9,1)" offset="0.404000014" stop-opacity="1" />
			<stop stop-color="rgb(232,41,5)" offset="1" stop-opacity="1" />
		</linearGradient>
	</defs>
	<rect id="icon" width="1024.000000" height="1024.000000" x="0.000000" y="0.000000" fill="rgb(255,255,255)" fill-opacity="0" />
	<g id="盘古-doer" clip-path="url(#clipPath_0)" customFrame="url(#clipPath_0)">
		<rect id="盘古-doer" width="1024.000000" height="1024.000000" x="0.000000" y="0.000000" />
		<g id="mask" mask="url(#mask_0)">
			<g id="g">
				<path id="d" d="M222.08 867.2C227.84 867.2 233.44 868 238.88 869.12L245.44 870.88L249.12 871.84L253.44 872.48L257.12 872.8L360.32 872.8L362.08 872.96C402.24 873.6 434.56 906.24 434.56 946.56C434.56 973.92 419.68 997.76 397.6 1010.56C386.4 1017.44 373.28 1021.44 359.04 1021.44C357.92 1021.44 356.64 1021.28 355.36 1021.28L351.52 1021.44C350.24 1021.44 349.12 1021.28 347.84 1021.28L344 1021.44C342.72 1021.44 341.6 1021.28 340.32 1021.28L336.48 1021.44C335.2 1021.44 334.08 1021.28 332.8 1021.28L328.96 1021.44C327.68 1021.44 326.56 1021.28 325.28 1021.28L321.44 1021.44C320.16 1021.44 319.04 1021.28 317.76 1021.28L313.92 1021.44C312.64 1021.44 311.52 1021.28 310.24 1021.28L306.4 1021.44C305.12 1021.44 304 1021.28 302.72 1021.28L298.88 1021.44C297.6 1021.44 296.32 1021.28 295.2 1021.28L291.36 1021.44C290.08 1021.44 288.8 1021.28 287.68 1021.28L283.84 1021.44C282.56 1021.44 281.28 1021.28 280.16 1021.28L276.32 1021.44C275.04 1021.44 273.76 1021.28 272.64 1021.28L268.8 1021.44C267.52 1021.44 266.24 1021.28 265.12 1021.28L261.28 1021.44C260 1021.44 258.72 1021.28 257.6 1021.28L253.76 1021.44C252.48 1021.44 251.2 1021.28 250.08 1021.28L246.24 1021.44C244.96 1021.44 243.68 1021.28 242.56 1021.28L234.88 1021.28L228.16 1020.96L226.08 1020.96L221.6 1020.48L215.68 1019.68L212.48 1019.2L207.52 1018.4L202.72 1017.44L199.2 1016.64L192.8 1014.88L190.72 1014.24C160.16 1005.28 137.92 976.96 137.92 943.52C137.92 914.56 154.72 889.44 179.04 877.44C186.08 873.76 193.76 871.2 201.92 870.08C208.32 868.16 215.2 867.2 222.08 867.2Z" fill="url(#paint_linear_0)" fill-rule="nonzero" />
				<path id="f" d="M725.28 25.76L809.92 9.12L817.44 10.56C824.64 11.84 830.24 12.96 834.4 14.24L836.48 14.72C843.04 16.8 852.48 20.48 864.96 25.76C903.36 44.16 928.64 74.08 938.4 106.4C949.28 147.36 943.84 180.96 927.68 216.8L925.28 221.76C922.24 228.16 917.92 236.64 915.2 241.44L908.64 252.48L907.68 254.08C895.84 274.08 882.56 292.96 868 309.76C863.52 315.04 858.88 320.32 854.08 325.6L839.04 341.76L830.24 350.72C815.84 365.28 800.8 379.68 784.96 393.6L782.72 395.52L760.64 414.88L740.32 432.16L728.64 442.08L717.76 451.04C716.8 451.68 716 452.48 715.2 453.12L702.56 463.36L698.72 466.4L691.52 472.16L666.08 492.48L641.92 511.52C640.96 512.32 639.84 513.12 638.88 513.92C637.92 514.56 636.96 515.36 636 516C635.04 516.8 634.08 517.6 633.12 518.4L624.48 524.96L622.24 526.72C621.12 527.68 618.88 529.44 617.76 530.24L614.24 532.96L584.16 556.16L528.32 598.4L488.48 628.64L482.4 633.28C481.76 633.76 480.96 634.24 480.32 634.88L476.48 637.76L421.92 679.2L412.64 686.4L409.92 688.48L401.28 695.36C397.28 699.36 392.96 702.88 388.32 705.92C385.28 708.8 382.08 711.36 378.56 713.6C375.52 716.32 372.32 718.88 368.96 721.12C366.24 723.84 363.2 726.24 360 728.48C357.12 731.04 354.24 733.44 351.04 735.52C348.48 738.08 345.6 740.48 342.56 742.56C340 744.96 337.28 747.2 334.4 749.28C332 751.68 329.44 753.76 326.72 755.84C324.48 757.92 322.08 760 319.52 761.92C317.44 764 315.04 766.08 312.64 768C310.56 769.92 308.48 771.84 306.08 773.76C304.32 775.52 302.4 777.28 300.32 778.88C298.72 780.8 296.8 782.4 294.88 784C293.44 785.76 291.84 787.36 290.08 788.8C288.8 790.24 287.36 791.52 285.92 792.96C284.8 794.24 283.52 795.52 282.4 796.8C281.28 798.08 280.16 799.2 279.04 800.48C277.92 801.76 276.64 803.2 275.52 804.48C274.4 805.76 273.28 807.04 272.16 808.32C271.2 809.6 270.08 810.88 268.96 812.16C264.96 817.44 260.32 822.08 255.04 826.08C242.24 836.48 225.92 842.88 208.16 842.88C167.52 842.88 134.4 809.92 134.4 769.12C134.4 752.48 140 737.12 149.28 724.8L152.8 720.32L159.52 712.32L164.32 706.72L172.48 697.44L176.8 692.8L182.08 687.36L186.56 682.88L192.64 676.96L204.48 665.92L220.64 651.68L241.6 633.92L266.08 613.92L292.64 592.8L320.8 571.04L336 559.36L388 519.68L391.36 517.28L431.84 486.56L524.48 416C525.44 415.2 526.56 414.4 527.68 413.6L530.4 411.36L542.56 401.92L551.04 395.36L554.08 392.96C554.88 392.32 555.84 391.68 556.64 390.88L570.4 380.16C571.52 379.2 572.64 378.4 573.76 377.6L603.2 354.08L613.76 345.6L626.56 335.04L644 320.48L660.8 306.4L668.96 299.2L682.56 287.2L693.6 277.12C697.28 273.76 700.64 270.72 703.84 267.68L714.88 257.28L727.04 245.28L737.12 234.72L745.12 225.92L750.24 220L753.92 215.52L761.92 205.44L765.12 201.28L770.56 194.08L772.16 191.68L773.76 189.12C779.2 181.12 783.2 174.08 786.88 167.04L792.96 155.84C792.96 155.68 785.76 153.6 766.24 154.08C758.56 143.2 753.92 126.08 752.64 102.88C752.8 101.92 745.44 99.0402 737.44 96.1602L728 92.9602C721.6 90.7202 716.48 89.1202 716.48 89.1202L761.92 81.1202L725.28 25.76Z" fill="url(#paint_linear_1)" fill-rule="nonzero" />
				<path id="h" d="M289.6 789.12C274.88 804.32 263.04 818.4 253.92 831.68C244.8 844.8 238.24 856.64 233.92 867.04C229.76 874.08 228 884.64 228.8 898.88C229.92 920.16 238.08 941.12 238.08 941.12L273.44 1021.44L238.08 1021.44C181.76 1020.16 136.96 996.64 103.68 950.56C81.2802 912.48 76.6402 871.84 90.2402 828.64C99.8402 800.48 113.12 774.56 129.6 751.04C151.04 721.6 168.48 700.48 182.24 687.52C196 674.56 233.92 672.8 295.68 682.4L289.6 789.12Z" fill="url(#paint_linear_2)" fill-rule="evenodd" />
				<path id="j" d="M247.04 705.12C228.64 741.6 219.36 781.28 219.36 824.48C220.8 840.8 225.76 854.88 233.92 867.04C237.12 870.72 253.12 872.8 281.6 873.12L338.72 873.12L319.2 1021.44L238.08 1021.44C181.76 1020.16 136.96 996.64 103.68 950.56C81.2802 912.48 76.8002 871.84 90.2402 828.64C100 800.48 113.12 774.56 129.76 751.04C151.04 721.6 168.48 700.48 182.24 687.52C196.16 674.56 217.6 680.48 247.04 705.12Z" fill="url(#paint_linear_3)" fill-rule="evenodd" />
				<path id="l" d="M775.52 872.64C808.48 872.64 836.48 894.24 845.92 924.16C848.32 931.52 849.6 939.52 849.6 947.68C849.6 983.2 839.52 1013.28 806.08 1020.32C801.28 1021.44 781.12 1021.44 776 1021.44L667.36 1021.44C656.64 1021.44 646.4 1019.04 637.28 1014.88C610.24 1004 591.2 977.6 591.2 946.56C591.2 907.04 622.4 874.72 661.6 872.96L768.16 872.96C770.08 872.8 773.6 872.64 775.52 872.64Z" fill="url(#paint_linear_4)" fill-rule="nonzero" />
				<path id="n" d="M89.6002 201.28L92.9602 209.92C96.0002 216.32 99.2002 224.16 101.92 228.96L107.68 238.88L111.36 244.8C122.88 263.84 135.2 280.64 149.6 297.44C154.24 302.88 159.84 309.76 164.64 315.04L176.96 328.64L186.56 338.4C200.96 352.96 215.36 367.36 231.2 381.28L233.28 383.2L254.72 402.56L275.04 419.84L286.88 429.6L297.6 438.56C298.56 439.36 299.36 440 300.32 440.8L312.8 450.88L316.64 454.08L323.84 459.84L349.28 480.16L373.44 499.04C374.4 500 375.52 500.8 376.48 501.44C377.44 502.24 378.4 503.04 379.36 503.68C380.32 504.48 381.28 505.28 382.24 505.92L390.88 512.64L393.12 514.4C394.24 515.36 396.48 516.96 397.6 517.92L401.12 520.64L431.2 543.68L487.04 586.08L526.88 616.32L532.96 620.8C533.6 621.44 534.4 621.92 535.04 622.4L538.88 625.44L593.44 666.88L602.72 674.08L605.44 676.16L614.24 682.88C618.08 686.88 622.4 690.4 627.04 693.44C630.08 696.32 633.28 698.88 636.8 701.28C639.84 704 643.04 706.56 646.4 708.8C649.28 711.36 652.16 713.76 655.36 716C658.24 718.56 661.12 720.96 664.32 723.2C667.04 725.76 669.76 728 672.8 730.08C675.36 732.64 678.08 734.88 680.96 736.96C683.36 739.2 685.92 741.44 688.64 743.36C690.88 745.6 693.28 747.68 695.84 749.44C698.08 751.68 700.32 753.76 702.88 755.52C704.8 757.6 707.04 759.52 709.28 761.28C711.04 763.2 712.96 764.96 715.04 766.56C716.8 768.32 718.56 770.08 720.48 771.68C722.08 773.28 723.68 774.88 725.28 776.32C726.56 777.76 728 779.2 729.44 780.48C730.56 781.76 731.84 783.04 733.12 784.32C734.08 785.6 735.2 786.88 736.48 788C737.6 789.44 738.72 790.72 740 792C740.96 793.44 742.08 794.72 743.2 795.84C744.32 797.28 745.28 798.56 746.4 799.68C750.4 804.96 755.2 809.6 760.32 813.6C773.12 824.16 789.44 830.4 807.2 830.4C848 830.4 880.96 797.44 880.96 756.8C880.96 740.16 875.52 724.8 866.24 712.48L862.56 708L856 699.84L851.2 694.4L843.04 685.12L838.56 680.32L833.28 674.88L828.96 670.56L822.72 664.64L810.88 653.6L794.72 639.2L773.76 621.6L749.28 601.6L722.72 580.48L694.72 558.72L679.36 546.88L627.36 507.36C626.24 506.4 625.12 505.6 624 504.8L583.52 474.24L491.04 403.68C489.92 402.72 488.8 401.92 487.84 401.12L484.96 398.88L472.8 389.6L464.48 383.04L461.28 380.64C460.48 379.84 459.52 379.2 458.72 378.56L444.96 367.68C443.84 366.88 442.72 365.92 441.6 365.12L412.32 341.76L401.76 333.12L388.8 322.72L371.36 308.16L354.72 293.92L346.56 286.88L333.28 274.88L322.08 264.64C318.56 261.28 314.56 257.44 311.36 254.56L300.8 244.48L289.28 232.64L279.36 222.24L271.84 213.6L266.08 207.2L262.56 203.04L255.36 193.92L251.36 188.32L246.24 181.92L244.8 179.68L242.72 176.64C237.28 168.48 233.92 161.76 230.08 154.72L225.76 141.92L89.1203 98.4001C87.5203 104.48 84.9603 110.72 83.5203 116.32C75.6803 148.64 81.1202 175.36 89.6002 201.28Z" fill="url(#paint_linear_5)" fill-rule="evenodd" />
				<path id="p" d="M921.44 793.44C935.2 820.48 942.56 844.8 943.2 876.48C941.76 938.56 910.4 982.88 849.28 1009.44C835.68 1015.68 816.16 1019.52 790.72 1020.96L780.96 1021.44L752.96 1021.6L693.76 1021.6L677.6 872.96L719.2 873.28L750.4 873.28C757.44 873.12 762.56 873.12 765.44 872.96C774.4 872.32 783.36 870.4 792.32 866.88L819.52 850.88C862.56 825.6 895.84 806.88 919.2 794.72L921.44 793.44Z" fill="url(#paint_linear_6)" fill-rule="evenodd" />
				<path id="q" d="M305.92 249.44C267.2 211.84 241.76 179.68 229.44 152.96C221.76 135.84 226.72 118.88 232.48 103.04L254.24 72.96L253.76 34.0799C241.12 15.5199 232.96 6.39993 229.12 6.55993C198.56 8.31993 173.12 15.3599 154.56 26.7199C121.6 46.7199 84.0003 81.28 80.3203 138.88C76.4803 196.32 107.36 249.44 162.88 312.48L261.92 265.76L305.92 249.44Z" fill="rgb(215,6,22)" fill-rule="evenodd" />
				<path id="s" d="M857.28 701.92C878.4 725.6 894.24 746.56 905.28 764.64C929.44 804.8 942.24 833.92 943.2 876.48C941.76 938.56 910.4 982.88 849.28 1009.44C783.52 951.68 753.6 920.96 759.84 916.96C795.52 894.56 796 879.52 794.08 872.8C790.56 859.84 780.8 839.84 753.44 807.2L799.04 738.4L857.28 701.92Z" fill="url(#paint_linear_7)" fill-rule="evenodd" />
				<path id="u" d="M767.52 153.92L777.92 153.92C813.6 154.72 827.2 171.68 818.72 204.8C809.28 246.56 804.64 267.36 804.64 267.36L794.72 326.88L821.76 359.2C859.68 322.72 888.64 287.2 908.8 252.48C938.72 201.76 952.8 160.48 938.4 106.4C922.72 54.3999 867.04 9.11993 781.44 6.55994L769.92 6.55994L767.52 153.92Z" fill="url(#paint_linear_8)" fill-rule="evenodd" />
				<path id="w" d="M763.84 6.55994L749.28 154.08L234.08 154.08C231.52 154.24 227.52 154.56 225.12 154.56C184.32 154.56 151.36 121.44 151.36 80.8C151.36 42.7199 180.16 11.3599 217.12 7.51994L219.52 7.19994L224.16 6.87994L226.08 6.71994L228.16 6.71994L230.08 6.55994L763.84 6.55994Z" fill="url(#paint_linear_9)" fill-rule="nonzero" />
				<path id="y" d="M780.8 6.55994L784.32 6.71994L789.28 6.87994L794.4 7.19994C795.04 7.35994 795.68 7.35994 796.48 7.35994L798.56 7.67994C799.2 7.67994 800 7.83994 800.64 7.83994L804.32 8.31994C804.96 8.47994 805.76 8.47994 806.4 8.63994C807.2 8.79994 808 8.79994 808.8 8.95994L811.04 9.27993C845.76 15.3599 906.56 32.7999 934.24 95.3599C937.44 102.56 944.8 128.48 944.16 152.48C943.84 163.68 941.76 174.4 936.64 182.88C931.52 191.36 934.24 207.52 923.84 223.84C912.16 242.4 824.64 225.44 794.4 238.4C821.76 205.28 818.72 183.04 813.28 169.92C809.44 163.68 804.48 159.36 798.4 156.96L789.28 154.88L779.68 154.08L704.32 154.08L704.32 6.55994L780.8 6.55994Z" fill="url(#paint_linear_10)" fill-rule="nonzero" />
				<path id="aa" d="M189.12 173.44C210.88 160.48 226.4 154.08 236 154.08L395.36 154.08L395.36 160.32L395.36 6.55994L229.28 6.55994C204.16 7.35994 179.2 14.8799 154.56 29.1199C130.08 43.3599 125.12 80.16 139.84 139.52L155.84 182.08L189.12 173.44Z" fill="url(#paint_linear_11)" fill-rule="evenodd" />
				<path id="ac" d="M305.92 249.44C267.2 211.84 241.76 179.68 229.44 152.96C221.76 135.84 226.72 118.88 232.48 103.04L254.24 72.96L253.76 34.0799C241.12 15.5199 232.96 6.39993 229.12 6.55993C198.56 8.31993 173.12 15.3599 154.56 26.7199C121.6 46.7199 84.0003 81.28 80.3203 138.88C76.4803 196.32 107.36 249.44 162.88 312.48L261.92 265.76L305.92 249.44Z" fill="url(#paint_linear_12)" fill-rule="evenodd" />
			</g>
		</g>
	</g>
</svg>
