<svg width="16" height="16" viewBox="0 0 16 16" fill="none" xmlns="http://www.w3.org/2000/svg">
<mask id="mask0_3375_12624" style="mask-type:luminance" maskUnits="userSpaceOnUse" x="0" y="0" width="16" height="15">
<path d="M15.5 0H0.5V15H15.5V0Z" fill="white"/>
</mask>
<g mask="url(#mask0_3375_12624)">
<g opacity="0.318337">
<path d="M8.01261 12.7974C6.03896 12.9209 4.18977 12.8537 2.15868 10.5988C2.48101 11.7137 3.08007 12.5311 3.36775 12.8435C4.07479 13.7192 5.22833 14.4631 6.46302 14.8003C7.68615 15.1344 8.82571 14.9805 9.44275 14.8324C9.71957 14.7659 10.5952 14.4739 11.1601 14.1184C11.8543 13.6813 12.2729 13.2797 12.5004 13.001C11.1601 11.3715 9.98626 12.6738 8.01261 12.7974Z" fill="url(#paint0_linear_3375_12624)"/>
</g>
<g opacity="0.316134">
<path d="M2.05878 10.2062C2.13957 10.6162 2.36757 11.3042 2.66298 11.8154C2.95838 12.3267 4.28354 14.326 6.87636 14.1283C9.46916 13.9307 10.1195 14.6068 9.14687 14.8909C9.3101 14.8654 10.2034 14.7078 11.2303 14.0754C12.2572 13.443 10.1935 13.0524 6.87636 12.3815C4.36452 11.8734 3.58403 7.79966 4.61249 6.48079C4.85872 6.16504 4.33956 5.75402 3.05504 5.24777C2.64805 5.85238 2.35492 6.44718 2.17567 7.03213C1.99906 7.61343 1.92111 8.22536 1.90791 8.70642C1.8947 9.18749 1.96243 9.81681 2.05878 10.2062Z" fill="url(#paint1_linear_3375_12624)"/>
</g>
<g opacity="0.324787">
<path d="M13.9603 7.54183C13.8838 7.15783 13.631 6.3539 13.1623 5.56701C12.6935 4.7801 11.709 3.57079 9.96509 2.99989C8.2212 2.42899 4.90697 3.5356 4.78822 3.6086C3.5913 4.42335 6.08477 4.02053 9.218 5.14867C10.968 5.77879 11.6959 7.6912 11.6959 9.64741C11.6959 10.3689 13.1684 10.4177 13.8605 10.5396C13.9519 10.214 14.0681 9.69728 14.0899 9.08439C14.1117 8.4715 14.0369 7.92583 13.9603 7.54183Z" fill="url(#paint2_linear_3375_12624)"/>
</g>
<path d="M6.83518 4.49889C8.00124 4.69504 8.70762 5.10888 9.21802 5.53524L9.31152 5.61528L9.40077 5.69531L9.48622 5.77504L9.56823 5.85416L9.76074 6.04732L9.94027 6.23011L10.0098 6.29927L10.0786 6.36571C10.09 6.37655 10.1014 6.38725 10.1128 6.39783L10.1812 6.45964C6.14333 2.94143 1.60193 8.66812 7.343 8.12812C8.02648 8.06383 8.62707 7.98846 9.1723 7.97034L9.40219 7.96453C10.3067 7.94901 11.0314 8.02553 11.612 8.16079C10.7973 8.3298 9.7592 8.8338 8.48574 9.87597L8.15415 10.1498C7.94068 10.1724 7.73612 10.2029 7.54048 10.2411C4.5696 10.8869 2.42283 8.82717 2.36878 7.18488C2.36646 7.11445 2.36744 7.04463 2.37146 6.97546C2.62087 5.0955 4.74526 4.14733 6.83518 4.49889Z" fill="url(#paint3_radial_3375_12624)"/>
<path d="M13.1743 8.6682L13.1957 8.66809L13.2167 8.66851L13.2281 8.66896L13.2467 8.67005L13.2583 8.67096L13.2767 8.67277L13.3034 8.67624L13.3258 8.67996L13.3419 8.68309L13.3547 8.68589L13.3726 8.69027L13.3918 8.69556L13.4103 8.70128L13.4273 8.70712L13.4455 8.714L13.4628 8.72123L13.479 8.72852L13.4866 8.73218L13.5055 8.74185L13.5206 8.75019L13.5362 8.75946L13.5509 8.76873L13.5649 8.77822L13.5798 8.78896L13.5977 8.80276L13.6126 8.81508L13.627 8.82777L13.6451 8.84494L13.6587 8.85859L13.6737 8.87471L13.6876 8.89063L13.699 8.90441L13.7121 8.921L13.7224 8.93484L13.7345 8.95182L13.7425 8.96368L13.7534 8.98049L13.7651 8.9994L13.7754 9.01692L13.7865 9.037L13.7964 9.05573L13.8015 9.06583L13.8114 9.08626L13.8211 9.10719C13.8263 9.11876 13.8314 9.13057 13.8364 9.1426L13.8468 9.16882C13.8522 9.18265 13.8574 9.19672 13.8624 9.21108L13.8723 9.24005C13.8796 9.26237 13.8865 9.28535 13.8931 9.309L13.9 9.33427L13.9069 9.361C13.922 9.42201 13.9361 9.48278 13.9491 9.5433C14.0072 10.1179 13.8516 10.7347 13.515 11.4573L13.4768 11.5381C13.4185 11.6598 13.3552 11.7846 13.287 11.9126C13.2718 11.9403 13.2554 11.969 13.238 11.9983L13.1536 12.1348L13.092 12.229L12.9948 12.3711L12.8955 12.5102L12.7984 12.6412L12.7079 12.7592L12.6281 12.8593L12.583 12.9136L12.5458 12.9563L12.5108 12.9927L12.5004 13.0011C13.3848 10.9319 12.2125 9.37155 10.3697 11.1022L10.0786 11.3814L9.84334 11.6031L9.60834 11.8204L9.45198 11.9623L9.21814 12.1707L9.06288 12.3062L8.90823 12.4389L8.75431 12.5686L8.60122 12.695L8.44905 12.818L8.29792 12.9375L8.14792 13.0533L7.99915 13.1651L7.97495 13.183L8.3021 12.8565L8.51061 12.6151L8.71525 12.3808L8.91602 12.1538L9.20994 11.8266L9.40104 11.6175L9.58828 11.4156L9.77165 11.2209L9.95115 11.0333L10.1268 10.8529L10.2986 10.6797L10.4665 10.5137L10.6056 10.3726L10.6862 10.2958L10.7658 10.2209L10.9221 10.0765L11.0339 9.96164L11.1598 9.83962L11.2798 9.71955L11.4226 9.60023L11.4925 9.54327L11.6295 9.43473L11.6942 9.38487L11.8211 9.29018L11.8832 9.24535L11.9012 9.23252C11.9561 9.19355 12.01 9.1566 12.0628 9.12167L12.1022 9.09585L12.167 9.05446L12.2135 9.02561L12.2619 8.99641L12.3063 8.97035L12.3534 8.94356L12.3691 8.93484L12.3971 8.91948L12.425 8.90455L12.4549 8.88886L12.4846 8.87369L12.5255 8.85343L12.556 8.83885L12.5845 8.82563L12.613 8.81282L12.6555 8.79449L12.6918 8.77958L12.72 8.76854L12.754 8.75584L12.7802 8.74651C12.8003 8.73954 12.8201 8.73302 12.8397 8.72697L12.8616 8.72036L12.874 8.71677L12.8993 8.70981L12.9242 8.70338L12.9501 8.69719L12.9608 8.69481L12.9871 8.68928L13.0191 8.68337L13.031 8.68139L13.0428 8.67955C13.0844 8.6733 13.1246 8.6696 13.1635 8.66845L13.1743 8.6682Z" fill="url(#paint4_linear_3375_12624)"/>
<path d="M13.8743 9.149C13.9111 9.27839 13.9359 9.40925 13.9494 9.54238C13.936 9.48213 13.922 9.42168 13.9069 9.36098C13.6873 8.47738 13.0127 8.43884 11.8831 9.24534L11.8211 9.29017L11.6942 9.38485L11.6295 9.43471L11.4925 9.54325L11.4226 9.60021L11.2798 9.71953L11.1598 9.8396L11.0339 9.96163L10.9221 10.0764L10.7658 10.2209L10.6862 10.2958L10.6056 10.3725L10.4664 10.5137L10.2985 10.6797L10.1268 10.8529L9.95115 11.0333L9.77164 11.2208L9.58827 11.4156L9.40105 11.6175L9.20994 11.8266L8.91603 12.1537L8.71524 12.3808L8.51061 12.6151L8.30209 12.8565L7.97495 13.183C7.92385 13.2207 7.87302 13.2577 7.82244 13.2939L7.67148 13.4002C7.59643 13.4522 7.52199 13.5024 7.44828 13.5507L7.30175 13.6447C7.25324 13.6752 7.20505 13.7048 7.15721 13.7335L7.01478 13.8168C6.23727 14.2597 5.55976 14.4468 5.06806 14.2359L4.9586 14.1762L4.8525 14.1147L4.78841 14.0757L4.71765 14.0311L4.64073 13.9808L4.55817 13.9247C4.54397 13.9149 4.52955 13.9048 4.51493 13.8945L4.42488 13.8295L4.33047 13.7586L4.23222 13.6815C4.19889 13.6548 4.16501 13.6271 4.13065 13.5982L4.02628 13.5087C3.92067 13.416 3.81162 13.3137 3.70146 13.2015L3.64267 13.141L3.5319 13.0235C3.51417 13.0043 3.49682 12.9854 3.47982 12.9666L3.38208 12.8565C3.33531 12.8027 3.29162 12.7508 3.25084 12.7009L3.17308 12.6038C3.16075 12.5881 3.14872 12.5726 3.13699 12.5574L3.07018 12.4686L3.01022 12.3855L2.95677 12.3084L2.88803 12.2041L2.83198 12.1139L2.78743 12.0385L2.7216 11.9226L2.78648 11.9886C2.79732 11.9994 2.80816 12.0099 2.81901 12.0204L2.8843 12.0814L2.94998 12.1391C2.96097 12.1484 2.97197 12.1576 2.98301 12.1667L3.04949 12.2191C3.06063 12.2276 3.07179 12.2359 3.08298 12.244L3.15052 12.2912C3.16184 12.2987 3.1732 12.3061 3.18459 12.3134L3.25341 12.3551C3.50753 12.501 3.78174 12.5718 4.1001 12.5534L4.18804 12.5461C4.35133 12.5288 4.5262 12.4888 4.71567 12.4245L4.82048 12.387C4.85591 12.3737 4.89184 12.3596 4.92829 12.3446L5.03921 12.2973C5.05796 12.289 5.07685 12.2804 5.09588 12.2717L5.21167 12.2168C5.23124 12.2072 5.25097 12.1974 5.27082 12.1875L5.39174 12.1248L5.51619 12.057C5.53724 12.0453 5.55842 12.0333 5.57978 12.0212L5.70974 11.9455C5.7537 11.9193 5.79828 11.8923 5.84354 11.8644L5.98124 11.7779L6.12299 11.6858L6.26886 11.5883L6.419 11.4851L6.5735 11.3763C6.59961 11.3576 6.62593 11.3388 6.65242 11.3197L6.81364 11.2022C6.8409 11.1821 6.86835 11.1618 6.896 11.1413L7.06421 11.015L7.23723 10.8828L7.41514 10.7446L7.59805 10.6004L7.88206 10.3725L8.17796 10.1307C8.24504 10.0754 8.31306 10.0191 8.38199 9.96163C11.3461 7.49253 13.0585 7.91069 13.6653 8.72854L13.7058 8.78622C13.7446 8.84448 13.778 8.90441 13.806 8.96515L13.8323 9.02614C13.8487 9.06694 13.8627 9.10798 13.8743 9.149Z" fill="url(#paint5_radial_3375_12624)"/>
<path d="M8.56156 2.73042C6.99764 2.59357 5.37698 2.98868 4.0558 4.15561C2.73461 5.32256 2.4063 6.36656 2.37141 6.97755C2.6025 5.16771 4.7453 4.14729 6.83522 4.49885C8.92514 4.85041 9.53843 5.90123 10.1933 6.47018L12.5361 6.14016L11.6818 4.85041L11.9909 4.65023C10.1591 3.4598 8.81855 1.81244 7.6557 0C7.95471 0.901545 8.26216 1.82853 8.56137 2.73012L8.56156 2.73042Z" fill="url(#paint6_radial_3375_12624)"/>
<path fill-rule="evenodd" clip-rule="evenodd" d="M2.37141 6.97749C2.51167 4.75193 5.20554 4.11568 6.91971 4.38928C8.63391 4.66288 9.44379 5.51496 10.1935 6.46999C10.0023 6.30497 9.66005 5.96141 9.49957 5.82568C8.51801 4.99546 7.64128 4.75027 6.57884 4.62653C4.42018 4.37512 2.55123 5.49648 2.37141 6.97749Z" fill="#FFE0E0"/>
<path fill-rule="evenodd" clip-rule="evenodd" d="M13.9493 9.54809C13.715 8.97647 13.3471 8.76418 12.8454 8.91122C11.4596 9.29732 8.56347 12.7425 7.97458 13.1833C9.03583 11.9114 11.2189 9.38047 12.4494 8.78177C13.2698 8.38264 13.7698 8.63808 13.9493 9.54809Z" fill="#FFE0E0"/>
</g>
<defs>
<linearGradient id="paint0_linear_3375_12624" x1="0.709088" y1="12.2365" x2="8.45205" y2="16.5932" gradientUnits="userSpaceOnUse">
<stop stop-color="#FF007F"/>
<stop offset="1" stop-color="#0039FF"/>
</linearGradient>
<linearGradient id="paint1_linear_3375_12624" x1="11.4418" y1="14.8909" x2="2.08049" y2="5.47684" gradientUnits="userSpaceOnUse">
<stop stop-color="#0038FF" stop-opacity="0.16"/>
<stop offset="0.650949" stop-color="#0C41FF" stop-opacity="0.875974"/>
<stop offset="1" stop-color="#0038FF" stop-opacity="0.16"/>
</linearGradient>
<linearGradient id="paint2_linear_3375_12624" x1="4.48254" y1="4.21462" x2="12.5978" y2="10.7184" gradientUnits="userSpaceOnUse">
<stop stop-color="#0038FF" stop-opacity="0.16"/>
<stop offset="1" stop-color="#0038FF" stop-opacity="0.878824"/>
</linearGradient>
<radialGradient id="paint3_radial_3375_12624" cx="0" cy="0" r="1" gradientUnits="userSpaceOnUse" gradientTransform="translate(10.4836 9.50383) rotate(33.7141) scale(8.63938 13.4545)">
<stop stop-color="#2C54DC" stop-opacity="0"/>
<stop offset="0.138066" stop-color="#2E55DC" stop-opacity="0.0249126"/>
<stop offset="0.768766" stop-color="#4468E5"/>
<stop offset="1" stop-color="#3D68F8"/>
</radialGradient>
<linearGradient id="paint4_linear_3375_12624" x1="11.6174" y1="9.87821" x2="12.1441" y2="12.2059" gradientUnits="userSpaceOnUse">
<stop offset="0.000273164" stop-color="#5B75FF"/>
<stop offset="1" stop-color="#26345A"/>
</linearGradient>
<radialGradient id="paint5_radial_3375_12624" cx="0" cy="0" r="1" gradientUnits="userSpaceOnUse" gradientTransform="translate(3.90514 14.3225) rotate(125.511) scale(10.8608 19.5745)">
<stop stop-color="#5B75FF"/>
<stop offset="0.0886287" stop-color="#5B75FF"/>
<stop offset="0.447665" stop-color="#EB4444"/>
<stop offset="0.711528" stop-color="#FF8E8E"/>
<stop offset="1" stop-color="#EB4444"/>
</radialGradient>
<radialGradient id="paint6_radial_3375_12624" cx="0" cy="0" r="1" gradientUnits="userSpaceOnUse" gradientTransform="translate(4.44344 6.17151) rotate(71.0949) scale(6.63541 9.66623)">
<stop stop-color="#EB4444"/>
<stop offset="0.215636" stop-color="#5B75FF"/>
<stop offset="0.536175" stop-color="#B76AD2"/>
<stop offset="1" stop-color="#EB4444"/>
</radialGradient>
</defs>
</svg>
