<svg viewBox="0 0 16 16" xmlns="http://www.w3.org/2000/svg" xmlns:xlink="http://www.w3.org/1999/xlink" width="16.000000" height="16.000000" fill="none" customFrame="#000000">
	<rect id="third-party icon/cpp" width="16.000000" height="16.000000" x="0.000000" y="0.000000" />
	<path id="Shape" d="M8.60049 4.3C8.20049 4.1 7.75049 4 7.25049 4C6.75049 4 6.25049 4.05 5.80049 4.25C5.35049 4.45 4.95049 4.7 4.60049 5.05C4.25049 5.4 4.00049 5.8 3.80049 6.3C3.60049 6.8 3.50049 7.35 3.50049 8C3.50049 8.65 3.60049 9.2 3.85049 9.7L4.02542 10.1251C4.17702 10.4735 4.35049 10.8 4.60049 11.05C4.84549 11.295 5.11499 11.491 5.40899 11.638C5.53499 11.701 5.66549 11.755 5.80049 11.8C6.25049 11.95 6.75049 12.05 7.25049 12.05C7.75048 12.05 8.20048 11.95 8.60047 11.75L8.60049 11.75C9.00049 11.55 9.35049 11.3 9.70049 10.9L8.60049 9.65C8.45049 9.85 8.25049 10 8.05049 10.1C7.85049 10.2 7.60049 10.25 7.35049 10.25C6.80049 10.25 6.40049 10.05 6.05049 9.65C5.70049 9.3 5.55049 8.75 5.55049 8C5.55049 7.65 5.60049 7.35 5.70049 7.05C5.80049 6.75 5.90049 6.55 6.05049 6.35C6.20049 6.15 6.40049 6 6.60049 5.9C6.80049 5.8 7.00049 5.75 7.25049 5.75C7.55049 5.75 7.75049 5.85 7.95049 5.9C8.07049 5.93 8.17249 5.996 8.27809 6.0764L8.50049 6.25L9.60049 5C9.35049 4.75 9.00049 4.5 8.60049 4.3ZM11.4503 6.49999L11.4503 7.49999L12.4003 7.49999L12.4003 8.34999L11.4503 8.34999L11.4503 9.39999L10.6003 9.39999L10.6003 8.34999L9.65029 8.34999L9.65029 7.49999L10.6003 7.49999L10.6003 6.49999L11.4503 6.49999ZM8.45049 7.54996L8.45049 6.69996L7.75049 6.69996L7.75049 7.54996L6.95049 7.54996L6.95049 8.24996L7.75049 8.24996L7.75049 9.14996L8.45049 9.14996L8.45049 8.24996L9.25049 8.24996L9.25049 7.54996L8.45049 7.54996Z" fill="rgb(108,186,225)" fill-rule="evenodd" />
</svg>
