<svg viewBox="0 0 16 16" xmlns="http://www.w3.org/2000/svg" xmlns:xlink="http://www.w3.org/1999/xlink" width="16.000000" height="16.000000" fill="none" customFrame="#000000">
	<rect id="third-party icon/css" width="16.000000" height="16.000000" x="0.000000" y="0.000000" />
	<path id="Shape" d="M5.35 11.8L5.75 9.8L4.5 9.8L4.5 8.75L6 8.75L6.25 7.5L4.95 7.5L4.95 6.45L6.5 6.45L6.9 4.5L8.3 4.5L7.9 6.45L9.3 6.45L9.7 4.5L11.1 4.5L10.7 6.45L11.95 6.45L11.95 7.5L10.5 7.5L10.2 8.75L11.5 8.75L11.5 9.8L10 9.8L9.6 11.8L8.2 11.8L8.6 9.8L7.2 9.8L6.8 11.8L5.35 11.8ZM9.05 7.5L8.8 8.75L7.4 8.75L7.65 7.5L9.05 7.5Z" fill="rgb(108,186,225)" fill-rule="evenodd" />
</svg>
