<svg viewBox="0 0 16 16" xmlns="http://www.w3.org/2000/svg" xmlns:xlink="http://www.w3.org/1999/xlink" width="16.000000" height="16.000000" fill="none" customFrame="#000000">
	<rect id="third-party icon/csv" width="16.000000" height="16.000000" x="0.000000" y="0.000000" />
	<path id="Shape" d="M3.5 3.5L12.5 3.5L12.5 12.4L3.5 12.4L3.5 3.5ZM4.95 5.35L7.5 5.35L7.5 6L4.95 6L4.95 5.35ZM8.45 5.35L11 5.35L11 6L8.45 6L8.45 5.35ZM4.95 6.85L7.5 6.85L7.5 7.5L4.95 7.5L4.95 6.85ZM8.45 6.85L11 6.85L11 7.5L8.45 7.5L8.45 6.85ZM4.95 8.35L7.5 8.35L7.5 9L4.95 9L4.95 8.35ZM8.45 8.35L11 8.35L11 9L8.45 9L8.45 8.35ZM4.95 9.85L7.5 9.85L7.5 10.5L4.95 10.5L4.95 9.85ZM8.45 9.85L11 9.85L11 10.5L8.45 10.5L8.45 9.85Z" fill="rgb(119,200,87)" fill-rule="evenodd" />
</svg>
