<svg viewBox="0 0 128.493 128.493" xmlns="http://www.w3.org/2000/svg" xmlns:xlink="http://www.w3.org/1999/xlink" width="128.493408" height="128.493164" fill="none" customFrame="#000000">
	<rect width="128.000000" height="128.000000" x="0.000000" y="0.000000" fill="rgb(228,228,228)" fill-opacity="0" transform="matrix(0.999993,-0.00386184,0.00386184,0.999993,0,0.494141)" />
	<g>
		<g>
			<path d="M87.1326 0C87.935 0 88.5855 0.650478 88.5855 1.45288L88.5855 66.7036C88.5855 69.2853 86.4926 71.3782 83.9108 71.3782L4.1511 71.3782C1.85851 71.3782 0 69.5197 0 67.2271L0 0L87.1326 0Z" fill="rgb(243,243,243)" fill-rule="evenodd" transform="matrix(0.999993,-0.00386184,0.00386184,0.999993,22.9177,42.187)" />
			<path d="M0.640641 0.640641L87.1326 0.640641Q87.5387 0.640641 87.7418 0.8437Q87.9449 1.04676 87.9449 1.45288L87.9449 66.7036Q87.9449 67.539 87.6495 68.2521Q87.3541 68.9652 86.7633 69.5561Q86.1725 70.1469 85.4594 70.4422Q84.7463 70.7376 83.9108 70.7376L4.1511 70.7376Q2.39586 70.7376 1.51824 69.86Q0.64064 68.9824 0.64064 67.2271L0.640641 0.640641ZM0 0.640641L0 0L87.1326 0C87.935 0 88.5855 0.650478 88.5855 1.45288L88.5855 66.7036C88.5855 69.2853 86.4926 71.3782 83.9108 71.3782L4.1511 71.3782C1.85851 71.3782 0 69.5197 0 67.2271L0 0.640641Z" fill="rgb(129,129,129)" fill-opacity="0" fill-rule="evenodd" transform="matrix(0.999993,-0.00386184,0.00386184,0.999993,22.9177,42.187)" />
			<path d="M71.3069 0L71.3069 67.1558C71.3069 69.4483 69.4483 71.3069 67.1558 71.3069L4.1511 71.3069C1.85851 71.3069 0 69.4483 0 67.1558L0 1.45288C0 0.650478 0.650478 0 1.45288 0L71.3069 0Z" fill="rgb(255,255,255)" fill-rule="evenodd" transform="matrix(0.999993,-0.00386184,0.00386184,0.999993,16.3125,42.1714)" />
			<path d="M71.3069 67.1558L71.3069 0L1.45288 0C0.650478 0 0 0.650478 0 1.45288L0 67.1558C0 69.4483 1.85851 71.3069 4.1511 71.3069L67.1558 71.3069C69.4483 71.3069 71.3069 69.4483 71.3069 67.1558ZM70.6662 0.640641L1.45288 0.640641Q1.04676 0.640641 0.843701 0.843701Q0.640641 1.04676 0.640641 1.45288L0.64064 67.1558Q0.64064 68.911 1.51824 69.7886Q2.39586 70.6662 4.1511 70.6662L67.1558 70.6662Q67.8828 70.6662 68.5033 70.4092Q69.1239 70.1521 69.638 69.638Q70.1521 69.1239 70.4092 68.5033Q70.6662 67.8828 70.6662 67.1558L70.6662 0.640641Z" fill="rgb(129,129,129)" fill-opacity="0" fill-rule="evenodd" transform="matrix(0.999993,-0.00386184,0.00386184,0.999993,16.3125,42.1714)" />
			<path d="M0 0L70.6167 0C71.329 0 71.9916 0.365306 72.3718 0.967686L83.4427 18.507C83.8812 19.2016 83.3771 20.1061 82.5557 20.0986L16.4284 19.4975C15.1229 19.4856 13.899 18.8602 13.1244 17.8092L0 0Z" fill="rgb(255,255,255)" fill-rule="evenodd" transform="matrix(-0.999993,0.00386184,0.00386184,0.999993,87.6189,41.896)" />
			<path d="M1.26793 0.640641L70.6167 0.640641C70.8804 0.640641 71.1133 0.696387 71.3156 0.807881C71.5178 0.919381 71.6893 1.08663 71.8301 1.30964L82.901 18.8489C82.9429 18.9154 82.9648 18.9824 82.9667 19.0499C82.9685 19.1175 82.9503 19.1856 82.9121 19.2542C82.8738 19.3228 82.8255 19.3742 82.7671 19.4081C82.7087 19.4421 82.6401 19.4587 82.5616 19.458L16.4342 18.8568C15.8497 18.8515 15.3245 18.7299 14.8589 18.4919C14.3932 18.254 13.987 17.8997 13.6402 17.4291L1.26793 0.640641ZM0.472118 0.640641L13.1244 17.8092C13.899 18.8602 15.1229 19.4856 16.4284 19.4975L82.5557 20.0986C83.3771 20.1061 83.8812 19.2016 83.4427 18.507L72.3718 0.967686C71.9916 0.365306 71.329 0 70.6167 0L0 0L0.472118 0.640641Z" fill="rgb(129,129,129)" fill-opacity="0" fill-rule="evenodd" transform="matrix(-0.999993,0.00386184,0.00386184,0.999993,87.6189,41.896)" />
			<path d="M0 0L24.0806 0C24.7722 0 25.4184 0.34454 25.8039 0.918829L37.7909 18.7776C38.2536 19.4671 37.7596 20.3938 36.9292 20.3938L14.8611 20.3938C13.4191 20.3938 12.0804 19.6454 11.325 18.4171L0 0Z" fill="rgb(255,255,255)" fill-rule="evenodd" transform="matrix(0.999993,-0.00386184,0.00386184,0.999993,87.285,41.9385)" />
			<path d="M1.14601 0.640641L24.0806 0.640641C24.3356 0.640641 24.5624 0.693576 24.7609 0.799447C24.9595 0.905317 25.1299 1.06412 25.272 1.27586L37.259 19.1347C37.3032 19.2006 37.3271 19.2676 37.3305 19.3357C37.334 19.4037 37.317 19.4727 37.2796 19.5428C37.2423 19.6129 37.1944 19.6655 37.136 19.7006C37.0776 19.7356 37.0086 19.7531 36.9292 19.7531L14.8611 19.7531C14.5562 19.7531 14.261 19.716 13.9756 19.6416C13.6901 19.5672 13.4143 19.4556 13.1481 19.3069C12.882 19.1581 12.6425 18.9816 12.4296 18.7773C12.2167 18.5731 12.0304 18.3412 11.8707 18.0815L1.14601 0.640641ZM0.393942 0.640641L11.325 18.4171C12.0804 19.6454 13.4191 20.3938 14.8611 20.3938L36.9292 20.3938C37.7596 20.3938 38.2536 19.4671 37.7909 18.7776L25.8039 0.918829C25.4184 0.34454 24.7722 0 24.0806 0L0 0L0.393942 0.640641Z" fill="rgb(129,129,129)" fill-opacity="0" fill-rule="evenodd" transform="matrix(0.999993,-0.00386184,0.00386184,0.999993,87.285,41.9385)" />
		</g>
		<path d="M30.5907 0L30.5907 45.1838C30.5907 48.3874 28.0234 50.9845 24.8565 50.9845L0 50.9845L0 49.6954L24.8565 49.6954C27.3196 49.6954 29.3164 47.6755 29.3164 45.1838L29.3164 0L30.5907 0Z" fill="rgb(25,25,25)" fill-rule="evenodd" transform="matrix(0.999993,-0.00386184,0.00386184,0.999993,80.991,62.3564)" />
		<path d="M72.0155 0L72.0155 66.2285C72.0155 69.4246 69.4701 72.0155 66.3301 72.0155L5.68544 72.0155C2.54546 72.0155 5.33556e-15 69.4246 0 66.2285L0.0452773 20.7149L1.30869 20.7149L1.26343 66.2285C1.26343 68.7143 3.24323 70.7295 5.68544 70.7295L66.3301 70.7295C68.7723 70.7295 70.7521 68.7143 70.7521 66.2285L70.7521 1.28601L2.40052 1.28601L2.40052 0L72.0155 0Z" fill="rgb(25,25,25)" fill-rule="evenodd" transform="matrix(0.999993,-0.00386184,0.00386184,0.999993,15.905,41.5767)" />
		<path d="M70.3508 0C71.2282 0 72.0438 0.438339 72.5093 1.16011L84.0933 19.1183C84.4665 19.6969 84.2858 20.4595 83.6898 20.8217C83.4872 20.9448 83.253 21.0101 83.0141 21.0101L16.7776 21.0101C15.0499 21.0101 13.44 20.16 12.5014 18.7521L0 0L70.3508 0ZM2.34006 1.23585L70.3507 1.23585C70.7894 1.23585 71.1972 1.45502 71.43 1.8159L83.0139 19.7741L16.7775 19.7741C15.4817 19.7741 14.2743 19.1366 13.5703 18.0807L2.34006 1.23585Z" fill="rgb(25,25,25)" fill-rule="evenodd" transform="matrix(-0.999993,0.00386184,0.00386184,0.999993,87.9197,41.2983)" />
		<path d="M24.753 0C25.6343 0 26.455 0.42815 26.9311 1.13628L39.0139 19.1064C39.4001 19.6808 39.2256 20.4454 38.6241 20.8141C38.4155 20.9421 38.1728 21.0101 37.9249 21.0101L15.903 21.0231C14.0685 21.0231 12.371 20.096 11.4408 18.586L0 0.0130251L24.753 0ZM2.49304 1.21484L24.8101 1.21484C25.2507 1.21484 25.6611 1.42892 25.8991 1.78299L37.982 19.7531L16.1334 19.7531C14.7576 19.7531 13.4844 19.0578 12.7868 17.9253L2.49304 1.21484Z" fill="rgb(25,25,25)" fill-rule="evenodd" transform="matrix(0.999993,-0.00386184,0.00386184,0.999993,86.6454,41.3032)" />
		<g>
			<path d="M1.27334 0.636668L1.27334 9.55003C1.27334 9.90165 0.988291 10.1867 0.636668 10.1867C0.285046 10.1867 0 9.90165 0 9.55003L0 0.636668C0 0.285046 0.285046 0 0.636668 0C0.988291 0 1.27334 0.285046 1.27334 0.636668Z" fill="rgb(152,107,255)" fill-rule="evenodd" transform="matrix(0.999993,-0.00386184,0.00386184,0.999993,64.5957,15.2446)" />
			<path d="M1.27334 0.636669L1.27334 9.55002C1.27334 9.90165 0.988291 10.1867 0.636668 10.1867C0.285046 10.1867 0 9.90165 0 9.55002L0 0.636668C0 0.285046 0.285046 0 0.636668 0C0.988291 0 1.27334 0.285046 1.27334 0.636669Z" fill="rgb(152,107,255)" fill-rule="evenodd" transform="matrix(0.86795,0.496652,-0.496652,0.86795,88.3655,19.2412)" />
			<path d="M1.27334 0.636668L1.27334 9.55003C1.27334 9.90165 0.988291 10.1867 0.636668 10.1867C0.285046 10.1867 0 9.90165 0 9.55003L0 0.636668C0 0.285046 0.285046 0 0.636668 0C0.988291 0 1.27334 0.285046 1.27334 0.636668Z" fill="rgb(152,107,255)" fill-rule="evenodd" transform="matrix(0.864088,-0.503341,0.503341,0.864088,41.0308,20.061)" />
		</g>
		<g>
			<rect width="24.830080" height="6.366683" x="0.000000" y="0.000000" rx="1.281281" fill="rgb(152,107,255)" transform="matrix(0.999993,-0.00386184,0.00386184,0.999993,25.002,86.7905)" />
			<rect width="24.189440" height="5.726042" x="0.320320" y="0.320320" rx="0.960961" stroke="rgb(0,0,0)" stroke-opacity="0" stroke-width="0.640640616" transform="matrix(0.999993,-0.00386184,0.00386184,0.999993,25.002,86.7905)" />
			<rect width="18.622559" height="1.911917" x="0.000000" y="0.000000" rx="0.640000" fill="rgb(152,107,255)" fill-opacity="0.600000024" transform="matrix(0.999993,-0.00386184,0.00386184,0.999993,25.0413,96.9873)" />
			<rect width="9.311279" height="1.911917" x="0.000000" y="0.000000" rx="0.640000" fill="rgb(152,107,255)" fill-opacity="0.400000006" transform="matrix(0.999993,-0.00386184,0.00386184,0.999993,25.0635,102.723)" />
		</g>
	</g>
</svg>
