<svg viewBox="0 0 128 128" xmlns="http://www.w3.org/2000/svg" xmlns:xlink="http://www.w3.org/1999/xlink" width="128.000000" height="128.000000" fill="none" customFrame="#000000">
	<rect width="128.000000" height="128.000000" x="0.000000" y="0.000000" fill="rgb(228,228,228)" fill-opacity="0" />
	<g>
		<g>
			<path d="M109.889 41.7808C110.691 41.7808 111.342 42.4312 111.342 43.2336L111.342 108.484C111.342 111.066 109.249 113.159 106.667 113.159L26.9076 113.159C24.615 113.159 22.7565 111.3 22.7565 109.008L22.7565 41.7808L109.889 41.7808Z" fill-opacity="0" fill-rule="evenodd" />
			<path d="M23.3971 42.4214L109.889 42.4214Q110.295 42.4214 110.498 42.6245Q110.701 42.8275 110.701 43.2336L110.701 108.484Q110.701 109.32 110.406 110.033Q110.111 110.746 109.52 111.337Q108.929 111.928 108.216 112.223Q107.503 112.518 106.667 112.518L26.9076 112.518Q25.1523 112.518 24.2747 111.641Q23.3971 110.763 23.3971 109.008L23.3971 42.4214ZM22.7565 42.4214L22.7565 41.7808L109.889 41.7808C110.691 41.7808 111.342 42.4312 111.342 43.2336L111.342 108.484C111.342 111.066 109.249 113.159 106.667 113.159L26.9076 113.159C24.615 113.159 22.7565 111.3 22.7565 109.008L22.7565 42.4214Z" fill="rgb(129,129,129)" fill-opacity="0" fill-rule="evenodd" />
			<path d="M87.4583 41.7402L87.4583 108.896C87.4583 111.189 85.5998 113.047 83.3073 113.047L20.3026 113.047C18.01 113.047 16.1515 111.189 16.1515 108.896L16.1515 43.1931C16.1515 42.3907 16.802 41.7402 17.6044 41.7402L87.4583 41.7402Z" fill="rgb(42,42,42)" fill-rule="evenodd" />
			<path d="M87.4583 108.896L87.4583 41.7402L17.6044 41.7402C16.802 41.7402 16.1515 42.3907 16.1515 43.1931L16.1515 108.896C16.1515 111.189 18.01 113.047 20.3026 113.047L83.3073 113.047C85.5998 113.047 87.4583 111.189 87.4583 108.896ZM86.8177 42.3809L17.6044 42.3809Q17.1983 42.3809 16.9952 42.5839Q16.7921 42.787 16.7921 43.1931L16.7921 108.896Q16.7921 110.651 17.6697 111.529Q18.5473 112.406 20.3026 112.406L83.3073 112.406Q84.0343 112.406 84.6548 112.149Q85.2754 111.892 85.7895 111.378Q86.3036 110.864 86.5607 110.244Q86.8177 109.623 86.8177 108.896L86.8177 42.3809Z" fill="rgb(129,129,129)" fill-opacity="0" fill-rule="evenodd" />
			<path d="M0 0L70.6167 0C71.329 0 71.9916 0.365306 72.3718 0.967686L83.4427 18.507C83.8812 19.2016 83.3771 20.1061 82.5557 20.0986L16.4284 19.4975C15.1229 19.4856 13.899 18.8602 13.1244 17.8092L0 0Z" fill="rgb(42,42,42)" fill-rule="evenodd" transform="matrix(-1,0,0,1,87.4583,41.7402)" />
			<path d="M1.26793 0.640641L70.6167 0.640641C70.8804 0.640641 71.1133 0.696387 71.3156 0.807881C71.5178 0.919381 71.6893 1.08663 71.8301 1.30964L82.901 18.8489C82.9429 18.9154 82.9648 18.9824 82.9667 19.0499C82.9685 19.1175 82.9503 19.1856 82.9121 19.2542C82.8738 19.3228 82.8255 19.3742 82.7671 19.4081C82.7087 19.4421 82.6401 19.4587 82.5616 19.458L16.4342 18.8568C15.8497 18.8515 15.3245 18.7299 14.8589 18.4919C14.3932 18.254 13.987 17.8997 13.6402 17.4291L1.26793 0.640641ZM0.472118 0.640641L13.1244 17.8092C13.899 18.8602 15.1229 19.4856 16.4284 19.4975L82.5557 20.0986C83.3771 20.1061 83.8812 19.2016 83.4427 18.507L72.3718 0.967686C71.9916 0.365306 71.329 0 70.6167 0L0 0L0.472118 0.640641Z" fill="rgb(129,129,129)" fill-opacity="0" fill-rule="evenodd" transform="matrix(-1,0,0,1,87.4583,41.7402)" />
			<path d="M87.1243 41.7808L111.205 41.7808C111.896 41.7808 112.543 42.1253 112.928 42.6996L124.915 60.5584C125.378 61.2478 124.884 62.1745 124.053 62.1745L101.985 62.1745C100.543 62.1745 99.2046 61.4262 98.4493 60.1978L87.1243 41.7808Z" fill="rgb(42,42,42)" fill-rule="evenodd" />
			<path d="M88.2703 42.4214L111.205 42.4214C111.46 42.4214 111.687 42.4743 111.885 42.5802C112.084 42.6861 112.254 42.8449 112.396 43.0566L124.383 60.9154C124.427 60.9814 124.451 61.0484 124.455 61.1164C124.458 61.1844 124.441 61.2535 124.404 61.3236C124.367 61.3937 124.319 61.4463 124.26 61.4813C124.202 61.5164 124.133 61.5339 124.053 61.5339L101.985 61.5339C101.68 61.5339 101.385 61.4967 101.1 61.4223C100.814 61.348 100.539 61.2364 100.272 61.0876C100.006 60.9389 99.7668 60.7623 99.5538 60.5581C99.341 60.3539 99.1547 60.1219 98.995 59.8623L88.2703 42.4214ZM87.5182 42.4214L98.4493 60.1978C99.2046 61.4262 100.543 62.1745 101.985 62.1745L124.053 62.1745C124.884 62.1745 125.378 61.2478 124.915 60.5584L112.928 42.6996C112.543 42.1253 111.896 41.7808 111.205 41.7808L87.1243 41.7808L87.5182 42.4214Z" fill="rgb(129,129,129)" fill-opacity="0" fill-rule="evenodd" />
		</g>
		<path d="M111.342 62.1748L111.342 107.359C111.342 110.562 108.775 113.159 105.608 113.159L80.7515 113.159L80.7515 111.87L105.608 111.87C108.071 111.87 110.068 109.85 110.068 107.359L110.068 62.1748L111.342 62.1748Z" fill="rgb(134,138,153)" fill-rule="evenodd" />
		<path d="M87.7618 41.1436L87.7618 107.372C87.7618 110.568 85.2163 113.159 82.0763 113.159L21.4317 113.159C18.2917 113.159 15.7462 110.568 15.7462 107.372L15.7915 61.8585L17.0549 61.8585L17.0096 107.372C17.0096 109.858 18.9894 111.873 21.4317 111.873L82.0763 111.873C84.5185 111.873 86.4983 109.858 86.4983 107.372L86.4983 42.4296L18.1467 42.4296L18.1467 41.1436L87.7618 41.1436Z" fill="rgb(134,138,153)" fill-rule="evenodd" />
		<path d="M70.3508 0C71.2282 0 72.0438 0.438339 72.5093 1.16011L84.0933 19.1183C84.4665 19.6969 84.2858 20.4595 83.6898 20.8217C83.4872 20.9448 83.253 21.0101 83.0141 21.0101L16.7776 21.0101C15.0499 21.0101 13.44 20.16 12.5014 18.7521L0 0L70.3508 0ZM2.34006 1.23585L70.3507 1.23585C70.7894 1.23585 71.1972 1.45502 71.43 1.8159L83.0139 19.7741L16.7775 19.7741C15.4817 19.7741 14.2743 19.1366 13.5703 18.0807L2.34006 1.23585Z" fill="rgb(134,138,153)" fill-rule="evenodd" transform="matrix(-1,0,0,1,87.7615,41.1436)" />
		<path d="M111.24 41.1436C112.121 41.1436 112.942 41.5717 113.418 42.2798L125.501 60.25C125.887 60.8243 125.713 61.5889 125.111 61.9577C124.903 62.0856 124.66 62.1536 124.412 62.1536L102.39 62.1666C100.556 62.1666 98.858 61.2395 97.9279 59.7296L86.4871 41.1566L111.24 41.1436ZM88.9801 42.3584L111.297 42.3584C111.738 42.3584 112.148 42.5725 112.386 42.9265L124.469 60.8967L102.62 60.8967C101.245 60.8967 99.9715 60.2013 99.2739 59.0689L88.9801 42.3584Z" fill="rgb(134,138,153)" fill-rule="evenodd" />
		<g>
			<path d="M65.8117 15.6367L65.8117 24.55C65.8117 24.9016 65.5266 25.1867 65.175 25.1867C64.8234 25.1867 64.5383 24.9016 64.5383 24.55L64.5383 15.6367C64.5383 15.285 64.8234 15 65.175 15C65.5266 15 65.8117 15.285 65.8117 15.6367Z" fill="rgb(152,107,255)" fill-rule="evenodd" />
			<path d="M1.27334 0.636669L1.27334 9.55002C1.27334 9.90165 0.988291 10.1867 0.636668 10.1867C0.285046 10.1867 0 9.90165 0 9.55002L0 0.636668C0 0.285046 0.285046 0 0.636668 0C0.988291 0 1.27334 0.285046 1.27334 0.636669Z" fill="rgb(152,107,255)" fill-rule="evenodd" transform="matrix(0.866025,0.5,-0.5,0.866025,88.2924,19.0884)" />
			<path d="M1.27334 0.636668L1.27334 9.55003C1.27334 9.90165 0.988291 10.1867 0.636668 10.1867C0.285046 10.1867 0 9.90165 0 9.55003L0 0.636668C0 0.285046 0.285046 0 0.636668 0C0.988291 0 1.27334 0.285046 1.27334 0.636668Z" fill="rgb(152,107,255)" fill-rule="evenodd" transform="matrix(0.866026,-0.5,0.5,0.866025,40.9548,19.7251)" />
		</g>
		<g>
			<rect width="24.830080" height="6.366683" x="24.668457" y="86.392090" rx="1.281281" fill="rgb(152,107,255)" />
			<rect width="24.189440" height="5.726042" x="24.988777" y="86.712410" rx="0.960961" stroke="rgb(0,0,0)" stroke-opacity="0" stroke-width="0.640640616" />
			<rect width="18.622559" height="1.911917" x="24.668457" y="96.589355" rx="0.640000" opacity="0.599999964" fill="rgb(152,107,255)" />
			<rect width="9.311279" height="1.911917" x="24.668457" y="102.324707" rx="0.640000" opacity="0.399999976" fill="rgb(152,107,255)" />
		</g>
	</g>
</svg>
