<?xml version="1.0" encoding="UTF-8"?>
<svg width="16px" height="16px" viewBox="0 0 16 16" version="1.1" xmlns="http://www.w3.org/2000/svg" xmlns:xlink="http://www.w3.org/1999/xlink">
    <title>java</title>
    <g id="java" stroke="none" stroke-width="1" fill="none" fill-rule="evenodd">
        <path d="M5.34135969,1.5 C5.72242486,1.5 6.08211103,1.65951505 6.33530495,1.93357751 L6.42509461,2.04163252 L7.22175391,3.10977067 C7.28678484,3.19696228 7.37903323,3.25423202 7.47955843,3.27365225 L7.55620828,3.28099677 L12.6523077,3.28099677 C13.3568915,3.28099677 13.9290035,3.81426436 13.9938728,4.48872425 L14,4.61674435 L14,6.42080495 L2,6.5 L2,2.83574758 C2,2.1451702 2.5306659,1.57128041 3.21722675,1.50615351 L3.34769231,1.5 L5.34135969,1.5 Z" id="8" fill="#3078F0" fill-rule="nonzero"></path>
        <path d="M2.67589752,5.5 L13.3241025,5.5 C14.1525296,5.5 14.8241025,6.17157288 14.8241025,7 C14.8241025,7.05534273 14.8210397,7.11064305 14.8149281,7.16564729 L14.1482614,13.1656473 C14.063856,13.9252963 13.4217596,14.5 12.6574358,14.5 L3.34256419,14.5 C2.57824036,14.5 1.93614403,13.9252963 1.85173859,13.1656473 L1.18507192,7.16564729 C1.09358745,6.34228704 1.68688999,5.60065887 2.51025023,5.5091744 C2.56525447,5.50306282 2.62055479,5.5 2.67589752,5.5 Z" id="7" fill="#4E92F5"></path>
        <path d="M3.6593,12.0546 C3.9729,12.0546 4.2312,11.9608 4.4342,11.7732 C4.6372,11.5856 4.7387,11.2776 4.7387,10.8492 L4.7387,10.8492 L4.7387,8.9256 L4.0205,8.9256 L4.0205,10.7778 C4.0205,10.9934 3.9939,11.1509 3.9407,11.2503 C3.8875,11.3497 3.7965,11.3994 3.6677,11.3994 C3.5641,11.3994 3.4822,11.3679 3.422,11.3049 C3.3618,11.2419 3.3163,11.1474 3.2855,11.0214 L3.2855,11.0214 L2.6849,11.3364 C2.7381,11.58 2.8529,11.7606 3.0293,11.8782 C3.2057,11.9958 3.4157,12.0546 3.6593,12.0546 Z M5.6333,12 L5.8601,11.3784 L7.0235,11.3784 L7.2587,12 L8.0147,12 L6.7673,8.9256 L6.1331,8.9256 L4.9193,12 L5.6333,12 Z M6.7967,10.7778 L6.0827,10.7778 L6.4313,9.8202 L6.7967,10.7778 Z M9.4259,12 L10.6397,8.9256 L9.8627,8.9256 L9.1403,10.9836 L8.3885,8.9256 L7.5695,8.9256 L8.8169,12 L9.4259,12 Z M10.9085,12 L11.1353,11.3784 L12.2987,11.3784 L12.5339,12 L13.2899,12 L12.0425,8.9256 L11.4083,8.9256 L10.1945,12 L10.9085,12 Z M12.0719,10.7778 L11.3579,10.7778 L11.7065,9.8202 L12.0719,10.7778 Z" id="JAVA" fill="#FFFFFF" fill-rule="nonzero"></path>
    </g>
</svg>
