<?xml version="1.0" encoding="UTF-8"?>
<svg width="16px" height="16px" viewBox="0 0 16 16" version="1.1" xmlns="http://www.w3.org/2000/svg" xmlns:xlink="http://www.w3.org/1999/xlink">
    <title>build</title>
    <g id="build" stroke="none" stroke-width="1" fill="none" fill-rule="evenodd">
        <path d="M5.34135969,1.5 C5.72242486,1.5 6.08211103,1.65951505 6.33530495,1.93357751 L6.42509461,2.04163252 L7.22175391,3.10977067 C7.28678484,3.19696228 7.37903323,3.25423202 7.47955843,3.27365225 L7.55620828,3.28099677 L12.6523077,3.28099677 C13.3568915,3.28099677 13.9290035,3.81426436 13.9938728,4.48872425 L14,4.61674435 L14,6.42080495 L2,6.5 L2,2.83574758 C2,2.1451702 2.5306659,1.57128041 3.21722675,1.50615351 L3.34769231,1.5 L5.34135969,1.5 Z" id="4" fill="#3078F0" fill-rule="nonzero"></path>
        <path d="M2.67589752,5.5 L13.3241025,5.5 C14.1525296,5.5 14.8241025,6.17157288 14.8241025,7 C14.8241025,7.05534273 14.8210397,7.11064305 14.8149281,7.16564729 L14.1482614,13.1656473 C14.063856,13.9252963 13.4217596,14.5 12.6574358,14.5 L3.34256419,14.5 C2.57824036,14.5 1.93614403,13.9252963 1.85173859,13.1656473 L1.18507192,7.16564729 C1.09358745,6.34228704 1.68688999,5.60065887 2.51025023,5.5091744 C2.56525447,5.50306282 2.62055479,5.5 2.67589752,5.5 Z" id="2" fill="#4E92F5"></path>
        <path d="M5.58806211,9.87441715 L6.03660468,9.39804274 C6.26326386,9.39666718 6.44956992,9.21475743 6.47453161,8.9808122 L6.4773669,8.92993145 L7.29538291,8.06115795 C7.99987982,7.31294735 9.142095,7.31294735 9.84659192,8.06115795 L9.87824807,8.09477835 L9.49585788,8.09709902 C9.17928075,8.09902028 8.87618455,8.23343573 8.65232706,8.47118347 L8.43521882,8.70176316 C8.20038652,8.95116669 8.20038652,9.35552971 8.43521882,9.60493324 L10.4119379,11.7043067 C10.529354,11.8290085 10.529354,12.03119 10.4119379,12.1558918 L10.1759961,12.4064737 C10.0585799,12.5311754 9.86821072,12.5311754 9.75079457,12.4064737 L7.34863484,9.85551659 C7.1221347,9.85689118 6.93599137,10.0387374 6.91115799,10.2725277 L6.90834967,10.3233738 L6.45956922,10.8000008 C6.34215307,10.9247026 6.15178387,10.9247026 6.03436772,10.8000008 L5.58806211,10.3260022 C5.47064596,10.2013004 5.47064596,9.99911892 5.58806211,9.87441715 Z" id="Rectangle" fill="#FFFFFF"></path>
    </g>
</svg>
