<?xml version="1.0" encoding="UTF-8"?>
<svg width="16px" height="16px" viewBox="0 0 16 16" version="1.1" xmlns="http://www.w3.org/2000/svg" xmlns:xlink="http://www.w3.org/1999/xlink">
    <title>target-open</title>
    <g id="target-open" stroke="none" stroke-width="1" fill="none" fill-rule="evenodd">
        <path d="M4.34135969,1.5 C4.72242486,1.5 5.08211103,1.6642399 5.33530495,1.9464201 L5.42509461,2.0576757 L6.22175391,3.15745217 C6.28678484,3.2472264 6.37903323,3.30619247 6.47955843,3.32618793 L6.55620828,3.33375 L11.6523077,3.33375 C12.3568915,3.33375 12.9290035,3.88281301 12.9938728,4.57725043 L13,4.7090625 L12.9997812,4.999 L4.15895564,5 C3.32384282,5 2.583102,5.51778915 2.29006137,6.28766343 L2.23752727,6.44492069 L0.999781194,10.729 L1,2.8753125 C1,2.16428018 1.5306659,1.57339174 2.21722675,1.50633578 L2.34769231,1.5 L4.34135969,1.5 Z" id="3" fill="#3078F0" fill-rule="nonzero"></path>
        <path d="M4.77970752,6 L13.7732181,6 C14.4359598,6 14.9732181,6.5372583 14.9732181,7.2 C14.9732181,7.30805699 14.958623,7.41561891 14.9298286,7.51976879 L13.2027984,13.766474 C13.0829761,14.1998737 12.6886147,14.5 12.2389563,14.5 L2.05161846,14.5 C1.49933371,14.5 1.05161846,14.0522847 1.05161846,13.5 C1.05161846,13.4008697 1.06635823,13.3022904 1.09535427,13.2074957 L2.86717913,7.41499132 C3.12435838,6.57421298 3.90047524,6 4.77970752,6 Z" id="6" fill="#4E92F5"></path>
        <path d="M5.3036,12 L5.3036,9.5598 L6.2276,9.5598 L6.2276,8.9256 L3.6656,8.9256 L3.6656,9.5598 L4.5896,9.5598 L4.5896,12 L5.3036,12 Z M6.9962,12 L7.223,11.3784 L8.3864,11.3784 L8.6216,12 L9.3776,12 L8.1302,8.9256 L7.496,8.9256 L6.2822,12 L6.9962,12 Z M8.1596,10.7778 L7.4456,10.7778 L7.7942,9.8202 L8.1596,10.7778 Z M10.4234,12 L10.4234,10.9584 L10.8308,10.9584 L11.5112,11.9958 L12.3638,12 L11.5364,10.8072 C11.71,10.7204 11.843,10.6028 11.9354,10.4544 C12.0278,10.306 12.074,10.1352 12.074,9.942 C12.074,9.7404 12.0236,9.5626 11.9228,9.4086 C11.822,9.2546 11.6771,9.1356 11.4881,9.0516 C11.2991,8.9676 11.0772,8.9256 10.8224,8.9256 L10.8224,8.9256 L9.7052,8.9256 L9.7052,12 L10.4234,12 Z M10.7384,10.3578 L10.4234,10.3578 L10.4234,9.5304 L10.7384,9.5304 C11.1248,9.5304 11.318,9.6676 11.318,9.942 C11.318,10.0932 11.2613,10.2003 11.1479,10.2633 C11.0345,10.3263 10.898,10.3578 10.7384,10.3578 L10.7384,10.3578 Z" id="TAR" fill="#FFFFFF" fill-rule="nonzero"></path>
    </g>
</svg>
