<?xml version="1.0" encoding="UTF-8"?>
<svg width="16px" height="16px" viewBox="0 0 16 16" version="1.1" xmlns="http://www.w3.org/2000/svg" xmlns:xlink="http://www.w3.org/1999/xlink">
    <title>java-open</title>
    <g id="java-open" stroke="none" stroke-width="1" fill="none" fill-rule="evenodd">
        <path d="M4.34135969,1.5 C4.72242486,1.5 5.08211103,1.6642399 5.33530495,1.9464201 L5.42509461,2.0576757 L6.22175391,3.15745217 C6.28678484,3.2472264 6.37903323,3.30619247 6.47955843,3.32618793 L6.55620828,3.33375 L11.6523077,3.33375 C12.3568915,3.33375 12.9290035,3.88281301 12.9938728,4.57725043 L13,4.7090625 L12.9997812,4.999 L4.15895564,5 C3.32384282,5 2.583102,5.51778915 2.29006137,6.28766343 L2.23752727,6.44492069 L0.999781194,10.729 L1,2.8753125 C1,2.16428018 1.5306659,1.57339174 2.21722675,1.50633578 L2.34769231,1.5 L4.34135969,1.5 Z" id="3" fill="#3078F0" fill-rule="nonzero"></path>
        <path d="M4.77970752,6 L13.7732181,6 C14.4359598,6 14.9732181,6.5372583 14.9732181,7.2 C14.9732181,7.30805699 14.958623,7.41561891 14.9298286,7.51976879 L13.2027984,13.766474 C13.0829761,14.1998737 12.6886147,14.5 12.2389563,14.5 L2.05161846,14.5 C1.49933371,14.5 1.05161846,14.0522847 1.05161846,13.5 C1.05161846,13.4008697 1.06635823,13.3022904 1.09535427,13.2074957 L2.86717913,7.41499132 C3.12435838,6.57421298 3.90047524,6 4.77970752,6 Z" id="1" fill="#4E92F5"></path>
        <path d="M3.4093,12.0546 C3.7229,12.0546 3.9812,11.9608 4.1842,11.7732 C4.3872,11.5856 4.4887,11.2776 4.4887,10.8492 L4.4887,10.8492 L4.4887,8.9256 L3.7705,8.9256 L3.7705,10.7778 C3.7705,10.9934 3.7439,11.1509 3.6907,11.2503 C3.6375,11.3497 3.5465,11.3994 3.4177,11.3994 C3.3141,11.3994 3.2322,11.3679 3.172,11.3049 C3.1118,11.2419 3.0663,11.1474 3.0355,11.0214 L3.0355,11.0214 L2.4349,11.3364 C2.4881,11.58 2.6029,11.7606 2.7793,11.8782 C2.9557,11.9958 3.1657,12.0546 3.4093,12.0546 Z M5.3833,12 L5.6101,11.3784 L6.7735,11.3784 L7.0087,12 L7.7647,12 L6.5173,8.9256 L5.8831,8.9256 L4.6693,12 L5.3833,12 Z M6.5467,10.7778 L5.8327,10.7778 L6.1813,9.8202 L6.5467,10.7778 Z M9.1759,12 L10.3897,8.9256 L9.6127,8.9256 L8.8903,10.9836 L8.1385,8.9256 L7.3195,8.9256 L8.5669,12 L9.1759,12 Z M10.6585,12 L10.8853,11.3784 L12.0487,11.3784 L12.2839,12 L13.0399,12 L11.7925,8.9256 L11.1583,8.9256 L9.9445,12 L10.6585,12 Z M11.8219,10.7778 L11.1079,10.7778 L11.4565,9.8202 L11.8219,10.7778 Z" id="JAVA" fill="#FFFFFF" fill-rule="nonzero"></path>
    </g>
</svg>
