<?xml version="1.0" encoding="UTF-8"?>
<svg width="16px" height="16px" viewBox="0 0 16 16" version="1.1" xmlns="http://www.w3.org/2000/svg" xmlns:xlink="http://www.w3.org/1999/xlink">
    <title>dir</title>
    <g id="dir" stroke="none" stroke-width="1" fill="none" fill-rule="evenodd">
        <path d="M5.34135969,1.5 C5.72242486,1.5 6.08211103,1.6642399 6.33530495,1.9464201 L6.42509461,2.0576757 L7.22175391,3.15745217 C7.28678484,3.2472264 7.37903323,3.30619247 7.47955843,3.32618793 L7.55620828,3.33375 L12.6523077,3.33375 C13.3568915,3.33375 13.9290035,3.88281301 13.9938728,4.57725043 L14,4.7090625 L14,6.56655948 L2,6.64810029 L2,2.8753125 C2,2.16428018 2.5306659,1.57339174 3.21722675,1.50633578 L3.34769231,1.5 L5.34135969,1.5 Z" id="3" fill="#3078F0" fill-rule="nonzero"></path>
        <path d="M2.53026498,5.5 L13.499735,5.5 C14.3281621,5.5 14.999735,6.17157288 14.999735,7 C14.999735,7.05663692 14.9965273,7.11322839 14.9901272,7.16950254 L14.3077463,13.1695025 C14.2215438,13.9274585 13.5801962,14.5 12.8173541,14.5 L3.21264593,14.5 C2.44980379,14.5 1.8084562,13.9274585 1.72225374,13.1695025 L1.03987279,7.16950254 C0.946259121,6.34638166 1.53764156,5.60322148 2.36076244,5.50960781 C2.41703659,5.50320774 2.47362806,5.5 2.53026498,5.5 Z" id="2" fill="#4E92F5"></path>
    </g>
</svg>
