<?xml version="1.0" encoding="UTF-8"?>
<svg width="16px" height="16px" viewBox="0 0 16 16" version="1.1" xmlns="http://www.w3.org/2000/svg" xmlns:xlink="http://www.w3.org/1999/xlink">
    <title>target</title>
    <g id="target" stroke="none" stroke-width="1" fill="none" fill-rule="evenodd">
        <path d="M5.34135969,1.5 C5.72242486,1.5 6.08211103,1.65951505 6.33530495,1.93357751 L6.42509461,2.04163252 L7.22175391,3.10977067 C7.28678484,3.19696228 7.37903323,3.25423202 7.47955843,3.27365225 L7.55620828,3.28099677 L12.6523077,3.28099677 C13.3568915,3.28099677 13.9290035,3.81426436 13.9938728,4.48872425 L14,4.61674435 L14,6.42080495 L2,6.5 L2,2.83574758 C2,2.1451702 2.5306659,1.57128041 3.21722675,1.50615351 L3.34769231,1.5 L5.34135969,1.5 Z" id="7" fill="#3078F0" fill-rule="nonzero"></path>
        <path d="M2.67589752,5.5 L13.3241025,5.5 C14.1525296,5.5 14.8241025,6.17157288 14.8241025,7 C14.8241025,7.05534273 14.8210397,7.11064305 14.8149281,7.16564729 L14.1482614,13.1656473 C14.063856,13.9252963 13.4217596,14.5 12.6574358,14.5 L3.34256419,14.5 C2.57824036,14.5 1.93614403,13.9252963 1.85173859,13.1656473 L1.18507192,7.16564729 C1.09358745,6.34228704 1.68688999,5.60065887 2.51025023,5.5091744 C2.56525447,5.50306282 2.62055479,5.5 2.67589752,5.5 Z" id="6" fill="#4E92F5"></path>
        <path d="M5.3036,12 L5.3036,9.5598 L6.2276,9.5598 L6.2276,8.9256 L3.6656,8.9256 L3.6656,9.5598 L4.5896,9.5598 L4.5896,12 L5.3036,12 Z M6.9962,12 L7.223,11.3784 L8.3864,11.3784 L8.6216,12 L9.3776,12 L8.1302,8.9256 L7.496,8.9256 L6.2822,12 L6.9962,12 Z M8.1596,10.7778 L7.4456,10.7778 L7.7942,9.8202 L8.1596,10.7778 Z M10.4234,12 L10.4234,10.9584 L10.8308,10.9584 L11.5112,11.9958 L12.3638,12 L11.5364,10.8072 C11.71,10.7204 11.843,10.6028 11.9354,10.4544 C12.0278,10.306 12.074,10.1352 12.074,9.942 C12.074,9.7404 12.0236,9.5626 11.9228,9.4086 C11.822,9.2546 11.6771,9.1356 11.4881,9.0516 C11.2991,8.9676 11.0772,8.9256 10.8224,8.9256 L10.8224,8.9256 L9.7052,8.9256 L9.7052,12 L10.4234,12 Z M10.7384,10.3578 L10.4234,10.3578 L10.4234,9.5304 L10.7384,9.5304 C11.1248,9.5304 11.318,9.6676 11.318,9.942 C11.318,10.0932 11.2613,10.2003 11.1479,10.2633 C11.0345,10.3263 10.898,10.3578 10.7384,10.3578 L10.7384,10.3578 Z" id="TAR" fill="#FFFFFF" fill-rule="nonzero"></path>
    </g>
</svg>
