<?xml version="1.0" encoding="UTF-8"?>
<svg width="16px" height="16px" viewBox="0 0 16 16" version="1.1" xmlns="http://www.w3.org/2000/svg" xmlns:xlink="http://www.w3.org/1999/xlink">
    <title>src</title>
    <g id="src" stroke="none" stroke-width="1" fill="none" fill-rule="evenodd">
        <path d="M5.34135969,1.5 C5.72242486,1.5 6.08211103,1.65951505 6.33530495,1.93357751 L6.42509461,2.04163252 L7.22175391,3.10977067 C7.28678484,3.19696228 7.37903323,3.25423202 7.47955843,3.27365225 L7.55620828,3.28099677 L12.6523077,3.28099677 C13.3568915,3.28099677 13.9290035,3.81426436 13.9938728,4.48872425 L14,4.61674435 L14,6.42080495 L2,6.5 L2,2.83574758 C2,2.1451702 2.5306659,1.57128041 3.21722675,1.50615351 L3.34769231,1.5 L5.34135969,1.5 Z" id="4" fill="#3078F0" fill-rule="nonzero"></path>
        <path d="M2.67589752,5.5 L13.3241025,5.5 C14.1525296,5.5 14.8241025,6.17157288 14.8241025,7 C14.8241025,7.05534273 14.8210397,7.11064305 14.8149281,7.16564729 L14.1482614,13.1656473 C14.063856,13.9252963 13.4217596,14.5 12.6574358,14.5 L3.34256419,14.5 C2.57824036,14.5 1.93614403,13.9252963 1.85173859,13.1656473 L1.18507192,7.16564729 C1.09358745,6.34228704 1.68688999,5.60065887 2.51025023,5.5091744 C2.56525447,5.50306282 2.62055479,5.5 2.67589752,5.5 Z" id="3" fill="#4E92F5"></path>
        <path d="M10,11 C10.2761424,11 10.5,11.2238576 10.5,11.5 C10.5,11.7761424 10.2761424,12 10,12 L8.5,12 C8.22385763,12 8,11.7761424 8,11.5 C8,11.2238576 8.22385763,11 8.5,11 L10,11 Z" id="2" fill="#FFFFFF" fill-rule="nonzero"></path>
        <path d="M5.61588936,7.6799078 C5.77302895,7.49134029 6.03960089,7.4477418 6.24589071,7.56454092 L6.3200922,7.61588936 L8.3200922,9.28255603 C8.53331626,9.46024274 8.55700782,9.77108787 8.39116689,9.97836534 L8.3200922,10.0507773 L6.3200922,11.717444 C6.10795375,11.894226 5.7926714,11.865564 5.61588936,11.6534255 C5.45874977,11.464858 5.46393636,11.1947941 5.61602054,11.0129482 L5.6799078,10.9492227 L7.218,9.666 L5.6799078,8.38411064 C5.49134029,8.22697105 5.4477418,7.96039911 5.56454092,7.75410929 L5.61588936,7.6799078 Z" id="1" fill="#FFFFFF" fill-rule="nonzero"></path>
    </g>
</svg>
