<?xml version="1.0" encoding="UTF-8"?>
<svg width="16px" height="16px" viewBox="0 0 16 16" version="1.1" xmlns="http://www.w3.org/2000/svg" xmlns:xlink="http://www.w3.org/1999/xlink">
    <title>resources</title>
    <g id="resources" stroke="none" stroke-width="1" fill="none" fill-rule="evenodd">
        <path d="M5.34135969,1.5 C5.72242486,1.5 6.08211103,1.65951505 6.33530495,1.93357751 L6.42509461,2.04163252 L7.22175391,3.10977067 C7.28678484,3.19696228 7.37903323,3.25423202 7.47955843,3.27365225 L7.55620828,3.28099677 L12.6523077,3.28099677 C13.3568915,3.28099677 13.9290035,3.81426436 13.9938728,4.48872425 L14,4.61674435 L14,6.42080495 L2,6.5 L2,2.83574758 C2,2.1451702 2.5306659,1.57128041 3.21722675,1.50615351 L3.34769231,1.5 L5.34135969,1.5 Z" id="1" fill="#3078F0" fill-rule="nonzero"></path>
        <path d="M2.67589752,5.5 L13.3241025,5.5 C14.1525296,5.5 14.8241025,6.17157288 14.8241025,7 C14.8241025,7.05534273 14.8210397,7.11064305 14.8149281,7.16564729 L14.1482614,13.1656473 C14.063856,13.9252963 13.4217596,14.5 12.6574358,14.5 L3.34256419,14.5 C2.57824036,14.5 1.93614403,13.9252963 1.85173859,13.1656473 L1.18507192,7.16564729 C1.09358745,6.34228704 1.68688999,5.60065887 2.51025023,5.5091744 C2.56525447,5.50306282 2.62055479,5.5 2.67589752,5.5 Z" id="2" fill="#4E92F5"></path>
        <path d="M4.9886,12 L4.9886,10.9584 L5.396,10.9584 L6.0764,11.9958 L6.929,12 L6.1016,10.8072 C6.2752,10.7204 6.4082,10.6028 6.5006,10.4544 C6.593,10.306 6.6392,10.1352 6.6392,9.942 C6.6392,9.7404 6.5888,9.5626 6.488,9.4086 C6.3872,9.2546 6.2423,9.1356 6.0533,9.0516 C5.8643,8.9676 5.6424,8.9256 5.3876,8.9256 L5.3876,8.9256 L4.2704,8.9256 L4.2704,12 L4.9886,12 Z M5.3036,10.3578 L4.9886,10.3578 L4.9886,9.5304 L5.3036,9.5304 C5.69,9.5304 5.8832,9.6676 5.8832,9.942 C5.8832,10.0932 5.8265,10.2003 5.7131,10.2633 C5.5997,10.3263 5.4632,10.3578 5.3036,10.3578 L5.3036,10.3578 Z M9.3398,12 L9.3398,11.3784 L7.9496,11.3784 L7.9496,10.761 L9.1508,10.761 L9.1508,10.1478 L7.9496,10.1478 L7.9496,9.543 L9.2894,9.543 L9.2894,8.9256 L7.2314,8.9256 L7.2314,12 L9.3398,12 Z M10.7762,12.0546 C10.9638,12.0546 11.1472,12.0231 11.3264,11.9601 C11.5056,11.8971 11.6547,11.7942 11.7737,11.6514 C11.8927,11.5086 11.9522,11.3238 11.9522,11.097 C11.9522,10.9038 11.9046,10.747 11.8094,10.6266 C11.7142,10.5062 11.6022,10.4159 11.4734,10.3557 C11.3446,10.2955 11.1766,10.2346 10.9694,10.173 C10.835,10.131 10.7314,10.096 10.6586,10.068 C10.5858,10.04 10.5249,10.0036 10.4759,9.9588 C10.4269,9.914 10.4024,9.8594 10.4024,9.795 C10.4024,9.711 10.4381,9.6424 10.5095,9.5892 C10.5809,9.536 10.674,9.5094 10.7888,9.5094 C10.9232,9.5094 11.0373,9.5444 11.1311,9.6144 C11.2249,9.6844 11.2942,9.7824 11.339,9.9084 L11.339,9.9084 L11.927,9.5766 C11.8682,9.3498 11.738,9.1748 11.5364,9.0516 C11.3348,8.9284 11.0996,8.8668 10.8308,8.8668 C10.6264,8.8668 10.4353,8.9018 10.2575,8.9718 C10.0797,9.0418 9.9355,9.1482 9.8249,9.291 C9.7143,9.4338 9.659,9.6116 9.659,9.8244 C9.659,10.0176 9.7052,10.1737 9.7976,10.2927 C9.89,10.4117 9.9999,10.5006 10.1273,10.5594 C10.2547,10.6182 10.4192,10.677 10.6208,10.7358 C10.758,10.775 10.8644,10.81 10.94,10.8408 C11.0156,10.8716 11.0786,10.9108 11.129,10.9584 C11.1794,11.006 11.2046,11.0662 11.2046,11.139 C11.2046,11.2286 11.1675,11.2965 11.0933,11.3427 C11.0191,11.3889 10.9218,11.412 10.8014,11.412 C10.639,11.412 10.4983,11.3728 10.3793,11.2944 C10.2603,11.216 10.17,11.1054 10.1084,10.9626 L10.1084,10.9626 L9.5288,11.2944 C9.6072,11.5408 9.764,11.7291 9.9992,11.8593 C10.2344,11.9895 10.4934,12.0546 10.7762,12.0546 Z" id="RES" fill="#FFFFFF" fill-rule="nonzero"></path>
    </g>
</svg>
