<?xml version="1.0" encoding="UTF-8"?>
<svg width="16px" height="16px" viewBox="0 0 16 16" version="1.1" xmlns="http://www.w3.org/2000/svg" xmlns:xlink="http://www.w3.org/1999/xlink">
    <title>arts-open</title>
    <defs>
        <filter id="filter-1">
            <feColorMatrix in="SourceGraphic" type="matrix" values="0 0 0 0 1.000000 0 0 0 0 1.000000 0 0 0 0 1.000000 0 0 0 1.000000 0"></feColorMatrix>
        </filter>
        <linearGradient x1="-14.0168931%" y1="37.8421627%" x2="79.2120776%" y2="59.0643022%" id="linearGradient-2">
            <stop stop-color="#FF007F" offset="0%"></stop>
            <stop stop-color="#0039FF" offset="100%"></stop>
        </linearGradient>
        <linearGradient x1="0%" y1="1.93175451%" x2="98.169799%" y2="96.3087544%" id="linearGradient-3">
            <stop stop-color="#0038FF" stop-opacity="0.16" offset="0%"></stop>
            <stop stop-color="#0C41FF" stop-opacity="0.87597385" offset="65.094932%"></stop>
            <stop stop-color="#0038FF" stop-opacity="0.16" offset="100%"></stop>
        </linearGradient>
        <linearGradient x1="0%" y1="19.4717582%" x2="98.169799%" y2="79.4107854%" id="linearGradient-4">
            <stop stop-color="#0038FF" stop-opacity="0.16" offset="0%"></stop>
            <stop stop-color="#0038FF" stop-opacity="0.878824301" offset="100%"></stop>
        </linearGradient>
        <radialGradient cx="87.7937724%" cy="85.5317674%" fx="87.7937724%" fy="85.5317674%" r="145.392752%" gradientTransform="translate(0.877938,0.855318),scale(0.643068,1.000000),rotate(-146.246809),translate(-0.877938,-0.855318)" id="radialGradient-5">
            <stop stop-color="#2C54DC" stop-opacity="0" offset="0%"></stop>
            <stop stop-color="#2E55DC" stop-opacity="0.0249125874" offset="13.8066408%"></stop>
            <stop stop-color="#4468E5" offset="76.876639%"></stop>
            <stop stop-color="#3D68F8" offset="100%"></stop>
        </radialGradient>
        <linearGradient x1="60.8482144%" y1="27.9480364%" x2="75.7641888%" y2="75.2126673%" id="linearGradient-6">
            <stop stop-color="#5B75FF" offset="0.0273164336%"></stop>
            <stop stop-color="#26345A" offset="100%"></stop>
        </linearGradient>
        <radialGradient cx="10.5412073%" cy="100%" fx="10.5412073%" fy="100%" r="175.860866%" gradientTransform="translate(0.105412,1.000000),scale(0.540971,1.000000),rotate(-53.800516),translate(-0.105412,-1.000000)" id="radialGradient-7">
            <stop stop-color="#5B75FF" offset="0%"></stop>
            <stop stop-color="#5B75FF" offset="8.86287053%"></stop>
            <stop stop-color="#EB4444" offset="44.7664777%"></stop>
            <stop stop-color="#FF8E8E" offset="71.1527559%"></stop>
            <stop stop-color="#EB4444" offset="100%"></stop>
        </radialGradient>
        <radialGradient cx="20.3847123%" cy="88.4481141%" fx="20.3847123%" fy="88.4481141%" r="95.3554362%" gradientTransform="translate(0.203847,0.884481),scale(0.669292,1.000000),rotate(-109.354220),translate(-0.203847,-0.884481)" id="radialGradient-8">
            <stop stop-color="#EB4444" offset="0%"></stop>
            <stop stop-color="#5B75FF" offset="21.5635927%"></stop>
            <stop stop-color="#B76AD2" offset="53.6174635%"></stop>
            <stop stop-color="#EB4444" offset="100%"></stop>
        </radialGradient>
    </defs>
    <g id="arts-open" stroke="none" stroke-width="1" fill="none" fill-rule="evenodd">
        <rect id="1" x="0" y="0" width="16" height="16"></rect>
        <path d="M4.34135969,1.5 C4.72242486,1.5 5.08211103,1.6642399 5.33530495,1.9464201 L5.42509461,2.0576757 L6.22175391,3.15745217 C6.28678484,3.2472264 6.37903323,3.30619247 6.47955843,3.32618793 L6.55620828,3.33375 L11.6523077,3.33375 C12.3568915,3.33375 12.9290035,3.88281301 12.9938728,4.57725043 L13,4.7090625 L12.9997812,4.999 L4.15895564,5 C3.32384282,5 2.583102,5.51778915 2.29006137,6.28766343 L2.23752727,6.44492069 L0.999781194,10.729 L1,2.8753125 C1,2.16428018 1.5306659,1.57339174 2.21722675,1.50633578 L2.34769231,1.5 L4.34135969,1.5 Z" id="3" fill="#3078F0" fill-rule="nonzero"></path>
        <path d="M4.77970752,6 L13.7732181,6 C14.4359598,6 14.9732181,6.5372583 14.9732181,7.2 C14.9732181,7.30805699 14.958623,7.41561891 14.9298286,7.51976879 L13.2027984,13.766474 C13.0829761,14.1998737 12.6886147,14.5 12.2389563,14.5 L2.05161846,14.5 C1.49933371,14.5 1.05161846,14.0522847 1.05161846,13.5 C1.05161846,13.4008697 1.06635823,13.3022904 1.09535427,13.2074957 L2.86717913,7.41499132 C3.12435838,6.57421298 3.90047524,6 4.77970752,6 Z" id="4" fill="#4E92F5"></path>
        <g filter="url(#filter-1)" id="tx">
            <g transform="translate(5.250000, 7.000000)">
                <path d="M2.71393018,5.54554278 C1.83675277,5.59907406 1.01488658,5.56994418 0.112178399,4.5928075 C0.255436103,5.07593495 0.521688651,5.43014081 0.649542686,5.56551177 C0.963785671,5.94500651 1.47646621,6.26736801 2.02521713,6.41349786 C2.56883113,6.55825977 3.07529981,6.49157664 3.34954057,6.42738095 C3.47257335,6.3985808 3.86175976,6.27205337 4.1128041,6.11797111 C4.42133902,5.92860313 4.60740897,5.75454366 4.70850324,5.63377906 C4.1128041,4.92767747 3.5911076,5.49201149 2.71393018,5.54554278 Z" id="7" fill="url(#linearGradient-2)" fill-rule="nonzero" opacity="0.318336664"></path>
                <path d="M4.19403279,4.30406517 C4.15812944,4.12635738 4.05679181,3.82826204 3.925502,3.60671958 C3.7942122,3.38517712 3.20524619,2.51880018 2.05288724,2.60445205 C0.900528292,2.69010393 0.611491329,2.39711733 1.04377051,2.27402048 C0.971224529,2.28506583 0.574181997,2.3533489 0.117784899,2.62739502 C-0.338612199,2.90144114 0.578594554,3.07067882 2.05288724,3.3614312 C3.16926494,3.58159744 3.51614833,5.34687992 3.05905172,5.91838925 C2.94961759,6.05521509 3.18035061,6.23331892 3.7512508,6.45270075 C3.9321361,6.19069532 4.06241534,5.9329511 4.14208852,5.67946808 C4.22057618,5.42757989 4.25521541,5.16240805 4.26108712,4.95394542 C4.26695884,4.7454828 4.23685659,4.47277304 4.19403279,4.30406517 Z" id="6" fill="url(#linearGradient-3)" fill-rule="nonzero" opacity="0.316133721" transform="translate(2.130910, 4.363361) scale(-1, -1) translate(-2.130910, -4.363361) "></path>
                <path d="M5.35736703,3.26812669 C5.3233411,3.10172732 5.21101187,2.75335745 5.0026794,2.41237027 C4.79434693,2.07138309 4.35675521,1.54734828 3.5816994,1.29995684 C2.80664359,1.0525654 1.33365179,1.5320984 1.28087334,1.56373192 C0.74891048,1.91678935 1.85711817,1.74223521 3.24965938,2.23109609 C4.02744557,2.50414312 4.35097297,3.3328576 4.35097297,4.18054265 C4.35097297,4.49318005 5.00539721,4.51431991 5.31299778,4.56714374 C5.35362012,4.42605379 5.40526346,4.20215753 5.41495909,3.93657219 C5.42465472,3.67098685 5.39139296,3.43452607 5.35736703,3.26812669 Z" id="5" fill="url(#linearGradient-4)" fill-rule="nonzero" opacity="0.324786519"></path>
                <path d="M2.19064462,1.87623165 C2.40075643,1.91069232 2.73046909,2.02505714 3.05168632,2.23335388 C3.18967153,2.32283185 3.39836505,2.5114337 3.67776688,2.79915942 C1.88315267,1.27460086 -0.13524587,3.75616116 2.41633938,3.5221623 C2.72011296,3.49430406 2.98703423,3.46164818 3.2293647,3.4537921 L3.33153796,3.45127274 C3.73353697,3.44455206 4.05564628,3.47771154 4.31366424,3.53632426 C3.95159444,3.60955847 3.49020902,3.8279639 2.92422514,4.27957094 L2.77684753,4.39824411 C2.68197329,4.40803692 2.59105986,4.42121875 2.50410725,4.4377896 C1.18371874,4.71764776 0.229598316,3.82508703 0.205575656,3.11342226 C0.204545615,3.08290757 0.204980258,3.05265186 0.206764656,3.02268261 C0.317618242,2.20803163 1.26179079,1.72388928 2.19064462,1.87623165 Z" id="4" fill="url(#radialGradient-5)" fill-rule="nonzero"></path>
                <path d="M5.00802916,3.75620803 L5.01751149,3.75616116 L5.01751149,3.75616116 L5.02686757,3.75634287 L5.03195057,3.75653983 L5.04019129,3.75701112 L5.04534718,3.75740427 L5.05351219,3.75818684 L5.06540524,3.75969184 L5.07537009,3.7613028 L5.08250773,3.76266256 L5.08819675,3.7638743 L5.09616935,3.76577057 L5.10469299,3.7680642 L5.11289044,3.77054187 L5.12044783,3.77307346 L5.12853305,3.77605736 L5.13625836,3.77918753 L5.14342626,3.7823479 L5.14681479,3.78393119 L5.15523712,3.78812556 L5.16193864,3.79173839 L5.1688834,3.79575377 L5.17537532,3.79976979 L5.18161788,3.80388301 L5.18825092,3.80853777 L5.19619342,3.81451929 L5.20280433,3.81985788 L5.20920142,3.82535489 L5.21728427,3.8327974 L5.2232914,3.83871247 L5.22996483,3.84569504 L5.23616419,3.85259624 L5.2412403,3.85856466 L5.24703752,3.86575445 L5.2516324,3.87175412 L5.25699122,3.87911042 L5.26057035,3.88425211 L5.26542348,3.89153512 L5.27060201,3.89972776 L5.2751571,3.90732066 L5.28011107,3.91602191 L5.28011107,3.91602191 L5.28449514,3.92413773 L5.28449514,3.92413773 L5.28677078,3.92851493 L5.29119442,3.93736767 L5.29119442,3.93736767 L5.29549423,3.94643892 C5.29780889,3.95145305 5.30006992,3.95656885 5.30227617,3.96178385 L5.30693347,3.97314455 L5.30693347,3.97314455 C5.30931384,3.97913834 5.31161798,3.98523494 5.31385402,3.99145486 L5.31821879,4.00400995 L5.31821879,4.00400995 C5.32146917,4.01368027 5.32456562,4.02364174 5.32750555,4.03388663 L5.33055964,4.04483904 L5.3336033,4.0564208 L5.3336033,4.0564208 C5.34034156,4.08285971 5.34660743,4.10919163 5.35240092,4.13541656 C5.37819068,4.38441481 5.30903336,4.65170917 5.15943625,4.96483063 L5.14248406,4.99981189 C5.11656144,5.05257086 5.08841931,5.10663113 5.05812483,5.16212016 C5.05136021,5.17411401 5.04406052,5.18653417 5.03631935,5.19927521 L4.99882021,5.25841998 L4.97144601,5.29920213 L4.92822683,5.36082235 L4.88410337,5.42108129 L4.84097144,5.477844 L4.80072684,5.52897558 L4.76526539,5.57234109 L4.74521792,5.59588267 L4.72870059,5.61439124 L4.71313969,5.63014687 L4.70850324,5.63377906 C5.10157723,4.73713024 4.58056354,4.06099179 3.76154915,4.81094821 L3.63214123,4.93192515 L3.52759274,5.02801831 L3.42314899,5.12214164 L3.35365433,5.18367284 L3.24972854,5.2739581 L3.18072225,5.33269933 L3.11199145,5.39019507 L3.0435819,5.44637131 L2.97553939,5.50115407 L2.90790972,5.55446932 L2.84073865,5.60624308 L2.77407199,5.65640134 L2.7079555,5.7048701 L2.69719948,5.71263 L2.84259722,5.57114096 L2.9352684,5.46652071 L3.02622059,5.36501322 L3.11545379,5.26661849 L3.24608048,5.12486282 L3.33101621,5.03424998 L3.41423294,4.9467499 L3.49573069,4.86236259 L3.57550944,4.78108803 L3.6535692,4.70292623 L3.72990997,4.62787719 L3.80453176,4.5559409 L3.86638311,4.49476421 L3.90218988,4.46151974 L3.93756691,4.42905345 L4.00703172,4.36645544 L4.05672761,4.3167005 L4.11268654,4.26382356 L4.16603513,4.21179187 L4.22948347,4.16008852 L4.26056302,4.13540413 L4.32143288,4.08836992 L4.35022039,4.06676498 L4.40659208,4.02573407 L4.43417626,4.0063081 L4.44219498,4.00074521 C4.46661884,3.98386033 4.4905609,3.96784903 4.51402034,3.95271187 L4.53152442,3.94152292 L4.56032162,3.92358727 L4.58099988,3.91108561 L4.60250845,3.89843176 L4.62225547,3.88714109 L4.64318658,3.87552931 L4.64318658,3.87552931 L4.65014713,3.87175166 L4.66260689,3.86509687 L4.66260689,3.86509687 L4.67498273,3.85862642 L4.68829315,3.85182678 L4.68829315,3.85182678 L4.70149013,3.845253 L4.71967861,3.83647595 L4.73322715,3.83015866 L4.74589311,3.82442931 L4.74589311,3.82442931 L4.75855916,3.81887568 L4.75855916,3.81887568 L4.77744105,3.810935 L4.77744105,3.810935 L4.79359674,3.80447541 L4.80611601,3.79969076 L4.82122015,3.79418511 L4.83287442,3.79014365 C4.8417928,3.78712133 4.85060682,3.78429857 4.85931168,3.781677 L4.86906602,3.77881048 L4.86906602,3.77881048 L4.8745774,3.77725471 L4.88578325,3.77423754 L4.88578325,3.77423754 L4.89686564,3.77145182 L4.908397,3.76876998 L4.908397,3.76876998 L4.91311715,3.76773787 L4.92483896,3.76534482 L4.92483896,3.76534482 L4.93903929,3.76278197 L4.94432968,3.76192473 L4.94432968,3.76192473 L4.94959283,3.76112599 C4.96806765,3.75841793 4.98593715,3.75681516 5.00319582,3.75631848 L5.00802916,3.75620803 Z" id="path" fill="url(#linearGradient-6)" fill-rule="nonzero"></path>
                <path d="M5.31913468,3.96456269 C5.33547085,4.02062947 5.34653489,4.0773359 5.35250623,4.13502436 C5.34654282,4.10892016 5.34030683,4.08272343 5.3336033,4.0564208 C5.23601855,3.67352757 4.93620954,3.65682334 4.43417626,4.0063081 L4.40659208,4.02573407 L4.35022039,4.06676498 L4.32143288,4.08836992 L4.26056302,4.13540413 L4.22948347,4.16008852 L4.16603513,4.21179187 L4.11268654,4.26382356 L4.05672761,4.3167005 L4.00703172,4.36645544 L3.93756691,4.42905345 L3.90218988,4.46151974 L3.86638311,4.49476421 L3.80453176,4.5559409 L3.72990997,4.62787719 L3.6535692,4.70292623 L3.57550944,4.78108803 L3.49573069,4.86236259 L3.41423294,4.9467499 L3.33101621,5.03424998 L3.24608048,5.12486282 L3.11545379,5.26661849 L3.02622059,5.36501322 L2.9352684,5.46652071 L2.84259722,5.57114096 L2.69719948,5.71263 C2.67449332,5.72897353 2.65189517,5.7449992 2.62941355,5.7606933 L2.56232672,5.80676711 C2.52896657,5.82929292 2.4958877,5.85104179 2.46311878,5.87196737 L2.39800268,5.9127071 C2.37644073,5.92591196 2.35502503,5.93873719 2.33376407,5.95116905 L2.2704539,5.98727084 C1.9248946,6.17918924 1.62377592,6.26027777 1.40525361,6.16886466 L1.35659892,6.14301715 L1.30944172,6.11636424 L1.28095719,6.09946904 L1.24950741,6.08014271 L1.21532137,6.05834624 L1.17862809,6.03404067 C1.17231633,6.02977848 1.16590964,6.02541012 1.1594128,6.02093478 L1.11938806,5.99279244 L1.07742861,5.96204352 L1.03376347,5.92864905 C1.01894958,5.91707229 1.00388958,5.90504812 0.988621638,5.89257002 L0.942232139,5.85376746 C0.895295143,5.81359014 0.846830158,5.76926904 0.797867743,5.72062872 L0.771739916,5.69441401 L0.722507019,5.64351869 C0.714630934,5.63520948 0.706917395,5.6269879 0.699363168,5.61885541 L0.655923716,5.57114096 C0.635134015,5.54782978 0.615719964,5.52534634 0.597594307,5.50372964 L0.563035001,5.46166348 C0.557552808,5.45484892 0.552207308,5.44813355 0.546995267,5.44151882 L0.517298691,5.40304971 L0.490650037,5.36706533 L0.466894186,5.33363504 L0.436345091,5.28843026 L0.411432259,5.24936235 L0.391632163,5.21666539 L0.362374004,5.1664634 L0.391213373,5.19506539 C0.396027375,5.19971437 0.400845766,5.20430397 0.405669551,5.20883362 L0.43468502,5.23528755 L0.463878139,5.26027539 C0.46876114,5.26431635 0.473653552,5.26829508 0.478556379,5.27221102 L0.508106345,5.29494865 C0.513054846,5.29861116 0.51801577,5.30220975 0.522990121,5.30574384 L0.553005384,5.32616996 C0.55803746,5.32944381 0.563084971,5.33265204 0.568148921,5.33579407 L0.598737929,5.35384738 C0.711679873,5.41709697 0.83355053,5.44775874 0.975042143,5.43978928 L1.01412527,5.43665345 C1.08669898,5.42913182 1.16442094,5.41181504 1.24862767,5.38394767 L1.29520976,5.36769641 C1.31095685,5.36192752 1.32692635,5.3558053 1.34312629,5.34932523 L1.39242546,5.32880688 C1.40075988,5.32520672 1.40915393,5.32151595 1.41760859,5.31773401 L1.46907208,5.29394384 C1.47777325,5.28979497 1.48653706,5.28555379 1.49536449,5.28121973 L1.54910076,5.25409644 L1.60441246,5.22471702 C1.61376504,5.21963092 1.62318527,5.21444969 1.63267416,5.20917274 L1.69043938,5.17635803 C1.70997444,5.16503393 1.72979214,5.15332246 1.74990054,5.14121908 L1.81110582,5.10372864 L1.87410344,5.06385948 L1.93894159,5.02158434 L2.00566846,4.97687599 L2.07433226,4.92970718 C2.08594032,4.92163916 2.09763109,4.91346749 2.10940557,4.90519159 L2.18106514,4.85428102 C2.19317852,4.84558597 2.20537762,4.83678556 2.21766345,4.82787922 L2.29242724,4.77316559 L2.36932075,4.71588252 L2.44839219,4.65600278 L2.52968975,4.59349913 L2.65591551,4.49476421 L2.78742118,4.38997225 C2.81724337,4.36600533 2.84746871,4.34158293 2.87810524,4.3167005 C4.19547595,3.24675633 4.95657635,3.4279585 5.22623313,3.78236221 L5.24424984,3.80735551 C5.26147082,3.83260272 5.27630703,3.85857096 5.2887805,3.88489418 L5.3004672,3.91132216 C5.30773437,3.92900162 5.31395469,3.94678462 5.31913468,3.96456269 Z" id="2" fill="url(#radialGradient-7)" fill-rule="nonzero"></path>
                <path d="M2.95790972,1.18318748 C2.26283117,1.12388038 1.54254587,1.29509525 0.955349875,1.80076857 C0.368153878,2.30644189 0.222238995,2.75884539 0.206731391,3.02360708 C0.309440183,2.23934326 1.26179079,1.79715743 2.19064462,1.9494998 C3.11949845,2.10184217 3.39207431,2.55720225 3.68314751,2.80374216 L4.72435211,2.66073403 L4.34469773,2.10184217 L4.48206418,2.01509694 C3.66791666,1.49924385 3.07212288,0.785390187 2.55530422,0 C2.68820347,0.390668813 2.82484679,0.792361021 2.95782307,1.18304838 L2.95790972,1.18318748 Z" id="1" fill="url(#radialGradient-8)" fill-rule="nonzero"></path>
                <path d="M0.206722042,3.02360708 C0.26906229,2.05919273 1.4663363,1.78348619 2.22819593,1.90204572 C2.99005556,2.02060525 3.35000834,2.38984071 3.68322453,2.80368652 C3.59823303,2.73217803 3.44611828,2.58330144 3.37479681,2.52448424 C2.93854956,2.16472099 2.5488838,2.05847136 2.0766902,2.00485278 C1.11728712,1.89591055 0.286645274,2.38182931 0.206722042,3.02360708 Z" id="02" fill="#FFE0E0"></path>
                <path d="M2.69703203,4.1374897 C2.80114802,3.88978628 2.96468256,3.79779289 3.18763566,3.86150953 C3.80358947,4.02882112 5.09072754,5.52174025 5.35245417,5.71275278 C4.88078824,5.16156848 3.91055792,4.06485066 3.36363325,3.80541691 C2.9990168,3.63246108 2.77681639,3.74315201 2.69703203,4.1374897 Z" id="01" fill="#FFE0E0" transform="translate(4.024743, 4.719537) scale(-1, 1) translate(-4.024743, -4.719537) "></path>
            </g>
        </g>
    </g>
</svg>
