<?xml version="1.0" encoding="UTF-8"?>
<svg width="16px" height="16px" viewBox="0 0 16 16" version="1.1" xmlns="http://www.w3.org/2000/svg" xmlns:xlink="http://www.w3.org/1999/xlink">
    <title>dir-open</title>
    <g id="dir-open" stroke="none" stroke-width="1" fill="none" fill-rule="evenodd">
        <path d="M4.34135969,1.5 C4.72242486,1.5 5.08211103,1.6642399 5.33530495,1.9464201 L5.42509461,2.0576757 L6.22175391,3.15745217 C6.28678484,3.2472264 6.37903323,3.30619247 6.47955843,3.32618793 L6.55620828,3.33375 L11.6523077,3.33375 C12.3568915,3.33375 12.9290035,3.88281301 12.9938728,4.57725043 L13,4.7090625 L12.9997812,4.999 L4.15895564,5 C3.32384282,5 2.583102,5.51778915 2.29006137,6.28766343 L2.23752727,6.44492069 L0.999781194,10.729 L1,2.8753125 C1,2.16428018 1.5306659,1.57339174 2.21722675,1.50633578 L2.34769231,1.5 L4.34135969,1.5 Z" id="2" fill="#4E92F5" fill-rule="nonzero"></path>
        <path d="M4.77970752,6 L13.7732181,6 C14.4359598,6 14.9732181,6.5372583 14.9732181,7.2 C14.9732181,7.30805699 14.958623,7.41561891 14.9298286,7.51976879 L13.2027984,13.766474 C13.0829761,14.1998737 12.6886147,14.5 12.2389563,14.5 L2.05161846,14.5 C1.49933371,14.5 1.05161846,14.0522847 1.05161846,13.5 C1.05161846,13.4008697 1.06635823,13.3022904 1.09535427,13.2074957 L2.86717913,7.41499132 C3.12435838,6.57421298 3.90047524,6 4.77970752,6 Z" id="1" fill="#4E92F5"></path>
    </g>
</svg>
