<svg viewBox="0 0 16 16" xmlns="http://www.w3.org/2000/svg" xmlns:xlink="http://www.w3.org/1999/xlink" width="16.000000" height="16.000000" fill="none" customFrame="#000000">
	<rect id="third-party icon/git_ignore" width="16.000000" height="16.000000" x="0.000000" y="0.000000" />
	<path id="Path" d="M3.5 8.075L3.5 7.925C3.55 7.675 3.7 7.575 3.85 7.375L6.25 4.975L6.35 4.875C6.35 4.875 6.4 4.875 6.4 4.925L7.3 5.825C7.35 5.875 7.35 5.925 7.3 5.975C7.25 6.275 7.35 6.575 7.6 6.725C7.7 6.775 7.7 6.825 7.7 6.925L7.7 9.125C7.7 9.225 7.65 9.275 7.6 9.325C7.35 9.475 7.2 9.775 7.3 10.075C7.4 10.375 7.65 10.575 7.95 10.575C8.25 10.575 8.5 10.375 8.6 10.125C8.7 9.825 8.6 9.525 8.35 9.325C8.25 9.275 8.25 9.225 8.25 9.125L8.25 6.875L8.3 6.875L9.1 7.675C9.15 7.725 9.15 7.775 9.15 7.775L9.15 8.075C9.2 8.475 9.55 8.725 9.95 8.675C10.35 8.625 10.65 8.225 10.55 7.825C10.5 7.475 10.1 7.225 9.75 7.275C9.7 7.275 9.65 7.275 9.55 7.225L8.7 6.375C8.65 6.325 8.65 6.275 8.65 6.225C8.75 5.775 8.3 5.325 7.85 5.425C7.8 5.425 7.7 5.425 7.7 5.375C7.4 5.075 7.1 4.775 6.8 4.525C6.75 4.475 6.75 4.425 6.8 4.375C7.05 4.175 7.25 3.925 7.45 3.725C7.75 3.425 8.05 3.425 8.35 3.725L12.15 7.525C12.45 7.825 12.45 8.125 12.15 8.425L8.5 12.075C8.35 12.225 8.2 12.425 7.95 12.475L7.85 12.475C7.75 12.425 7.6 12.375 7.5 12.275C7.2 11.975 6.85 11.675 6.55 11.325L3.8 8.575C3.75 8.425 3.55 8.275 3.5 8.075L3.5 8.075Z" fill="rgb(172,172,173)" fill-rule="evenodd" />
</svg>
