<svg width="122" height="28" viewBox="0 0 122 28" fill="none" xmlns="http://www.w3.org/2000/svg">
<path fill-rule="evenodd" clip-rule="evenodd" d="M52.7447 22.4216V10.7549H56.758V22.4216H52.7447ZM54.7513 9.30825C54.098 9.30825 53.5691 9.12937 53.1647 8.77159C52.7602 8.39825 52.558 7.90826 52.558 7.30159C52.558 6.69492 52.7602 6.2127 53.1647 5.85492C53.5691 5.48159 54.098 5.29492 54.7513 5.29492C55.4047 5.29492 55.9336 5.48159 56.338 5.85492C56.7424 6.2127 56.9447 6.69492 56.9447 7.30159C56.9447 7.90826 56.7424 8.39825 56.338 8.77159C55.9336 9.12937 55.4047 9.30825 54.7513 9.30825ZM99.7843 22.7013C98.3376 22.7013 97.1787 22.1569 96.3076 21.068C95.4521 19.9635 95.0243 18.4702 95.0243 16.588C95.0243 15.3124 95.2498 14.2235 95.7009 13.3213C96.1676 12.4035 96.7665 11.7035 97.4976 11.2213C98.2287 10.7235 98.9909 10.4746 99.7843 10.4746C100.422 10.4746 100.943 10.5835 101.348 10.8013C101.768 11.0035 102.149 11.2835 102.491 11.6413L102.351 9.96132V6.18132H106.364V22.4213H103.098L102.818 21.348H102.724C102.335 21.7369 101.876 22.0635 101.348 22.328C100.819 22.5769 100.298 22.7013 99.7843 22.7013ZM100.858 19.4347C101.169 19.4347 101.441 19.3802 101.674 19.2713C101.923 19.1469 102.149 18.9213 102.351 18.5947V14.3013C102.118 14.0835 101.861 13.9358 101.581 13.858C101.301 13.7802 101.029 13.7413 100.764 13.7413C100.344 13.7413 99.9632 13.9513 99.6209 14.3713C99.2943 14.7913 99.1309 15.5147 99.1309 16.5413C99.1309 17.5835 99.2865 18.3302 99.5976 18.7813C99.9087 19.2169 100.329 19.4347 100.858 19.4347ZM114.486 22.701C113.351 22.701 112.324 22.4598 111.406 21.9776C110.504 21.4954 109.788 20.8032 109.259 19.901C108.731 18.9832 108.466 17.8787 108.466 16.5876C108.466 15.3276 108.731 14.2465 109.259 13.3443C109.804 12.4265 110.504 11.7187 111.359 11.221C112.215 10.7232 113.117 10.4743 114.066 10.4743C115.217 10.4743 116.166 10.731 116.913 11.2443C117.675 11.7421 118.235 12.4187 118.593 13.2743C118.966 14.1298 119.153 15.0787 119.153 16.121C119.153 16.4632 119.129 16.7976 119.083 17.1243C119.052 17.4354 119.021 17.661 118.989 17.801H112.339C112.526 18.501 112.861 18.991 113.343 19.271C113.825 19.5354 114.393 19.6676 115.046 19.6676C115.793 19.6676 116.586 19.4343 117.426 18.9676L118.733 21.3476C118.111 21.7832 117.411 22.1176 116.633 22.351C115.855 22.5843 115.139 22.701 114.486 22.701ZM112.293 15.1876H115.746C115.746 14.7365 115.629 14.3476 115.396 14.021C115.178 13.6787 114.766 13.5076 114.159 13.5076C113.724 13.5076 113.335 13.6398 112.993 13.9043C112.651 14.1687 112.417 14.5965 112.293 15.1876ZM84.8377 21.9776C85.7244 22.4598 86.6655 22.701 87.661 22.701C88.6566 22.701 89.5899 22.4598 90.461 21.9776C91.3477 21.4954 92.0632 20.8032 92.6077 19.901C93.1677 18.9832 93.4477 17.8787 93.4477 16.5876C93.4477 15.2965 93.1677 14.1998 92.6077 13.2976C92.0632 12.3798 91.3477 11.6798 90.461 11.1976C89.5899 10.7154 88.6566 10.4743 87.661 10.4743C86.6655 10.4743 85.7244 10.7154 84.8377 11.1976C83.9666 11.6798 83.251 12.3798 82.691 13.2976C82.1466 14.1998 81.8744 15.2965 81.8744 16.5876C81.8744 17.8787 82.1466 18.9832 82.691 19.901C83.251 20.8032 83.9666 21.4954 84.8377 21.9776ZM88.9444 18.711C88.6955 19.2243 88.2677 19.481 87.661 19.481C87.0544 19.481 86.6188 19.2243 86.3544 18.711C86.1055 18.1821 85.981 17.4743 85.981 16.5876C85.981 15.701 86.1055 15.001 86.3544 14.4876C86.6188 13.9587 87.0544 13.6943 87.661 13.6943C88.2677 13.6943 88.6955 13.9587 88.9444 14.4876C89.2088 15.001 89.341 15.701 89.341 16.5876C89.341 17.4743 89.2088 18.1821 88.9444 18.711ZM75.7158 22.701C74.4247 22.701 73.2269 22.421 72.1225 21.861C71.0336 21.2854 70.1547 20.4221 69.4858 19.271C68.8169 18.1198 68.4825 16.681 68.4825 14.9543C68.4825 13.6787 68.6769 12.551 69.0658 11.571C69.4702 10.5754 70.0147 9.7354 70.6991 9.05095C71.3991 8.36651 72.1847 7.85317 73.0558 7.51095C73.9425 7.15317 74.8602 6.97428 75.8091 6.97428C76.8202 6.97428 77.7225 7.17651 78.5158 7.58095C79.3247 7.96984 79.9936 8.43651 80.5225 8.98095L78.4225 11.5476C78.0491 11.221 77.6602 10.9565 77.2558 10.7543C76.8669 10.5365 76.4158 10.4276 75.9025 10.4276C75.3114 10.4276 74.7591 10.6065 74.2458 10.9643C73.748 11.3065 73.3436 11.8043 73.0325 12.4576C72.7369 13.111 72.5891 13.8965 72.5891 14.8143C72.5891 16.2298 72.8847 17.3265 73.4758 18.1043C74.0825 18.8665 74.8758 19.2476 75.8558 19.2476C76.4469 19.2476 76.968 19.1154 77.4191 18.851C77.8858 18.5865 78.2825 18.2832 78.6091 17.941L80.7091 20.461C80.0714 21.2076 79.3247 21.7676 78.4691 22.141C77.6136 22.5143 76.6958 22.701 75.7158 22.701ZM60.9834 21.395C61.6678 22.2661 62.7645 22.7017 64.2734 22.7017C64.9112 22.7017 65.4556 22.655 65.9067 22.5617C66.3578 22.4684 66.7312 22.375 67.0267 22.2817L66.42 19.3883C66.28 19.435 66.1167 19.4817 65.93 19.5283C65.7589 19.5595 65.58 19.575 65.3934 19.575C65.02 19.575 64.6934 19.4506 64.4134 19.2017C64.1334 18.9528 63.9934 18.5095 63.9934 17.8717V13.8817H66.6534V10.755H63.9934V7.72168H60.68L60.2134 10.755L58.44 10.895V13.8817H59.98V17.9417C59.98 19.3572 60.3145 20.5083 60.9834 21.395ZM41.1134 21.861C42.28 22.421 43.5712 22.701 44.9867 22.701C46.06 22.701 47.0478 22.5221 47.95 22.1643C48.8678 21.791 49.5912 21.3476 50.12 20.8343V13.601H44.3334V16.8676H46.5734V18.9676C46.4334 19.061 46.2545 19.131 46.0367 19.1776C45.8345 19.2243 45.6245 19.2476 45.4067 19.2476C44.0534 19.2476 43.05 18.8665 42.3967 18.1043C41.7589 17.3265 41.44 16.2298 41.44 14.8143C41.44 13.4298 41.7823 12.3565 42.4667 11.5943C43.1512 10.8165 44.0067 10.4276 45.0334 10.4276C45.64 10.4276 46.1456 10.5365 46.55 10.7543C46.97 10.9565 47.3667 11.221 47.74 11.5476L49.84 8.98095C49.3112 8.43651 48.6345 7.96984 47.81 7.58095C46.9856 7.17651 46.0134 6.97428 44.8934 6.97428C43.8823 6.97428 42.9178 7.15317 42 7.51095C41.0978 7.85317 40.2967 8.36651 39.5967 9.05095C38.8967 9.7354 38.3445 10.5754 37.94 11.571C37.5356 12.551 37.3334 13.6787 37.3334 14.9543C37.3334 16.681 37.6756 18.1198 38.36 19.271C39.0445 20.4221 39.9623 21.2854 41.1134 21.861Z" fill="white"/>
<path fill-rule="evenodd" clip-rule="evenodd" d="M18.059 5.80689C18.2234 5.71486 18.3973 5.61757 18.585 5.51098C18.6076 5.63388 18.6297 5.74119 18.6497 5.83845C18.685 6.01004 18.714 6.1512 18.728 6.29067C18.8392 7.50186 19.448 8.39283 20.3108 8.59347C21.5726 8.88644 22.7623 8.4022 23.4033 7.33379C24.1733 6.05184 23.839 4.48181 22.5279 3.53679C18.8826 0.907659 14.8777 0.182521 10.5636 1.4488C1.2616 4.19331 -1.92121 15.6205 4.68062 22.628C7.50507 25.6255 11.0914 26.9188 15.1624 26.821C20.3774 26.6985 24.1333 24.0996 26.5309 19.5953C28.2308 16.3994 26.3829 12.9062 22.8439 12.1801C20.8227 11.7732 18.7559 11.6411 16.6993 11.7875C16.0151 11.8532 15.3509 12.0553 14.7459 12.3817C14.0691 12.733 13.8734 13.462 13.9493 14.1845C14.02 14.8427 14.5247 15.2375 15.1258 15.3368C16.3361 15.5263 17.5609 15.6363 18.7833 15.7367C19.1371 15.7665 19.4942 15.7701 19.8507 15.7736C20.3623 15.7787 20.873 15.7839 21.3718 15.8663C22.7949 16.1015 23.2836 17.2563 22.5517 18.4917C22.3724 18.7888 22.1633 19.0668 21.9277 19.3215C20.9703 20.3744 19.7183 21.1151 18.3344 21.4471C15.8084 22.0655 13.2798 22.1002 10.7655 21.306C7.90238 20.4027 6.19549 18.2997 6.13552 15.4688C6.1131 13.7229 6.55634 12.0026 7.41963 10.4849C7.80967 9.77747 8.02376 9.04888 7.96359 8.24725C7.93826 7.90549 7.92423 7.56334 7.90915 7.19567C7.90113 6.99999 7.89281 6.79708 7.88233 6.58315C8.17231 6.64401 8.45871 6.72084 8.74022 6.81332C9.83531 7.25291 10.9132 7.45345 12.0986 7.1308C12.7728 6.96956 13.4697 6.92494 14.159 6.9989C15.269 7.08939 16.3785 6.8182 17.3215 6.22583C17.5569 6.08785 17.7963 5.95391 18.059 5.80689Z" fill="#DA203E"/>
</svg>
