<svg viewBox="0 0 16 16" xmlns="http://www.w3.org/2000/svg" xmlns:xlink="http://www.w3.org/1999/xlink" width="16.000000" height="16.000000" fill="none" customFrame="#000000">
	<rect id="third-party icon/go2" width="16.000000" height="16.000000" x="0.000000" y="0.000000" />
	<path id="Shape" d="M9.02957 5.65385C9.33923 5.86887 9.57377 6.15236 9.74177 6.49076L9.82027 6.66447C9.86117 6.72898 9.8339 6.76482 9.75211 6.78632L9.45144 6.86786L8.60696 7.1017C8.60307 7.10279 8.59931 7.10385 8.59569 7.10487C8.51995 7.12626 8.5003 7.13181 8.44759 7.07465L8.40928 7.03002C8.30704 6.90817 8.23206 6.82933 8.08891 6.75765C7.65948 6.53546 7.24368 6.59997 6.85515 6.86517C6.39163 7.18054 6.15306 7.64643 6.15988 8.22701C6.16669 8.80042 6.54159 9.27348 7.08009 9.35232C7.5436 9.41683 7.93214 9.24481 8.23887 8.87926L8.29871 8.79776L8.42291 8.61406L7.10735 8.61406C6.96421 8.61406 6.93013 8.52088 6.97784 8.39903L7.03886 8.25035L7.18741 7.90928C7.23823 7.79667 7.28731 7.69231 7.32548 7.61776C7.34593 7.57476 7.39364 7.50308 7.49589 7.50308L9.68943 7.5033C9.78795 7.17501 9.94782 6.86481 10.1611 6.5713C10.6587 5.88321 11.2585 5.52483 12.0697 5.37431C12.7649 5.24529 13.4193 5.31697 14.0123 5.73986C14.5508 6.12691 14.8848 6.65014 14.9735 7.33823C15.0893 8.30585 14.8235 9.09429 14.1896 9.76804C13.7397 10.2483 13.1876 10.5493 12.5536 10.6855L12.3698 10.7134L12.0083 10.75C11.388 10.7357 10.8223 10.5493 10.3451 10.1193C10.0084 9.81322 9.77687 9.43687 9.66238 8.99859C9.58552 9.16921 9.48948 9.33288 9.37721 9.4885C8.88643 10.1694 8.24569 10.5923 7.43454 10.707C6.76654 10.8002 6.14625 10.664 5.60094 10.2339C5.09652 9.83255 4.81024 9.30215 4.73526 8.64273C4.64664 7.86146 4.86477 7.15904 5.31465 6.54263C5.79861 5.87604 6.43935 5.45315 7.22323 5.30263C7.86397 5.18078 8.47745 5.25963 9.02957 5.65385ZM11.0266 7.91168C11.1766 7.23793 11.5856 6.81504 12.2195 6.66452C12.867 6.50684 13.4873 6.90822 13.61 7.61781C13.6146 7.6417 13.6176 7.6656 13.6199 7.69028L13.6305 7.85434C13.5964 8.47076 13.3033 8.92948 12.7648 9.22335C12.4035 9.41688 12.0286 9.43838 11.6537 9.26636C11.1629 9.03699 10.9039 8.47076 11.0266 7.91168ZM2.036 6.87956C2.02237 6.90106 2.02919 6.91539 2.05645 6.91539L4.52398 6.92256C4.54443 6.92256 4.57851 6.90106 4.59214 6.87956L4.70802 6.6932C4.72166 6.6717 4.71484 6.65019 4.68757 6.65019L2.25413 6.65019C2.22686 6.65019 2.19278 6.66453 2.17915 6.68603L2.036 6.87956ZM1.02727 7.57474C1 7.57474 0.993184 7.5604 1.00682 7.5389L1.14996 7.34538C1.16359 7.32387 1.19767 7.30954 1.22494 7.30954L4.33321 7.30954C4.36047 7.30954 4.37411 7.33104 4.36729 7.35254L4.31276 7.52457C4.30594 7.55324 4.27868 7.56757 4.25141 7.56757L1.02727 7.57474ZM2.65648 8.19111C2.64285 8.21262 2.64966 8.23412 2.67693 8.23412L4.1629 8.24129C4.18335 8.24129 4.21061 8.21978 4.21061 8.19111L4.22425 8.01909C4.22425 7.99042 4.21061 7.96892 4.18335 7.96892L2.82007 7.96892C2.79281 7.96892 2.76554 7.99042 2.75191 8.01192L2.65648 8.19111Z" fill="rgb(108,186,225)" fill-rule="evenodd" />
</svg>
