<?xml version="1.0" encoding="utf-8"?>
<!-- Svg Vector Icons -->
<!DOCTYPE svg PUBLIC "-//W3C//DTD SVG 1.1//EN" "http://www.w3.org/Graphics/SVG/1.1/DTD/svg11.dtd">
<svg version="1.1" xmlns="http://www.w3.org/2000/svg" xmlns:xlink="http://www.w3.org/1999/xlink" x="0px" y="0px" viewBox="0 0 1000 1000" enable-background="new 0 0 1000 1000" xml:space="preserve">
<metadata> Svg Vector Icons </metadata>
<g fill="#C5C5C5" transform="matrix(0.71,0,0,0.71,145.009,145)" xmlns="http://www.w3.org/2000/svg">
<path d="M847.5,990h-695c-53.4,0-96.9-43.5-96.9-96.9V106.9c0-53.4,43.5-96.9,96.9-96.9h695c53.4,0,96.9,43.5,96.9,96.9v786.2C944.4,946.5,900.9,990,847.5,990L847.5,990z M152.5,66c-22.6,0-41,18.4-41,41v786.2c0,22.6,18.4,41,41,41h695c22.6,0,41-18.4,41-41V106.9c0-22.6-18.4-41-41-41L152.5,66L152.5,66z M242.6,251.1h514.7v56H242.6V251.1L242.6,251.1z M242.6,692.9h514.7v56H242.6V692.9L242.6,692.9z M242.6,472h514.7V528H242.6V472L242.6,472z" />
</g>
</svg>
