<svg viewBox="0 0 16 16" xmlns="http://www.w3.org/2000/svg" xmlns:xlink="http://www.w3.org/1999/xlink" width="16.000000" height="16.000000" fill="none" customFrame="#000000">
	<rect id="third-party icon/gradle" width="16.000000" height="16.000000" x="0.000000" y="0.000000" />
	<path id="a" d="M11.2914 3.58232C12.1336 2.78676 13.4517 2.80906 14.2669 3.63267C15.0606 4.43447 15.9645 6.65693 12.53 9.2503C11.5378 9.99923 11.1905 11.495 11.1688 12.7978C11.1672 12.9098 11.0767 12.9998 10.9654 13L10.0511 13C9.94855 12.9998 9.86213 12.9228 9.84934 12.8204C9.76179 12.1286 9.17646 11.594 8.46772 11.594C7.76623 11.5949 7.1746 12.1201 7.0861 12.8204C7.07348 12.9229 6.98696 12.9999 6.88432 13L5.95837 13C5.85571 12.9998 5.76916 12.9229 5.75617 12.8204C5.66904 12.1286 5.08371 11.594 4.37497 11.594C3.67341 11.5947 3.08167 12.12 2.99335 12.8204C2.98055 12.9228 2.89414 12.9998 2.79157 13L1.84186 13C1.7439 12.9997 1.65994 12.9295 1.64175 12.8326C1.11978 10.0483 2.092 7.84725 3.69458 6.70518L4.52964 8.159C4.83623 8.68995 5.50857 8.87646 6.04217 8.57857L6.43406 8.35745L6.44698 8.3499C6.91118 8.06069 7.34885 7.73044 7.75481 7.36307C7.7986 7.323 7.82279 7.26566 7.82103 7.20612C7.81927 7.14659 7.79173 7.0908 7.74564 7.05343L7.74439 7.05217L7.74314 7.05175C7.6602 6.98435 7.54076 6.98809 7.46215 7.06056C6.90224 7.57747 6.22936 7.98865 6.22936 7.98865L5.83789 8.20976L5.8554 8.19718L5.8333 8.20976C5.49999 8.39803 5.0782 8.28105 4.88776 7.94753L4.00476 6.40687C3.90688 6.23657 3.88417 6.03285 3.94213 5.84496C4.00009 5.65707 4.13343 5.5021 4.30993 5.41752C7.31791 3.97257 9.34301 5.01349 10.8458 5.78593C11.9145 6.33526 12.7191 6.7488 13.4251 6.03597C13.6469 5.81192 13.7845 5.50228 13.7845 5.16033C13.7852 4.4776 13.2359 3.92352 12.5576 3.92259C12.2925 3.9222 12.0346 4.00881 11.823 4.1693C11.7418 4.23064 11.6281 4.22241 11.5566 4.15L11.2868 3.87812C11.2476 3.83875 11.2259 3.78502 11.2267 3.72924C11.2276 3.67346 11.2509 3.62043 11.2914 3.58232ZM10.7634 7.54881L10.1087 7.21706L10.1087 7.21538C10.1087 6.9863 10.2925 6.80085 10.5197 6.80085C10.6977 6.80077 10.8555 6.91585 10.9109 7.08606C10.9663 7.25621 10.9068 7.44289 10.7634 7.54881ZM10.7634 7.54881L10.7632 7.54894L10.7636 7.54894L10.7634 7.54881Z" fill="rgb(108,186,225)" fill-rule="evenodd" />
</svg>
