<svg viewBox="0 0 16 16" xmlns="http://www.w3.org/2000/svg" xmlns:xlink="http://www.w3.org/1999/xlink" width="16.000000" height="16.000000" fill="none" customFrame="#000000">
	<defs>
		<linearGradient id="paint_linear_8" x1="9.05741882" x2="7.66773415" y1="14.3153419" y2="16.1147938" gradientUnits="userSpaceOnUse">
			<stop stop-color="rgb(255,228,107)" offset="0" stop-opacity="1" />
			<stop stop-color="rgb(255,190,81)" offset="1" stop-opacity="1" />
		</linearGradient>
		<g id="pixso_custom_effect_3">
			<effect x="0.173665" y="-0.179835" visibility="visible" fill="rgb(254,195,37)" fill-opacity="1" effectType="dropShadow" stdDeviation="1" radius="0" />
		</g>
		<filter id="filter_3" width="5.491455" height="5.388672" x="0.039429" y="5.393860" filterUnits="userSpaceOnUse" customEffect="url(#pixso_custom_effect_3)" color-interpolation-filters="sRGB">
			<feFlood flood-opacity="0" result="BackgroundImageFix" />
			<feOffset dx="0.173665" dy="-0.179835" in="SourceAlpha" />
			<feGaussianBlur stdDeviation="0.333333343" />
			<feColorMatrix type="matrix" values="0 0 0 0 0.996078 0 0 0 0 0.764706 0 0 0 0 0.145098 0 0 0 1 0 " />
			<feBlend result="effect_dropShadow_1" in2="BackgroundImageFix" mode="normal" />
			<feBlend result="shape" in="SourceGraphic" in2="effect_dropShadow_1" mode="normal" />
		</filter>
		<g id="pixso_custom_effect_4">
			<effect x="0.527164" y="-0.186006" visibility="visible" fill="rgb(253,178,32)" fill-opacity="1" effectType="dropShadow" stdDeviation="1" radius="0" />
		</g>
		<filter id="filter_4" width="2.245483" height="2.223831" x="8.891724" y="13.574417" filterUnits="userSpaceOnUse" customEffect="url(#pixso_custom_effect_4)" color-interpolation-filters="sRGB">
			<feFlood flood-opacity="0" result="BackgroundImageFix" />
			<feOffset dx="0.527164" dy="-0.186006" in="SourceAlpha" />
			<feGaussianBlur stdDeviation="0.333333343" />
			<feColorMatrix type="matrix" values="0 0 0 0 0.992157 0 0 0 0 0.698039 0 0 0 0 0.12549 0 0 0 1 0 " />
			<feBlend result="effect_dropShadow_1" in2="BackgroundImageFix" mode="normal" />
			<feBlend result="shape" in="SourceGraphic" in2="effect_dropShadow_1" mode="normal" />
		</filter>
		<g id="pixso_custom_effect_5">
			<effect x="0.173665" y="-0.179835" visibility="visible" fill="rgb(254,195,37)" fill-opacity="1" effectType="dropShadow" stdDeviation="1" radius="0" />
		</g>
		<filter id="filter_5" width="5.613647" height="5.507874" x="0.904175" y="3.433014" filterUnits="userSpaceOnUse" customEffect="url(#pixso_custom_effect_5)" color-interpolation-filters="sRGB">
			<feFlood flood-opacity="0" result="BackgroundImageFix" />
			<feOffset dx="0.173665" dy="-0.179835" in="SourceAlpha" />
			<feGaussianBlur stdDeviation="0.333333343" />
			<feColorMatrix type="matrix" values="0 0 0 0 0.996078 0 0 0 0 0.764706 0 0 0 0 0.145098 0 0 0 1 0 " />
			<feBlend result="effect_dropShadow_1" in2="BackgroundImageFix" mode="normal" />
			<feBlend result="shape" in="SourceGraphic" in2="effect_dropShadow_1" mode="normal" />
		</filter>
		<g id="pixso_custom_effect_6">
			<effect x="0.173665" y="-0.179835" visibility="visible" fill="rgb(254,195,37)" fill-opacity="1" effectType="dropShadow" stdDeviation="1" radius="0" />
		</g>
		<filter id="filter_6" width="4.564087" height="4.454010" x="3.250000" y="2.968567" filterUnits="userSpaceOnUse" customEffect="url(#pixso_custom_effect_6)" color-interpolation-filters="sRGB">
			<feFlood flood-opacity="0" result="BackgroundImageFix" />
			<feOffset dx="0.173665" dy="-0.179835" in="SourceAlpha" />
			<feGaussianBlur stdDeviation="0.333333343" />
			<feColorMatrix type="matrix" values="0 0 0 0 0.996078 0 0 0 0 0.764706 0 0 0 0 0.145098 0 0 0 1 0 " />
			<feBlend result="effect_dropShadow_1" in2="BackgroundImageFix" mode="normal" />
			<feBlend result="shape" in="SourceGraphic" in2="effect_dropShadow_1" mode="normal" />
		</filter>
		<g id="pixso_custom_effect_7">
			<effect x="0.173665" y="-0.179835" visibility="visible" fill="rgb(254,195,37)" fill-opacity="1" effectType="dropShadow" stdDeviation="1" radius="0" />
		</g>
		<filter id="filter_7" width="3.350830" height="3.279434" x="6.873413" y="3.844376" filterUnits="userSpaceOnUse" customEffect="url(#pixso_custom_effect_7)" color-interpolation-filters="sRGB">
			<feFlood flood-opacity="0" result="BackgroundImageFix" />
			<feOffset dx="0.173665" dy="-0.179835" in="SourceAlpha" />
			<feGaussianBlur stdDeviation="0.333333343" />
			<feColorMatrix type="matrix" values="0 0 0 0 0.996078 0 0 0 0 0.764706 0 0 0 0 0.145098 0 0 0 1 0 " />
			<feBlend result="effect_dropShadow_1" in2="BackgroundImageFix" mode="normal" />
			<feBlend result="shape" in="SourceGraphic" in2="effect_dropShadow_1" mode="normal" />
		</filter>
		<linearGradient id="paint_linear_9" x1="10.4938307" x2="10.1381435" y1="13.3338652" y2="12.958478" gradientUnits="userSpaceOnUse">
			<stop stop-color="rgb(255,226,100)" offset="0" stop-opacity="1" />
			<stop stop-color="rgb(255,185,78)" offset="0.38693729" stop-opacity="1" />
			<stop stop-color="rgb(255,226,100)" offset="1" stop-opacity="1" />
		</linearGradient>
		<linearGradient id="paint_linear_10" x1="11.4869432" x2="10.047308" y1="12.4639263" y2="13.6453323" gradientUnits="userSpaceOnUse">
			<stop stop-color="rgb(255,226,100)" offset="0" stop-opacity="1" />
			<stop stop-color="rgb(255,228,200)" offset="1" stop-opacity="0" />
			<stop stop-color="rgb(255,228,200)" offset="1" stop-opacity="0" />
			<stop stop-color="rgb(255,228,200)" offset="1" stop-opacity="0" />
		</linearGradient>
		<g id="pixso_custom_effect_8">
			<effect x="0.250000" y="-0.500000" visibility="visible" fill="rgb(253,178,32)" fill-opacity="1" effectType="dropShadow" stdDeviation="1" radius="0" />
		</g>
		<filter id="filter_8" width="5.713989" height="2.515228" x="3.994385" y="11.915192" filterUnits="userSpaceOnUse" customEffect="url(#pixso_custom_effect_8)" color-interpolation-filters="sRGB">
			<feFlood flood-opacity="0" result="BackgroundImageFix" />
			<feOffset dx="0.250000" dy="-0.500000" in="SourceAlpha" />
			<feGaussianBlur stdDeviation="0.333333343" />
			<feColorMatrix type="matrix" values="0 0 0 0 0.992157 0 0 0 0 0.698039 0 0 0 0 0.12549 0 0 0 1 0 " />
			<feBlend result="effect_dropShadow_1" in2="BackgroundImageFix" mode="normal" />
			<feBlend result="shape" in="SourceGraphic" in2="effect_dropShadow_1" mode="normal" />
		</filter>
		<g id="pixso_custom_effect_9">
			<effect x="0.000000" y="0.500000" visibility="visible" fill="rgb(255,255,255)" fill-opacity="1" effectType="dropShadow" stdDeviation="1" radius="0" />
		</g>
		<filter id="filter_9" width="3.976074" height="4.074203" x="3.090088" y="3.014648" filterUnits="userSpaceOnUse" customEffect="url(#pixso_custom_effect_9)" color-interpolation-filters="sRGB">
			<feFlood flood-opacity="0" result="BackgroundImageFix" />
			<feOffset dx="0.000000" dy="0.500000" in="SourceAlpha" />
			<feGaussianBlur stdDeviation="0.333333343" />
			<feColorMatrix type="matrix" values="0 0 0 0 1 0 0 0 0 1 0 0 0 0 1 0 0 0 1 0 " />
			<feBlend result="effect_dropShadow_1" in2="BackgroundImageFix" mode="normal" />
			<feBlend result="shape" in="SourceGraphic" in2="effect_dropShadow_1" mode="normal" />
		</filter>
		<g id="pixso_custom_effect_10">
			<effect x="0.000000" y="0.500000" visibility="visible" fill="rgb(255,255,255)" fill-opacity="1" effectType="dropShadow" stdDeviation="1" radius="0" />
		</g>
		<filter id="filter_10" width="3.976074" height="4.074203" x="5.078125" y="2.275299" filterUnits="userSpaceOnUse" customEffect="url(#pixso_custom_effect_10)" color-interpolation-filters="sRGB">
			<feFlood flood-opacity="0" result="BackgroundImageFix" />
			<feOffset dx="0.000000" dy="0.500000" in="SourceAlpha" />
			<feGaussianBlur stdDeviation="0.333333343" />
			<feColorMatrix type="matrix" values="0 0 0 0 1 0 0 0 0 1 0 0 0 0 1 0 0 0 1 0 " />
			<feBlend result="effect_dropShadow_1" in2="BackgroundImageFix" mode="normal" />
			<feBlend result="shape" in="SourceGraphic" in2="effect_dropShadow_1" mode="normal" />
		</filter>
		<g id="pixso_custom_effect_11">
			<effect x="0.000000" y="0.500000" visibility="visible" fill="rgb(255,255,255)" fill-opacity="0.694117665" effectType="dropShadow" stdDeviation="1" radius="0" />
		</g>
		<filter id="filter_11" width="4.410889" height="4.260590" x="8.228271" y="3.675720" filterUnits="userSpaceOnUse" customEffect="url(#pixso_custom_effect_11)" color-interpolation-filters="sRGB">
			<feFlood flood-opacity="0" result="BackgroundImageFix" />
			<feOffset dx="0.000000" dy="0.500000" in="SourceAlpha" />
			<feGaussianBlur stdDeviation="0.333333343" />
			<feColorMatrix type="matrix" values="0 0 0 0 1 0 0 0 0 1 0 0 0 0 1 0 0 0 0.694118 0 " />
			<feBlend result="effect_dropShadow_1" in2="BackgroundImageFix" mode="normal" />
			<feBlend result="shape" in="SourceGraphic" in2="effect_dropShadow_1" mode="normal" />
		</filter>
		<g id="pixso_custom_effect_12">
			<effect x="0.000000" y="0.500000" visibility="visible" fill="rgb(255,255,255)" fill-opacity="1" effectType="dropShadow" stdDeviation="1" radius="0" />
		</g>
		<filter id="filter_12" width="3.252197" height="3.255829" x="1.825928" y="5.298401" filterUnits="userSpaceOnUse" customEffect="url(#pixso_custom_effect_12)" color-interpolation-filters="sRGB">
			<feFlood flood-opacity="0" result="BackgroundImageFix" />
			<feOffset dx="0.000000" dy="0.500000" in="SourceAlpha" />
			<feGaussianBlur stdDeviation="0.333333343" />
			<feColorMatrix type="matrix" values="0 0 0 0 1 0 0 0 0 1 0 0 0 0 1 0 0 0 1 0 " />
			<feBlend result="effect_dropShadow_1" in2="BackgroundImageFix" mode="normal" />
			<feBlend result="shape" in="SourceGraphic" in2="effect_dropShadow_1" mode="normal" />
		</filter>
		<g id="pixso_custom_effect_13">
			<effect x="0.000000" y="0.500000" visibility="visible" fill="rgb(255,255,255)" fill-opacity="1" effectType="dropShadow" stdDeviation="1" radius="0" />
		</g>
		<filter id="filter_13" width="2.714111" height="2.745270" x="1.472168" y="7.762756" filterUnits="userSpaceOnUse" customEffect="url(#pixso_custom_effect_13)" color-interpolation-filters="sRGB">
			<feFlood flood-opacity="0" result="BackgroundImageFix" />
			<feOffset dx="0.000000" dy="0.500000" in="SourceAlpha" />
			<feGaussianBlur stdDeviation="0.333333343" />
			<feColorMatrix type="matrix" values="0 0 0 0 1 0 0 0 0 1 0 0 0 0 1 0 0 0 1 0 " />
			<feBlend result="effect_dropShadow_1" in2="BackgroundImageFix" mode="normal" />
			<feBlend result="shape" in="SourceGraphic" in2="effect_dropShadow_1" mode="normal" />
		</filter>
	</defs>
	<rect id="Dmoji/32px/鼓掌" width="16.000000" height="16.000000" x="0.000000" y="0.000000" />
	<rect id="矩形" width="16.000000" height="16.000000" x="0.000000" y="0.000000" opacity="0" />
	<g id="鼓掌备份">
		<path id="形状结合备份" d="M5.22238 1.74696C5.60074 1.3686 6.08527 1.28173 6.51575 1.3686C6.92499 1.45161 7.2937 1.68325 7.57168 1.96123L8.87663 3.26811C8.92875 3.18704 8.99245 3.10789 9.06774 3.03261C9.4461 2.65425 9.93063 2.56738 10.3611 2.65425C10.7704 2.73532 11.4421 3.26811 11.4421 3.26811C11.5758 3.38418 14.701 5.89922 14.701 8.43488C14.701 8.93824 14.6237 9.39939 14.4869 9.82191C14.7371 9.88424 14.9728 10.0173 15.1617 10.2199C15.6818 10.7777 15.6513 11.6515 15.0936 12.1716L12.957 14.164C12.3993 14.6841 11.5255 14.6536 11.0054 14.0958C10.8339 13.9119 10.7223 13.6937 10.6697 13.4652C9.07087 13.9952 6.97586 13.3109 5.8652 12.202L2.87501 9.21568C2.59703 8.93771 2.36538 8.569 2.28237 8.15975C2.19551 7.72927 2.28044 7.24667 2.66073 6.86831C2.73216 6.79689 2.8113 6.73319 2.89624 6.6772L2.87308 6.65597C2.5951 6.37799 2.36345 6.00929 2.28044 5.60004C2.19358 5.16956 2.27851 4.68696 2.6588 4.3086C2.76691 4.19857 2.89431 4.10784 3.0333 4.03834C2.98504 3.92445 2.94643 3.80284 2.92134 3.67929C2.83447 3.24881 2.91941 2.76621 3.2997 2.38785C3.67806 2.00949 4.16259 1.92262 4.59307 2.00949C4.71661 2.03459 4.8363 2.07126 4.95212 2.12146C5.01775 1.99019 5.10462 1.86278 5.22238 1.74696Z" fill-rule="evenodd" />
		<path id="形状结合" d="M4.02172 2.38352C4.41539 2.02024 4.76025 1.99545 5.19073 2.08232C5.59997 2.16532 5.82514 2.50074 6.10312 2.77872L7.40807 4.0856C7.4602 4.00453 7.5239 3.92538 7.59918 3.85009C7.97754 3.47173 8.46207 3.38487 8.89255 3.47173C9.3018 3.55281 9.97358 4.0856 9.97358 4.0856C10.1073 4.20167 13.2325 6.7167 13.2325 9.25237C13.2325 9.75577 13.1551 10.2169 13.0183 10.6395C13.2684 10.7019 13.5039 10.8349 13.6928 11.0374C14.2129 11.5952 14.1824 12.469 13.6246 12.9891L11.4881 14.9814C10.9303 15.5016 10.0565 15.471 9.53641 14.9133C9.36499 14.7295 9.25338 14.5113 9.20074 14.2828C7.60199 14.8125 5.50722 14.1283 4.39665 13.0195L1.40645 10.0332C1.12848 9.75519 0.896827 9.38649 0.81382 8.97724C0.726952 8.54676 0.811889 8.06416 1.19218 7.6858C1.2636 7.61438 1.34275 7.55067 1.42769 7.49469L1.40452 7.47346C1.12655 7.19548 0.760711 6.62316 0.704002 6.37625C0.699556 6.3569 0.694483 6.33608 0.689095 6.31397C0.625753 6.05403 0.518974 5.61584 0.878658 5.28407C1.26894 4.92408 1.83114 5.11488 1.83114 5.11488C1.83114 5.11488 1.47788 4.62032 1.45278 4.49678C1.36592 4.0663 1.45085 3.5837 1.83114 3.20534C2.2095 2.82698 2.69403 2.74011 3.12451 2.82698C3.24806 2.85208 3.75382 3.20534 3.75382 3.20534C3.7544 3.20534 3.7543 3.19853 3.75412 3.18603C3.75274 3.08771 3.7464 2.63759 4.02172 2.38352Z" fill="url(#paint_linear_8)" fill-rule="evenodd" />
		<path id="形状结合" d="M4.02172 2.38352C4.41539 2.02024 4.76025 1.99545 5.19073 2.08232C5.59997 2.16532 5.82514 2.50074 6.10312 2.77872L7.40807 4.0856C7.4602 4.00453 7.5239 3.92538 7.59918 3.85009C7.97754 3.47173 8.46207 3.38487 8.89255 3.47173C9.3018 3.55281 9.97358 4.0856 9.97358 4.0856C10.1073 4.20167 13.2325 6.7167 13.2325 9.25237C13.2325 9.75577 13.1551 10.2169 13.0183 10.6395C13.2684 10.7019 13.5039 10.8349 13.6928 11.0374C14.2129 11.5952 14.1824 12.469 13.6246 12.9891L11.4881 14.9814C10.9303 15.5016 10.0565 15.471 9.53641 14.9133C9.36499 14.7295 9.25338 14.5113 9.20074 14.2828C7.60199 14.8125 5.50722 14.1283 4.39665 13.0195L1.40645 10.0332C1.12848 9.75519 0.896827 9.38649 0.81382 8.97724C0.726952 8.54676 0.811889 8.06416 1.19218 7.6858C1.2636 7.61438 1.34275 7.55067 1.42769 7.49469L1.40452 7.47346C1.12655 7.19548 0.760711 6.62316 0.704002 6.37625C0.699556 6.3569 0.694483 6.33608 0.689095 6.31397C0.625753 6.05403 0.518974 5.61584 0.878658 5.28407C1.26894 4.92408 1.83114 5.11488 1.83114 5.11488C1.83114 5.11488 1.47788 4.62032 1.45278 4.49678C1.36592 4.0663 1.45085 3.5837 1.83114 3.20534C2.2095 2.82698 2.69403 2.74011 3.12451 2.82698C3.24806 2.85208 3.75382 3.20534 3.75382 3.20534C3.7544 3.20534 3.7543 3.19853 3.75412 3.18603C3.75274 3.08771 3.7464 2.63759 4.02172 2.38352Z" fill-rule="evenodd" stroke="rgb(250,167,50)" stroke-width="1" />
		<path id="路径" d="M0.787189 0.494194C0.787189 0.363415 0.745691 0.237666 0.6715 0.144611C0.597308 0.0515571 0.497966 0 0.393594 0C0.289223 0 0.188623 0.0515571 0.115689 0.144611C0.0414972 0.237666 0 0.363415 0 0.494194L0 1.48258C0 1.61336 0.0414972 1.73911 0.115689 1.83216C0.189881 1.92522 0.289223 1.97677 0.393594 1.97677C0.497966 1.97677 0.598565 1.92522 0.6715 1.83216C0.745691 1.73911 0.787189 1.61336 0.787189 1.48258L0.787189 0.494194Z" fill="rgb(129,115,109)" fill-rule="evenodd" transform="matrix(0.951057,0.309017,-0.309017,0.951057,9.02319,0)" />
		<path id="路径备份" d="M0.787189 0.494193C0.787189 0.363415 0.745691 0.237666 0.671499 0.144611C0.597308 0.0515571 0.497966 0 0.393594 0C0.289223 0 0.188623 0.0515571 0.115689 0.144611C0.0414972 0.237666 0 0.363415 0 0.494193L0 1.48258C0 1.61336 0.0414972 1.73911 0.115689 1.83216C0.189881 1.92522 0.289223 1.97677 0.393594 1.97677C0.497966 1.97677 0.598565 1.92522 0.671499 1.83216C0.745691 1.73911 0.787189 1.61336 0.787189 1.48258L0.787189 0.494193Z" fill="rgb(129,115,109)" fill-rule="evenodd" transform="matrix(-0.707107,-0.707107,0.707107,-0.707107,1.5437,14.4364)" />
		<path id="路径" d="M0.391108 0C0.287994 0.00125749 0.188652 0.0427547 0.115718 0.115689C0.0427833 0.188623 0.0012861 0.286708 2.86144e-05 0.389822C-0.00122888 0.492936 0.0390108 0.592278 0.110688 0.66647L0.504282 1.05881C0.540749 1.09653 0.583504 1.12671 0.632546 1.14683C0.680331 1.16695 0.731888 1.17827 0.784702 1.17827C0.837517 1.17827 0.889074 1.16821 0.936858 1.14935C0.984643 1.12923 1.02866 1.1003 1.06638 1.06384C1.10285 1.02737 1.13303 0.983357 1.15189 0.934315C1.17201 0.88653 1.18207 0.833716 1.18081 0.782159C1.18081 0.730601 1.16949 0.679044 1.14937 0.630002C1.12925 0.582218 1.09907 0.538206 1.06135 0.502996L0.667756 0.110659C0.593564 0.0389822 0.494222 0 0.391108 0Z" fill="rgb(129,115,109)" fill-rule="evenodd" transform="matrix(0.951057,0.309017,-0.309017,0.951057,7.31384,0.288208)" />
		<path id="路径备份 2" d="M0.391108 0C0.287994 0.00125749 0.188652 0.0427546 0.115718 0.115689C0.0427833 0.188623 0.0012861 0.286708 2.86144e-05 0.389822C-0.00122888 0.492936 0.0390108 0.592278 0.110688 0.66647L0.504282 1.05881C0.540749 1.09653 0.583504 1.12671 0.632546 1.14683C0.68033 1.16695 0.731887 1.17827 0.784702 1.17827C0.837517 1.17827 0.889074 1.16821 0.936858 1.14935C0.984643 1.12923 1.02866 1.1003 1.06638 1.06384C1.10285 1.02737 1.13303 0.983357 1.15189 0.934315C1.17201 0.88653 1.18207 0.833715 1.18081 0.782158C1.18081 0.730601 1.16949 0.679044 1.14937 0.630002C1.12925 0.582218 1.09907 0.538206 1.06135 0.502996L0.667756 0.110659C0.593564 0.0389822 0.494222 0 0.391108 0Z" fill="rgb(129,115,109)" fill-rule="evenodd" transform="matrix(-0.707107,-0.707107,0.707107,-0.707107,3.19751,14.9556)" />
		<path id="路径" d="M1.18078 0.38985C1.17953 0.286736 1.13803 0.188652 1.06509 0.115718C0.99216 0.0427833 0.892818 0.0012861 0.789704 2.86144e-05C0.686589 -0.00122888 0.587248 0.0390108 0.513056 0.110688L0.119462 0.503025C0.0817368 0.539492 0.0515571 0.582246 0.0314372 0.630031C0.0113174 0.677816 0 0.729373 0 0.782187C0 0.833744 0.0100599 0.886559 0.0289223 0.934343C0.0490421 0.982128 0.0779644 1.02614 0.114432 1.06386C0.150899 1.10033 0.194911 1.13051 0.243953 1.14937C0.291738 1.16949 0.344552 1.17955 0.396109 1.1783C0.448924 1.1783 0.500481 1.16698 0.548266 1.14686C0.59605 1.12674 0.640062 1.09656 0.67653 1.05883L1.07012 0.666498C1.1418 0.592306 1.18204 0.492965 1.18078 0.38985Z" fill="rgb(129,115,109)" fill-rule="evenodd" transform="matrix(0.951057,0.309017,-0.309017,0.951057,9.86206,1.11612)" />
		<path id="路径备份 3" d="M1.18078 0.38985C1.17953 0.286736 1.13803 0.188652 1.06509 0.115718C0.992159 0.0427833 0.892818 0.0012861 0.789703 2.86144e-05C0.686589 -0.00122888 0.587248 0.0390108 0.513056 0.110688L0.119462 0.503025C0.0817368 0.539492 0.0515571 0.582246 0.0314372 0.630031C0.0113174 0.677816 0 0.729373 0 0.782187C0 0.833744 0.0100599 0.886559 0.0289223 0.934343C0.0490421 0.982128 0.0779644 1.02614 0.114432 1.06386C0.150899 1.10033 0.194911 1.13051 0.243953 1.14937C0.291738 1.16949 0.344552 1.17955 0.396109 1.1783C0.448924 1.1783 0.500481 1.16698 0.548265 1.14686C0.59605 1.12674 0.640062 1.09656 0.676529 1.05883L1.07012 0.666498C1.1418 0.592306 1.18204 0.492965 1.18078 0.38985Z" fill="rgb(129,115,109)" fill-rule="evenodd" transform="matrix(-0.707107,-0.707107,0.707107,-0.707107,1.30334,13.0611)" />
		<g filter="url(#filter_3)">
			<path id="矩形" d="M0.497976 0.713936C0.677555 0.792648 0.922783 0.855665 1.25677 0.886874C2.41382 0.994995 4.65546 1.00212 5.549 1.00032C5.75706 1.00032 5.91839 1.17183 5.91839 1.3798C5.91839 1.58243 5.75624 1.74457 5.55358 1.74457L1.44494 1.76449C1.43455 1.76449 1.41633 1.76449 1.41633 1.76449L0.322743 0.884981C0.232027 0.606118 0.229396 0.596213 0.497976 0.713936Z" fill="rgb(250,167,50)" fill-rule="evenodd" transform="matrix(0.71934,0.694658,-0.694658,0.71934,1.26514,5.39386)" />
			<path id="矩形" d="M1.41633 1.76449L0.892102 1.34288L0.550401 1.06807L0.322743 0.884981C0.235283 0.616126 0.229698 0.597271 0.470097 0.70176C0.479046 0.70565 0.488336 0.709711 0.497976 0.713936C0.547275 0.735545 0.601523 0.755971 0.661196 0.77488C0.689875 0.783968 0.719808 0.792706 0.751047 0.801057C0.853122 0.828343 0.969144 0.851494 1.10097 0.86922C1.15062 0.875898 1.20253 0.881805 1.25677 0.886874C2.41382 0.994995 4.65546 1.00212 5.549 1.00032C5.75706 1.00032 5.91839 1.17183 5.91839 1.3798C5.91839 1.58243 5.75624 1.74457 5.55358 1.74457L1.44494 1.76449L1.41633 1.76449Z" fill="rgb(151,151,151)" fill-opacity="0" fill-rule="evenodd" transform="matrix(0.71934,0.694658,-0.694658,0.71934,1.26514,5.39386)" />
		</g>
		<g filter="url(#filter_4)">
			<path id="矩形备份" d="M0.543551 0.817253C0.78711 0.873447 1.06458 0.900862 1.26776 0.814504C1.43625 0.74289 1.58346 0.611076 1.70175 0.474049C1.74932 0.418954 1.90123 0.484272 1.88429 0.555059L1.88251 0.562534L1.88251 0.562534L1.64221 1.01653C1.64221 1.02881 1.62339 1.03625 1.60954 1.03625L0.269215 1.14356C0.181569 0.97878 0.36169 0.775295 0.543551 0.817253Z" fill="rgb(250,168,49)" fill-rule="evenodd" transform="matrix(0.71934,0.694659,-0.694659,0.71934,9.68604,13.5744)" />
			<path id="矩形备份" d="M1.67971 0.945681L1.88251 0.562534L1.88429 0.555059C1.90072 0.486439 1.75846 0.422957 1.7064 0.469325C1.70476 0.470789 1.70321 0.472363 1.70175 0.474049C1.69097 0.486543 1.67994 0.498994 1.66868 0.51136C1.5965 0.590615 1.51469 0.666377 1.42477 0.727672C1.37485 0.761701 1.32243 0.79127 1.26776 0.814504C1.2374 0.827409 1.20538 0.837774 1.17206 0.845881C1.17006 0.846366 1.16806 0.846844 1.16606 0.847313C0.977534 0.891456 0.748533 0.864546 0.543551 0.817253C0.417839 0.788249 0.292959 0.876526 0.256779 0.988227C0.240619 1.03812 0.242155 1.09268 0.269215 1.14356L0.741621 1.10574L1.60954 1.03625C1.62339 1.03625 1.64221 1.02881 1.64221 1.01653L1.67971 0.945681Z" fill="rgb(151,151,151)" fill-opacity="0" fill-rule="evenodd" transform="matrix(0.71934,0.694659,-0.694659,0.71934,9.68604,13.5744)" />
		</g>
		<g filter="url(#filter_5)">
			<path id="矩形备份 148" d="M0.0339216 0C0.0339216 0 -0.0830868 0.80475 0.86309 0.858629C1.63145 0.902382 4.58979 0.967357 5.67461 0.990233C5.89567 0.990233 6.0632 1.17921 6.0632 1.40021C6.0632 1.61615 5.87756 1.78896 5.66152 1.78896L1.28092 1.72784L0.217739 0.958196C0.0817805 0.859776 0.0113794 0.699705 0.0113794 0.532013L0.0339216 0Z" fill="rgb(250,170,50)" fill-rule="evenodd" transform="matrix(0.71934,0.694658,-0.694658,0.71934,2.14673,3.43301)" />
			<path id="矩形备份 148" d="M1.28092 1.72784L0.762389 1.35247L0.217739 0.958196C0.0817805 0.859776 0.0113794 0.699705 0.0113794 0.532013L0.0295576 0.102993C0.0320265 0.2089 0.0551839 0.379443 0.161703 0.532013C0.163233 0.534205 0.164781 0.536394 0.166347 0.538579C0.280963 0.698556 0.488873 0.83732 0.86309 0.858629C0.886249 0.859948 0.911396 0.861286 0.938422 0.862642C1.80807 0.906261 4.62248 0.968046 5.67461 0.990233C5.89567 0.990233 6.0632 1.17921 6.0632 1.40021C6.0632 1.61615 5.87756 1.78896 5.66152 1.78896L1.28092 1.72784ZM0.0339216 0C0.0339216 0 0.0280914 0.0400985 0.0295576 0.102993L0.0339216 0Z" fill="rgb(151,151,151)" fill-opacity="0" fill-rule="evenodd" transform="matrix(0.71934,0.694658,-0.694658,0.71934,2.14673,3.43301)" />
		</g>
		<g filter="url(#filter_6)">
			<path id="矩形备份 149" d="M0.398188 2.17892e-13L5.05699 0.228377C5.25625 0.228377 5.4089 0.409193 5.39603 0.608271C5.38347 0.80262 5.21757 0.942165 5.02302 0.942165C3.93279 0.892044 0.660682 0.742264 0.448825 0.740255C0.31013 0.73894 0 0.739066 0 0.739066C-2.35031e-18 0.739066 0.398188 2.17892e-13 0.398188 2.17892e-13Z" fill="rgb(250,167,50)" fill-rule="evenodd" transform="matrix(0.71934,0.694658,-0.694658,0.71934,3.91565,2.96857)" />
			<path id="矩形备份 149" d="M5.05699 0.228377L0.398188 2.17892e-13L0.269217 0.23938L-1.04045e-35 0.739066C-1.04045e-35 0.739066 0.31013 0.73894 0.448825 0.740255C0.466776 0.740425 0.506698 0.741656 0.565402 0.743798C1.19952 0.76693 4.02517 0.896291 5.02302 0.942165C5.21757 0.942165 5.38347 0.80262 5.39603 0.608271C5.4089 0.409193 5.25625 0.228377 5.05699 0.228377Z" fill="rgb(250,175,52)" fill-opacity="0" fill-rule="evenodd" transform="matrix(0.71934,0.694658,-0.694658,0.71934,3.91565,2.96857)" />
		</g>
		<g filter="url(#filter_7)">
			<path id="矩形备份 150" d="M0.0437794 0.274063C0.0600017 0.120881 0.194114 0.0175242 0.347841 0.0175242L3.47342 0.21667C3.65 0.227921 3.78896 0.375997 3.78896 0.552907L3.78346 0.552944C3.78346 0.74243 3.62606 0.883835 3.43677 0.883835L0.0380616 0.725367C0.017381 0.725367 5.25824e-17 0.708055 5.25824e-17 0.687456L0.0437794 0.274063Z" fill="rgb(250,167,50)" fill-rule="evenodd" transform="matrix(0.71934,0.694659,-0.694659,0.71934,7.49866,3.84438)" />
			<path id="矩形备份 150" d="M0.0686347 0.22625C0.0646472 0.226017 0.0606402 0.22583 0.0566138 0.225689L0.0686347 0.22625ZM3.78346 0.552944L3.78896 0.552907C3.78657 0.373468 3.64848 0.227825 3.47342 0.21667L3.28346 0.204567L0.347841 0.0175242C0.210974 0.0175242 0.0896545 0.0994531 0.0532411 0.225532L0.0532267 0.225582C0.0487488 0.241097 0.0455566 0.257281 0.0437794 0.274063L5.25824e-17 0.687456C5.25824e-17 0.708055 0.017381 0.725367 0.0380616 0.725367L3.43677 0.883835C3.62606 0.883835 3.78346 0.74243 3.78346 0.552944Z" fill="rgb(250,175,52)" fill-opacity="0" fill-rule="evenodd" transform="matrix(0.71934,0.694659,-0.694659,0.71934,7.49866,3.84438)" />
		</g>
	</g>
	<path id="路径 183备份" d="M9.02774 13.2719L11.1772 11.6225L12.0092 12.1614L9.4757 14.2931C9.4757 14.2931 9.478 14.3105 9.42933 14.1133C9.41982 14.0748 9.40241 13.9894 9.391 13.9483C9.38654 13.9323 9.27044 13.9951 9.07712 14.0547C8.97764 14.0854 8.72087 14.1359 8.72087 14.1359C8.72087 14.1359 8.21288 14.2433 7.56108 14.1896C6.90927 14.1359 9.02774 13.2719 9.02774 13.2719Z" fill="url(#paint_linear_9)" fill-rule="evenodd" />
	<path id="路径 183备份" d="M9.02774 13.2719L11.1772 11.6225L12.0092 12.1614L9.4757 14.2931C9.4757 14.2931 9.478 14.3105 9.42933 14.1133C9.41982 14.0748 9.40241 13.9894 9.391 13.9483C9.38654 13.9323 9.27044 13.9951 9.07712 14.0547C8.97764 14.0854 8.72087 14.1359 8.72087 14.1359C8.72087 14.1359 8.21288 14.2433 7.56108 14.1896C6.90927 14.1359 9.02774 13.2719 9.02774 13.2719Z" fill="url(#paint_linear_10)" fill-rule="evenodd" />
	<path id="路径 183备份" d="M9.4757 14.2931L9.85833 13.9711L9.90152 13.9348L11.6092 12.498L12.0092 12.1614L11.5704 11.8771L11.1772 11.6225L9.02774 13.2719C9.02774 13.2719 8.51053 13.4828 8.06586 13.7027C7.98158 13.7444 7.89992 13.7864 7.82487 13.8273C7.49447 14.0076 7.29237 14.1675 7.56108 14.1896C7.69143 14.2003 7.81603 14.2046 7.93196 14.2046C8.02583 14.2046 8.11402 14.2018 8.19498 14.1973C8.51404 14.1796 8.72087 14.1359 8.72087 14.1359C8.72087 14.1359 8.81583 14.1172 8.91262 14.0957L8.91316 14.0956C8.92355 14.0933 8.93396 14.0909 8.94427 14.0886C8.97431 14.0817 9.00354 14.0747 9.02911 14.0681C9.04731 14.0634 9.06366 14.0589 9.07712 14.0547C9.17188 14.0255 9.24807 13.9955 9.30167 13.9744C9.35743 13.9525 9.38873 13.9402 9.391 13.9483C9.40241 13.9894 9.41982 14.0748 9.42933 14.1133C9.47092 14.2818 9.47529 14.2936 9.47568 14.2935L9.4757 14.2931ZM9.63129 13.5087L10.5731 12.7163L9.57501 13.4821C9.59445 13.4899 9.61321 13.4988 9.63129 13.5087Z" fill="rgb(151,151,151)" fill-opacity="0" fill-rule="evenodd" />
	<g filter="url(#filter_8)">
		<path id="矩形备份 3" d="M4.46872 12.6138C4.82491 13.0571 5.37592 13.6016 6.10211 13.9C6.63189 14.1177 6.5506 14.2283 7.32665 14.3379C8.89175 14.5588 9.70841 14.2523 9.70841 14.2523L9.56177 13.7022C9.56177 13.7022 8.46848 14.1603 7.32665 13.9C6.33275 13.6735 5.68073 13.367 5.52848 13.2914C5.50558 13.28 5.48394 13.2663 5.46343 13.251L4.53884 12.562C4.46775 12.4776 4.39958 12.5278 4.46872 12.6138Z" fill="rgb(250,168,49)" fill-rule="evenodd" />
		<path id="矩形备份 3" d="M4.53884 12.562C4.46775 12.4776 4.39958 12.5278 4.46872 12.6138C4.55018 12.7152 4.64183 12.8219 4.74343 12.9297C5.0861 13.2933 5.542 13.6699 6.10211 13.9C6.63189 14.1177 6.5506 14.2283 7.32665 14.3379C8.006 14.4338 8.54434 14.4303 8.93608 14.3956C9.04145 14.3863 9.13622 14.3747 9.22026 14.3622C9.30844 14.3491 9.38482 14.335 9.44928 14.3214C9.62124 14.285 9.70841 14.2523 9.70841 14.2523L9.69141 14.1885L9.56177 13.7022C9.56177 13.7022 9.3787 13.7789 9.08416 13.8517C9.01681 13.8683 8.94364 13.8848 8.86549 13.9C8.45017 13.9812 7.89441 14.0294 7.32665 13.9C6.33275 13.6735 5.68073 13.367 5.52848 13.2914C5.50558 13.28 5.48394 13.2663 5.46343 13.251L4.86403 12.8044L4.53884 12.562Z" fill="rgb(151,151,151)" fill-opacity="0" fill-rule="evenodd" />
	</g>
	<g filter="url(#filter_9)">
		<path id="路径 192" d="M3.09009 3.1833L6.92759 7.08885L7.06622 6.90637L3.28889 3.01465L3.09009 3.1833Z" fill="rgb(250,167,50)" fill-rule="evenodd" />
		<path id="路径 192" d="M3.44146 3.5409L6.57347 6.72845L6.90349 7.06432L6.92759 7.08885L7.06622 6.90637L3.28889 3.01465L3.09009 3.1833L3.10231 3.19574L3.44146 3.5409Z" fill="rgb(165,63,63)" fill-opacity="0" fill-rule="evenodd" />
	</g>
	<g filter="url(#filter_10)">
		<path id="路径 192备份 3" d="M5.07812 2.44395L8.91563 6.3495L9.05426 6.16702L5.27692 2.2753L5.07812 2.44395Z" fill="rgb(250,167,50)" fill-rule="evenodd" />
		<path id="路径 192备份 3" d="M5.4295 2.80156L8.5615 5.9891L8.89152 6.32497L8.91563 6.3495L9.05426 6.16702L5.27692 2.2753L5.07812 2.44395L5.09035 2.45639L5.4295 2.80156Z" fill="rgb(165,63,63)" fill-opacity="0" fill-rule="evenodd" />
	</g>
	<g filter="url(#filter_11)">
		<path id="路径 192备份 4" d="M8.22827 3.67572C8.22827 3.67572 9.52637 4.06116 10.9646 5.72217C12.4029 7.38318 12.5006 7.93631 12.5006 7.93631L12.6392 7.75383L11.2998 5.19556L8.98651 3.67572L8.22827 3.67572Z" fill="rgb(250,167,50)" fill-rule="evenodd" />
		<path id="路径 192备份 4" d="M10.949 4.96507L8.98651 3.67572L8.22827 3.67572C8.22827 3.67572 8.45113 3.74189 8.81448 3.93756C8.86878 3.9668 8.92621 3.99893 8.98651 4.03416C9.41948 4.28717 10 4.70017 10.6264 5.35141C10.7379 5.4673 10.8508 5.59074 10.9646 5.72217C11.0054 5.76922 11.045 5.81539 11.0836 5.86068C11.7541 6.64692 12.1089 7.169 12.2958 7.4929C12.3909 7.65789 12.4426 7.77146 12.4702 7.84233C12.4955 7.90721 12.5006 7.93631 12.5006 7.93631L12.6392 7.75383L11.5006 5.57913L11.2998 5.19556L10.949 4.96507Z" fill="rgb(165,63,63)" fill-opacity="0" fill-rule="evenodd" />
	</g>
	<g filter="url(#filter_12)">
		<path id="路径 192备份" d="M1.82593 5.46706L4.93949 8.55423L5.07811 8.37175L2.02473 5.2984L1.82593 5.46706Z" fill="rgb(250,167,50)" fill-rule="evenodd" />
		<path id="路径 192备份" d="M2.1823 5.82041L4.58134 8.19912L4.91694 8.53187L4.93949 8.55423L5.07811 8.37175L2.02473 5.2984L1.82593 5.46706L1.84046 5.48147L2.1823 5.82041Z" fill="rgb(165,63,63)" fill-opacity="0" fill-rule="evenodd" />
	</g>
	<g filter="url(#filter_13)">
		<path id="路径 192备份 2" d="M1.47217 7.93141L4.04771 10.508L4.18634 10.3256L1.67097 7.76276L1.47217 7.93141Z" fill="rgb(250,167,50)" fill-rule="evenodd" />
		<path id="路径 192备份 2" d="M1.82683 8.28622L4.02429 10.4846L4.04771 10.508L4.18634 10.3256L1.67097 7.76276L1.47217 7.93141L1.48552 7.94477L1.82683 8.28622Z" fill="rgb(165,63,63)" fill-opacity="0" fill-rule="evenodd" />
	</g>
</svg>
