<svg viewBox="0 0 16 16" xmlns="http://www.w3.org/2000/svg" xmlns:xlink="http://www.w3.org/1999/xlink" width="16.000000" height="16.000000" fill="none" customFrame="#000000">
	<defs>
		<g id="pixso_custom_effect_0">
			<effect x="0.000000" y="0.500000" visibility="visible" fill="rgb(227,48,1)" fill-opacity="1" effectType="innerShadow" stdDeviation="1" radius="0" />
			<effect x="0.000000" y="0.500000" visibility="visible" fill="rgb(226,45,3)" fill-opacity="1" effectType="innerShadow" stdDeviation="1" radius="0" />
		</g>
		<filter id="filter_0" width="9.943115" height="14.446548" x="3.028564" y="0.753448" filterUnits="userSpaceOnUse" customEffect="url(#pixso_custom_effect_0)" color-interpolation-filters="sRGB">
			<feFlood flood-opacity="0" result="BackgroundImageFix" />
			<feBlend result="shape" in="SourceGraphic" in2="BackgroundImageFix" mode="normal" />
			<feOffset dx="0.000000" dy="0.500000" in="SourceAlpha" />
			<feGaussianBlur stdDeviation="0.333333343" />
			<feComposite k2="-1" k3="1" in2="SourceAlpha" operator="arithmetic" />
			<feColorMatrix type="matrix" values="0 0 0 0 0.890196 0 0 0 0 0.188235 0 0 0 0 0.00392157 0 0 0 1 0 " />
			<feBlend result="effect_innerShadow_1" in2="shape" mode="normal" />
			<feOffset dx="0.000000" dy="0.500000" in="SourceAlpha" />
			<feGaussianBlur stdDeviation="0.333333343" />
			<feComposite k2="-1" k3="1" in2="SourceAlpha" operator="arithmetic" />
			<feColorMatrix type="matrix" values="0 0 0 0 0.886275 0 0 0 0 0.176471 0 0 0 0 0.0117647 0 0 0 1 0 " />
			<feBlend result="effect_innerShadow_2" in2="effect_innerShadow_1" mode="normal" />
		</filter>
		<linearGradient id="paint_linear_0" x1="8.00008965" x2="8.00008965" y1="0.753448486" y2="15.1999989" gradientUnits="userSpaceOnUse">
			<stop stop-color="rgb(255,197,10)" offset="0" stop-opacity="1" />
			<stop stop-color="rgb(224,17,20)" offset="1" stop-opacity="1" />
		</linearGradient>
		<linearGradient id="paint_linear_1" x1="8.23011398" x2="8.23011398" y1="2.36502075" y2="14.6953249" gradientUnits="userSpaceOnUse">
			<stop stop-color="rgb(252,175,2)" offset="0" stop-opacity="1" />
			<stop stop-color="rgb(254,67,7)" offset="1" stop-opacity="1" />
		</linearGradient>
		<g id="pixso_custom_effect_1">
			<effect x="0.000000" y="1.000000" visibility="hidden" fill="rgb(227,48,1)" fill-opacity="1" effectType="innerShadow" stdDeviation="2" radius="0" />
			<effect visibility="visible" effectType="gaussianBlur" stdDeviation="0.277081907" />
		</g>
		<filter id="filter_1" width="7.102295" height="9.944504" x="4.729492" y="4.721359" filterUnits="userSpaceOnUse" customEffect="url(#pixso_custom_effect_1)" color-interpolation-filters="sRGB">
			<feFlood flood-opacity="0" result="BackgroundImageFix" />
			<feBlend result="shape" in="SourceGraphic" in2="BackgroundImageFix" mode="normal" />
			<feGaussianBlur stdDeviation="0.0923606381" result="effect_layerBlur_1" />
		</filter>
		<linearGradient id="paint_linear_2" x1="8.28065395" x2="8.28065395" y1="4.72135925" y2="14.6658525" gradientUnits="userSpaceOnUse">
			<stop stop-color="rgb(254,199,49)" offset="0" stop-opacity="1" />
			<stop stop-color="rgb(255,242,229)" offset="1" stop-opacity="1" />
		</linearGradient>
		<g id="pixso_custom_effect_2">
			<effect visibility="visible" effectType="gaussianBlur" stdDeviation="0.693161368" />
		</g>
		<filter id="filter_2" width="4.767456" height="5.718948" x="6.115234" y="8.856476" filterUnits="userSpaceOnUse" customEffect="url(#pixso_custom_effect_2)" color-interpolation-filters="sRGB">
			<feFlood flood-opacity="0" result="BackgroundImageFix" />
			<feBlend result="shape" in="SourceGraphic" in2="BackgroundImageFix" mode="normal" />
			<feGaussianBlur stdDeviation="0.231053784" result="effect_layerBlur_1" />
		</filter>
		<linearGradient id="paint_linear_3" x1="8.80690575" x2="8.80690575" y1="10.0625916" y2="13.0023079" gradientUnits="userSpaceOnUse">
			<stop stop-color="rgb(255,246,136)" offset="0" stop-opacity="1" />
			<stop stop-color="rgb(255,255,255)" offset="1" stop-opacity="1" />
		</linearGradient>
	</defs>
	<rect id="Dmoji/32px/热度" width="16.000000" height="16.000000" x="0.000000" y="0.000000" />
	<rect id="矩形" width="16.000000" height="16.000000" x="0.000000" y="0.000000" fill="rgb(216,216,216)" fill-opacity="0" />
	<rect id="矩形" width="15.500000" height="15.500000" x="0.250000" y="0.250000" stroke="rgb(151,151,151)" stroke-opacity="0" stroke-width="0.5" />
	<g id="Emoji/Animals &amp; Nature/Fire">
		<g filter="url(#filter_0)">
			<path id="路径 3备份" d="M3.06888 5.28443C3.06888 5.28443 3.81853 5.71836 3.22372 8.13083C2.62891 10.5433 3.37747 14.0163 5.69394 14.7861C6.01137 14.8916 6.97475 15.2 8.10162 15.2C9.845 15.2 11.1857 14.3863 11.7138 13.6987C13.0632 11.9415 13.0277 10.352 12.9304 9.52866C12.8739 9.05108 12.5339 8.2198 12.4994 7.97669C12.465 7.73358 12.5386 7.53834 12.5386 7.53834C12.5386 7.53834 12.3538 7.49497 12.2567 7.73719C11.8752 7.27669 12.3538 6.32328 12.3538 6.32328C12.3538 6.32328 11.5768 6.18903 11.1991 6.52158C10.68 6.9787 10.7342 7.53834 10.7342 7.53834C10.7342 7.53834 10.0541 7.40992 10.2466 6.568C10.439 5.72607 10.8656 5.12381 10.7342 4.17324C10.6029 3.22267 9.48622 2.66301 9.03153 2.439C8.57684 2.21498 8.24538 1.55753 7.87348 1.24163C7.32099 0.772332 6.99217 0.753448 6.99217 0.753448C6.99217 0.753448 7.82455 3.0183 6.7759 4.57167C6.29396 5.28558 5.78393 5.82379 5.53679 6.34768C5.2462 6.96371 5.26698 7.5284 5.35683 7.87135C5.52311 8.50596 6.10454 9.06605 6.10454 9.06605C6.10454 9.06605 5.2646 8.93723 4.8973 7.96183C4.53 6.98643 4.99314 6.65491 4.41865 5.94083C3.84417 5.22675 3.06888 5.28443 3.06888 5.28443Z" fill="url(#paint_linear_0)" fill-rule="evenodd" />
			<path id="路径 3备份" d="M5.31114 7.62352C5.32167 7.7151 5.33768 7.79826 5.35683 7.87135C5.52311 8.50596 6.10454 9.06605 6.10454 9.06605C6.10454 9.06605 5.2646 8.93723 4.8973 7.96183C4.86514 7.87643 4.83934 7.79596 4.81866 7.71974C4.73427 7.4087 4.73501 7.1684 4.73568 6.952C4.73672 6.61577 4.73758 6.33725 4.41865 5.94083C4.21357 5.68591 3.98289 5.52935 3.77104 5.4334C3.38943 5.26058 3.06888 5.28443 3.06888 5.28443C3.06888 5.28443 3.26179 5.3961 3.37424 5.82105C3.48347 6.23382 3.5168 6.94216 3.22372 8.13083C2.62891 10.5433 3.37747 14.0163 5.69394 14.7861C6.01137 14.8916 6.97475 15.2 8.10162 15.2C9.845 15.2 11.1857 14.3863 11.7138 13.6987C13.0632 11.9415 13.0277 10.352 12.9304 9.52866C12.8888 9.17725 12.6938 8.63435 12.5799 8.27516C12.5496 8.1798 12.5251 8.09739 12.5107 8.03495C12.5056 8.01295 12.5018 7.99343 12.4994 7.97669C12.4845 7.87153 12.4899 7.77532 12.5007 7.7C12.5149 7.6012 12.5386 7.53834 12.5386 7.53834C12.5386 7.53834 12.5238 7.53486 12.5003 7.53537C12.441 7.53668 12.3263 7.56358 12.2567 7.73719C12.1732 7.63633 12.1309 7.51181 12.1158 7.37885C12.1072 7.30374 12.1074 7.22594 12.1137 7.14818C12.1232 7.03004 12.1469 6.912 12.176 6.80366C12.2484 6.53322 12.3538 6.32328 12.3538 6.32328C12.3538 6.32328 12.1028 6.27991 11.8168 6.30353C11.5996 6.32146 11.3622 6.37803 11.1991 6.52158C11.0046 6.6929 10.8905 6.87861 10.824 7.04388C10.713 7.31957 10.7342 7.53834 10.7342 7.53834C10.7342 7.53834 10.4046 7.47609 10.2692 7.15416C10.2102 7.01368 10.1881 6.82376 10.2466 6.568C10.3079 6.2997 10.393 6.05574 10.4762 5.81709C10.6542 5.30685 10.8237 4.82089 10.7342 4.17324C10.6029 3.22267 9.48622 2.66301 9.03153 2.439C8.57684 2.21498 8.24538 1.55753 7.87348 1.24163C7.77326 1.1565 7.68041 1.08619 7.59553 1.02813C7.21252 0.766103 6.99217 0.753448 6.99217 0.753448C6.99217 0.753448 7.07612 0.981872 7.15711 1.34339C7.33115 2.12023 7.49152 3.51162 6.7759 4.57167C6.29396 5.28558 5.78393 5.82379 5.53679 6.34768C5.30813 6.83242 5.27226 7.28538 5.31114 7.62352ZM7.75277 1.84016C7.76101 1.9033 7.76833 1.96646 7.77473 2.02966C7.82406 2.5167 7.81439 2.97325 7.74572 3.39931C7.65688 3.9505 7.47175 4.43454 7.19031 4.85143C7.05893 5.04605 6.86589 5.31001 6.61118 5.64331C6.4349 5.87398 6.3104 6.04168 6.23769 6.14642C6.1272 6.30557 6.04431 6.44377 5.98901 6.561C5.88724 6.77672 5.826 6.9962 5.80527 7.21945C5.80433 7.2296 5.80347 7.23976 5.8027 7.24992C5.78891 7.43087 5.80151 7.59578 5.84051 7.74463C5.89299 7.94495 6.00996 8.16491 6.19141 8.40452C6.28648 8.53006 6.37315 8.63054 6.45142 8.70595L6.45145 8.70597L7.58629 9.79915L6.02875 9.56027C5.96725 9.55084 5.89557 9.53289 5.81373 9.50643C5.66455 9.45819 5.5202 9.39206 5.38068 9.30803C5.22899 9.21666 5.09193 9.1105 4.96949 8.98953C4.73648 8.75931 4.55644 8.47548 4.42937 8.13803C4.34305 7.90879 4.28612 7.68138 4.25859 7.45581C4.24268 7.32549 4.23505 7.15704 4.23568 6.95045C4.23622 6.7767 4.22817 6.6559 4.21153 6.58803C4.18638 6.48544 4.12556 6.37418 4.02908 6.25425C3.99957 6.21757 3.96891 6.18299 3.93709 6.15052C3.99095 6.71585 3.91498 7.41585 3.70918 8.25053C3.56992 8.81534 3.5111 9.41965 3.53272 10.0635C3.55478 10.7204 3.65841 11.3403 3.84361 11.923C4.03633 12.5295 4.2997 13.0363 4.6337 13.4437C4.93308 13.8088 5.27532 14.0739 5.66044 14.239C5.72303 14.2659 5.78676 14.2901 5.85161 14.3116C6.63081 14.5705 7.38081 14.7 8.10162 14.7C8.62363 14.7 9.12138 14.6242 9.59488 14.4726C9.78438 14.412 9.97 14.3392 10.1517 14.2542C10.4178 14.1299 10.6569 13.987 10.8689 13.8255C11.0568 13.6825 11.2062 13.5387 11.3172 13.3942C11.8993 12.6362 12.261 11.8408 12.4022 11.0081C12.4806 10.546 12.4912 10.0724 12.4338 9.58734C12.4152 9.43006 12.3292 9.11753 12.1758 8.64974C12.1283 8.505 12.0905 8.38386 12.0624 8.28635L11.8717 8.05619C11.834 8.01066 11.8003 7.96275 11.7707 7.91246C11.6039 7.62947 11.5652 7.27105 11.6544 6.83722C11.5972 6.85401 11.5556 6.87388 11.5296 6.89685C11.4222 6.99137 11.3435 7.09797 11.2934 7.21665C11.2783 7.25248 11.2657 7.2894 11.2558 7.32743C11.2431 7.37649 11.2355 7.42372 11.2332 7.4691C11.2326 7.48034 11.2325 7.49004 11.2327 7.49821L11.2962 8.15328L10.6414 8.02965C10.5792 8.01789 10.5118 7.997 10.4394 7.96697C10.3407 7.92604 10.2503 7.87424 10.1682 7.81157C10.136 7.78705 10.1052 7.76088 10.0756 7.73303C10.0082 7.66964 9.95011 7.60026 9.90125 7.52487C9.83947 7.42957 9.79248 7.32469 9.76027 7.21022C9.69649 6.98354 9.69611 6.73234 9.75912 6.4566C9.80413 6.25969 9.88579 5.99163 10.0041 5.65241C10.1138 5.33798 10.1842 5.10327 10.2153 4.94829C10.2545 4.75326 10.2669 4.56024 10.2525 4.36923C10.2493 4.32661 10.2448 4.2841 10.2389 4.24169C10.2003 3.96198 10.0168 3.68858 9.68856 3.4215C9.47792 3.25012 9.18525 3.07212 8.81055 2.88751C8.63642 2.80172 8.46267 2.66799 8.28928 2.4863C8.19913 2.39184 8.07519 2.24431 7.91747 2.04371C7.85635 1.96598 7.80145 1.89813 7.75277 1.84016Z" fill="rgb(151,151,151)" fill-opacity="0" fill-rule="evenodd" />
		</g>
		<path id="路径 3备份" d="M4.05987 7.51888C4.05987 7.51888 3.80711 8.17795 4.10967 10.6687C4.41223 13.1593 6.48449 14.7451 8.21893 14.6941C9.95338 14.6432 11.0024 13.7073 11.4068 13.1807C12.4404 11.8349 12.6372 11.288 12.455 9.77916C12.3899 9.23978 12.2042 8.75646 11.8779 8.369C11.664 8.11492 11.1759 7.63535 11.1759 7.63535C11.1759 7.63535 11.1759 8.15935 10.8799 8.29828C10.5839 8.43722 9.86744 8.22002 9.71262 7.12856C9.55781 6.0371 9.95946 5.46225 9.99226 4.77725C10.0296 3.99866 9.04011 3.62783 9.04011 3.62783C9.04011 3.62783 8.80211 5.02529 8.48859 4.57826C8.17508 4.13122 8.36372 3.57131 8.27016 3.07282C8.1766 2.57433 7.88333 2.36502 7.88333 2.36502C7.88333 2.36502 8.08333 3.32339 7.28018 4.5131C6.91107 5.05987 6.37867 5.42645 6.16198 6.46361C5.94528 7.50076 6.83859 8.44985 7.0191 8.95561C7.19961 9.46138 5.96646 9.9356 5.18197 9.16875C4.39748 8.40191 4.05987 7.51888 4.05987 7.51888Z" fill="url(#paint_linear_1)" fill-rule="evenodd" />
		<path id="路径 3备份" d="M8.88285 4.2679C8.88243 4.26915 8.88202 4.27039 8.8816 4.27163C8.78293 4.56468 8.64518 4.80153 8.48859 4.57826C8.42021 4.48075 8.37571 4.37786 8.34697 4.27142C8.34653 4.26976 8.34608 4.26811 8.34564 4.26645C8.29142 4.06194 8.29475 3.84441 8.29809 3.62666C8.29887 3.57536 8.29966 3.52406 8.29969 3.47291C8.29978 3.33743 8.2946 3.20303 8.27016 3.07282C8.1766 2.57433 7.88333 2.36502 7.88333 2.36502C7.88333 2.36502 7.97074 2.78387 7.79793 3.41152C7.70935 3.73328 7.55237 4.1099 7.28018 4.5131C6.91107 5.05987 6.37867 5.42645 6.16198 6.46361C6.00536 7.2132 6.42856 7.91679 6.74342 8.44026C6.8642 8.64108 6.96905 8.81539 7.0191 8.95561C7.19961 9.46138 5.96646 9.9356 5.18197 9.16875C4.87864 8.87225 4.64213 8.55838 4.4661 8.2849C4.18687 7.85107 4.05987 7.51888 4.05987 7.51888C4.05987 7.51888 3.97404 7.74268 3.96228 8.42228C3.95386 8.90894 3.98342 9.62933 4.10967 10.6687C4.41223 13.1593 6.48449 14.7451 8.21893 14.6941C9.95338 14.6432 11.0024 13.7073 11.4068 13.1807C12.4404 11.8349 12.6372 11.288 12.455 9.77916C12.3899 9.23978 12.2042 8.75646 11.8779 8.369C11.8093 8.28755 11.7126 8.18293 11.6128 8.07836C11.4012 7.85673 11.1759 7.63535 11.1759 7.63535C11.1759 7.63535 11.1759 7.97921 11.0185 8.18368C10.9816 8.23162 10.9361 8.2719 10.8799 8.29828C10.5839 8.43722 9.86744 8.22002 9.71262 7.12856C9.61436 6.43577 9.74028 5.95111 9.85378 5.51431C9.91909 5.26296 9.98028 5.02745 9.99226 4.77725C10.0117 4.37191 9.75281 4.07709 9.50015 3.88757C9.2675 3.71305 9.04011 3.62783 9.04011 3.62783C9.04011 3.62783 9.0002 3.86212 8.93155 4.10815C8.93086 4.11065 8.93016 4.11316 8.92945 4.11566C8.92869 4.11836 8.92793 4.12106 8.92716 4.12376C8.91346 4.1721 8.89866 4.22071 8.88285 4.2679ZM9.3565 4.42809L9.35584 4.43004C9.27407 4.67323 9.17717 4.85231 9.06515 4.96728C9.00563 5.02836 8.93981 5.07576 8.86769 5.10948C8.80977 5.13656 8.7506 5.15403 8.69018 5.16187C8.64102 5.16825 8.59102 5.16826 8.5402 5.16189C8.48473 5.15495 8.43207 5.14119 8.38223 5.12063C8.26592 5.07263 8.16492 4.98754 8.07923 4.86535C8.07196 4.85498 8.06482 4.84451 8.05783 4.83395C7.98654 4.72623 7.93004 4.60873 7.88834 4.48143C7.82886 4.58583 7.76427 4.68964 7.69459 4.79286C7.62059 4.90248 7.50502 5.05243 7.34788 5.24271C7.15484 5.47646 7.01803 5.66243 6.93746 5.80061C6.80638 6.02542 6.71103 6.28051 6.65141 6.56587C6.60238 6.8005 6.63328 7.06562 6.74408 7.36124C6.7916 7.488 6.8562 7.6272 6.9379 7.77884C6.98849 7.87274 7.06648 8.00731 7.17188 8.18255C7.25295 8.31733 7.31085 8.41618 7.34557 8.47911C7.41042 8.59665 7.45856 8.69946 7.49 8.78754C7.51999 8.87156 7.53582 8.95585 7.53749 9.04042C7.5391 9.12176 7.52762 9.20335 7.50304 9.28521C7.49707 9.30509 7.49039 9.3247 7.483 9.34404C7.43879 9.45968 7.36912 9.56558 7.27398 9.66175C7.09751 9.84016 6.86339 9.96202 6.57164 10.0273C6.45256 10.054 6.33316 10.0689 6.21346 10.0721C6.04449 10.0766 5.87491 10.0576 5.70471 10.0153C5.55709 9.9786 5.41771 9.92608 5.28658 9.85773C5.12226 9.77209 4.97089 9.66162 4.83246 9.5263C4.70758 9.40423 4.58833 9.27551 4.47471 9.14013C4.49555 9.56983 4.53932 10.0592 4.60602 10.6084C4.65005 10.9708 4.73539 11.3173 4.86207 11.6481C4.92395 11.8097 4.99569 11.9675 5.0773 12.1215C5.21311 12.3778 5.37154 12.6154 5.55258 12.8344C5.67857 12.9867 5.81551 13.13 5.96341 13.2643C6.30476 13.5742 6.67573 13.8107 7.07631 13.9739C7.4635 14.1316 7.83948 14.2051 8.20425 14.1943C8.72418 14.1791 9.20704 14.0766 9.65284 13.887C9.79268 13.8276 9.92886 13.7595 10.0614 13.6829C10.2746 13.5597 10.4705 13.4184 10.6492 13.259C10.791 13.1326 10.9114 13.005 11.0103 12.8762C11.2732 12.5338 11.4716 12.2528 11.6053 12.0334C11.7462 11.8022 11.8478 11.588 11.9099 11.3907C11.9716 11.1951 12.0062 10.9789 12.0137 10.7422C12.0211 10.5059 12.0028 10.2049 11.9586 9.8391C11.9024 9.37369 11.748 8.99101 11.4955 8.69104C11.4598 8.6487 11.4175 8.60081 11.3685 8.54735C11.3363 8.58291 11.3015 8.61539 11.2644 8.64479C11.2119 8.68632 11.1546 8.72169 11.0923 8.7509C11.0632 8.76455 11.0336 8.77656 11.0034 8.78694C10.8543 8.83821 10.6915 8.84965 10.515 8.82128C10.4754 8.81492 10.4364 8.80669 10.3978 8.79659C10.2392 8.75509 10.0889 8.68205 9.94685 8.57746C9.94377 8.57519 9.9407 8.57291 9.93763 8.57062C9.75341 8.4328 9.60075 8.25279 9.47966 8.03059C9.3498 7.79231 9.26244 7.51504 9.21758 7.19878C9.16936 6.85882 9.16478 6.52403 9.20385 6.19442C9.20511 6.18371 9.20643 6.17302 9.20779 6.16232C9.23274 5.96629 9.28675 5.70837 9.36985 5.38857C9.41053 5.23199 9.43833 5.1174 9.45323 5.04479C9.47553 4.93619 9.48873 4.83904 9.49284 4.75333C9.49326 4.74452 9.49335 4.73572 9.49312 4.72693C9.49047 4.62619 9.44493 4.52658 9.3565 4.42809Z" fill="rgb(151,151,151)" fill-opacity="0" fill-rule="evenodd" />
		<g filter="url(#filter_1)">
			<path id="路径 3备份" d="M4.77644 10.2097C4.77644 10.2097 4.61899 10.9838 4.98957 12.1314C5.36016 13.2791 6.51903 14.7078 8.20423 14.6649C9.09619 14.6422 10.2245 14.3298 10.9392 13.4946C11.6504 12.6636 11.8318 11.4922 11.8318 10.9238C11.8318 9.71605 11.4952 8.36645 11.4952 8.36645C11.4952 8.36645 10.9055 9.11199 10.5325 9.20053C10.1594 9.28907 9.39154 9.46644 9.00753 8.86224C8.62352 8.25804 8.4642 7.48972 8.56257 7.15323C8.66095 6.81675 8.79257 6.6878 8.84471 6.40567C8.87828 6.22404 8.79445 5.74322 8.79445 5.74322C8.79445 5.74322 8.18324 6.46888 7.96527 6.14779C7.74731 5.8267 8.17672 5.56633 8.10338 5.17556C8.03003 4.78479 7.96527 4.72136 7.96527 4.72136C7.96527 4.72136 6.71991 6.11551 6.81473 7.10237C6.90954 8.08924 7.4145 8.36306 7.64982 9.53971C7.88515 10.7164 6.78244 11.3527 5.99438 11.0889C5.20632 10.8251 4.77644 10.2097 4.77644 10.2097Z" fill="url(#paint_linear_2)" fill-rule="evenodd" />
			<path id="路径 3备份" d="M8.34481 6.14812C8.19821 6.23828 8.05119 6.27436 7.96527 6.14779C7.84645 5.97274 7.92002 5.81574 7.99965 5.64582C8.04483 5.54941 8.09197 5.44884 8.107 5.33845C8.11408 5.28652 8.11405 5.23242 8.10338 5.17556C8.03003 4.78479 7.96527 4.72136 7.96527 4.72136C7.96527 4.72136 7.80083 4.90545 7.59601 5.18719C7.23716 5.68079 6.75437 6.47411 6.81473 7.10237C6.90954 8.08924 7.4145 8.36306 7.64982 9.53971C7.88515 10.7164 6.78244 11.3527 5.99438 11.0889C5.68873 10.9865 5.43696 10.8313 5.24325 10.6797C4.93753 10.4403 4.77644 10.2097 4.77644 10.2097C4.77644 10.2097 4.72301 10.4724 4.75166 10.9186C4.77219 11.2384 4.83487 11.6524 4.98957 12.1314C5.36016 13.2791 6.51903 14.7078 8.20423 14.6649C9.09619 14.6422 10.2245 14.3298 10.9392 13.4946C11.6504 12.6636 11.8318 11.4922 11.8318 10.9238C11.8318 10.2281 11.7201 9.48528 11.6254 8.98052C11.5557 8.60903 11.4952 8.36645 11.4952 8.36645C11.4952 8.36645 11.3118 8.59836 11.0848 8.81885C10.9048 8.9937 10.6974 9.16137 10.5325 9.20053C10.1594 9.28907 9.39154 9.46644 9.00753 8.86224C8.62352 8.25804 8.4642 7.48972 8.56257 7.15323C8.66095 6.81675 8.79257 6.6878 8.84471 6.40567C8.84521 6.403 8.84567 6.40026 8.84612 6.39747C8.87583 6.21 8.79445 5.74322 8.79445 5.74322C8.79445 5.74322 8.57012 6.00955 8.34481 6.14812ZM8.1869 6.72655C8.12592 6.73249 8.06615 6.7308 8.0076 6.72148C7.97956 6.71701 7.9518 6.7108 7.92432 6.70284C7.85817 6.68367 7.7976 6.656 7.74261 6.61985C7.6689 6.57137 7.60522 6.50762 7.55158 6.42861C7.52893 6.39524 7.50886 6.36134 7.49137 6.32691C7.46543 6.38363 7.44207 6.43904 7.4213 6.49315C7.3345 6.71935 7.29821 6.90648 7.31244 7.05456C7.33026 7.24012 7.36904 7.41599 7.42878 7.58218C7.46721 7.68912 7.53882 7.84847 7.6436 8.06023C7.76117 8.29783 7.84891 8.49071 7.90681 8.63885C8.00613 8.89296 8.0839 9.16056 8.14011 9.44166C8.19963 9.73924 8.19681 10.0216 8.13165 10.2888C8.11503 10.357 8.09435 10.4241 8.06961 10.4903C8.02042 10.6219 7.95747 10.7442 7.88076 10.8571C7.78207 11.0023 7.66062 11.1321 7.51639 11.2464C7.407 11.333 7.29097 11.4059 7.16828 11.4649C7.02583 11.5333 6.87442 11.5832 6.71404 11.6144C6.4987 11.6563 6.28976 11.6601 6.08721 11.626C6.00223 11.6117 5.91838 11.5907 5.83565 11.563C5.76966 11.5409 5.70463 11.5165 5.64054 11.4899C5.5246 11.4416 5.41177 11.3858 5.30206 11.3226C5.33907 11.5368 5.39351 11.7552 5.46538 11.9778C5.54956 12.2385 5.67221 12.4957 5.83332 12.7495C6.00803 13.0246 6.21013 13.2662 6.43962 13.4741C6.68766 13.6988 6.95271 13.8696 7.23477 13.9867C7.39357 14.0526 7.55563 14.1003 7.72093 14.1299C7.87497 14.1574 8.03184 14.1691 8.19152 14.1651C8.55447 14.1558 8.90263 14.0992 9.236 13.9952C9.31109 13.9717 9.38543 13.9459 9.45902 13.9177C9.91574 13.7424 10.2825 13.493 10.5593 13.1695C10.829 12.8544 11.0331 12.4555 11.1716 11.9728C11.2784 11.6006 11.3318 11.251 11.3318 10.9238C11.3318 10.4786 11.2846 9.96824 11.1902 9.39263C10.9927 9.54996 10.8119 9.64809 10.6479 9.68702C10.4959 9.7231 10.3683 9.7489 10.2652 9.76442C10.0766 9.79281 9.90125 9.80132 9.73908 9.78994C9.51334 9.77409 9.30995 9.72019 9.12891 9.62824C9.04257 9.58438 8.96256 9.53271 8.88887 9.4732C8.77182 9.37869 8.67071 9.26444 8.58555 9.13044C8.54193 9.06182 8.50073 8.99188 8.46196 8.92062C8.31057 8.64242 8.19605 8.34416 8.1184 8.02583C8.01777 7.61328 8.00586 7.27565 8.08266 7.01293C8.10811 6.9259 8.14285 6.83044 8.1869 6.72655Z" fill="rgb(151,151,151)" fill-opacity="0" fill-rule="evenodd" />
		</g>
		<g filter="url(#filter_2)">
			<path id="路径 3" d="M8.24238 8.85648C8.24238 8.85648 8.72397 10.4462 9.1029 10.3405C9.48182 10.2347 9.60817 9.99571 9.60817 9.99571C9.60817 9.99571 9.4756 11.302 9.91106 11.3518C10.3465 11.4015 10.8781 10.7538 10.8781 10.7538C10.8781 10.7538 10.9431 13.2816 10.0902 13.9595C9.23725 14.6373 8.67375 14.6573 7.90486 14.483C7.13597 14.3087 6.11523 12.6398 6.11523 12.6398C6.11523 12.6398 6.82513 13.0443 7.27955 12.858C7.73398 12.6717 7.80451 11.2427 7.80451 11.2427C7.80451 11.2427 8.19685 11.4455 8.31596 11.2084C8.43508 10.9713 8.24238 8.85648 8.24238 8.85648Z" fill="url(#paint_linear_3)" fill-rule="evenodd" />
			<path id="路径 3" d="M9.59746 10.6723C9.62025 10.9995 9.69707 11.3273 9.91106 11.3518C10.0623 11.369 10.225 11.3022 10.3731 11.2076C10.6516 11.0298 10.8781 10.7538 10.8781 10.7538C10.8781 10.7538 10.8858 11.0512 10.8614 11.4692C10.8147 12.2701 10.6506 13.5141 10.0902 13.9595C9.23725 14.6373 8.67375 14.6573 7.90486 14.483C7.48105 14.3869 6.98073 13.8367 6.617 13.3623C6.32084 12.9759 6.11523 12.6398 6.11523 12.6398C6.11523 12.6398 6.50824 12.8637 6.89661 12.9016C7.0302 12.9146 7.16325 12.9056 7.27955 12.858C7.5515 12.7465 7.68596 12.19 7.7501 11.761C7.79314 11.4731 7.80451 11.2427 7.80451 11.2427C7.80451 11.2427 8.12402 11.4079 8.27391 11.2659C8.29012 11.2505 8.30434 11.2316 8.31596 11.2084C8.36058 11.1196 8.36145 10.7673 8.34508 10.3614C8.31776 9.6837 8.24238 8.85648 8.24238 8.85648C8.24238 8.85648 8.53152 9.8109 8.83799 10.1915C8.92199 10.2958 9.00728 10.357 9.08828 10.3437C9.09317 10.3429 9.09804 10.3418 9.1029 10.3405C9.48182 10.2347 9.60817 9.99571 9.60817 9.99571C9.60817 9.99571 9.57387 10.3336 9.59746 10.6723ZM9.11134 10.845C9.07745 10.8478 9.04379 10.8478 9.01035 10.8451C8.95554 10.8406 8.90133 10.8287 8.84773 10.8094C8.84149 11.1247 8.81316 11.3325 8.76275 11.4329C8.71604 11.5259 8.65592 11.6025 8.5824 11.6629C8.50728 11.7246 8.41817 11.7692 8.31507 11.7968C8.29338 11.8026 8.27137 11.8075 8.24905 11.8114C8.23588 11.899 8.22058 11.9873 8.20314 12.0765C8.15261 12.3348 8.08852 12.5522 8.0109 12.7285C7.88476 13.015 7.71513 13.2076 7.50201 13.3063C7.49119 13.3113 7.48025 13.3161 7.46921 13.3206C7.40726 13.346 7.34269 13.3658 7.27549 13.3801C7.40133 13.5253 7.52044 13.6477 7.63283 13.7475C7.79523 13.8917 7.92275 13.9743 8.0154 13.9953C8.19902 14.037 8.35563 14.0622 8.48524 14.0712C8.62247 14.0807 8.7504 14.0737 8.86904 14.0503C9.13817 13.997 9.44152 13.8363 9.77911 13.568C9.89823 13.4734 10.0052 13.2875 10.1001 13.0106C10.1902 12.7476 10.2595 12.424 10.3079 12.0399C10.3185 11.956 10.3279 11.8708 10.3362 11.7841C10.1731 11.8442 10.0143 11.8659 9.85959 11.8491C9.85784 11.8489 9.85609 11.8487 9.85434 11.8485C9.74019 11.8355 9.63882 11.8017 9.55022 11.7472C9.30988 11.5992 9.16358 11.2985 9.11134 10.845Z" fill="rgb(151,151,151)" fill-opacity="0" fill-rule="evenodd" />
		</g>
	</g>
</svg>
