<svg viewBox="0 0 48 48" xmlns="http://www.w3.org/2000/svg" xmlns:xlink="http://www.w3.org/1999/xlink" width="48.000000" height="48.000000" fill="none">
	<rect id="ic_public_setting" width="48.000000" height="48.000000" x="0.000000" y="0.000000" />
	<g id="91333454">
		<path id="path3" d="M19.2569 10.2626L18.611 13.1222L16.811 14.1601L14.0094 13.2964C13.0368 12.9916 11.9917 13.4053 11.4836 14.2835L8.86349 18.8197C8.35543 19.6979 8.52236 20.8157 9.26993 21.5052L11.4256 23.5011L11.4256 25.5696L9.26993 27.5656C8.52236 28.2551 8.35543 29.3728 8.86349 30.251L11.4836 34.7873C11.9917 35.6655 13.0368 36.0792 14.0094 35.7744L16.8255 34.9034L18.6037 35.934L19.2569 38.8082C19.4819 39.8025 20.3674 40.5066 21.3835 40.5066L26.6165 40.5066C27.6326 40.5066 28.5181 39.8025 28.7431 38.8082L29.3963 35.9268L31.1673 34.9034L33.9906 35.7744C34.9632 36.0792 36.0083 35.6655 36.5164 34.7873L39.1365 30.251C39.6446 29.3728 39.4776 28.2551 38.7301 27.5656L36.5672 25.5624L36.5672 23.5084L38.7301 21.5052C39.4776 20.8157 39.6446 19.6979 39.1365 18.8197L36.5164 14.2835C36.0083 13.4053 34.9632 12.9916 33.9906 13.2964L31.1818 14.1601L29.3891 13.1295L28.7431 10.2626C28.5181 9.26821 27.6326 8.57144 26.6165 8.57144L21.3835 8.57144C20.3674 8.57144 19.4819 9.26821 19.2569 10.2626Z" fill-rule="nonzero" stroke="rgb(134,138,153)" stroke-linejoin="round" stroke-width="2" />
		<ellipse id="path4" rx="6.532181" ry="6.532178" cx="24.0035858" cy="24.5388603" stroke="rgb(134,138,153)" stroke-width="2" />
	</g>
</svg>
