<svg width="16" height="16" viewBox="0 0 16 16" fill="none" xmlns="http://www.w3.org/2000/svg">
<path d="M1 13L3 15H13L15 13H1Z" fill="#DE5258"/>
<path d="M3 7H12V10C12 11.6569 10.6569 13 9 13H6C4.34315 13 3 11.6569 3 10V7Z" fill="#DE5258"/>
<path fill-rule="evenodd" clip-rule="evenodd" d="M13 9H11V10H13C13.4142 10 13.7678 9.85355 14.0607 9.56066C14.3536 9.26777 14.5 8.91421 14.5 8.5C14.5 8.08579 14.3536 7.73223 14.0607 7.43934C13.7678 7.14645 13.4142 7 13 7H11V8H13C13.1381 8 13.2559 8.04882 13.3535 8.14645C13.4512 8.24408 13.5 8.36193 13.5 8.5C13.5 8.63807 13.4512 8.75592 13.3535 8.85355C13.2559 8.95118 13.1381 9 13 9Z" fill="#DE5258"/>
<path fill-rule="evenodd" clip-rule="evenodd" d="M5.51489 3.59766C5.43353 4.17584 5.68907 4.76115 6.2815 5.35359L6.98861 4.64649C6.63126 4.28913 6.4701 3.98597 6.50514 3.73701C6.52711 3.58086 6.67014 3.33608 6.93422 3.00268C7.2497 2.60438 7.43539 2.27696 7.4913 2.02044C7.59524 1.54354 7.42768 1.08555 6.98861 0.646484L6.2815 1.35359C6.46304 1.53513 6.54062 1.68643 6.51424 1.80749C6.49122 1.91312 6.36991 2.10455 6.15032 2.38178C5.77389 2.85704 5.56208 3.26233 5.51489 3.59766Z" fill="#DE5258"/>
<path fill-rule="evenodd" clip-rule="evenodd" d="M7.51489 4.59766C7.43353 5.17584 7.68907 5.76115 8.2815 6.35359L8.98861 5.64649C8.63126 5.28913 8.4701 4.98597 8.50514 4.73701C8.52711 4.58086 8.67014 4.33608 8.93422 4.00268C9.2497 3.60438 9.43539 3.27696 9.4913 3.02044C9.59524 2.54354 9.42768 2.08555 8.98861 1.64648L8.2815 2.35359C8.46304 2.53513 8.54062 2.68643 8.51424 2.80749C8.49122 2.91312 8.36991 3.10455 8.15032 3.38178C7.77389 3.85704 7.56208 4.26233 7.51489 4.59766Z" fill="#DE5258"/>
</svg>
