<svg width="16" height="16" viewBox="0 0 16 16" fill="none" xmlns="http://www.w3.org/2000/svg">
<path d="M14 4C14 2.89543 13.1046 2 12 2H4C2.89543 2 2 2.89543 2 4V12C2 13.1046 2.89543 14 4 14H12C13.1046 14 14 13.1046 14 12V4Z" fill="#FFAF0F"/>
<path d="M4.21289 11H5.22179C5.37569 11 5.51107 10.9686 5.62792 10.9059C5.74762 10.8404 5.83882 10.7492 5.90152 10.6323C5.96707 10.5126 5.99984 10.3758 5.99984 10.2219L5.99989 5.99995H7.00024L7.00019 10.3584C7.00019 10.6804 6.92894 10.9654 6.78644 11.2134C6.64394 11.4613 6.44587 11.6551 6.19222 11.7948C5.93857 11.9316 5.64787 12 5.32012 12H4.21289V11Z" fill="black"/>
<path d="M10.1056 12.1026C9.68092 12.1026 9.30472 12.0256 8.97697 11.8717C8.64922 11.715 8.39272 11.4984 8.20747 11.2219C8.02222 10.9426 7.92817 10.6234 7.92532 10.2643H8.9385C8.9385 10.4524 8.98837 10.6206 9.08812 10.7688C9.18787 10.917 9.3261 11.0324 9.5028 11.115C9.68235 11.1948 9.88755 11.2347 10.1184 11.2347C10.3435 11.2347 10.5416 11.1977 10.7126 11.1236C10.8836 11.0495 11.0147 10.9455 11.1059 10.8115C11.2 10.6747 11.247 10.518 11.247 10.3413C11.247 10.119 11.18 9.928 11.0461 9.7684C10.9121 9.60595 10.734 9.5062 10.5117 9.46915L9.49852 9.29815C9.20782 9.24685 8.9556 9.14425 8.74185 8.99035C8.5281 8.83645 8.3628 8.64408 8.24595 8.41323C8.13195 8.17953 8.07495 7.92445 8.07495 7.648C8.07495 7.3174 8.16045 7.021 8.33145 6.7588C8.5053 6.49375 8.74612 6.28713 9.05392 6.13893C9.36172 5.98788 9.70942 5.91235 10.097 5.91235C10.4932 5.91235 10.8451 5.98503 11.1529 6.13038C11.4636 6.27573 11.7058 6.47808 11.8797 6.73743C12.0535 6.99678 12.1419 7.29318 12.1447 7.62663H11.1316C11.1316 7.46418 11.0888 7.31883 11.0033 7.19058C10.9178 7.05948 10.7981 6.9583 10.6442 6.88705C10.4903 6.8158 10.3122 6.78018 10.1098 6.78018C9.9075 6.78018 9.72937 6.81438 9.57547 6.88278C9.42157 6.95118 9.30187 7.04808 9.21637 7.17348C9.13087 7.29888 9.08812 7.44423 9.08812 7.60953C9.08812 7.80333 9.15082 7.97148 9.27622 8.11398C9.40162 8.25363 9.5655 8.34055 9.76785 8.37475L10.7639 8.5372C11.0575 8.5885 11.3182 8.69823 11.5462 8.86638C11.7771 9.03453 11.9552 9.244 12.0806 9.4948C12.206 9.7456 12.2687 10.0121 12.2687 10.2942C12.2687 10.6362 12.1775 10.9455 11.9951 11.2219C11.8127 11.4955 11.5576 11.7107 11.2299 11.8674C10.9021 12.0242 10.5274 12.1026 10.1056 12.1026Z" fill="black"/>
</svg>
