<svg viewBox="0 0 16 16" xmlns="http://www.w3.org/2000/svg" xmlns:xlink="http://www.w3.org/1999/xlink" width="16.000000" height="16.000000" fill="none" customFrame="#000000">
	<rect id="third-party icon/json" width="16.000000" height="16.000000" x="0.000000" y="0.000000" />
	<path id="Shape" d="M11.1504 9.05C11.1504 8.75 11.2504 8.3 12.0004 8.3L12.0004 7.45C11.2504 7.45 11.1504 7.05 11.1504 6.7C11.1504 6.45 11.1504 6.15 11.2004 5.85C11.2004 5.55 11.2504 5.3 11.2504 5C11.2504 3.95 10.6004 3.5 9.55039 3.5L9.15039 3.5L9.15039 4.45L9.35039 4.45C9.80039 4.5 10.0004 4.75 10.0004 5.25C10.0004 5.45 10.0004 5.65 9.95039 5.9C9.95039 6.1 9.90039 6.35 9.90039 6.65C9.90039 7.5 10.2504 7.8 10.8504 7.95C10.2504 8.1 9.90039 8.4 9.90039 9.25C9.90039 9.5 9.95039 9.75 9.95039 10C10.0004 10.2 10.0004 10.4 10.0004 10.6C10.0004 11.1 9.85039 11.4 9.35039 11.4L9.15039 11.4L9.15039 12.25L9.55039 12.25C10.5504 12.25 11.2504 11.85 11.2504 10.75C11.2504 10.5 11.2504 10.2 11.2004 9.9C11.2004 9.6 11.1504 9.35 11.1504 9.05ZM3.5 7.45005C4.25 7.45005 4.35 7.05005 4.35 6.70005C4.35 6.40005 4.3 6.15005 4.3 5.85005C4.3 5.55005 4.25 5.25005 4.25 5.00005C4.25 3.95005 4.9 3.50005 5.95 3.50005L6.35 3.50005L6.35 4.45005L6.15 4.45005C5.65 4.45005 5.5 4.75005 5.5 5.25005C5.5 5.45005 5.55 5.65005 5.55 5.90005C5.55 6.10005 5.6 6.35005 5.6 6.65005C5.6 7.50005 5.25 7.80005 4.65 7.95005C5.25 8.10005 5.6 8.40005 5.6 9.25005C5.6 9.55005 5.55 9.80005 5.55 10C5.55 10.2 5.5 10.45 5.5 10.6C5.5 11.1 5.65 11.4 6.15 11.4L6.35 11.4L6.35 12.35L5.95 12.35C4.95 12.35 4.3 11.95 4.3 10.85C4.3 10.55 4.3 10.3 4.35 10C4.4 9.70005 4.4 9.40005 4.4 9.15005C4.4 8.85005 4.3 8.40005 3.55 8.40005L3.5 7.45005Z" fill="rgb(217,195,48)" fill-rule="evenodd" />
</svg>
