<?xml version="1.0" encoding="UTF-8"?>
<svg width="260px" height="260px" viewBox="0 0 260 260" version="1.1" xmlns="http://www.w3.org/2000/svg" xmlns:xlink="http://www.w3.org/1999/xlink">
    <title>logo-dark</title>
    <defs>
        <linearGradient x1="75.2164465%" y1="56.9027862%" x2="11.6195004%" y2="31.1589641%" id="linearGradient-1">
            <stop stop-color="#FFFFFF" stop-opacity="0" offset="0%"></stop>
            <stop stop-color="#FFFFFF" offset="100%"></stop>
        </linearGradient>
        <linearGradient x1="77.3294243%" y1="80.4422124%" x2="55.1591433%" y2="19.5577876%" id="linearGradient-2">
            <stop stop-color="#FFFFFF" stop-opacity="0" offset="0%"></stop>
            <stop stop-color="#FFFFFF" offset="100%"></stop>
        </linearGradient>
    </defs>
    <g id="logo-dark" stroke="none" stroke-width="1" fill="none" fill-rule="evenodd" opacity="0.05">
        <g transform="translate(23.413824, 0.000000)" fill-rule="nonzero" id="path">
            <path d="M185.256196,225.351163 L184.81318,225.881522 L184.81318,225.881522 L184.34371,226.428059 L184.34371,226.428059 L183.847371,226.990347 L183.847371,226.990347 L183.32375,227.56796 C183.234184,227.665483 183.143463,227.763626 183.05158,227.86238 L182.486259,228.462181 C182.293123,228.664515 182.095266,228.869225 181.892622,229.07624 L181.270253,229.704132 L181.270253,229.704132 L180.61874,230.345429 L180.61874,230.345429 L179.937668,230.999707 L179.937668,230.999707 L179.226623,231.666537 L179.226623,231.666537 L178.485191,232.345494 C178.359064,232.45964 178.231654,232.574274 178.102951,232.689387 L177.315164,233.385735 C177.181259,233.502726 177.046045,233.620179 176.909513,233.738083 L176.074438,234.450862 L176.074438,234.450862 L175.20732,235.174063 C175.060107,235.295441 174.911542,235.417235 174.761616,235.539437 L173.845659,236.27747 C173.690255,236.401267 173.533472,236.525454 173.375302,236.650021 L172.409574,237.401927 C171.91832,237.780094 171.414429,238.16153 170.897669,238.545994 L169.84692,239.318889 L169.84692,239.318889 L168.761438,240.099434 L168.761438,240.099434 L167.640809,240.887202 C167.071639,241.282821 166.489133,241.680989 165.89306,242.081465 C165.653532,242.262861 165.388673,242.453413 165.098253,242.653558 L164.483261,243.066769 L164.483261,243.066769 L163.799696,243.50634 C163.560366,243.657344 163.309538,243.81287 163.047144,243.973048 C162.689433,244.191413 162.332649,244.406513 161.976874,244.618393 L161.818396,244.718845 C159.88238,245.926884 157.737554,247.092579 155.5037,248.194794 C151.373935,250.305392 147.468476,251.984161 143.934756,253.315245 L142.77082,253.746178 C142.579192,253.815893 142.388763,253.884563 142.199557,253.952203 L141.0792,254.345803 L141.0792,254.345803 L139.989413,254.715379 L139.989413,254.715379 L138.931409,255.061625 L138.931409,255.061625 L137.906402,255.385233 L137.906402,255.385233 L136.915605,255.686895 L136.915605,255.686895 L135.960232,255.967304 L135.960232,255.967304 L135.041495,256.227153 L135.041495,256.227153 L134.160609,256.467133 C134.017017,256.505513 133.875052,256.543094 133.734739,256.57989 L133.108904,256.754442 L133.108904,256.754442 L132.537236,256.907429 L132.537236,256.907429 L132.022695,257.038286 L132.022695,257.038286 L131.412091,257.18381 L131.412091,257.18381 L130.242295,257.44922 L130.242295,257.44922 L129.427499,257.625125 L129.427499,257.625125 L128.585409,257.799475 L128.585409,257.799475 L127.716584,257.971644 L127.716584,257.971644 L126.821586,258.141011 L126.821586,258.141011 L125.900972,258.30695 L125.900972,258.30695 L124.955303,258.468838 L124.955303,258.468838 L123.985138,258.626052 L123.985138,258.626052 L122.991037,258.777967 L122.991037,258.777967 L121.973558,258.923961 L121.973558,258.923961 L120.933262,259.063408 L120.933262,259.063408 L119.870708,259.195686 L119.870708,259.195686 L118.786456,259.32017 L118.786456,259.32017 L117.681064,259.436237 C117.495102,259.454845 117.308282,259.473077 117.120616,259.490919 L115.984565,259.59319 L115.984565,259.59319 L114.828773,259.685486 C114.440282,259.714518 114.048593,259.741785 113.653801,259.76718 L112.460207,259.837651 C111.858848,259.869976 111.250716,259.897858 110.636126,259.920947 L109.398426,259.960628 L109.398426,259.960628 L108.144064,259.986902 C106.250303,260.015945 104.302192,259.997634 102.308228,259.922494 L100.972219,259.863878 C94.2591427,259.527663 87.0575742,258.53663 79.6822265,256.539915 C71.400629,254.297851 63.3278355,251.018637 55.8243706,246.971124 C66.8501993,251.231651 83.0088941,244.569303 101.277436,231.952135 L102.668928,230.9825 C103.134079,230.655525 103.600532,230.324815 104.068239,229.990449 L105.475075,228.976466 C105.710159,228.805668 105.945543,228.633976 106.181223,228.461401 L107.598795,227.415426 L107.598795,227.415426 L109.023155,226.348729 L109.023155,226.348729 L110.454011,225.261792 C110.693012,225.078977 110.932271,224.895338 111.171782,224.710886 L112.611828,223.594497 C112.852324,223.406833 113.093059,223.218376 113.334029,223.029136 L114.782603,221.884383 L114.782603,221.884383 L116.236494,220.721326 L116.236494,220.721326 C120.872615,219.942789 125.248984,218.87744 129.416934,217.741706 L130.970245,217.312928 C131.227536,217.241057 131.484037,217.169015 131.739762,217.096858 L134.771987,216.22876 L134.771987,216.22876 L139.191074,214.95004 L139.191074,214.95004 L140.632043,214.540192 L140.632043,214.540192 L142.057983,214.142766 L142.057983,214.142766 L143.469497,213.7603 C158.684929,209.707106 171.466627,208.733841 185.256196,225.351163 Z M15.2808925,98.5229741 C14.1199184,100.60393 13.1322309,102.615555 12.295582,104.548066 L11.9888752,105.26903 L11.6274164,106.153596 L11.161815,107.338134 C9.6297552,111.333704 8.57063558,115.540822 8.20631359,119.905609 L8.18420124,120.183746 L8.18420124,120.183746 L8.13353339,120.935268 C8.06469172,122.124894 8.04816821,123.325793 8.08838011,124.53689 C8.58077368,139.366744 19.0891097,155.6347 36.3890833,166.23491 L36.445722,167.598825 L36.445722,167.598825 L36.5127699,168.942326 L36.5127699,168.942326 L36.5910968,170.265684 C37.4055765,182.961649 39.9229518,192.871964 47.6795017,201.093092 L48.085393,201.516822 C50.1396481,203.629288 52.0441517,205.742152 53.8840652,207.816327 L56.6061381,210.893685 C56.9055737,211.231303 57.2043979,211.567305 57.5030051,211.901507 C37.7574323,221.389122 26.2397304,218.51364 15.2737241,207.685864 L14.5960507,207.006002 L14.5960507,207.006002 L14.2576156,206.658536 L15.4548691,208.745692 L16.0727697,209.785182 L16.5545998,210.569524 L17.0959925,211.425289 L17.7000727,212.351055 L18.1961513,213.090463 L18.7305676,213.867849 L19.3046399,214.682613 L19.9196864,215.534156 L20.5770255,216.421879 L21.2779754,217.345182 L21.7701546,217.980188 L22.2826929,218.630564 L23.0905281,219.634558 L23.9463684,220.672134 L24.5442492,221.382213 L25.4830275,222.474429 L26.1374209,223.22038 L26.8151028,223.980368 L27.516464,224.754216 L28.2418951,225.541748 L28.9917865,226.342784 L29.766529,227.157148 L30.9760928,228.403295 L31.3921294,228.825149 L32.1742227,229.606719 L32.5642712,229.990396 L32.5642712,229.990396 L32.9535534,230.369353 L33.7295157,231.113155 L34.1160444,231.478027 L34.8858187,232.193778 L35.6507104,232.89096 L36.7875684,233.902145 L37.5376041,234.553361 L38.6493391,235.496089 L39.3807335,236.101996 L40.1036114,236.689962 L40.8173671,237.260093 L41.4495875,237.755009 C35.353829,233.143554 29.9598493,228.026962 25.5562757,222.620471 L25.1478838,222.174722 L25.1478838,222.174722 L24.7179778,221.692973 L24.7179778,221.692973 L24.2676833,221.175617 L24.2676833,221.175617 L23.7981259,220.623049 L23.7981259,220.623049 L23.3104312,220.035662 L23.3104312,220.035662 L22.8057247,219.413849 L22.8057247,219.413849 L22.2851322,218.758004 L22.2851322,218.758004 L21.7497792,218.068521 L21.7497792,218.068521 L21.2007912,217.345794 L21.2007912,217.345794 L20.6392939,216.590215 L20.6392939,216.590215 L20.0664129,215.802179 L20.0664129,215.802179 L19.4832737,214.982079 L19.4832737,214.982079 L18.8910021,214.130309 C18.7915916,213.98573 18.6918475,213.839848 18.5917933,213.69267 L17.9879333,212.794133 L17.9879333,212.794133 L17.3777547,211.86491 L17.3777547,211.86491 L16.7623832,210.905394 L16.7623832,210.905394 L16.1429444,209.915979 C16.0394281,209.748607 15.9357893,209.580006 15.8320514,209.410183 L15.208622,208.376658 C14.0641753,206.455237 12.9134095,204.388037 11.7875364,202.185973 C9.00103777,196.886023 6.63410981,190.847774 4.93880523,185.494606 L4.54495636,184.223728 C3.72011587,181.501816 3.08233475,178.995942 2.66705361,176.906242 C0.982150148,170.157927 -0.202223783,159.249537 0.0287988992,150.911032 C0.259821582,142.572527 1.6227033,131.965653 4.71080243,121.890126 C6.98665798,114.528876 10.3120021,107.077785 14.6868347,99.5368529 L15.2808925,98.5229741 Z M141.508658,52.1921964 L140.922066,51.9982737 C161.353444,58.6283643 175.824536,70.2258632 185.615788,81.2604487 L186.480141,82.2469686 C186.764111,82.5752089 187.043945,82.9028006 187.319677,83.2295964 L188.134602,84.2074494 L188.134602,84.2074494 L188.92512,85.179645 C189.314311,85.6641814 189.694426,86.1462653 190.06558,86.6254002 L190.795973,87.5795909 C190.915725,87.7379184 191.034491,87.8958814 191.152273,88.0534616 L191.847205,88.9942016 C191.961072,89.1501769 192.073966,89.3057326 192.185889,89.4608504 L192.845819,90.3861538 L192.845819,90.3861538 L193.482671,91.3000629 L193.482671,91.3000629 L194.096648,92.2016951 L194.096648,92.2016951 L194.687954,93.0901677 L194.687954,93.0901677 L195.256795,93.9645982 C195.349741,94.1091174 195.441759,94.2530148 195.532855,94.3962718 L196.06838,95.2479842 C196.155799,95.3886068 196.242303,95.5285522 196.327896,95.6678023 L196.830565,96.4948108 L196.830565,96.4948108 C197.965513,98.3833551 199.028046,100.277561 200.02001,102.157323 L200.670886,103.408137 C200.884373,103.824214 201.094396,104.239358 201.300975,104.653347 L201.910398,105.89163 L201.910398,105.89163 L202.499278,107.121661 L202.499278,107.121661 L203.067735,108.342118 L203.067735,108.342118 L203.615893,109.551676 L203.615893,109.551676 L204.143872,110.74901 L204.143872,110.74901 L204.651794,111.932798 C204.734783,112.128894 204.816941,112.32437 204.898272,112.519199 L205.376337,113.680185 C205.454365,113.872315 205.53157,114.063742 205.607955,114.25444 L206.056437,115.389645 L206.056437,115.389645 L206.485349,116.506008 L206.485349,116.506008 L206.894813,117.602206 C206.961443,117.783151 207.027268,117.963202 207.09229,118.142329 L207.47281,119.205796 C207.534631,119.38112 207.595655,119.555467 207.655883,119.728808 L208.007733,120.756566 L208.007733,120.756566 L208.340622,121.758862 C208.39453,121.923716 208.447653,122.087454 208.499993,122.250048 L208.804668,123.21167 L208.804668,123.21167 L209.090686,124.144522 L209.090686,124.144522 L209.358168,125.047279 L209.358168,125.047279 L209.607237,125.918617 L209.607237,125.918617 L209.838014,126.757214 L209.838014,126.757214 L210.050621,127.561744 L210.050621,127.561744 L210.24518,128.330884 L210.24518,128.330884 L210.421811,129.063311 L210.421811,129.063311 L210.580638,129.7577 C210.605632,129.870188 210.62989,129.981037 210.653413,130.090217 L210.785761,130.725068 L210.785761,130.725068 L210.99665,131.799061 L210.99665,131.799061 L211.205588,132.918201 L211.205588,132.918201 L211.411122,134.081054 C211.445014,134.278426 211.478703,134.47756 211.512159,134.678426 L211.709864,135.904163 L211.709864,135.904163 L211.900534,137.170033 C212.118314,138.669734 212.318768,140.248449 212.491517,141.89594 L212.632561,143.324679 C213.033886,147.659996 213.23242,152.430744 213.051722,157.462888 C212.935457,160.700653 212.659154,163.78372 212.285917,166.665405 L212.107,167.980944 C212.01433,168.631394 211.917015,169.270737 211.81583,169.898399 L211.608531,171.13798 L211.608531,171.13798 L211.392291,172.345392 C211.355582,172.54389 211.318559,172.741005 211.281249,172.936717 L211.054183,174.093964 L211.054183,174.093964 L210.821623,175.216493 C210.782482,175.400632 210.74317,175.583281 210.703714,175.76442 L210.465499,176.83296 C210.425588,177.007972 210.385591,177.181432 210.345538,177.353318 L210.104769,178.365573 L210.104769,178.365573 L209.864021,179.339031 L209.864021,179.339031 L209.505954,180.72424 L209.505954,180.72424 L209.27129,181.596241 L209.27129,181.596241 L209.041473,182.425874 L209.041473,182.425874 C211.260973,173.851598 211.428645,166.074294 209.281507,158.582508 C206.720264,149.645824 197.694704,140.678011 181.695346,140.290597 L181.58933,139.842319 C181.452652,139.306838 181.269793,138.725819 181.033318,138.080137 L180.817322,137.510414 C180.779077,137.412672 180.739693,137.313498 180.699151,137.212838 L180.441813,136.590588 L180.441813,136.590588 L180.155612,135.929973 L180.155612,135.929973 L179.83951,135.228319 L179.83951,135.228319 L179.492464,134.482947 L179.492464,134.482947 L179.113435,133.691182 L179.113435,133.691182 L178.631763,132.710012 L178.631763,132.710012 L178.116856,131.687149 C178.028294,131.513363 177.938368,131.337962 177.847086,131.16101 L177.283209,130.081166 L177.283209,130.081166 L176.687274,128.96704 L176.687274,128.96704 L176.05975,127.821597 L176.05975,127.821597 L175.401107,126.647801 C172.367905,121.306372 168.403763,115.19377 163.701489,109.525616 L185.87977,106.429361 L170.942257,84.0736867 L176.346945,80.6038778 L175.294028,79.9207694 C162.836058,71.7805831 151.683715,62.4367666 141.508658,52.1921964 Z" fill="#FFFFFF" opacity="0.200000003"></path>
            <path d="M71.9706582,80.966158 C91.7230908,80.966158 109.399153,86.9820718 125.025212,99.0547646 C60.7032367,69.0591045 2.58170815,152.980021 95.0709425,140.886492 C95.8190729,140.788669 96.5623636,140.69354 97.3008459,140.601076 L99.5018985,140.331646 L101.674288,140.078028 L103.8182,139.840051 L105.933823,139.617538 C106.28408,139.581732 106.633166,139.546563 106.981085,139.512027 L109.054625,139.312387 C109.397891,139.280371 109.739998,139.248981 110.08095,139.218214 L112.112827,139.041056 C112.449173,139.012765 112.784372,138.98509 113.118427,138.958026 L115.109063,138.802958 C115.438559,138.778328 115.766919,138.754302 116.094147,138.730876 L118.043964,138.597508 C118.36668,138.576472 118.688271,138.55603 119.008743,138.536178 L120.91816,138.424119 L122.800879,138.326049 L124.657086,138.241793 C124.964254,138.228892 125.270327,138.21656 125.575306,138.204792 L127.392096,138.140933 C127.692718,138.13141 127.992256,138.122444 128.290713,138.114032 L130.068507,138.07018 C130.950948,138.051548 131.823727,138.037836 132.686951,138.028946 L134.400688,138.017568 C135.534727,138.014231 136.651902,138.019351 137.752463,138.032696 L139.390876,138.058854 L141.004554,138.097177 L142.593685,138.147491 C142.856505,138.156866 143.118311,138.166734 143.379105,138.17709 L144.931766,138.245065 C145.188532,138.257362 145.444293,138.27014 145.699056,138.283397 L147.215669,138.368641 C147.46645,138.383794 147.716239,138.399419 147.96504,138.41551 L149.446026,138.517633 L150.903494,138.630792 C151.144456,138.650562 151.384446,138.670784 151.623467,138.691455 L153.04601,138.820841 C153.281174,138.843294 153.515378,138.866188 153.748625,138.889521 L155.136663,139.034743 L156.501932,139.190307 L157.844618,139.356037 C158.066527,139.384496 158.287504,139.413372 158.507551,139.44266 L159.816715,139.623315 C160.249407,139.685165 160.678413,139.748637 161.103765,139.813702 C149.728334,143.654935 137.699729,149.971577 125.007525,158.756554 L124.029893,159.43719 L122.421493,160.574092 C119.888475,162.38121 117.329373,164.285244 114.744127,166.286141 L113.449325,167.294662 L111.795091,168.60158 C110.551767,169.591573 109.302482,170.603626 108.047229,171.637734 L106.789988,172.679192 L104.601554,174.519031 C102.496445,174.84852 100.562683,175.202331 98.8347718,175.57466 C53.0343024,185.443732 18.1931324,160.368102 9.93794729,134.786462 C8.13385256,124.349552 13.201545,115.509752 18.3326088,106.987343 C27.8199074,91.2294724 44.9782305,81.8214287 71.9706582,80.966158 Z" fill="url(#linearGradient-1)"></path>
            <path d="M209.281507,158.582508 C211.043832,164.731605 211.632108,172.318258 209.106429,182.126903 C210.740602,175.012943 211.255472,168.441556 209.298214,161.000248 C207.208721,153.056197 202.656216,149.020783 195.511076,149.572132 C191.368639,149.89178 186.43028,151.757903 180.65113,155.156192 L180.07041,155.501127 L179.057114,156.119118 C178.290884,156.593964 177.510557,157.094352 176.716039,157.62025 L175.916786,158.154649 L174.83636,158.893626 L174.289809,159.274442 L173.183999,160.058721 L172.624728,160.46218 L171.49342,161.291725 L170.921371,161.717808 L169.76445,162.592583 C159.637736,170.324316 151.00123,177.633789 143.388479,184.824136 L142.546807,185.622589 L140.99774,187.110729 C136.904558,191.075512 133.109397,195.013699 129.533337,198.976578 C127.493659,201.236886 125.576322,203.442894 123.637358,205.754171 L122.665408,206.919321 L121.291007,208.588447 L119.890729,210.312811 L118.453601,212.104577 L117.467531,213.345154 L111.888189,220.43313 L110.985989,221.569462 L109.626672,223.262516 L108.370725,224.798824 C106.47573,226.837831 104.811456,228.557424 103.377903,229.957605 C101.944349,231.357785 100.231832,232.707536 98.240351,234.006859 L97.1019738,234.754504 L95.9698596,235.485204 C95.7817053,235.60556 95.593819,235.725198 95.4062044,235.844112 L94.2838047,236.54887 C94.0972908,236.664867 93.9110556,236.780129 93.7251027,236.89465 L92.6128014,237.572835 C92.058373,237.907434 91.5065491,238.235258 90.9574258,238.55615 L89.8628085,239.188644 L88.7755634,239.802371 L87.6958612,240.397051 L86.6238725,240.972403 C86.44586,241.066668 86.268176,241.160117 86.0908241,241.252743 L85.0307256,241.798577 L83.9787674,242.324383 C81.7084662,243.441728 79.496687,244.416063 77.3512405,245.234554 L76.3657729,245.601207 C68.1932668,248.563651 61.0197901,249.191505 55.2897437,246.754587 L53.9250125,246.023332 L53.1575505,245.599012 L52.6264021,245.298408 L52.0447487,244.962862 L51.1941805,244.460502 L50.5026314,244.042049 L49.767391,243.587476 L49.2539671,243.264185 L48.4504503,242.748623 L47.608693,242.195997 L47.0272863,241.806813 L46.1263376,241.191627 L45.1925995,240.538433 L44.2281161,239.846877 L43.5690558,239.364353 L42.8978451,238.864517 L41.8695719,238.082075 L40.8173671,237.260093 L40.1036114,236.689962 L39.3807335,236.101996 L38.6493391,235.496089 L37.5376041,234.553361 L36.7875684,233.902145 L35.6507104,232.89096 L34.8858187,232.193778 L34.1160444,231.478027 L33.7295157,231.113155 L32.9535534,230.369353 C32.6943042,230.118286 32.4344937,229.86408 32.1742227,229.606719 L31.3921294,228.825149 L30.9760928,228.403295 L29.766529,227.157148 L28.9917865,226.342784 L28.2418951,225.541748 L27.516464,224.754216 L26.8151028,223.980368 L26.1374209,223.22038 L25.4830275,222.474429 L24.5442492,221.382213 L23.9463684,220.672134 L23.0905281,219.634558 L22.2826929,218.630564 L21.7701546,217.980188 L21.2779754,217.345182 L20.5770255,216.421879 L19.9196864,215.534156 L19.3046399,214.682613 L18.7305676,213.867849 L18.1961513,213.090463 L17.7000727,212.351055 L17.0959925,211.425289 L16.5545998,210.569524 L16.0727697,209.785182 L15.4548691,208.745692 L14.2576156,206.658536 C33.1450397,226.195546 52.9693793,222.432865 113.239134,172.66802 C173.508888,122.903175 204.186333,140.804438 209.281507,158.582508 Z" fill="#FFFFFF"></path>
            <path d="M195.838998,153.821794 C200.749762,153.442859 204.705902,156.177334 206.543338,162.144096 C208.253493,167.697534 208.253493,175.070268 207.355835,181.277551 C206.458176,187.484835 205.355259,191.463498 204.418948,194.266996 C203.79474,196.135996 202.693701,198.863905 201.115832,202.450725 L200.778724,203.114355 L200.088233,204.451977 L199.376157,205.803633 C199.255687,206.030093 199.134322,206.257149 199.012067,206.484806 L198.663691,207.101761 L198.294429,207.735073 L197.90595,208.382834 L197.499921,209.043135 L197.078008,209.714068 L196.641879,210.393724 L195.964678,211.425387 L195.500303,212.118498 L194.788549,213.161397 L194.306349,213.856034 L193.575671,214.892275 L192.596416,216.253239 L191.623652,217.576559 L190.670718,218.846967 L189.977053,219.755862 L189.090914,220.896926 L188.261283,221.943084 L187.684168,222.656233 L186.985522,223.49956 L186.521962,224.043049 L186.116448,224.50309 L185.881131,224.760243 L185.584863,225.066887 L185.427587,225.21581 L185.304446,225.318101 L185.256196,225.351163 C200.877921,189.122927 179.804608,161.894197 147.018207,193.364477 C144.881787,195.415149 142.742107,197.441967 140.603014,199.438609 L138.464259,201.424959 C131.780024,207.60137 122.766697,215.36893 116.236494,220.721326 L125.263321,210.466623 L125.938169,209.650008 L127.27759,208.047848 C129.057979,205.935228 130.826009,203.906244 132.697714,201.832077 C135.628557,198.584207 138.710282,195.352062 141.988625,192.105933 L143.227309,190.887921 L144.738817,189.424085 C146.918065,187.330899 149.183767,185.228557 151.548074,183.109166 L152.7385,182.048014 L154.433349,180.557209 C156.335121,178.897203 158.299482,177.224975 160.33215,175.536809 L161.559993,174.521967 L163.433097,172.992144 C165.86588,171.019179 168.393951,169.022389 171.026171,166.996019 L172.351,165.980343 L173.442311,165.155007 L173.981419,164.753238 L175.046507,163.971485 L175.572475,163.591498 L176.611226,162.853292 L177.632355,162.144096 L178.635811,161.463895 C178.967345,161.241992 179.295925,161.024918 179.621543,160.812672 L180.107747,160.497922 L181.066798,159.890135 L181.539633,159.597095 L182.471888,159.032708 L182.931296,158.761359 L183.386216,158.497235 L184.282566,157.990659 C188.867173,155.447969 192.729854,154.061708 195.838998,153.821794 Z" fill="url(#linearGradient-2)"></path>
            <path d="M116.379043,47.3274994 C89.0311577,44.9552151 60.6915119,51.80381 37.5882684,72.0307427 C14.485025,92.2576755 8.74399968,110.353816 8.13385256,120.944283 C14.485025,89.5183131 49.645195,71.8862972 86.1909758,77.979992 C122.736757,84.0736867 133.461262,102.28809 144.913545,112.149687 L185.87977,106.429361 L170.942257,84.0736867 L176.346945,80.6038778 C144.314287,59.9697539 120.872763,31.4156075 100.538518,0 C105.767443,15.6267525 111.143679,31.6944408 116.375634,47.3219352 L116.379043,47.3274994 Z" fill="#FFFFFF"></path>
        </g>
    </g>
</svg>
