<svg viewBox="0 0 300 240" xmlns="http://www.w3.org/2000/svg" xmlns:xlink="http://www.w3.org/1999/xlink" width="300.000000" height="240.000000" fill="none">
	<mask id="mask_1" width="299.999969" height="168.999863" x="0.000000" y="28.000000" maskUnits="userSpaceOnUse">
		<g filter="url(#pixso_custom_mask_type_alpha)">
			<path d="M174.704 59.4999C155.533 58.9316 137.27 52.3003 119.835 46.5001C102.4 40.6998 91.7115 32.3684 72.9994 29.2958C60.9641 27.3192 47.6937 27.0374 37.9985 32.5585C28.6647 37.8868 25.6192 45.9824 23.9989 54.5C22.7785 60.9092 24.1598 69.9993 27.5012 76C29.8235 80.1662 30.1489 82.4012 32.9985 86.3923C42.9129 100.276 29.5993 110.866 18.8584 124.423C13.8227 130.781 7.97243 136.856 4.0831 143.618C0.193759 150.379 -1.60428 158.154 1.79926 165.07C5.17021 171.921 13.2066 177.056 21.9124 180.672C39.5937 188.018 61.3761 194.201 81.6996 195.393C126.674 198.027 171.886 196.888 216.979 195.743C233.668 195.322 250.428 194.893 266.844 192.683C275.962 191.455 285.373 189.507 291.993 184.802C300.394 178.832 302.476 168.724 296.845 161.239C287.402 148.679 261.299 145.561 254.691 132.085C251.059 124.666 254.788 116.405 260.07 109.526C271.397 94.7669 276.502 83.8187 277.501 66.9508C278.188 55.3656 273.498 44.4997 262.001 39.9996C247.21 34.2527 228.685 36.9877 217.778 46.4999C206.537 56.2837 191.633 60.0048 174.704 59.4999Z" fill="url(#paint_linear_1)" fill-rule="nonzero" />
			<path d="M119.835 46.5001C102.4 40.6998 91.7115 32.3684 72.9994 29.2958C60.9641 27.3192 47.6937 27.0374 37.9985 32.5585C28.6647 37.8868 25.6192 45.9824 23.9989 54.5C22.7785 60.9092 24.1598 69.9993 27.5012 76C29.8235 80.1662 30.1489 82.4012 32.9985 86.3923C42.9129 100.276 29.5993 110.866 18.8584 124.423C13.8227 130.781 7.97243 136.856 4.0831 143.618C0.193759 150.379 -1.60428 158.154 1.79926 165.07C5.17021 171.921 13.2066 177.056 21.9124 180.672C39.5937 188.018 61.3761 194.201 81.6996 195.393C126.674 198.027 171.886 196.888 216.979 195.743C233.668 195.322 250.428 194.893 266.844 192.683C275.962 191.455 285.373 189.507 291.993 184.802C300.394 178.832 302.476 168.724 296.845 161.239C287.402 148.679 261.299 145.561 254.691 132.085C251.059 124.666 254.788 116.405 260.07 109.526C271.397 94.7669 276.502 83.8187 277.501 66.9508C278.188 55.3656 273.498 44.4997 262.001 39.9996C247.21 34.2527 228.685 36.9877 217.778 46.4999C206.537 56.2837 191.633 60.0048 174.704 59.4999C155.533 58.9316 137.27 52.3003 119.835 46.5001Z" fill-rule="nonzero" stroke="rgb(0,0,0)" stroke-opacity="0" stroke-width="1" />
		</g>
	</mask>
	<defs>
		<filter id="pixso_custom_mask_type_alpha">
			<feColorMatrix type="matrix" values="0 0 0 0 1 0 0 0 0 1 0 0 0 0 1 0 0 0 1 0 " />
		</filter>
		<linearGradient id="paint_linear_0" x1="149.999985" x2="149.999985" y1="140.812576" y2="28" gradientUnits="userSpaceOnUse">
			<stop stop-color="rgb(113,117,127)" offset="0" stop-opacity="0.166666672" />
			<stop stop-color="rgb(113,117,127)" offset="1" stop-opacity="1" />
		</linearGradient>
		<linearGradient id="paint_linear_1" x1="149.999985" x2="149.999985" y1="140.812576" y2="28" gradientUnits="userSpaceOnUse">
			<stop stop-color="rgb(113,117,127)" offset="0" stop-opacity="0.166666672" />
			<stop stop-color="rgb(113,117,127)" offset="1" stop-opacity="1" />
		</linearGradient>
		<g id="pixso_custom_effect_0">
			<effect visibility="visible" effectType="gaussianBlur" stdDeviation="38" />
		</g>
		<filter id="filter_0" width="341.000000" height="134.000000" x="-1.000000" y="-10.000000" filterUnits="userSpaceOnUse" customEffect="url(#pixso_custom_effect_0)" color-interpolation-filters="sRGB">
			<feFlood flood-opacity="0" result="BackgroundImageFix" />
			<feBlend result="shape" in="SourceGraphic" in2="BackgroundImageFix" mode="normal" />
			<feGaussianBlur stdDeviation="12.666667" result="effect_layerBlur_1" />
		</filter>
		<linearGradient id="paint_linear_2" x1="126.27137" x2="131.143097" y1="11.999999" y2="58.143261" gradientUnits="userSpaceOnUse">
			<stop stop-color="rgb(131,77,240)" offset="0" stop-opacity="1" />
			<stop stop-color="rgb(131,77,240)" offset="1" stop-opacity="0" />
		</linearGradient>
		<g id="pixso_custom_effect_1">
			<effect visibility="visible" effectType="gaussianBlur" stdDeviation="38" />
		</g>
		<filter id="filter_1" width="162.000000" height="148.000000" x="-18.000000" y="-10.000000" filterUnits="userSpaceOnUse" customEffect="url(#pixso_custom_effect_1)" color-interpolation-filters="sRGB">
			<feFlood flood-opacity="0" result="BackgroundImageFix" />
			<feBlend result="shape" in="SourceGraphic" in2="BackgroundImageFix" mode="normal" />
			<feGaussianBlur stdDeviation="12.666667" result="effect_layerBlur_1" />
		</filter>
		<linearGradient id="paint_linear_3" x1="43" x2="43" y1="0" y2="72" gradientUnits="userSpaceOnUse">
			<stop stop-color="rgb(59,153,186)" offset="0" stop-opacity="1" />
			<stop stop-color="rgb(59,153,186)" offset="1" stop-opacity="0" />
		</linearGradient>
		<g id="pixso_custom_effect_2">
			<effect x="0.000000" y="4.000000" visibility="visible" fill="rgb(0,0,0)" fill-opacity="0.25" effectType="dropShadow" stdDeviation="20" radius="0" />
		</g>
		<filter id="filter_2" width="216.000000" height="151.000000" x="42.000000" y="64.000000" filterUnits="userSpaceOnUse" customEffect="url(#pixso_custom_effect_2)" color-interpolation-filters="sRGB">
			<feFlood flood-opacity="0" result="BackgroundImageFix" />
			<feOffset dx="0.000000" dy="4.000000" in="SourceAlpha" />
			<feGaussianBlur stdDeviation="6.66666651" />
			<feColorMatrix type="matrix" values="0 0 0 0 0 0 0 0 0 0 0 0 0 0 0 0 0 0 0.25 0 " />
			<feBlend result="effect_dropShadow_1" in2="BackgroundImageFix" mode="normal" />
			<feBlend result="shape" in="SourceGraphic" in2="effect_dropShadow_1" mode="normal" />
		</filter>
		<linearGradient id="paint_linear_4" x1="186.068527" x2="186.070312" y1="128.96582" y2="133.500244" gradientUnits="userSpaceOnUse">
			<stop stop-color="rgb(255,255,255)" offset="0" stop-opacity="1" />
			<stop stop-color="rgb(255,255,255)" offset="1" stop-opacity="0" />
		</linearGradient>
	</defs>
	<mask id="mask_0" width="300.000000" height="240.000000" x="0.000000" y="0.000000" maskUnits="userSpaceOnUse">
		<g filter="url(#pixso_custom_mask_type_alpha)">
			<g id="clip498_69939">
				<rect width="300.000000" height="240.000000" x="0.000000" y="0.000000" fill="rgb(0,0,0)" />
			</g>
		</g>
	</mask>
	<rect width="300.000000" height="240.000000" x="0.000000" y="0.000000" />
	<rect width="260.000000" height="260.000000" x="20.000000" y="0.000000" fill="rgb(25,25,25)" fill-opacity="0" />
	<g>
		<g id="clip path group" mask="url(#mask_0)">
			<path d="M174.704 59.4999C155.533 58.9316 137.27 52.3003 119.835 46.5001C102.4 40.6998 91.7115 32.3684 72.9994 29.2958C60.9641 27.3192 47.6937 27.0374 37.9985 32.5585C28.6647 37.8868 25.6192 45.9824 23.9989 54.5C22.7785 60.9092 24.1598 69.9993 27.5012 76C29.8235 80.1662 30.1489 82.4012 32.9985 86.3923C42.9129 100.276 29.5993 110.866 18.8584 124.423C13.8227 130.781 7.97243 136.856 4.0831 143.618C0.193759 150.379 -1.60428 158.154 1.79926 165.07C5.17021 171.921 13.2066 177.056 21.9124 180.672C39.5937 188.018 61.3761 194.201 81.6996 195.393C126.674 198.027 171.886 196.888 216.979 195.743C233.668 195.322 250.428 194.893 266.844 192.683C275.962 191.455 285.373 189.507 291.993 184.802C300.394 178.832 302.476 168.724 296.845 161.239C287.402 148.679 261.299 145.561 254.691 132.085C251.059 124.666 254.788 116.405 260.07 109.526C271.397 94.7669 276.502 83.8187 277.501 66.9508C278.188 55.3656 273.498 44.4997 262.001 39.9996C247.21 34.2527 228.685 36.9877 217.778 46.4999C206.537 56.2837 191.633 60.0048 174.704 59.4999Z" opacity="0.200000003" fill="url(#paint_linear_0)" fill-rule="nonzero" />
			<path d="M119.835 46.5001C102.4 40.6998 91.7115 32.3684 72.9994 29.2958C60.9641 27.3192 47.6937 27.0374 37.9985 32.5585C28.6647 37.8868 25.6192 45.9824 23.9989 54.5C22.7785 60.9092 24.1598 69.9993 27.5012 76C29.8235 80.1662 30.1489 82.4012 32.9985 86.3923C42.9129 100.276 29.5993 110.866 18.8584 124.423C13.8227 130.781 7.97243 136.856 4.0831 143.618C0.193759 150.379 -1.60428 158.154 1.79926 165.07C5.17021 171.921 13.2066 177.056 21.9124 180.672C39.5937 188.018 61.3761 194.201 81.6996 195.393C126.674 198.027 171.886 196.888 216.979 195.743C233.668 195.322 250.428 194.893 266.844 192.683C275.962 191.455 285.373 189.507 291.993 184.802C300.394 178.832 302.476 168.724 296.845 161.239C287.402 148.679 261.299 145.561 254.691 132.085C251.059 124.666 254.788 116.405 260.07 109.526C271.397 94.7669 276.502 83.8187 277.501 66.9508C278.188 55.3656 273.498 44.4997 262.001 39.9996C247.21 34.2527 228.685 36.9877 217.778 46.4999C206.537 56.2837 191.633 60.0048 174.704 59.4999C155.533 58.9316 137.27 52.3003 119.835 46.5001Z" opacity="0.200000003" fill-rule="nonzero" stroke="rgb(0,0,0)" stroke-opacity="0" stroke-width="1" />
			<g mask="url(#mask_1)">
				<g filter="url(#filter_0)">
					<rect width="265.000000" height="58.000000" x="0.000000" y="0.000000" rx="29.000000" opacity="0.579999983" fill="url(#paint_linear_2)" transform="matrix(-1,0,0,1,302,28)" />
				</g>
				<g filter="url(#filter_1)">
					<rect width="86.000000" height="72.000000" x="0.000000" y="0.000000" rx="12.000000" opacity="0.239999995" fill="url(#paint_linear_3)" transform="matrix(-1,0,0,1,106,28)" />
				</g>
			</g>
			<path d="M70.1993 79.8779L229.883 79.8779C233.959 79.8779 237.265 83.183 237.265 87.26L237.265 189.893C237.265 190.177 237.249 190.457 237.217 190.733L255.235 190.733C256.255 190.733 257.08 191.56 257.08 192.579L257.08 194.424C257.08 197.482 254.602 198.96 251.544 198.96L48.5365 198.96C45.4788 198.96 43 197.482 43 194.424L43 192.579C43 191.56 43.8263 190.733 44.8455 190.733L62.8647 190.733C62.8333 190.457 62.8174 190.177 62.8174 189.893L62.8174 87.26C62.8174 83.183 66.1225 79.8779 70.1993 79.8779ZM225.191 86.5926L74.9003 86.5926C71.8425 86.5926 69.3638 89.0714 69.3638 92.1291L69.3638 190.559L230.727 190.559L230.727 92.1291C230.727 89.0714 228.249 86.5926 225.191 86.5926Z" fill="rgb(255,255,255)" fill-opacity="0.150000006" fill-rule="evenodd" />
			<path d="M229.883 79.8779C233.959 79.8779 237.265 83.183 237.265 87.26L237.265 189.893C237.265 190.177 237.249 190.457 237.217 190.733L255.235 190.733C256.255 190.733 257.08 191.56 257.08 192.579L257.08 194.424C257.08 197.482 254.602 198.96 251.544 198.96L48.5365 198.96C45.4788 198.96 43 197.482 43 194.424L43 192.579C43 191.56 43.8263 190.733 44.8455 190.733L62.8647 190.733C62.8333 190.457 62.8174 190.177 62.8174 189.893L62.8174 87.26C62.8174 83.183 66.1225 79.8779 70.1993 79.8779L229.883 79.8779ZM74.9003 86.5926C71.8425 86.5926 69.3638 89.0714 69.3638 92.1291L69.3638 190.559L230.727 190.559L230.727 92.1291C230.727 89.0714 228.249 86.5926 225.191 86.5926L74.9003 86.5926Z" fill-rule="evenodd" stroke="rgb(0,0,0)" stroke-opacity="0" stroke-width="1" />
			<g filter="url(#filter_2)">
				<path d="M232 80C235.314 80 238 82.6863 238 86L238 191L62 191L62 86C62 82.6863 64.6863 80 68 80L232 80Z" fill="rgb(54,55,57)" fill-rule="evenodd" />
			</g>
			<rect width="164.000000" height="100.000000" x="68.000000" y="86.000000" rx="2.000000" fill="rgb(19,20,22)" />
			<g >
				<path d="M220 106L220 170.625C220 174.146 217.146 177 213.625 177L86.3746 177C82.854 177 80 174.146 80 170.625L80 106L220 106Z" fill="rgb(255,255,255)" fill-opacity="0.24000001" fill-rule="evenodd" />
				<path d="M213.625 94C217.146 94 220 96.854 220 100.375L220 106L80 106L80 100.375C80 96.854 82.854 94 86.3746 94L213.625 94Z" fill="rgb(255,255,255)" fill-opacity="0.120000005" fill-rule="evenodd" />
				<circle cx="87.6209946" cy="100.374413" r="1.59365177" fill="rgb(255,255,255)" fill-opacity="0.100000001" />
				<circle cx="93.9999008" cy="100.374413" r="1.59365177" fill="rgb(255,255,255)" fill-opacity="0.100000001" />
				<circle cx="100.370995" cy="100.374413" r="1.59365177" fill="rgb(255,255,255)" fill-opacity="0.100000001" />
				<g >
					<path d="M180.18 133.269L179.766 129.524L180.547 129.301C182.331 128.791 184.244 128.87 185.997 129.492C187.527 130.05 189.2 130.161 190.81 129.842L192.371 129.524L191.989 133.269C191.766 135.309 190.618 137.157 188.881 138.257C188.037 138.783 187.08 139.07 186.092 139.07C185.104 139.07 184.132 138.783 183.304 138.257C181.551 137.157 180.403 135.325 180.18 133.269Z" fill="rgb(131,77,240)" fill-rule="evenodd" />
					<path d="M180.18 133.269L179.766 129.524L180.547 129.301C182.331 128.791 184.244 128.87 185.997 129.492C187.527 130.05 189.2 130.161 190.81 129.842L192.371 129.524L191.989 133.269C191.766 135.309 190.618 137.157 188.881 138.257C188.037 138.783 187.08 139.07 186.092 139.07C185.104 139.07 184.132 138.783 183.304 138.257C181.551 137.157 180.403 135.325 180.18 133.269Z" fill="url(#paint_linear_4)" fill-opacity="0" fill-rule="evenodd" />
					<path d="M198.057 125.212L174.089 125.212C173.488 125.212 173 125.7 173 126.301C173 126.903 173.488 127.391 174.089 127.391L176.91 127.391L177.502 132.801C177.829 135.793 179.504 138.472 182.05 140.076C183.265 140.841 184.672 141.248 186.108 141.248C187.544 141.248 188.951 140.841 190.165 140.076C192.71 138.473 194.377 135.79 194.688 132.799L195.251 127.391L198.057 127.391C198.66 127.391 199.147 126.903 199.147 126.301C199.147 125.7 198.66 125.212 198.057 125.212ZM180.191 133.27L179.781 129.525L180.55 129.31C182.342 128.806 184.247 128.872 186 129.5C187.542 130.052 189.208 130.172 190.812 129.845L192.382 129.525L191.993 133.268C191.78 135.323 190.634 137.165 188.887 138.266C188.052 138.791 187.086 139.07 186.101 139.07C185.114 139.07 184.149 138.791 183.314 138.266C181.566 137.164 180.416 135.325 180.191 133.27ZM177.502 149.695L176.905 155.148L174.089 155.148C173.488 155.148 173 155.636 173 156.238C173 156.839 173.488 157.327 174.089 157.327L198.057 157.327C198.66 157.327 199.147 156.839 199.147 156.238C199.147 155.636 198.66 155.148 198.057 155.148L195.255 155.148L194.688 149.698C194.377 146.707 192.71 144.024 190.165 142.421C188.951 141.655 187.544 141.249 186.108 141.249C184.672 141.249 183.265 141.655 182.05 142.421C179.504 144.025 177.829 146.703 177.502 149.695Z" fill="rgb(255,255,255)" fill-opacity="0.319999993" fill-rule="evenodd" />
				</g>
			</g>
		</g>
		<rect width="62.000000" height="31.000000" x="92.000000" y="117.000000" rx="3.466667" fill="rgb(255,255,255)" fill-opacity="0.200000003" />
		<rect width="48.000000" height="6.000000" x="106.000000" y="153.000000" rx="3.000000" fill="rgb(0,0,0)" fill-opacity="0.200000003" />
		<rect width="48.000000" height="6.000000" x="92.000000" y="163.000000" rx="3.000000" fill="rgb(0,0,0)" fill-opacity="0.200000003" />
		<rect width="11.000000" height="6.000000" x="92.000000" y="153.149902" rx="3.000000" fill="rgb(0,0,0)" fill-opacity="0.200000003" />
	</g>
</svg>
