<svg viewBox="0 0 300 240" xmlns="http://www.w3.org/2000/svg" xmlns:xlink="http://www.w3.org/1999/xlink" width="300" height="240" fill="none">
    <mask id="mask_1" width="300" height="169" x="0" y="28" maskUnits="userSpaceOnUse">
        <g filter="url(#pixso_custom_mask_type_alpha)">
            <path d="M174.704 59.4999C155.533 58.9316 137.27 52.3003 119.835 46.5001C102.4 40.6998 91.7115 32.3684 72.9994 29.2958C60.9641 27.3192 47.6937 27.0374 37.9985 32.5585C28.6647 37.8868 25.6192 45.9824 23.9989 54.5C22.7785 60.9092 24.1598 69.9993 27.5012 76C29.8235 80.1662 30.1489 82.4012 32.9985 86.3923C42.9129 100.276 29.5993 110.866 18.8584 124.423C13.8227 130.781 7.97243 136.856 4.0831 143.618C0.193759 150.379 -1.60428 158.154 1.79926 165.07C5.17021 171.921 13.2066 177.056 21.9124 180.672C39.5937 188.018 61.3761 194.201 81.6996 195.393C126.674 198.027 171.886 196.888 216.979 195.743C233.668 195.322 250.428 194.893 266.844 192.683C275.962 191.455 285.373 189.507 291.993 184.802C300.394 178.832 302.476 168.724 296.845 161.239C287.402 148.679 261.299 145.561 254.691 132.085C251.059 124.666 254.788 116.405 260.07 109.526C271.397 94.7669 276.502 83.8187 277.501 66.9508C278.188 55.3656 273.498 44.4997 262.001 39.9996C247.21 34.2527 228.685 36.9877 217.778 46.4999C206.537 56.2837 191.633 60.0048 174.704 59.4999Z" fill="url(#paint_linear_1)" fill-rule="nonzero" />
            <path d="M119.835 46.5001C102.4 40.6998 91.7115 32.3684 72.9994 29.2958C60.9641 27.3192 47.6937 27.0374 37.9985 32.5585C28.6647 37.8868 25.6192 45.9824 23.9989 54.5C22.7785 60.9092 24.1598 69.9993 27.5012 76C29.8235 80.1662 30.1489 82.4012 32.9985 86.3923C42.9129 100.276 29.5993 110.866 18.8584 124.423C13.8227 130.781 7.97243 136.856 4.0831 143.618C0.193759 150.379 -1.60428 158.154 1.79926 165.07C5.17021 171.921 13.2066 177.056 21.9124 180.672C39.5937 188.018 61.3761 194.201 81.6996 195.393C126.674 198.027 171.886 196.888 216.979 195.743C233.668 195.322 250.428 194.893 266.844 192.683C275.962 191.455 285.373 189.507 291.993 184.802C300.394 178.832 302.476 168.724 296.845 161.239C287.402 148.679 261.299 145.561 254.691 132.085C251.059 124.666 254.788 116.405 260.07 109.526C271.397 94.7669 276.502 83.8187 277.501 66.9508C278.188 55.3656 273.498 44.4997 262.001 39.9996C247.21 34.2527 228.685 36.9877 217.778 46.4999C206.537 56.2837 191.633 60.0048 174.704 59.4999C155.533 58.9316 137.27 52.3003 119.835 46.5001Z" fill-rule="nonzero" stroke="rgb(0,0,0)" stroke-opacity="0" stroke-width="1" />
        </g>
    </mask>
    <defs>
        <filter id="pixso_custom_mask_type_alpha">
            <feColorMatrix type="matrix" values="0 0 0 0 1 0 0 0 0 1 0 0 0 0 1 0 0 0 1 0" />
        </filter>
        <linearGradient id="paint_linear_0" x1="150" x2="150" y1="140.813" y2="28" gradientUnits="userSpaceOnUse">
            <stop stop-color="rgb(113,117,127)" offset="0" stop-opacity="0.08" />
            <stop stop-color="rgb(113,117,127)" offset="1" stop-opacity="0.4" />
        </linearGradient>
        <linearGradient id="paint_linear_1" x1="150" x2="150" y1="140.813" y2="28" gradientUnits="userSpaceOnUse">
            <stop stop-color="rgb(113,117,127)" offset="0" stop-opacity="0.08" />
            <stop stop-color="rgb(113,117,127)" offset="1" stop-opacity="0.4" />
        </linearGradient>
        <g id="pixso_custom_effect_0">
            <effect visibility="visible" effectType="gaussianBlur" stdDeviation="38" />
        </g>
        <filter id="filter_0" width="265" height="58" x="37" y="28" filterUnits="userSpaceOnUse" customEffect="url(#pixso_custom_effect_0)" color-interpolation-filters="sRGB">
            <feFlood flood-opacity="0" result="BackgroundImageFix" />
            <feBlend result="shape" in="SourceGraphic" in2="BackgroundImageFix" mode="normal" />
            <feGaussianBlur stdDeviation="12.667" result="effect_layerBlur_1" />
        </filter>
        <linearGradient id="paint_linear_2" x1="126.271" x2="131.143" y1="12" y2="58.143" gradientUnits="userSpaceOnUse">
            <stop stop-color="rgb(131,77,240)" offset="0" stop-opacity="0.6" />
            <stop stop-color="rgb(131,77,240)" offset="1" stop-opacity="0.2" />
        </linearGradient>
        <g id="pixso_custom_effect_1">
            <effect visibility="visible" effectType="gaussianBlur" stdDeviation="38" />
        </g>
        <filter id="filter_1" width="86" height="72" x="20" y="28" filterUnits="userSpaceOnUse" customEffect="url(#pixso_custom_effect_1)" color-interpolation-filters="sRGB">
            <feFlood flood-opacity="0" result="BackgroundImageFix" />
            <feBlend result="shape" in="SourceGraphic" in2="BackgroundImageFix" mode="normal" />
            <feGaussianBlur stdDeviation="12.667" result="effect_layerBlur_1" />
        </filter>
        <linearGradient id="paint_linear_3" x1="43" x2="43" y1="0" y2="72" gradientUnits="userSpaceOnUse">
            <stop stop-color="rgb(59,153,186)" offset="0" stop-opacity="0.6" />
            <stop stop-color="rgb(59,153,186)" offset="1" stop-opacity="0.2" />
        </linearGradient>
        <g id="pixso_custom_effect_2">
            <effect x="0" y="4" visibility="visible" fill="rgb(0,0,0)" fill-opacity="0.08" effectType="dropShadow" stdDeviation="20" radius="0" />
        </g>
        <filter id="filter_2" width="176" height="111" x="62" y="80" filterUnits="userSpaceOnUse" customEffect="url(#pixso_custom_effect_2)" color-interpolation-filters="sRGB">
            <feFlood flood-opacity="0" result="BackgroundImageFix" />
            <feOffset dx="0" dy="4" in="SourceAlpha" />
            <feGaussianBlur stdDeviation="6.667" />
            <feColorMatrix type="matrix" values="0 0 0 0 0 0 0 0 0 0 0 0 0 0 0 0 0 0 0.08 0" />
            <feBlend result="effect_dropShadow_1" in2="BackgroundImageFix" mode="normal" />
            <feBlend result="shape" in="SourceGraphic" in2="effect_dropShadow_1" mode="normal" />
        </filter>
        <linearGradient id="paint_linear_4" x1="186.07" x2="186.072" y1="128.966" y2="133.5" gradientUnits="userSpaceOnUse">
            <stop stop-color="rgb(255,255,255)" offset="0" stop-opacity="0.8" />
            <stop stop-color="rgb(255,255,255)" offset="1" stop-opacity="0" />
        </linearGradient>
    </defs>

    <rect width="300" height="240" x="0" y="0"/>

    <g>
        <path d="M174.704 59.5C155.533 58.9317 137.27 52.3004 119.835 46.5002C102.4 40.7 91.7115 32.3685 72.9994 29.2959C60.9641 27.3193 47.6937 27.0375 37.9985 32.5586C28.6647 37.8869 25.6192 45.9825 23.9989 54.5002C22.7785 60.9093 24.1598 69.9994 27.5012 76.0001C29.8235 80.1663 30.1489 82.4013 32.9985 86.3924C42.9129 100.276 29.5993 110.866 18.8584 124.423C13.8227 130.782 7.97243 136.856 4.0831 143.618C0.193759 150.38 -1.60428 158.154 1.79926 165.07C5.17021 171.921 13.2066 177.057 21.9124 180.672C39.5937 188.018 61.3761 194.201 81.6996 195.393C126.674 198.027 171.886 196.888 216.979 195.743C233.668 195.322 250.428 194.893 266.844 192.683C275.962 191.455 285.373 189.507 291.993 184.803C300.394 178.832 302.476 168.724 296.845 161.239C287.402 148.679 261.299 145.561 254.691 132.085C251.059 124.666 254.788 116.405 260.07 109.526C271.397 94.767 276.502 83.8188 277.501 66.951C278.188 55.3657 273.498 44.4998 262.001 39.9998C247.21 34.2528 228.685 36.9878 217.778 46.5001C206.537 56.2838 191.633 60.005 174.704 59.5Z" opacity="0.3" fill="url(#paint_linear_0)" fill-rule="nonzero" />

        <g mask="url(#mask_1)">
            <g filter="url(#filter_0)">
                <rect width="265" height="58" x="0" y="0" rx="29" opacity="0.4" fill="url(#paint_linear_2)" transform="matrix(-1,0,0,1,302,28)" />
            </g>
            <g filter="url(#filter_1)">
                <rect width="86" height="72" x="0" y="0" rx="12" opacity="0.3" fill="url(#paint_linear_3)" transform="matrix(-1,0,0,1,106,28)" />
            </g>
        </g>

        <g filter="url(#filter_2)">
            <path d="M232 80C235.314 80 238 82.6863 238 86L238 191L62 191L62 86C62 82.6863 64.6863 80 68 80L232 80Z" fill="#FFFFFF" fill-rule="evenodd" />
        </g>

        <path d="M70.1993 79.8777L229.883 79.8777C233.959 79.8777 237.265 83.1828 237.265 87.2598L237.265 189.893C237.265 190.177 237.249 190.457 237.217 190.733L255.235 190.733C256.255 190.733 257.08 191.56 257.08 192.578L257.08 194.424C257.08 197.482 254.602 198.96 251.544 198.96L48.5365 198.96C45.4788 198.96 43 197.482 43 194.424L43 192.578C43 191.56 43.8263 190.733 44.8455 190.733L62.8647 190.733C62.8333 190.457 62.8174 190.177 62.8174 189.893L62.8174 87.2598C62.8174 83.1828 66.1225 79.8777 70.1993 79.8777ZM225.191 86.5924L74.9003 86.5924C71.8425 86.5924 69.3638 89.0712 69.3638 92.1289L69.3638 190.559L230.727 190.559L230.727 92.1289C230.727 89.0712 228.249 86.5924 225.191 86.5924Z" fill="rgba(0,0,0,0.06)" fill-rule="evenodd" />

        <rect width="164" height="100" x="68" y="86" rx="2" fill="#F1F3F5" />

        <g>
            <path d="M220 106L220 170.625C220 174.146 217.146 177 213.625 177L86.3746 177C82.854 177 80 174.146 80 170.625L80 106L220 106Z" fill="rgba(255,255,255,0.8)" fill-rule="evenodd" />
            <path d="M213.625 94C217.146 94 220 96.854 220 100.375L220 106L80 106L80 100.375C80 96.854 82.854 94 86.3746 94L213.625 94Z" fill="rgba(255,255,255,0.6)" fill-rule="evenodd" />

            <circle cx="87.621" cy="100.374" r="1.594" fill="rgba(0,0,0,0.2)" />
            <circle cx="94" cy="100.374" r="1.594" fill="rgba(0,0,0,0.2)" />
            <circle cx="100.371" cy="100.374" r="1.594" fill="rgba(0,0,0,0.2)" />

            <g>
                <path d="M180.182 133.269L179.767 129.523L180.548 129.3C182.333 128.79 184.245 128.87 185.999 129.492C187.528 130.049 189.202 130.161 190.811 129.842L192.373 129.523L191.991 133.269C191.768 135.308 190.62 137.157 188.883 138.257C188.038 138.783 187.082 139.069 186.094 139.069C185.106 139.069 184.134 138.783 183.305 138.257C181.552 137.157 180.405 135.324 180.182 133.269Z" fill="rgb(172, 138, 250)" fill-rule="evenodd" />
                <path d="M198.058 125.212L174.09 125.212C173.488 125.212 173.001 125.7 173.001 126.301C173.001 126.903 173.488 127.391 174.09 127.391L176.91 127.391L177.502 132.801C177.83 135.793 179.505 138.472 182.051 140.076C183.266 140.841 184.673 141.248 186.109 141.248C187.544 141.248 188.952 140.841 190.166 140.076C192.711 138.473 194.378 135.79 194.689 132.799L195.251 127.391L198.058 127.391C198.66 127.391 199.148 126.903 199.148 126.301C199.148 125.7 198.66 125.212 198.058 125.212ZM180.191 133.27L179.782 129.526L180.55 129.31C182.343 128.806 184.248 128.872 186.001 129.5C187.543 130.052 189.208 130.172 190.813 129.845L192.383 129.526L191.994 133.269C191.78 135.323 190.635 137.165 188.888 138.266C188.053 138.791 187.087 139.07 186.101 139.07C185.115 139.07 184.149 138.791 183.315 138.266C181.566 137.164 180.416 135.325 180.191 133.27ZM177.502 149.695L176.906 155.148L174.09 155.148C173.488 155.148 173.001 155.636 173.001 156.238C173.001 156.839 173.488 157.327 174.09 157.327L198.058 157.327C198.66 157.327 199.148 156.839 199.148 156.238C199.148 155.636 198.66 155.148 198.058 155.148L195.256 155.148L194.689 149.698C194.378 146.707 192.711 144.024 190.166 142.421C188.952 141.655 187.544 141.249 186.109 141.249C184.673 141.249 183.266 141.655 182.051 142.421C179.505 144.025 177.83 146.703 177.502 149.695Z" fill="rgba(0,0,0,0.2)" fill-rule="evenodd" />
            </g>
        </g>

        <rect width="62" height="31" x="92" y="117" rx="3.467" fill="rgba(0,0,0,0.08)" />
        <rect width="48" height="6" x="106" y="153" rx="3" fill="rgba(0,0,0,0.1)" />
        <rect width="48" height="6" x="92" y="163" rx="3" fill="rgba(0,0,0,0.1)" />
        <rect width="11" height="6" x="92" y="153.15" rx="3" fill="rgba(0,0,0,0.1)" />
    </g>
</svg>
