<?xml version="1.0" encoding="UTF-8"?>
<svg width="12px" height="12px" viewBox="0 0 16 16" version="1.1" xmlns="http://www.w3.org/2000/svg" xmlns:xlink="http://www.w3.org/1999/xlink">
    <title>AI助手logo备份 3</title>
    <defs>
        <linearGradient x1="50%" y1="0%" x2="50%" y2="100%" id="linearGradient-1">
            <stop stop-color="#165DFF" offset="0%"></stop>
            <stop stop-color="#532BF5" offset="100%"></stop>
        </linearGradient>
        <linearGradient x1="50%" y1="0%" x2="50%" y2="100%" id="linearGradient-2">
            <stop stop-color="#562CF5" offset="0%"></stop>
            <stop stop-color="#165DFF" offset="100%"></stop>
        </linearGradient>
        <linearGradient x1="50%" y1="0%" x2="50%" y2="100%" id="linearGradient-3">
            <stop stop-color="#94F181" offset="0%"></stop>
            <stop stop-color="#87E0FF" offset="49.2217694%"></stop>
            <stop stop-color="#165DFF" offset="100%"></stop>
        </linearGradient>
        <linearGradient x1="50%" y1="0%" x2="50%" y2="100%" id="linearGradient-4">
            <stop stop-color="#C93CEF" offset="0%"></stop>
            <stop stop-color="#532BF5" offset="100%"></stop>
        </linearGradient>
    </defs>
    <g id="AI助手logo备份-3" stroke="none" stroke-width="1" fill="none" fill-rule="evenodd">
        <g id="编组" transform="translate(0.935385, 1.920000)">
            <path d="M1.18153846,0 C1.83408414,-1.19870696e-16 2.36307692,0.528992788 2.36307692,1.18153846 L2.36307692,9.82153846 C2.36307692,11.1266298 1.30509135,12.1846154 0,12.1846154 L0,12.1846154 L0,12.1846154 L0,1.18153846 C-7.99137971e-17,0.528992788 0.528992788,1.19870696e-16 1.18153846,0 Z" id="矩形" fill="url(#linearGradient-1)"></path>
            <path d="M8.64,0 C9.29254567,-1.19870696e-16 9.82153846,0.528992788 9.82153846,1.18153846 L9.82153846,9.82153846 C9.82153846,11.1266298 8.76355289,12.1846154 7.45846154,12.1846154 L7.45846154,12.1846154 L7.45846154,12.1846154 L7.45846154,1.18153846 C7.45846154,0.528992788 7.98745433,1.19870696e-16 8.64,0 Z" id="矩形备份" fill="url(#linearGradient-2)" transform="translate(8.640000, 6.092308) scale(-1, 1) translate(-8.640000, -6.092308) "></path>
            <path d="M14.1538462,3.15076923 L14.1538462,3.15076923 L14.1538462,3.15076923 L14.1538462,9.82153846 C14.1538462,11.1266298 13.0958606,12.1846154 11.7907692,12.1846154 L11.7907692,12.1846154 L11.7907692,12.1846154 L11.7907692,5.51384615 C11.7907692,4.20875481 12.8487548,3.15076923 14.1538462,3.15076923 Z" id="矩形备份-2" fill="url(#linearGradient-3)"></path>
            <circle id="椭圆形" fill="#94F181" cx="12.9723077" cy="1.18153846" r="1.18153846"></circle>
            <path d="M3.66769231,2.78153846 C5.2200493,2.78153846 6.54715399,3.74595821 7.08253433,5.10832566 C7.09576176,5.14260016 7.10324436,5.17965702 7.10324436,5.21846154 C7.10324436,5.38159796 6.97099616,5.51384615 6.80785975,5.51384615 L5.087,5.71153846 C5.08029594,5.71332373 5.07604821,5.71411044 5.07178172,5.71484224 L5.011,5.72053846 L4.98796434,5.7219487 C4.86662333,5.7219487 4.75553547,5.67804972 4.66971625,5.60526725 L4.61032431,5.54549936 C4.368548,5.2971847 4.03593739,5.14461538 3.66769231,5.14461538 C2.99220558,5.14461538 2.43662185,5.65798119 2.36981251,6.31584142 L2.36307692,6.44923077 L2.36360337,9.87831089 L2.361,9.87653846 L2.35762524,9.98332921 C2.27809736,11.1594964 1.33795789,12.0996358 0.161790752,12.1791637 L0,12.1846154 L0,6.44923077 C0,4.42362024 1.64208178,2.78153846 3.66769231,2.78153846 Z" id="形状结合" fill="url(#linearGradient-4)"></path>
            <path d="M5.07076923,8.22153846 C5.07076923,8.87408414 4.54177644,9.40307692 3.88923077,9.40307692 C3.2366851,9.40307692 2.70769231,8.87408414 2.70769231,8.22153846 L2.70769231,3.66769231 C2.70769231,1.64208178 4.34977409,0 6.37538462,0 C7.92774161,0 9.2548463,0.964419751 9.79022664,2.3267872 C9.80345407,2.3610617 9.81093667,2.39811856 9.81093667,2.43692308 C9.81093667,2.6000595 9.67868847,2.73230769 9.51555205,2.73230769 L7.79469231,2.93 C7.78798825,2.93178527 7.78374051,2.93257198 7.77947402,2.93330378 L7.71869231,2.939 L7.69565664,2.94041024 C7.57431564,2.94041024 7.46322778,2.89651126 7.37740856,2.82372879 L7.31801662,2.7639609 C7.0762403,2.51564624 6.7436297,2.36307692 6.37538462,2.36307692 C5.69989788,2.36307692 5.14431416,2.87644273 5.07750481,3.53430296 L5.07076923,3.66769231 L5.07076923,8.22153846 Z" id="形状结合" fill="url(#linearGradient-4)" transform="translate(6.259314, 4.701538) scale(-1, -1) translate(-6.259314, -4.701538) "></path>
        </g>
    </g>
</svg>