<svg width="16.000000" height="16.000000" viewBox="0 0 32 32" fill="none" xmlns="http://www.w3.org/2000/svg" xmlns:xlink="http://www.w3.org/1999/xlink">
	<desc>
			Created with Pixso.
	</desc>
	<defs>
		<clipPath id="clip152_2">
			<rect id="画板 1" width="32.000000" height="32.000000" fill="white" fill-opacity="0"/>
		</clipPath>
		<linearGradient x1="16.402229" y1="3.476151" x2="16.402229" y2="27.845383" id="paint_linear_150_2_0" gradientUnits="userSpaceOnUse">
			<stop stop-color="#165DFF"/>
			<stop offset="1.000000" stop-color="#532BF5"/>
		</linearGradient>
		<linearGradient x1="16.402168" y1="3.476151" x2="16.402168" y2="27.845383" id="paint_linear_150_7_0" gradientUnits="userSpaceOnUse">
			<stop stop-color="#165DFF"/>
			<stop offset="1.000000" stop-color="#532BF5"/>
		</linearGradient>
	</defs>
	<rect id="画板 1" width="32.000000" height="32.000000" fill="#FFFFFF" fill-opacity="0"/>
	<g clip-path="url(#clip152_2)">
		<mask id="mask150_10" mask-type="alpha" maskUnits="userSpaceOnUse" x="14.320953" y="6.355362" width="25.873955" height="25.873947">
			<path id="直线 1 (边框)" d="M30.78 6.35L14.32 22.82L23.72 32.22L40.19 15.76L30.78 6.35Z" fill="#FFFFFF" fill-opacity="1.000000" fill-rule="evenodd"/>
		</mask>
		<g mask="url(#mask150_10)">
			<linearGradient x1="16.402229" y1="3.476151" x2="16.402229" y2="27.845383" id="paint_linear_150_20_0" gradientUnits="userSpaceOnUse">
				<stop stop-color="#165DFF"/>
				<stop offset="1.000000" stop-color="#532BF5"/>
			</linearGradient>
			<path id="矢量 8" d="M2.24 5.83C2.24 4.53 3.3 3.47 4.61 3.47C5.91 3.47 6.97 4.53 6.97 5.83L6.97 23.11C6.97 25.72 4.85 27.84 2.24 27.84L2.24 5.83Z" fill="url(#paint_linear_150_20_0)" fill-opacity="1.000000" fill-rule="evenodd"/>
			<linearGradient x1="16.402229" y1="3.476151" x2="16.402229" y2="27.845383" id="paint_linear_150_21_1" gradientUnits="userSpaceOnUse">
				<stop stop-color="#562CF5"/>
				<stop offset="1.000000" stop-color="#165DFF"/>
			</linearGradient>
			<path id="矢量 8" d="M21.89 5.83C21.89 4.53 20.83 3.47 19.52 3.47C18.22 3.47 17.16 4.53 17.16 5.83L17.16 23.11C17.16 25.72 19.28 27.84 21.89 27.84L21.89 5.83Z" fill="url(#paint_linear_150_21_1)" fill-opacity="1.000000" fill-rule="evenodd"/>
			<linearGradient x1="16.402229" y1="3.476151" x2="16.402229" y2="27.845383" id="paint_linear_150_22_2" gradientUnits="userSpaceOnUse">
				<stop stop-color="#94F181"/>
				<stop offset="0.492218" stop-color="#87E0FF"/>
				<stop offset="1.000000" stop-color="#165DFF"/>
			</linearGradient>
			<path id="矢量 8" d="M25.82 14.5C25.82 11.89 27.94 9.77 30.55 9.77L30.55 23.11C30.55 25.72 28.44 27.84 25.82 27.84L25.82 14.5Z" fill="url(#paint_linear_150_22_2)" fill-opacity="1.000000" fill-rule="evenodd"/>
			<path id="矢量 8" d="M25.82 5.83C25.82 4.53 26.88 3.47 28.19 3.47C29.49 3.47 30.55 4.53 30.55 5.83C30.55 7.14 29.49 8.2 28.19 8.2C26.88 8.2 25.82 7.14 25.82 5.83Z" fill="#94F181" fill-opacity="1.000000" fill-rule="evenodd"/>
			<linearGradient x1="16.402233" y1="3.476151" x2="16.402233" y2="27.845387" id="paint_linear_150_24_3" gradientUnits="userSpaceOnUse">
				<stop stop-color="#C93CEF"/>
				<stop offset="1.000000" stop-color="#532BF5"/>
			</linearGradient>
			<path id="矢量 8" d="M16.41 13.7C16.44 13.77 16.45 13.84 16.45 13.91C16.45 14.2 16.24 14.44 15.97 14.49C15.96 14.49 15.87 14.5 15.86 14.5L12.46 14.89L12.3 14.91C12 14.91 11.64 14.78 11.46 14.56C10.99 14.08 10.31 13.76 9.58 13.76C8.14 13.76 6.97 14.93 6.97 16.37L6.97 23.23C6.91 25.79 4.82 27.84 2.24 27.84L2.24 16.37C2.24 12.32 5.53 9.03 9.58 9.03C12.68 9.03 15.34 10.97 16.41 13.7Z" fill="url(#paint_linear_150_24_3)" fill-opacity="1.000000" fill-rule="evenodd"/>
			<linearGradient x1="16.402233" y1="3.476151" x2="16.402233" y2="27.845387" id="paint_linear_150_25_4" gradientUnits="userSpaceOnUse">
				<stop stop-color="#532BF5"/>
				<stop offset="1.000000" stop-color="#C93CEF"/>
			</linearGradient>
			<path id="矢量 8" d="M7.7 17.61C7.67 17.55 7.66 17.48 7.66 17.4C7.66 17.11 7.87 16.87 8.14 16.82C8.15 16.82 8.24 16.81 8.25 16.81L11.65 16.42L11.81 16.4C12.11 16.4 12.46 16.53 12.64 16.75C13.12 17.24 13.8 17.55 14.53 17.55C15.97 17.55 17.14 16.38 17.14 14.94L17.16 5.83C17.16 4.53 18.22 3.47 19.52 3.47C20.83 3.47 21.89 4.53 21.89 5.83L21.87 14.94C21.87 18.99 18.58 22.28 14.53 22.28C11.42 22.28 8.77 20.34 7.7 17.61Z" fill="url(#paint_linear_150_25_4)" fill-opacity="1.000000" fill-rule="evenodd"/>
		</g>
		<mask id="mask150_8" mask-type="alpha" maskUnits="userSpaceOnUse" x="-9.999992" y="-6.000000" width="33.294945" height="33.294952">
			<path id="直线 1 (边框)" d="M11.69 -6L-10 15.69L1.59 27.29L23.29 5.59L11.69 -6Z" fill="#FFFFFF" fill-opacity="1.000000" fill-rule="evenodd"/>
		</mask>
		<g mask="url(#mask150_8)">
			<linearGradient x1="16.402168" y1="3.476151" x2="16.402168" y2="27.845383" id="paint_linear_150_70_0" gradientUnits="userSpaceOnUse">
				<stop stop-color="#165DFF"/>
				<stop offset="1.000000" stop-color="#532BF5"/>
			</linearGradient>
			<path id="矢量 8" d="M2.24 5.83C2.24 4.53 3.3 3.47 4.61 3.47C5.91 3.47 6.97 4.53 6.97 5.83L6.97 23.11C6.97 25.72 4.85 27.84 2.24 27.84L2.24 5.83Z" fill="url(#paint_linear_150_70_0)" fill-opacity="1.000000" fill-rule="evenodd"/>
			<linearGradient x1="16.402168" y1="3.476151" x2="16.402168" y2="27.845383" id="paint_linear_150_71_1" gradientUnits="userSpaceOnUse">
				<stop stop-color="#562CF5"/>
				<stop offset="1.000000" stop-color="#165DFF"/>
			</linearGradient>
			<path id="矢量 8" d="M21.89 5.83C21.89 4.53 20.83 3.47 19.52 3.47C18.22 3.47 17.16 4.53 17.16 5.83L17.16 23.11C17.16 25.72 19.28 27.84 21.89 27.84L21.89 5.83Z" fill="url(#paint_linear_150_71_1)" fill-opacity="1.000000" fill-rule="evenodd"/>
			<linearGradient x1="16.402168" y1="3.476151" x2="16.402168" y2="27.845383" id="paint_linear_150_72_2" gradientUnits="userSpaceOnUse">
				<stop stop-color="#94F181"/>
				<stop offset="0.492218" stop-color="#87E0FF"/>
				<stop offset="1.000000" stop-color="#165DFF"/>
			</linearGradient>
			<path id="矢量 8" d="M25.82 14.5C25.82 11.89 27.94 9.77 30.55 9.77L30.55 23.11C30.55 25.72 28.44 27.84 25.82 27.84L25.82 14.5Z" fill="url(#paint_linear_150_72_2)" fill-opacity="1.000000" fill-rule="evenodd"/>
			<path id="矢量 8" d="M25.82 5.83C25.82 4.53 26.88 3.47 28.19 3.47C29.49 3.47 30.55 4.53 30.55 5.83C30.55 7.14 29.49 8.2 28.19 8.2C26.88 8.2 25.82 7.14 25.82 5.83Z" fill="#94F181" fill-opacity="1.000000" fill-rule="evenodd"/>
			<linearGradient x1="16.402172" y1="3.476151" x2="16.402172" y2="27.845387" id="paint_linear_150_74_3" gradientUnits="userSpaceOnUse">
				<stop stop-color="#C93CEF"/>
				<stop offset="1.000000" stop-color="#532BF5"/>
			</linearGradient>
			<path id="矢量 8" d="M16.41 13.7C16.44 13.77 16.45 13.84 16.45 13.91C16.45 14.2 16.24 14.44 15.97 14.49C15.96 14.49 15.87 14.5 15.86 14.5L12.46 14.89L12.3 14.91C12 14.91 11.64 14.78 11.46 14.56C10.99 14.08 10.31 13.76 9.58 13.76C8.14 13.76 6.97 14.93 6.97 16.37L6.97 23.23C6.91 25.79 4.82 27.84 2.24 27.84L2.24 16.37C2.24 12.32 5.53 9.03 9.58 9.03C12.68 9.03 15.34 10.97 16.41 13.7Z" fill="url(#paint_linear_150_74_3)" fill-opacity="1.000000" fill-rule="evenodd"/>
			<linearGradient x1="16.402172" y1="3.476151" x2="16.402172" y2="27.845387" id="paint_linear_150_75_4" gradientUnits="userSpaceOnUse">
				<stop stop-color="#532BF5"/>
				<stop offset="1.000000" stop-color="#C93CEF"/>
			</linearGradient>
			<path id="矢量 8" d="M7.7 17.61C7.67 17.55 7.66 17.48 7.66 17.4C7.66 17.11 7.87 16.87 8.14 16.82C8.15 16.82 8.24 16.81 8.25 16.81L11.65 16.42L11.81 16.4C12.11 16.4 12.46 16.53 12.64 16.75C13.12 17.24 13.8 17.55 14.53 17.55C15.97 17.55 17.14 16.38 17.14 14.94L17.16 5.83C17.16 4.53 18.22 3.47 19.52 3.47C20.83 3.47 21.89 4.53 21.89 5.83L21.87 14.94C21.87 18.99 18.58 22.28 14.53 22.28C11.42 22.28 8.76 20.34 7.7 17.61Z" fill="url(#paint_linear_150_75_4)" fill-opacity="1.000000" fill-rule="evenodd"/>
		</g>
		<path id="矢量 9" d="M27.29 4.32L27.29 4.29C27.68 3.89 28.3 3.89 28.7 4.29C29.1 4.68 29.1 5.3 28.7 5.7L28.68 5.7L27.29 4.32ZM5.26 29.24L5.26 29.27C4.86 29.66 4.24 29.67 3.85 29.27C3.45 28.88 3.45 28.25 3.84 27.86L3.87 27.86L5.26 29.24Z" fill="#D8D8D8" fill-opacity="0" fill-rule="nonzero"/>
		<path id="矢量 9" d="M28 5L4.55 28.56" stroke="#FFFFFF" stroke-opacity="1.000000" stroke-width="2.000000" stroke-linecap="round"/>
	</g>
</svg>
