<svg viewBox="0 0 64 64" xmlns="http://www.w3.org/2000/svg" xmlns:xlink="http://www.w3.org/1999/xlink" width="64.000000" height="64.000000" fill="none">
	<defs>
		<filter id="pixso_custom_mask_type_alpha">
			<feColorMatrix type="matrix" values="0 0 0 0 1 0 0 0 0 1 0 0 0 0 1 0 0 0 1 0 " />
		</filter>
		<linearGradient id="paint_linear_0" x1="10.1610146" x2="26.0660095" y1="58.8999825" y2="59.3419838" gradientUnits="userSpaceOnUse">
			<stop stop-color="rgb(21,247,142)" offset="0" stop-opacity="1" />
			<stop stop-color="rgb(22,243,108)" offset="1" stop-opacity="1" />
		</linearGradient>
		<linearGradient id="paint_linear_1" x1="50.8939934" x2="16.8419914" y1="9.71098709" y2="41.0259933" gradientUnits="userSpaceOnUse">
			<stop stop-color="rgb(77,65,255)" offset="0" stop-opacity="1" />
			<stop stop-color="rgb(70,69,255)" offset="0.0799999982" stop-opacity="1" />
			<stop stop-color="rgb(65,123,251)" offset="0.300000012" stop-opacity="1" />
			<stop stop-color="rgb(58,180,243)" offset="0.495999992" stop-opacity="1" />
			<stop stop-color="rgb(45,219,228)" offset="1" stop-opacity="1" />
		</linearGradient>
		<linearGradient id="paint_linear_2" x1="12.0510111" x2="11.2920151" y1="44.0109901" y2="59.1479874" gradientUnits="userSpaceOnUse">
			<stop stop-color="rgb(46,216,230)" offset="0" stop-opacity="1" />
			<stop stop-color="rgb(34,225,221)" offset="0.264999986" stop-opacity="1" />
			<stop stop-color="rgb(25,241,201)" offset="0.503000021" stop-opacity="1" />
			<stop stop-color="rgb(21,246,153)" offset="0.661000013" stop-opacity="1" />
			<stop stop-color="rgb(21,247,145)" offset="0.816999972" stop-opacity="1" />
			<stop stop-color="rgb(22,245,123)" offset="1" stop-opacity="1" />
		</linearGradient>
		<linearGradient id="paint_linear_3" x1="11.5510101" x2="13.8240108" y1="48.8659935" y2="57.7839966" gradientUnits="userSpaceOnUse">
			<stop stop-color="rgb(36,223,224)" offset="0" stop-opacity="0" />
			<stop stop-color="rgb(22,245,123)" offset="1" stop-opacity="1" />
		</linearGradient>
		<linearGradient id="paint_linear_4" x1="52.1629868" x2="37.5789833" y1="59.1900063" y2="59.1900063" gradientUnits="userSpaceOnUse">
			<stop stop-color="rgb(248,157,16)" offset="0" stop-opacity="1" />
			<stop stop-color="rgb(254,188,17)" offset="0.234999999" stop-opacity="1" />
			<stop stop-color="rgb(255,193,18)" offset="0.441000015" stop-opacity="1" />
			<stop stop-color="rgb(255,188,18)" offset="1" stop-opacity="1" />
		</linearGradient>
		<linearGradient id="paint_linear_5" x1="10.7900143" x2="54.390007" y1="11.7589912" y2="52.9900017" gradientUnits="userSpaceOnUse">
			<stop stop-color="rgb(215,9,1)" offset="0" stop-opacity="1" />
			<stop stop-color="rgb(229,37,5)" offset="0.0790000036" stop-opacity="1" />
			<stop stop-color="rgb(233,42,4)" offset="0.136999995" stop-opacity="1" />
			<stop stop-color="rgb(249,73,5)" offset="0.481000006" stop-opacity="1" />
			<stop stop-color="rgb(248,157,16)" offset="1" stop-opacity="1" />
		</linearGradient>
		<linearGradient id="paint_linear_6" x1="50.9450035" x2="43.920002" y1="57.302002" y2="58.7129974" gradientUnits="userSpaceOnUse">
			<stop stop-color="rgb(254,184,16)" offset="0" stop-opacity="1" />
			<stop stop-color="rgb(255,190,18)" offset="1" stop-opacity="1" />
		</linearGradient>
		<linearGradient id="paint_linear_7" x1="53.3449974" x2="52.0639915" y1="50.8299942" y2="59.0939941" gradientUnits="userSpaceOnUse">
			<stop stop-color="rgb(248,138,13)" offset="0" stop-opacity="1" />
			<stop stop-color="rgb(251,162,14)" offset="0.551999986" stop-opacity="1" />
			<stop stop-color="rgb(251,162,14)" offset="0.870000005" stop-opacity="0.109803922" />
			<stop stop-color="rgb(253,178,14)" offset="1" stop-opacity="0" />
		</linearGradient>
		<linearGradient id="paint_linear_8" x1="51.5330086" x2="54.3810081" y1="3.21299005" y2="14.4079866" gradientUnits="userSpaceOnUse">
			<stop stop-color="rgb(179,44,243)" offset="0" stop-opacity="1" />
			<stop stop-color="rgb(81,63,255)" offset="0.786000013" stop-opacity="0" />
			<stop stop-color="rgb(54,8,252)" offset="0.996999979" stop-opacity="0" />
			<stop stop-color="rgb(46,64,249)" offset="1" stop-opacity="0" />
		</linearGradient>
		<linearGradient id="paint_linear_9" x1="11.1119919" x2="59.4639969" y1="4.88400269" y2="5.25299644" gradientUnits="userSpaceOnUse">
			<stop stop-color="rgb(221,1,19)" offset="0" stop-opacity="0.00784313772" />
			<stop stop-color="rgb(223,0,25)" offset="0.0599999987" stop-opacity="1" />
			<stop stop-color="rgb(220,5,46)" offset="0.140000001" stop-opacity="1" />
			<stop stop-color="rgb(216,10,69)" offset="0.231000006" stop-opacity="1" />
			<stop stop-color="rgb(206,24,129)" offset="0.470999986" stop-opacity="1" />
			<stop stop-color="rgb(201,46,213)" offset="0.68599999" stop-opacity="1" />
			<stop stop-color="rgb(175,43,247)" offset="0.791000009" stop-opacity="1" />
			<stop stop-color="rgb(175,43,247)" offset="0.893999994" stop-opacity="0" />
			<stop stop-color="rgb(0,0,0)" offset="0.944999993" stop-opacity="0" />
			<stop stop-color="rgb(97,2,250)" offset="1" stop-opacity="0" />
		</linearGradient>
		<linearGradient id="paint_linear_10" x1="25.6250134" x2="60.1959991" y1="-24.7720165" y2="18.9439869" gradientUnits="userSpaceOnUse">
			<stop stop-color="rgb(221,1,19)" offset="0" stop-opacity="0.00784313772" />
			<stop stop-color="rgb(223,0,25)" offset="0.0599999987" stop-opacity="1" />
			<stop stop-color="rgb(220,5,46)" offset="0.140000001" stop-opacity="1" />
			<stop stop-color="rgb(216,10,69)" offset="0.231000006" stop-opacity="1" />
			<stop stop-color="rgb(206,24,129)" offset="0.470999986" stop-opacity="1" />
			<stop stop-color="rgb(202,43,202)" offset="0.573000014" stop-opacity="1" />
			<stop stop-color="rgb(201,46,213)" offset="0.68599999" stop-opacity="1" />
			<stop stop-color="rgb(175,43,247)" offset="0.731000006" stop-opacity="1" />
			<stop stop-color="rgb(175,43,247)" offset="0.822000027" stop-opacity="0" />
			<stop stop-color="rgb(0,0,0)" offset="0.944999993" stop-opacity="0" />
			<stop stop-color="rgb(97,2,250)" offset="1" stop-opacity="0" />
		</linearGradient>
		<linearGradient id="paint_linear_11" x1="8.77901363" x2="24.4290161" y1="5.89498949" y2="5.89498949" gradientUnits="userSpaceOnUse">
			<stop stop-color="rgb(209,5,15)" offset="0" stop-opacity="0" />
			<stop stop-color="rgb(205,9,6)" offset="0.363000005" stop-opacity="1" />
			<stop stop-color="rgb(211,8,36)" offset="0.708999991" stop-opacity="1" />
			<stop stop-color="rgb(217,8,62)" offset="1" stop-opacity="0" />
		</linearGradient>
		<linearGradient id="paint_linear_12" x1="10.3100166" x2="12.6970129" y1="5.78399658" y2="15.3049965" gradientUnits="userSpaceOnUse">
			<stop stop-color="rgb(221,1,19)" offset="0" stop-opacity="0" />
			<stop stop-color="rgb(215,9,1)" offset="0.404000014" stop-opacity="1" />
			<stop stop-color="rgb(232,41,5)" offset="1" stop-opacity="1" />
		</linearGradient>
	</defs>
	<mask id="mask_0" width="64.000000" height="64.000000" x="0.000000" y="0.000000" maskUnits="userSpaceOnUse">
		<g filter="url(#pixso_custom_mask_type_alpha)">
			<g id="b">
				<rect id="rect" width="64.000000" height="64.000000" x="0.000000" y="0.000000" fill="rgb(0,0,0)" />
			</g>
		</g>
	</mask>
	<rect id="doer" width="64.000000" height="64.000000" x="0.000000" y="0.000000" />
	<g id="mask" mask="url(#mask_0)">
		<g id="g">
			<path id="d" d="M13.88 54.2C14.24 54.2 14.59 54.25 14.93 54.32L15.34 54.43L15.57 54.49L15.84 54.53L16.07 54.55L22.52 54.55L22.63 54.56C25.14 54.6 27.16 56.64 27.16 59.16C27.16 60.87 26.23 62.36 24.85 63.16C24.15 63.59 23.33 63.84 22.44 63.84C22.37 63.84 22.29 63.83 22.21 63.83L21.97 63.84C21.89 63.84 21.82 63.83 21.74 63.83L21.5 63.84C21.42 63.84 21.35 63.83 21.27 63.83L21.03 63.84C20.95 63.84 20.88 63.83 20.8 63.83L20.56 63.84C20.48 63.84 20.41 63.83 20.33 63.83L20.09 63.84C20.01 63.84 19.94 63.83 19.86 63.83L19.62 63.84C19.54 63.84 19.47 63.83 19.39 63.83L19.15 63.84C19.07 63.84 19 63.83 18.92 63.83L18.68 63.84C18.6 63.84 18.52 63.83 18.45 63.83L18.21 63.84C18.13 63.84 18.05 63.83 17.98 63.83L17.74 63.84C17.66 63.84 17.58 63.83 17.51 63.83L17.27 63.84C17.19 63.84 17.11 63.83 17.04 63.83L16.8 63.84C16.72 63.84 16.64 63.83 16.57 63.83L16.33 63.84C16.25 63.84 16.17 63.83 16.1 63.83L15.86 63.84C15.78 63.84 15.7 63.83 15.63 63.83L15.39 63.84C15.31 63.84 15.23 63.83 15.16 63.83L14.68 63.83L14.26 63.81L14.13 63.81L13.85 63.78L13.48 63.73L13.28 63.7L12.97 63.65L12.67 63.59L12.45 63.54L12.05 63.43L11.92 63.39C10.01 62.83 8.62003 61.06 8.62003 58.97C8.62003 57.16 9.67003 55.59 11.19 54.84C11.63 54.61 12.11 54.45 12.62 54.38C13.02 54.26 13.45 54.2 13.88 54.2Z" fill="url(#paint_linear_0)" fill-rule="nonzero" />
			<path id="f" d="M45.33 1.60999L50.62 0.569992L51.09 0.659992C51.54 0.739992 51.89 0.809992 52.15 0.889992L52.28 0.919992C52.69 1.04999 53.28 1.27999 54.06 1.60999C56.46 2.75999 58.04 4.62999 58.65 6.64999C59.33 9.20999 58.99 11.31 57.98 13.55L57.83 13.86C57.64 14.26 57.37 14.79 57.2 15.09L56.79 15.78L56.73 15.88C55.99 17.13 55.16 18.31 54.25 19.36C53.97 19.69 53.68 20.02 53.38 20.35L52.44 21.36L51.89 21.92C50.99 22.83 50.05 23.73 49.06 24.6L48.92 24.72L47.54 25.93L46.27 27.01L45.54 27.63L44.86 28.19C44.8 28.23 44.75 28.28 44.7 28.32L43.91 28.96L43.67 29.15L43.22 29.51L41.63 30.78L40.12 31.97C40.06 32.02 39.99 32.07 39.93 32.12C39.87 32.16 39.81 32.21 39.75 32.25C39.69 32.3 39.63 32.35 39.57 32.4L39.03 32.81L38.89 32.92C38.82 32.98 38.68 33.09 38.61 33.14L38.39 33.31L36.51 34.76L33.02 37.4L30.53 39.29L30.15 39.58C30.11 39.61 30.06 39.64 30.02 39.68L29.78 39.86L26.37 42.45L25.79 42.9L25.62 43.03L25.08 43.46C24.83 43.71 24.56 43.93 24.27 44.12C24.08 44.3 23.88 44.46 23.66 44.6C23.47 44.77 23.27 44.93 23.06 45.07C22.89 45.24 22.7 45.39 22.5 45.53C22.32 45.69 22.14 45.84 21.94 45.97C21.78 46.13 21.6 46.28 21.41 46.41C21.25 46.56 21.08 46.7 20.9 46.83C20.75 46.98 20.59 47.11 20.42 47.24C20.28 47.37 20.13 47.5 19.97 47.62C19.84 47.75 19.69 47.88 19.54 48C19.41 48.12 19.28 48.24 19.13 48.36C19.02 48.47 18.9 48.58 18.77 48.68C18.67 48.8 18.55 48.9 18.43 49C18.34 49.11 18.24 49.21 18.13 49.3C18.05 49.39 17.96 49.47 17.87 49.56C17.8 49.64 17.72 49.72 17.65 49.8C17.58 49.88 17.51 49.95 17.44 50.03C17.37 50.11 17.29 50.2 17.22 50.28C17.15 50.36 17.08 50.44 17.01 50.52C16.95 50.6 16.88 50.68 16.81 50.76C16.56 51.09 16.27 51.38 15.94 51.63C15.14 52.28 14.12 52.68 13.01 52.68C10.47 52.68 8.39999 50.62 8.39999 48.07C8.39999 47.03 8.74999 46.07 9.32999 45.3L9.54999 45.02L9.96999 44.52L10.27 44.17L10.78 43.59L11.05 43.3L11.38 42.96L11.66 42.68L12.04 42.31L12.78 41.62L13.79 40.73L15.1 39.62L16.63 38.37L18.29 37.05L20.05 35.69L21 34.96L24.25 32.48L24.46 32.33L26.99 30.41L32.78 26C32.84 25.95 32.91 25.9 32.98 25.85L33.15 25.71L33.91 25.12L34.44 24.71L34.63 24.56C34.68 24.52 34.74 24.48 34.79 24.43L35.65 23.76C35.72 23.7 35.79 23.65 35.86 23.6L37.7 22.13L38.36 21.6L39.16 20.94L40.25 20.03L41.3 19.15L41.81 18.7L42.66 17.95L43.35 17.32C43.58 17.11 43.79 16.92 43.99 16.73L44.68 16.08L45.44 15.33L46.07 14.67L46.57 14.12L46.89 13.75L47.12 13.47L47.62 12.84L47.82 12.58L48.16 12.13L48.26 11.98L48.36 11.82C48.7 11.32 48.95 10.88 49.18 10.44L49.56 9.74C49.56 9.73 49.11 9.6 47.89 9.63C47.41 8.95 47.12 7.88 47.04 6.43C47.05 6.37 46.59 6.19 46.09 6.01L45.5 5.81C45.1 5.67 44.78 5.57 44.78 5.57L47.62 5.07L45.33 1.60999Z" fill="url(#paint_linear_1)" fill-rule="nonzero" />
			<path id="h" d="M18.1 49.32C17.18 50.27 16.44 51.15 15.87 51.98C15.3 52.8 14.89 53.54 14.62 54.19C14.36 54.63 14.25 55.29 14.3 56.18C14.37 57.51 14.88 58.82 14.88 58.82L17.09 63.84L14.88 63.84C11.36 63.76 8.56001 62.29 6.48001 59.41C5.08001 57.03 4.79001 54.49 5.64001 51.79C6.24001 50.03 7.07001 48.41 8.10001 46.94C9.44001 45.1 10.53 43.78 11.39 42.97C12.25 42.16 14.62 42.05 18.48 42.65L18.1 49.32Z" fill="url(#paint_linear_2)" fill-rule="evenodd" />
			<path id="j" d="M15.44 44.07C14.29 46.35 13.71 48.83 13.71 51.53C13.8 52.55 14.11 53.43 14.62 54.19C14.82 54.42 15.82 54.55 17.6 54.57L21.17 54.57L19.95 63.84L14.88 63.84C11.36 63.76 8.56001 62.29 6.48001 59.41C5.08001 57.03 4.80001 54.49 5.64001 51.79C6.25001 50.03 7.07001 48.41 8.11001 46.94C9.44001 45.1 10.53 43.78 11.39 42.97C12.26 42.16 13.6 42.53 15.44 44.07Z" fill="url(#paint_linear_3)" fill-rule="evenodd" />
			<path id="l" d="M48.47 54.54C50.53 54.54 52.28 55.89 52.87 57.76C53.02 58.22 53.1 58.72 53.1 59.23C53.1 61.45 52.47 63.33 50.38 63.77C50.08 63.84 48.82 63.84 48.5 63.84L41.71 63.84C41.04 63.84 40.4 63.69 39.83 63.43C38.14 62.75 36.95 61.1 36.95 59.16C36.95 56.69 38.9 54.67 41.35 54.56L48.01 54.56C48.13 54.55 48.35 54.54 48.47 54.54Z" fill="url(#paint_linear_4)" fill-rule="nonzero" />
			<path id="n" d="M5.60001 12.58L5.81001 13.12C6.00001 13.52 6.20001 14.01 6.37001 14.31L6.73001 14.93L6.96001 15.3C7.68001 16.49 8.45001 17.54 9.35001 18.59C9.64001 18.93 9.99001 19.36 10.29 19.69L11.06 20.54L11.66 21.15C12.56 22.06 13.46 22.96 14.45 23.83L14.58 23.95L15.92 25.16L17.19 26.24L17.93 26.85L18.6 27.41C18.66 27.46 18.71 27.5 18.77 27.55L19.55 28.18L19.79 28.38L20.24 28.74L21.83 30.01L23.34 31.19C23.4 31.25 23.47 31.3 23.53 31.34C23.59 31.39 23.65 31.44 23.71 31.48C23.77 31.53 23.83 31.58 23.89 31.62L24.43 32.04L24.57 32.15C24.64 32.21 24.78 32.31 24.85 32.37L25.07 32.54L26.95 33.98L30.44 36.63L32.93 38.52L33.31 38.8C33.35 38.84 33.4 38.87 33.44 38.9L33.68 39.09L37.09 41.68L37.67 42.13L37.84 42.26L38.39 42.68C38.63 42.93 38.9 43.15 39.19 43.34C39.38 43.52 39.58 43.68 39.8 43.83C39.99 44 40.19 44.16 40.4 44.3C40.58 44.46 40.76 44.61 40.96 44.75C41.14 44.91 41.32 45.06 41.52 45.2C41.69 45.36 41.86 45.5 42.05 45.63C42.21 45.79 42.38 45.93 42.56 46.06C42.71 46.2 42.87 46.34 43.04 46.46C43.18 46.6 43.33 46.73 43.49 46.84C43.63 46.98 43.77 47.11 43.93 47.22C44.05 47.35 44.19 47.47 44.33 47.58C44.44 47.7 44.56 47.81 44.69 47.91C44.8 48.02 44.91 48.13 45.03 48.23C45.13 48.33 45.23 48.43 45.33 48.52C45.41 48.61 45.5 48.7 45.59 48.78C45.66 48.86 45.74 48.94 45.82 49.02C45.88 49.1 45.95 49.18 46.03 49.25C46.1 49.34 46.17 49.42 46.25 49.5C46.31 49.59 46.38 49.67 46.45 49.74C46.52 49.83 46.58 49.91 46.65 49.98C46.9 50.31 47.2 50.6 47.52 50.85C48.32 51.51 49.34 51.9 50.45 51.9C53 51.9 55.06 49.84 55.06 47.3C55.06 46.26 54.72 45.3 54.14 44.53L53.91 44.25L53.5 43.74L53.2 43.4L52.69 42.82L52.41 42.52L52.08 42.18L51.81 41.91L51.42 41.54L50.68 40.85L49.67 39.95L48.36 38.85L46.83 37.6L45.17 36.28L43.42 34.92L42.46 34.18L39.21 31.71C39.14 31.65 39.07 31.6 39 31.55L36.47 29.64L30.69 25.23C30.62 25.17 30.55 25.12 30.49 25.07L30.31 24.93L29.55 24.35L29.03 23.94L28.83 23.79C28.78 23.74 28.72 23.7 28.67 23.66L27.81 22.98C27.74 22.93 27.67 22.87 27.6 22.82L25.77 21.36L25.11 20.82L24.3 20.17L23.21 19.26L22.17 18.37L21.66 17.93L20.83 17.18L20.13 16.54C19.91 16.33 19.66 16.09 19.46 15.91L18.8 15.28L18.08 14.54L17.46 13.89L16.99 13.35L16.63 12.95L16.41 12.69L15.96 12.12L15.71 11.77L15.39 11.37L15.3 11.23L15.17 11.04C14.83 10.53 14.62 10.11 14.38 9.67001L14.11 8.87001L5.57002 6.15001C5.47002 6.53001 5.31002 6.92001 5.22002 7.27001C4.73002 9.29001 5.07001 10.96 5.60001 12.58Z" fill="url(#paint_linear_5)" fill-rule="evenodd" />
			<path id="p" d="M57.59 49.59C58.45 51.28 58.91 52.8 58.95 54.78C58.86 58.66 56.9 61.43 53.08 63.09C52.23 63.48 51.01 63.72 49.42 63.81L48.81 63.84L47.06 63.85L43.36 63.85L42.35 54.56L44.95 54.58L46.9 54.58C47.34 54.57 47.66 54.57 47.84 54.56C48.4 54.52 48.96 54.4 49.52 54.18L51.22 53.18C53.91 51.6 55.99 50.43 57.45 49.67L57.59 49.59Z" fill="url(#paint_linear_6)" fill-rule="evenodd" />
			<path id="q" d="M19.12 15.59C16.7 13.24 15.11 11.23 14.34 9.55999C13.86 8.49 14.17 7.43 14.53 6.43999L15.89 4.56L15.86 2.13C15.07 0.969996 14.56 0.399996 14.32 0.409996C12.41 0.519996 10.82 0.959996 9.66002 1.67C7.60002 2.92 5.25002 5.08 5.02002 8.67999C4.78002 12.27 6.71002 15.59 10.18 19.53L16.37 16.61L19.12 15.59Z" fill="rgb(215,6,22)" fill-rule="evenodd" />
			<path id="s" d="M53.58 43.87C54.9 45.35 55.89 46.66 56.58 47.79C58.09 50.3 58.89 52.12 58.95 54.78C58.86 58.66 56.9 61.43 53.08 63.09C48.97 59.48 47.1 57.56 47.49 57.31C49.72 55.91 49.75 54.97 49.63 54.55C49.41 53.74 48.8 52.49 47.09 50.45L49.94 46.15L53.58 43.87Z" fill="url(#paint_linear_7)" fill-rule="evenodd" />
			<path id="u" d="M47.97 9.61999L48.62 9.61999C50.85 9.66999 51.7 10.73 51.17 12.8C50.58 15.41 50.29 16.71 50.29 16.71L49.67 20.43L51.36 22.45C53.73 20.17 55.54 17.95 56.8 15.78C58.67 12.61 59.55 10.03 58.65 6.64999C57.67 3.39999 54.19 0.569988 48.84 0.409988L48.12 0.409988L47.97 9.61999Z" fill="url(#paint_linear_8)" fill-rule="evenodd" />
			<path id="w" d="M47.74 0.409989L46.83 9.62999L14.63 9.62999C14.47 9.63999 14.22 9.65999 14.07 9.65999C11.52 9.65999 9.45999 7.58999 9.45999 5.04999C9.45999 2.66999 11.26 0.709988 13.57 0.469988L13.72 0.449988L14.01 0.429988L14.13 0.419988L14.26 0.419988L14.38 0.409988L47.74 0.409989Z" fill="url(#paint_linear_9)" fill-rule="nonzero" />
			<path id="y" d="M48.8 0.409988L49.02 0.419988L49.33 0.429988L49.65 0.449988C49.69 0.459988 49.73 0.459988 49.78 0.459988L49.91 0.479988C49.95 0.479988 50 0.489988 50.04 0.489988L50.27 0.519988C50.31 0.529988 50.36 0.529988 50.4 0.539988C50.45 0.549988 50.5 0.549988 50.55 0.559988L50.69 0.579988C52.86 0.959988 56.66 2.04999 58.39 5.95999C58.59 6.40999 59.05 8.02999 59.01 9.52999C58.99 10.23 58.86 10.9 58.54 11.43C58.22 11.96 58.39 12.97 57.74 13.99C57.01 15.15 51.54 14.09 49.65 14.9C51.36 12.83 51.17 11.44 50.83 10.62C50.59 10.23 50.28 9.95999 49.9 9.80999L49.33 9.67999L48.73 9.62999L44.02 9.62999L44.02 0.409988L48.8 0.409988Z" fill="url(#paint_linear_10)" fill-rule="nonzero" />
			<path id="aa" d="M11.82 10.84C13.18 10.03 14.15 9.62999 14.75 9.62999L24.71 9.62999L24.71 10.02L24.71 0.409988L14.33 0.409988C12.76 0.459988 11.2 0.929988 9.66001 1.81999C8.13001 2.70999 7.82001 5.00999 8.74001 8.71999L9.74001 11.38L11.82 10.84Z" fill="url(#paint_linear_11)" fill-rule="evenodd" />
			<path id="ac" d="M19.12 15.59C16.7 13.24 15.11 11.23 14.34 9.55999C13.86 8.49 14.17 7.43 14.53 6.43999L15.89 4.56L15.86 2.13C15.07 0.969996 14.56 0.399996 14.32 0.409996C12.41 0.519996 10.82 0.959996 9.66002 1.67C7.60002 2.92 5.25002 5.08 5.02002 8.67999C4.78002 12.27 6.71002 15.59 10.18 19.53L16.37 16.61L19.12 15.59Z" fill="url(#paint_linear_12)" fill-rule="evenodd" />
		</g>
	</g>
</svg>
