<svg viewBox="0 0 16 16" xmlns="http://www.w3.org/2000/svg" xmlns:xlink="http://www.w3.org/1999/xlink" width="16.000000" height="16.000000" fill="none" customFrame="#000000">
	<rect id="third-party icon/maven" width="16.000000" height="16.000000" x="0.000000" y="0.000000" />
	<path id="Path" d="M8.1 2.85C7.1 3.65 6.75 3.85 6.25 4.55C5.75 5.25 5.75 7.25 6.75 8C6.5 8 5.5 7.4 5.5 7.4C5.5 7.4 6.85 9.3 7.4 9.85C8.2 11 8.7 12.25 8.9 13.55C9.05 12.45 8.85 11.4 8.3 10.4L8.3 10.35C8.25 10.1 8.3 9.9 8.55 9.7C8.8 9.55 9.85 8.55 9.85 8.55C9.85 8.55 8.75 9.2 8.45 9.25C8.9 8.8 9.2 8.4 9.65 8.1C10.4 7.5 10.55 6.75 10.45 6C10.45 5.8 10.4 5.65 10.35 5.45C10.1 4.35 9.5 3.4 8.55 2.5C8.4 2.7 8.25 2.75 8.1 2.85L8.1 2.85Z" fill="rgb(239,118,35)" fill-rule="evenodd" />
</svg>
