<svg width="16" height="16" viewBox="0 0 16 16" fill="none" xmlns="http://www.w3.org/2000/svg">
<path d="M8 15C7.81745 15.0001 7.63809 14.9504 7.47999 14.856L5.82521 13.8425C5.57826 13.6995 5.69859 13.649 5.78027 13.6195C6.04297 13.5356 6.29447 13.418 6.52888 13.2694C6.54847 13.2599 6.57011 13.2558 6.59171 13.2574C6.6133 13.2591 6.63411 13.2665 6.65212 13.2789L7.92364 14.0605C7.94732 14.0734 7.9737 14.0802 8.00049 14.0802C8.02727 14.0802 8.05365 14.0734 8.07733 14.0605L13.0358 11.0994C13.0591 11.0851 13.0784 11.0647 13.0917 11.0404C13.105 11.016 13.1119 10.9884 13.1117 10.9604V5.03716C13.1118 5.00872 13.1047 4.98075 13.0913 4.95596C13.0778 4.93117 13.0584 4.91039 13.0349 4.89566L8.07636 1.93706C8.05302 1.92329 8.02662 1.91605 7.99976 1.91605C7.9729 1.91605 7.9465 1.92329 7.92316 1.93706L2.96754 4.89666C2.94391 4.91112 2.92428 4.93166 2.91056 4.95627C2.89684 4.98089 2.8895 5.00875 2.88925 5.03716V10.9579C2.88956 10.9857 2.89691 11.013 2.91056 11.0371C2.9242 11.0611 2.94368 11.081 2.96706 11.0949L4.32703 11.9069C5.06404 12.2879 5.51543 11.8389 5.51543 11.3879V5.54218C5.51543 5.5024 5.5307 5.46424 5.55789 5.43611C5.58508 5.40798 5.62196 5.39217 5.66041 5.39217H6.28869C6.32714 5.39217 6.36402 5.40798 6.39121 5.43611C6.4184 5.46424 6.43367 5.5024 6.43367 5.54218V11.3884C6.43367 12.4059 5.89819 12.9884 4.96545 12.9884C4.56309 12.9954 4.16709 12.8841 3.82344 12.6674L2.52002 11.8939C2.36192 11.7984 2.23073 11.6618 2.1395 11.4975C2.04827 11.3333 2.00018 11.1473 2.00001 10.9579V5.03716C1.99944 4.8474 2.0472 4.66083 2.13849 4.49625C2.22978 4.33166 2.36138 4.19486 2.52002 4.09963L7.47902 1.13753C7.63882 1.04729 7.81795 1 8 1C8.18205 1 8.36119 1.04729 8.52098 1.13753L13.4795 4.09963C13.6376 4.19497 13.7687 4.33143 13.8601 4.49546C13.9514 4.65949 13.9996 4.84538 14 5.03466V10.9579C13.9998 11.1473 13.9516 11.3334 13.8603 11.4976C13.769 11.6618 13.6377 11.7985 13.4795 11.8939L8.52098 14.856C8.3626 14.9506 8.18289 15.0003 8 15Z" fill="#83CD29"/>
<path d="M7.027 8.97656C7.027 8.93678 7.0428 8.89862 7.07093 8.87049C7.09906 8.84236 7.13722 8.82656 7.177 8.82656H7.8405C7.87595 8.82667 7.91022 8.83934 7.93722 8.86231C7.96422 8.88529 7.98221 8.91708 7.988 8.95206C8.088 9.62756 8.388 9.96806 9.7445 9.96806C10.825 9.96806 11.2855 9.72356 11.2855 9.15006C11.2855 8.81956 11.155 8.57406 9.4755 8.40956C8.0715 8.27056 7.2035 7.95956 7.2035 6.83756C7.2035 5.80256 8.076 5.18506 9.5385 5.18506C11.182 5.18506 11.9955 5.75556 12.0985 6.97956C12.1001 6.99999 12.0974 7.02053 12.0908 7.03991C12.0841 7.05929 12.0735 7.0771 12.0597 7.09223C12.0459 7.10736 12.0291 7.1195 12.0104 7.1279C11.9917 7.1363 11.9715 7.14078 11.951 7.14106H11.283C11.2495 7.14059 11.2171 7.12891 11.191 7.10789C11.1649 7.08686 11.1466 7.0577 11.139 7.02506C10.9795 6.31456 10.589 6.08756 9.539 6.08756C8.359 6.08756 8.222 6.49856 8.222 6.80656C8.222 7.17956 8.384 7.28856 9.977 7.49906C11.5535 7.70756 12.3025 8.00256 12.3025 9.11056C12.3025 10.2286 11.3705 10.8686 9.745 10.8686C7.4975 10.8716 7.027 9.84106 7.027 8.97656Z" fill="#83CD29"/>
</svg>
