<svg viewBox="0 0 50 16.0003" xmlns="http://www.w3.org/2000/svg" xmlns:xlink="http://www.w3.org/1999/xlink" width="50.000000" height="16.000305" fill="none" customFrame="#000000">
	<defs>
		<linearGradient id="paint_linear_17" x1="6.99145746" x2="45.9914589" y1="4.37107849" y2="5.37110329" gradientUnits="userSpaceOnUse">
			<stop stop-color="rgb(66,135,255)" offset="0" stop-opacity="1" />
			<stop stop-color="rgb(22,83,224)" offset="1" stop-opacity="1" />
		</linearGradient>
		<linearGradient id="paint_linear_18" x1="15.9554176" x2="8.83161545" y1="13.0949326" y2="5.98630571" gradientUnits="userSpaceOnUse">
			<stop stop-color="rgb(255,255,255)" offset="0.021285329" stop-opacity="1" />
			<stop stop-color="rgb(156,190,255)" offset="0.9671821" stop-opacity="1" />
		</linearGradient>
		<linearGradient id="paint_linear_19" x1="9.49826908" x2="4.73028326" y1="9.93712139" y2="4.67194414" gradientUnits="userSpaceOnUse">
			<stop stop-color="rgb(255,255,255)" offset="0.021285329" stop-opacity="1" />
			<stop stop-color="rgb(156,190,255)" offset="0.9671821" stop-opacity="1" />
		</linearGradient>
		<linearGradient id="paint_linear_20" x1="41.9914627" x2="31.0603294" y1="1.87109375" y2="27.6920471" gradientUnits="userSpaceOnUse">
			<stop stop-color="rgb(255,255,255)" offset="0" stop-opacity="1" />
			<stop stop-color="rgb(255,255,255)" offset="1" stop-opacity="0" />
		</linearGradient>
	</defs>
	<g id="组合 8926">
		<g id="组合 8911">
			<path id="矩形 6978" d="M4.65985 0L47.5901 0C48.8424 0 49.7867 1.13775 49.5559 2.36858L47.3059 14.3686C47.1285 15.3145 46.3026 16 45.3401 16L2.40985 16C1.15758 16 0.213328 14.8623 0.444108 13.6314L2.69411 1.63142C2.87147 0.685477 3.69742 0 4.65985 0Z" fill="url(#paint_linear_17)" fill-rule="evenodd" />
			<path id="矩形 6978" d="M47.5901 0L4.65985 0C3.69742 0 2.87147 0.685477 2.69411 1.63142L0.444108 13.6314C0.213328 14.8623 1.15758 16 2.40985 16L45.3401 16C46.3026 16 47.1285 15.3145 47.3059 14.3686L49.5559 2.36858C49.7867 1.13775 48.8424 0 47.5901 0ZM4.65985 1L47.5901 1C47.6874 1 47.7808 1.01299 47.8705 1.03897C47.9228 1.05413 47.9739 1.07371 48.0236 1.09771C48.0786 1.12424 48.1304 1.15523 48.1789 1.19069C48.2452 1.23922 48.3055 1.29611 48.3597 1.36136C48.4138 1.42662 48.4586 1.49634 48.4941 1.57053C48.52 1.62472 48.5409 1.68128 48.5569 1.74023C48.5713 1.79354 48.5811 1.84729 48.5864 1.90148C48.5954 1.99445 48.5909 2.08871 48.573 2.18429L46.323 14.1843C46.3008 14.3025 46.2611 14.4104 46.2037 14.5079C46.1463 14.6055 46.0714 14.6927 45.9788 14.7695C45.8862 14.8463 45.7867 14.904 45.6802 14.9424C45.5738 14.9808 45.4604 15 45.3401 15L2.40985 15C2.31262 15 2.21916 14.987 2.12946 14.961C2.07715 14.9459 2.02612 14.9263 1.97638 14.9023C1.92141 14.8758 1.8697 14.8448 1.82125 14.8094C1.75483 14.7608 1.69453 14.7039 1.64034 14.6386C1.58616 14.5733 1.54132 14.5036 1.50584 14.4293C1.47996 14.3752 1.45906 14.3187 1.44313 14.2598C1.42872 14.2065 1.41888 14.1527 1.41362 14.0985C1.40461 14.0055 1.40906 13.9113 1.42698 13.8157L3.67698 1.81571C3.69915 1.69747 3.73892 1.58958 3.7963 1.49204C3.85367 1.39451 3.92864 1.30732 4.02122 1.23049C4.11379 1.15366 4.2133 1.09604 4.31974 1.05762C4.42618 1.01921 4.53955 1 4.65985 1Z" fill="rgb(223,225,230)" fill-opacity="0" fill-rule="evenodd" />
			<g id="组合 4719">
				<g style="mix-blend-mode:normal">
					<path id="矢量 3" d="M11.1528 12.5647L12.8601 12.5647C12.9955 12.3212 15.9241 5.25692 16.0966 5.02424L16.9999 4.14691L13.7985 4.14691L11.1528 12.5647Z" fill="url(#paint_linear_18)" fill-rule="evenodd" />
				</g>
				<g style="mix-blend-mode:normal">
					<path id="矢量 2" d="M9.44334 12.5647L12.3582 12.5647L9.47146 5.17157L9.98936 4.15631L9.41212 4.15631L5 4.15631L9.44334 12.5647Z" fill="url(#paint_linear_19)" fill-rule="evenodd" />
				</g>
				<g style="mix-blend-mode:normal">
					<path id="矢量 790" d="M11.7943 10.5084L13.0056 6.68881L12.8523 12.565L11.7943 10.5084Z" fill="rgb(9,80,222)" fill-rule="evenodd" />
				</g>
				<path id="矢量 5(边框)" d="M9.64372 5.19442L10.1522 4.1568L9.61292 4.15677L9.10095 5.14862L10.8321 8.97337L12.3414 12.565L12.8484 12.565L11.2654 8.77727L9.64372 5.19442Z" fill="rgb(255,255,255)" fill-rule="evenodd" />
			</g>
			<path id="" d="M30.9072 4.14355L30.9072 6.26758L29.8994 6.26758L29.8994 5.04297L21.9922 5.04297L21.9922 6.26758L20.9727 6.26758L20.9727 4.14355L25.5195 4.14355L25.0391 3.03906L26.1436 2.76367C26.2002 2.91602 26.2764 3.0918 26.3721 3.29102C26.4209 3.4043 26.4766 3.53516 26.5391 3.68359C26.6035 3.83008 26.668 3.9834 26.7324 4.14355L30.9072 4.14355ZM29.6006 9.10059L23.2754 9.10059L23.2754 10.2285L29.9229 10.2285L29.9229 13.8994L28.9531 13.8994L28.9531 13.2988L23.2754 13.2988L23.2754 13.9609L22.3027 13.9609L22.3027 6.19727L29.6006 6.19727L29.6006 9.10059ZM28.6162 8.25977L28.6162 7.04688L23.2754 7.04688L23.2754 8.25977L28.6162 8.25977ZM28.9531 12.4727L28.9531 11.0693L23.2754 11.0693L23.2754 12.4727L28.9531 12.4727ZM36.8486 5.53516L36.7637 7.1084L36.7402 7.38379L41.8994 7.38379C41.8916 8.04004 41.8535 8.81055 41.7852 9.69531C41.7168 10.5781 41.6436 11.2393 41.5654 11.6787C41.4678 12.2002 41.3447 12.5908 41.1963 12.8506C41.0498 13.1104 40.832 13.2939 40.543 13.4014C40.2559 13.5107 39.8359 13.5654 39.2832 13.5654C38.8047 13.5654 38.2373 13.5371 37.5811 13.4805L37.3877 12.543C38.0518 12.623 38.6475 12.6631 39.1748 12.6631C39.5029 12.6631 39.7549 12.6279 39.9307 12.5576C40.1084 12.4854 40.2451 12.3574 40.3408 12.1738C40.4365 11.9883 40.5205 11.708 40.5928 11.333C40.7529 10.5166 40.8408 9.52441 40.8564 8.35645L36.6436 8.35645C36.5322 9.15527 36.3584 9.86523 36.1221 10.4863C35.8857 11.1055 35.5596 11.6934 35.1436 12.25C34.7275 12.8066 34.1797 13.3848 33.5 13.9844L32.7559 13.1553C33.4922 12.5322 34.0645 11.9424 34.4727 11.3857C34.8809 10.8291 35.1826 10.2109 35.3779 9.53125C35.5732 8.85156 35.707 8 35.7793 6.97656C35.8047 6.64062 35.8252 6.16016 35.8408 5.53516L32.6826 5.53516L32.6826 4.58887L37.7949 4.58887C37.4668 3.78809 37.251 3.28809 37.1475 3.08887L38.1084 2.76367L38.7793 4.27539L38.9111 4.58887L43.3525 4.58887L43.3525 5.53516L36.8486 5.53516Z" fill="rgb(255,255,255)" fill-rule="nonzero" />
		</g>
		<path id="路径 8" d="M44.4915 0.40003C44.4915 0.40003 33.3339 4.25042 23.9913 8.37104C18.2023 10.9243 13.6563 13.0815 8.49146 16.0003C15.2961 16.0003 46.5795 16.0003 46.5795 16.0003L49.4606 2.82729C49.7334 1.58 48.7835 0.399902 47.5068 0.399902L44.4915 0.40003Z" opacity="0.289999992" fill="url(#paint_linear_20)" fill-rule="evenodd" />
		<path id="路径 8" d="M46.5795 16.0003L49.4606 2.82729C49.7334 1.58 48.7835 0.399902 47.5068 0.399902L44.4915 0.40003C44.4915 0.40003 33.3339 4.25042 23.9913 8.37104C18.2023 10.9243 13.6563 13.0815 8.49146 16.0003C15.2961 16.0003 46.5795 16.0003 46.5795 16.0003Z" opacity="0.289999992" fill-rule="evenodd" stroke="rgb(151,151,151)" stroke-opacity="0" stroke-width="0.800000012" />
	</g>
</svg>
