<svg viewBox="0 0 16 16" xmlns="http://www.w3.org/2000/svg" xmlns:xlink="http://www.w3.org/1999/xlink" width="16.000000" height="16.000000" fill="none" customFrame="#000000">
	<rect id="third-party icon/php" width="16.000000" height="16.000000" x="0.000000" y="0.000000" />
	<path id="Shape" d="M5.85755 9.29025C6.15755 9.39025 6.30755 9.64025 6.35755 9.94025C6.40755 10.2403 6.40755 10.5903 6.20755 10.7903C6.55755 10.9403 6.55755 11.2403 6.55755 11.5403L6.60755 11.5403C6.90755 11.5903 7.25755 11.5903 7.60755 11.4903C7.75755 11.4403 7.75755 11.3903 7.75755 11.2403C7.70755 10.9903 7.65755 10.6903 7.65755 10.4403C7.65755 10.2403 7.70755 10.0403 7.80755 9.84025C7.90755 9.64025 8.05755 9.64025 8.25755 9.69025C8.70755 9.84025 9.10755 9.84025 9.50755 9.59025C9.65755 9.54025 9.80755 9.54025 9.90755 9.69025C10.0076 9.84025 10.0576 9.99025 10.0076 10.1903C9.95755 10.4403 9.90755 10.6403 9.85755 10.8403C10.1076 10.9903 10.1076 11.2903 10.1076 11.5903L10.9076 11.5903C11.1076 11.5903 11.2576 11.5403 11.4076 11.4903C11.6076 11.3903 11.7076 11.2903 11.6576 11.0403C11.6076 10.6403 11.5576 10.1903 11.5076 9.79025C11.4742 9.65692 11.4853 9.52359 11.4964 9.39025C11.502 9.32359 11.5076 9.25692 11.5076 9.19025C11.5076 9.14025 11.5576 9.04025 11.6076 8.99025C11.9576 8.64025 12.1576 8.19025 12.3076 7.69025C12.3076 7.64025 12.3576 7.59025 12.3576 7.54025C12.3576 7.49025 12.4076 7.49025 12.4576 7.54025C12.5076 7.59025 12.5576 7.69025 12.6076 7.74025C12.6576 7.79025 12.7076 7.89025 12.8076 7.94025C12.9076 7.99025 12.9576 7.99025 12.9576 7.89025C12.9576 7.74025 12.9576 7.64025 12.9076 7.49025C12.6576 6.59025 12.1576 5.84025 11.3576 5.34025C10.8576 4.99025 10.3076 4.84025 9.70755 4.79025C9.20755 4.74025 8.65755 4.79025 8.15755 4.89025C8.15755 4.94025 8.10755 4.94025 8.05755 4.94025C7.95755 4.99025 7.95755 5.04025 7.95755 5.14025C8.00755 5.29025 8.05755 5.39025 8.05755 5.54025C8.15755 6.24025 8.05755 6.89025 7.65755 7.44025C7.25755 7.94025 6.75755 8.14025 6.10755 8.09025C5.90755 8.09025 5.80755 7.99025 5.70755 7.84025C5.56098 7.59597 5.50989 7.30394 5.46098 7.01082C5.47227 7.04153 5.50755 7.04825 5.50755 7.09025L5.50755 7.14025C5.60755 7.34025 5.75755 7.54025 5.85755 7.69025C6.00755 7.94025 6.15755 7.99025 6.45755 7.89025C7.10755 7.69025 7.65755 7.09025 7.70755 6.39025C7.75755 6.04025 7.70755 5.74025 7.60755 5.39025C7.45755 4.89025 7.05755 4.64025 6.55755 4.54025C5.95755 4.44025 5.35755 4.54025 4.80755 4.69025C4.60755 4.74025 4.40755 4.79025 4.20755 4.89025C3.90755 5.04025 3.70755 5.29025 3.55755 5.54025C3.15755 6.24025 2.95755 6.99025 3.00755 7.79025C3.05755 8.49025 3.35755 9.09025 4.00755 9.59025C4.25755 9.79025 4.50755 9.99025 4.70755 10.1903C4.75755 10.2403 4.75755 10.2903 4.80755 10.3403C4.85755 10.4903 4.80755 10.5903 4.70755 10.6903C4.70755 10.7403 4.65755 10.7903 4.60755 10.7903C4.45755 10.8903 4.40755 11.0403 4.55755 11.1903C4.65755 11.2903 4.85755 11.3903 5.00755 11.3903C5.00755 11.3903 5.05755 11.3903 5.10755 11.3403C5.35755 11.0903 5.50755 10.7403 5.55755 10.3903C5.6007 10.2177 5.53215 10.1196 5.44829 9.99951C5.43497 9.98044 5.42126 9.96082 5.40755 9.94025C5.25755 9.79025 5.15755 9.69025 5.05755 9.54025C4.95755 9.44025 4.90755 9.39025 4.85755 9.29025C4.80755 9.24025 4.75755 9.14025 4.80755 9.04025C4.90755 8.94025 5.00755 8.89025 5.10755 8.94025C5.20755 8.99025 5.35755 9.04025 5.50755 9.09025C5.60755 9.14025 5.75755 9.24025 5.85755 9.29025ZM5.46098 7.01082C5.45883 7.00497 5.45755 6.99825 5.45755 6.99025C5.45869 6.99711 5.45984 7.00396 5.46098 7.01082ZM4.10755 6.94025C4.20755 6.94025 4.30755 7.04025 4.30755 7.14025C4.30755 7.24025 4.20755 7.34025 4.15755 7.39025C4.00755 7.39025 3.90755 7.29025 3.90755 7.19025C3.85755 7.04025 4.00755 6.94025 4.10755 6.94025ZM4.30755 8.79025C4.35755 8.74025 4.40755 8.69025 4.40755 8.59025C4.45755 8.44025 4.30755 8.19025 4.15755 8.14025C4.05755 8.09025 4.00755 8.14025 3.95755 8.19025C3.80755 8.34025 3.70755 8.49025 3.55755 8.64025C3.55755 8.69025 3.50755 8.69025 3.50755 8.74025C3.45755 8.84025 3.50755 8.94025 3.60755 8.94025C3.65755 8.94025 3.75755 8.94025 3.80755 8.99025C4.00755 8.99025 4.15755 8.94025 4.30755 8.79025Z" fill="rgb(185,128,212)" fill-rule="evenodd" />
</svg>
