<svg width="16" height="16" viewBox="0 0 16 16" fill="none" xmlns="http://www.w3.org/2000/svg">
<path fill-rule="evenodd" clip-rule="evenodd" d="M6.53739 2.11614C5.31396 2.33029 5.09264 2.7797 5.09264 3.60596V4.697H7.98215V5.06068H4.00877C3.16896 5.06068 2.43362 5.56234 2.20353 6.51381C1.93795 7.60406 1.92638 8.28277 2.20353 9.42127C2.4089 10.2687 2.89779 10.8744 3.73801 10.8744H4.73095V9.56682C4.73095 8.62173 5.55721 7.7859 6.53739 7.7859H9.4257C10.2296 7.7859 10.8705 7.13111 10.8705 6.33157V3.60596C10.8705 2.82995 10.2101 2.24575 9.4257 2.11614C8.43276 1.95225 7.36764 1.97059 6.53739 2.11614ZM6.35641 2.87901C6.05654 2.87901 5.81488 3.12306 5.81488 3.42493C5.81488 3.7256 6.05773 3.96965 6.35641 3.96965C6.65509 3.96965 6.89795 3.7268 6.89795 3.42493C6.89795 3.12306 6.65629 2.87901 6.35641 2.87901Z" fill="url(#paint0_linear_3375_12583)"/>
<path fill-rule="evenodd" clip-rule="evenodd" d="M9.42572 13.7819C10.1535 13.5733 10.8705 13.155 10.8705 12.3287V11.2377H7.98216V10.874H12.3152C13.1554 10.874 13.4677 10.2918 13.76 9.42088C14.0619 8.52404 14.0491 7.66389 13.76 6.51343C13.5522 5.68518 13.1562 5.0603 12.3152 5.0603H11.2322V6.33159C11.2322 7.31735 10.388 8.1488 9.42572 8.1488H6.5374C5.74664 8.1488 5.09265 8.81873 5.09265 9.60312V12.3287C5.09265 13.1044 5.77336 13.5594 6.5374 13.7819C7.45219 14.0482 8.33109 14.0965 9.42572 13.7819ZM9.60678 11.9647C9.3081 11.9647 9.06525 12.2087 9.06525 12.5094C9.06525 12.8113 9.3069 13.0553 9.60678 13.0553C9.90666 13.0553 10.1483 12.8101 10.1483 12.5094C10.1483 12.2087 9.90546 11.9647 9.60678 11.9647Z" fill="url(#paint1_linear_3375_12583)"/>
<defs>
<linearGradient id="paint0_linear_3375_12583" x1="10.8668" y1="6.48354" x2="2.00087" y2="6.41329" gradientUnits="userSpaceOnUse">
<stop stop-color="#366A96"/>
<stop offset="1" stop-color="#3679B0"/>
</linearGradient>
<linearGradient id="paint1_linear_3375_12583" x1="13.9775" y1="9.53484" x2="-3.57313" y2="9.53484" gradientUnits="userSpaceOnUse">
<stop stop-color="#FFC836"/>
<stop offset="1" stop-color="#FFE873"/>
</linearGradient>
</defs>
</svg>
