<svg viewBox="0 0 16 16" xmlns="http://www.w3.org/2000/svg" xmlns:xlink="http://www.w3.org/1999/xlink" width="16.000000" height="16.000000" fill="none" customFrame="#000000">
	<rect id="third-party icon/react" width="16.000000" height="16.000000" x="0.000000" y="0.000000" />
	<path id="Shape" d="M10.9135 9.64287C10.9635 10.1929 11.0135 10.6929 11.0135 11.2429C11.0135 11.8929 10.6635 12.3429 10.1635 12.3929C9.91354 12.4429 9.61354 12.3929 9.36354 12.2929C8.86354 12.0429 8.41354 11.6929 7.91354 11.3929C7.66354 11.5929 7.41354 11.7929 7.11354 11.9929C6.96354 12.0929 6.76354 12.1929 6.61354 12.2429C5.71354 12.6429 4.96354 12.1929 4.91354 11.1929C4.91354 10.6929 4.96354 10.1429 5.01354 9.59287C4.71354 9.49287 4.41354 9.39287 4.11354 9.19287C3.81354 9.04287 3.56354 8.84287 3.31354 8.59287C3.101 8.38033 3 8.14549 3 7.90941C3 7.64564 3.12608 7.38033 3.36354 7.14287C3.76354 6.69287 4.31354 6.49287 4.86354 6.29287C4.91354 6.29287 5.01354 6.24287 5.06354 6.24287C5.01354 5.89287 4.96354 5.49287 4.91354 5.14287C4.91354 4.84287 4.96354 4.49287 5.01354 4.19287C5.16354 3.64287 5.66354 3.39287 6.26354 3.54287C6.86354 3.69287 7.31354 4.04287 7.71354 4.39287C7.81354 4.44287 7.86354 4.54287 7.91354 4.59287C8.31354 4.29287 8.71354 3.99287 9.16354 3.74287C9.46354 3.54287 9.81354 3.44287 10.1635 3.54287C10.6635 3.64287 10.9635 4.09287 11.0135 4.74287L11.0135 5.54287C11.0135 5.79287 10.9135 6.04287 10.8635 6.34287C11.1635 6.44287 11.4135 6.54287 11.7135 6.69287C12.1135 6.89287 12.5135 7.09287 12.7635 7.49287C12.8885 7.66787 12.951 7.85537 12.951 8.04287C12.951 8.23037 12.8885 8.41787 12.7635 8.59287C12.5135 8.99287 12.1135 9.19287 11.7135 9.39287C11.4135 9.44287 11.1635 9.54287 10.9135 9.64287ZM8.61354 9.54287C8.41354 9.54287 8.16354 9.59287 8.01354 9.59287C7.36167 9.5668 7.13134 9.60871 6.97507 9.52006C6.83168 9.43872 6.75064 9.24745 6.46354 8.79287C6.18854 8.29287 6.05104 8.14287 6.05104 7.99287C6.05104 7.84287 6.18854 7.69287 6.46354 7.19287C6.56354 6.99287 6.66354 6.84287 6.76354 6.69287C6.91354 6.44287 7.11354 6.34287 7.36354 6.34287C7.81354 6.39287 8.21354 6.39287 8.66354 6.39287C8.76354 6.39287 8.86354 6.44287 8.91354 6.54287C9.16354 6.94287 9.41354 7.34287 9.66354 7.79287C9.68854 7.81787 9.70104 7.86787 9.70104 7.92412C9.70104 7.98037 9.68854 8.04287 9.66354 8.09287C9.46354 8.54287 9.21354 8.94287 8.96354 9.34287C8.86354 9.49287 8.76354 9.54287 8.61354 9.54287ZM5.56354 8.04287C5.41354 8.39287 5.26354 8.79287 5.11354 9.19287C4.61354 9.04287 4.11354 8.89287 3.71354 8.49287C3.48854 8.31787 3.37604 8.11787 3.37604 7.91787C3.37604 7.71787 3.48854 7.51787 3.71354 7.34287C4.11354 7.04287 4.61354 6.84287 5.11354 6.69287C5.26354 7.09287 5.41354 7.44287 5.56354 7.84287L5.56354 8.04287ZM10.2635 7.89287C10.4135 7.49287 10.5635 7.09287 10.7635 6.64287C11.2135 6.89287 11.7135 7.04287 12.1135 7.39287C12.3885 7.56787 12.526 7.78037 12.526 7.99287C12.526 8.20537 12.3885 8.41787 12.1135 8.59287C11.7135 8.84287 11.2135 9.04287 10.7635 9.29287C10.5635 8.79287 10.4135 8.39287 10.2635 7.99287C10.2469 7.99287 10.2413 7.98732 10.2413 7.97806C10.2413 7.97015 10.2454 7.95954 10.25 7.94738C10.2562 7.93107 10.2635 7.91197 10.2635 7.89287ZM6.66354 5.94287C6.26354 6.04287 5.86354 6.09287 5.41354 6.14287C5.4078 6.11129 5.40205 6.07987 5.39634 6.0486C5.32081 5.63535 5.25024 5.24925 5.25024 4.86843C5.25024 4.77637 5.25436 4.68462 5.26354 4.59287C5.36354 3.99287 5.71354 3.79287 6.26354 3.99287C6.76354 4.19287 7.16354 4.54287 7.56354 4.89287C7.26354 5.24287 7.01354 5.54287 6.76354 5.89287C6.76354 5.89287 6.71354 5.94287 6.66354 5.94287ZM10.4635 5.94287C10.4635 5.99287 10.4135 6.09287 10.4135 6.14287C9.96354 6.09287 9.56354 6.04287 9.16354 5.99287L9.01354 5.84287C8.76354 5.54287 8.51354 5.24287 8.26354 4.89287C8.71354 4.49287 9.16354 4.04287 9.81354 3.94287C10.1135 3.89287 10.3635 4.04287 10.4635 4.39287C10.5481 4.6042 10.579 4.82445 10.579 5.04609C10.579 5.34885 10.5213 5.6542 10.4635 5.94287ZM5.36245 10.0068C5.3798 9.91988 5.39733 9.83204 5.41354 9.74287C5.86354 9.84287 6.26354 9.89287 6.66354 9.89287C6.71354 9.89287 6.76354 9.94287 6.81354 9.99287C7.11354 10.3429 7.36354 10.6429 7.61354 10.9929C7.21354 11.3429 6.81354 11.7429 6.26354 11.8929C5.76354 12.0429 5.41354 11.8429 5.31354 11.3429C5.26796 11.1757 5.25008 11.0132 5.25008 10.8525C5.25008 10.5701 5.30531 10.2933 5.36245 10.0068ZM9.51354 11.9429C9.11354 11.7929 8.51354 11.3929 8.21354 10.9929C8.31354 10.8929 8.36354 10.8429 8.41354 10.7429C8.61354 10.4929 8.76354 10.1429 9.06354 9.99287C9.46354 9.84287 9.91354 9.84287 10.3635 9.79287C10.3677 9.81587 10.3719 9.83878 10.3761 9.86161C10.4424 10.2249 10.505 10.5678 10.505 10.92C10.505 11.075 10.4928 11.2318 10.4635 11.3929C10.3635 11.9429 10.0135 12.0929 9.51354 11.9429ZM7.91354 5.19287C8.11354 5.44287 8.31354 5.64287 8.51354 5.89287L7.31354 5.89287C7.56354 5.64287 7.71354 5.44287 7.91354 5.19287ZM7.36354 9.99287L8.51354 9.99287C8.31354 10.2429 8.11354 10.4429 7.96354 10.6929C7.76354 10.4429 7.56354 10.2429 7.36354 9.99287ZM5.86354 8.44287C6.06354 8.84287 6.26354 9.14287 6.46354 9.49287C6.11354 9.44287 5.81354 9.39287 5.56354 9.29287C5.66354 8.99287 5.76354 8.74287 5.86354 8.44287ZM9.36354 9.49287L9.96354 8.44287C10.1135 8.79287 10.2135 9.04287 10.2635 9.34287C9.96354 9.39287 9.71354 9.44287 9.36354 9.49287ZM6.46354 6.39287L5.86354 7.44287C5.71354 7.14287 5.66354 6.89287 5.56354 6.54287C5.86354 6.49287 6.11354 6.44287 6.46354 6.39287ZM9.66354 6.89287C9.56354 6.74287 9.46354 6.59287 9.36354 6.39287C9.71354 6.49287 9.96354 6.54287 10.2635 6.54287C10.1635 6.79287 10.0635 7.09287 9.96354 7.39287C9.86354 7.19287 9.76354 7.04287 9.66354 6.89287Z" fill="rgb(108,186,225)" fill-rule="evenodd" />
</svg>
