<svg viewBox="0 0 16 16" xmlns="http://www.w3.org/2000/svg" xmlns:xlink="http://www.w3.org/1999/xlink" width="16.000000" height="16.000000" fill="none" customFrame="#000000">
	<rect id="third-party icon/ruby" width="16.000000" height="16.000000" x="0.000000" y="0.000000" />
	<path id="Path" d="M8.67544 3.01099L10.5632 3.02013C11.3005 3.14185 11.7457 3.51806 11.911 4.10011L11.931 4.17719C11.9821 4.38128 12.0009 4.59925 11.9945 4.81982L12 4.80777L11.4913 11.4942L11.4982 11.5407L11.5062 11.5418L11.4877 11.5425L11.4876 11.5464L4.83429 12L4.84038 11.9965L4.69496 11.9912L4.69496 11.9912L4.52909 11.9793L4.52909 11.9793L4.44028 11.9694L4.44028 11.9694L4.34852 11.9559L4.34852 11.9559L4.25452 11.9383C3.70108 11.8221 3.07021 11.4605 3.0042 10.2834L3.00072 10.1968L3 10.1981L3 10.1826L3.00072 10.1809L3.08702 8.36107C3.0933 7.88019 3.28544 7.29661 3.62249 6.69082C3.90039 6.10265 4.35145 5.47199 4.92239 4.90357C5.55511 4.27344 6.27442 3.76534 6.92675 3.47597C7.58139 3.12988 8.13451 3.02013 8.67544 3.01099Z" opacity="0" fill="rgb(222,82,88)" fill-rule="evenodd" />
	<path id="Path" d="M0 9.41421L0 0.184592C0 0.0826448 0.0826448 0 0.184592 0C5.28197 0 9.41421 4.13224 9.41421 9.22962C9.41421 9.33157 9.33157 9.41421 9.22962 9.41421L0 9.41421Z" fill="rgb(222,82,88)" fill-rule="evenodd" transform="matrix(0,-1,1,0,2.87842,12.2072)" />
	<path id="Path" d="M0 8.41421L0 9.41421L9.22962 9.41421C9.33157 9.41421 9.41421 9.33157 9.41421 9.22962C9.41421 4.13224 5.28197 0 0.184592 0C0.0826448 0 0 0.0826448 0 0.184592L0 8.41421ZM1 8.41421L8.37508 8.41421Q8.32512 7.89942 8.21139 7.39912Q8.05216 6.69864 7.7679 6.02659Q7.47722 5.33934 7.07501 4.72513Q6.61299 4.01958 6.00381 3.4104Q5.39467 2.80125 4.68916 2.33925Q4.07491 1.93701 3.38762 1.64631Q2.71553 1.36204 2.01501 1.2028Q1.51475 1.08909 1 1.03913L1 8.41421Z" fill="rgb(151,151,151)" fill-opacity="0" fill-rule="evenodd" transform="matrix(0,-1,1,0,2.87842,12.2072)" />
</svg>
