<svg viewBox="0 0 16 16" xmlns="http://www.w3.org/2000/svg" xmlns:xlink="http://www.w3.org/1999/xlink" width="16.000000" height="16.000000" fill="none" customFrame="#000000">
	<rect id="third-party icon/rust" width="16.000000" height="16.000000" x="0.000000" y="0.000000" />
	<path id="Shape" d="M10.825 4.48284L10.825 3.98284C10.825 3.83284 10.725 3.78284 10.625 3.83284C10.475 3.88284 10.325 3.93284 10.225 3.98284C10.225 4.03284 10.175 4.03284 10.125 3.98284L10.075 3.98284C10.025 3.98284 10.025 3.93284 10.025 3.93284C10.025 3.78284 9.975 3.63284 9.975 3.48284C9.975 3.38284 9.825 3.33284 9.725 3.38284C9.625 3.48284 9.475 3.58284 9.325 3.63284L9.225 3.63284L9.175 3.58284C9.125 3.48284 9.075 3.33284 9.025 3.18284L9.025 3.13284C8.975 3.08284 8.875 3.08284 8.825 3.13284C8.775 3.23284 8.675 3.33284 8.575 3.43284C8.575 3.43284 8.575 3.48284 8.525 3.48284L8.375 3.48284C8.275 3.33284 8.225 3.23284 8.125 3.08284L8.075 3.03284C8.025 2.98284 7.925 2.98284 7.825 3.08284C7.775 3.18284 7.675 3.33284 7.625 3.43284C7.625 3.43284 7.575 3.48284 7.525 3.48284L7.475 3.48284C7.375 3.33284 7.225 3.23284 7.175 3.08284L7.125 3.03284C7.025 3.03284 6.975 3.03284 6.925 3.13284C6.875 3.23284 6.825 3.38284 6.775 3.48284C6.725 3.53284 6.725 3.58284 6.725 3.58284C6.675 3.63284 6.675 3.63284 6.625 3.63284L6.575 3.63284C6.475 3.58284 6.325 3.48284 6.225 3.38284C6.125 3.33284 5.975 3.38284 5.975 3.48284C5.975 3.63284 5.925 3.78284 5.925 3.93284C5.925 3.93284 5.925 3.98284 5.875 3.98284C5.875 4.03284 5.825 4.03284 5.825 4.03284L5.775 4.03284C5.675 3.98284 5.525 3.88284 5.375 3.83284L5.275 3.83284C5.225 3.83284 5.1875 3.84534 5.1625 3.87034C5.1375 3.89534 5.125 3.93284 5.125 3.98284L5.125 4.43284C5.14167 4.43284 5.14722 4.4384 5.14722 4.44581C5.14722 4.46062 5.125 4.48284 5.125 4.48284L5.075 4.53284L5.025 4.53284C4.875 4.48284 4.725 4.43284 4.575 4.43284C4.49335 4.39202 4.4117 4.45119 4.4117 4.52872C4.4117 4.54614 4.41582 4.56449 4.425 4.58284C4.425 4.73284 4.475 4.88284 4.525 5.03284L4.525 5.08284C4.475 5.08284 4.475 5.13284 4.475 5.13284L3.925 5.13284C3.85179 5.13284 3.80538 5.18643 3.80538 5.25438C3.80538 5.27925 3.8116 5.30605 3.825 5.33284C3.875 5.43284 3.925 5.58284 3.975 5.68284C4.025 5.73284 4.025 5.73284 4.025 5.78284C4.025 5.83284 3.975 5.83284 3.975 5.88284L3.925 5.88284C3.775 5.93284 3.625 5.93284 3.475 5.98284C3.40179 5.98284 3.35538 6.06323 3.35538 6.14554C3.35538 6.17566 3.3616 6.20605 3.375 6.23284C3.475 6.33284 3.525 6.43284 3.625 6.53284C3.625 6.54951 3.63056 6.56618 3.63611 6.58284C3.64167 6.59951 3.64722 6.61618 3.64722 6.63284C3.64722 6.64951 3.64167 6.66618 3.625 6.68284L3.625 6.73284L3.175 6.88284C3.175 6.93284 3.125 6.93284 3.125 6.93284C3.1 6.95784 3.0875 6.99534 3.0875 7.03284C3.0875 7.07034 3.1 7.10784 3.125 7.13284L3.425 7.43284L3.475 7.48284L3.475 7.58284C3.325 7.68284 3.225 7.73284 3.075 7.83284C3.025 7.85784 3 7.90784 3 7.95784C3 8.00784 3.025 8.05784 3.075 8.08284C3.175 8.13284 3.325 8.23284 3.425 8.28284C3.475 8.28284 3.475 8.33284 3.475 8.38284L3.475 8.48284C3.325 8.58284 3.225 8.73284 3.075 8.78284C3.0368 8.82104 3.02049 8.85924 3.02049 8.89465C3.02049 8.95194 3.0632 9.00194 3.125 9.03284C3.225 9.08284 3.375 9.13284 3.475 9.18284C3.525 9.18284 3.575 9.23284 3.575 9.23284C3.625 9.28284 3.625 9.28284 3.625 9.33284L3.625 9.38284C3.575 9.48284 3.475 9.63284 3.375 9.73284C3.3616 9.75964 3.35538 9.79002 3.35538 9.82015C3.35538 9.90246 3.40179 9.98284 3.475 9.98284C3.625 9.98284 3.775 10.0328 3.925 10.0328C3.925 10.0328 3.975 10.0328 3.975 10.0828C4.025 10.0828 4.025 10.1328 4.025 10.1328L4.025 10.1828C3.975 10.2828 3.875 10.4328 3.825 10.5828L3.825 10.6828C3.825 10.7328 3.8375 10.7703 3.8625 10.7953C3.8875 10.8203 3.925 10.8328 3.975 10.8328L4.475 10.8328L4.525 10.8828L4.525 10.9328C4.475 11.0828 4.475 11.2328 4.425 11.3828C4.41582 11.4012 4.4117 11.4195 4.4117 11.437C4.4117 11.5145 4.49335 11.5737 4.575 11.5328C4.725 11.4828 4.875 11.4828 5.025 11.4328L5.075 11.4328L5.125 11.4828L5.125 12.0328C5.125 12.1328 5.225 12.1828 5.325 12.1328C5.425 12.0828 5.575 12.0328 5.675 11.9828C5.725 11.9328 5.725 11.9328 5.775 11.9328C5.825 11.9328 5.825 11.9828 5.875 11.9828C5.925 11.9828 5.925 12.0328 5.925 12.0328C5.925 12.1828 5.925 12.3328 5.975 12.4828C5.975 12.5828 6.125 12.6328 6.325 12.7328C6.475 12.6328 6.575 12.5828 6.675 12.4828L6.825 12.4828C6.875 12.4828 6.875 12.5328 6.875 12.5328L7.025 12.9828C7.025 13.0328 7.025 13.0828 7.075 13.0828C7.175 13.0828 7.225 13.0828 7.275 13.0328L7.575 12.7328C7.625 12.6828 7.625 12.6828 7.675 12.6828L7.775 12.6828C7.875 12.8328 7.925 12.9328 8.025 13.0828C8.075 13.1828 8.225 13.1828 8.275 13.0828C8.325 12.9828 8.425 12.8328 8.475 12.7328C8.475 12.6828 8.525 12.6328 8.575 12.6328L8.675 12.6328C8.775 12.7828 8.875 12.8828 8.975 12.9828C8.975 12.9828 8.975 13.0328 9.025 13.0328C9.075 13.0328 9.125 13.0328 9.175 12.9328C9.225 12.7828 9.275 12.6828 9.325 12.5328C9.325 12.4828 9.375 12.4328 9.425 12.4328L9.475 12.4328C9.575 12.4828 9.725 12.5828 9.825 12.6828C9.925 12.7328 10.075 12.6828 10.075 12.5828C10.075 12.4328 10.125 12.3328 10.125 12.1828C10.125 12.1328 10.175 12.0828 10.225 12.0828L10.275 12.0828C10.425 12.1828 10.525 12.2328 10.675 12.2828L10.775 12.2828C10.825 12.2828 10.8625 12.2703 10.8875 12.2453C10.9125 12.2203 10.925 12.1828 10.925 12.1328L10.925 11.6828C10.9083 11.6828 10.9028 11.6773 10.9028 11.6699C10.9028 11.6551 10.925 11.6328 10.925 11.6328L10.975 11.5828L11.025 11.5828C11.175 11.6328 11.325 11.6328 11.475 11.6828C11.5984 11.6828 11.688 11.6151 11.688 11.5354C11.688 11.5183 11.6839 11.5006 11.675 11.4828C11.625 11.3328 11.625 11.2328 11.575 11.0828C11.575 11.0328 11.575 10.9828 11.625 10.9328L12.225 10.9328C12.2604 10.8975 12.2957 10.8371 12.2957 10.7871C12.2957 10.7664 12.2896 10.7475 12.275 10.7328C12.225 10.6328 12.175 10.4828 12.125 10.3828C12.075 10.3328 12.075 10.3328 12.075 10.2828C12.075 10.2328 12.125 10.2328 12.125 10.1828L12.175 10.1828C12.325 10.1828 12.425 10.1328 12.575 10.1328C12.625 10.0828 12.625 10.0828 12.675 10.0828C12.7336 10.0536 12.7578 10.0071 12.7578 9.9636C12.7578 9.93284 12.7457 9.90355 12.725 9.88284C12.625 9.73284 12.575 9.63284 12.475 9.53284C12.475 9.51618 12.4694 9.49951 12.4639 9.48284C12.4583 9.46618 12.4528 9.44951 12.4528 9.43284C12.4528 9.41618 12.4583 9.39951 12.475 9.38284C12.475 9.33284 12.525 9.33284 12.525 9.33284C12.625 9.28284 12.775 9.23284 12.925 9.18284C12.9868 9.15194 13.0295 9.10194 13.0295 9.04465C13.0295 9.00924 13.0132 8.97104 12.975 8.93284C12.875 8.88284 12.775 8.78284 12.675 8.68284C12.625 8.63284 12.625 8.63284 12.625 8.53284L12.625 8.48284C12.775 8.38284 12.875 8.33284 13.025 8.23284C13.075 8.20784 13.1 8.15784 13.1 8.10784C13.1 8.05784 13.075 8.00784 13.025 7.98284C12.875 7.93284 12.775 7.83284 12.675 7.78284C12.625 7.78284 12.575 7.73284 12.575 7.73284L12.575 7.58284C12.725 7.48284 12.825 7.38284 12.925 7.28284C12.9632 7.24465 12.9795 7.20645 12.9795 7.17104C12.9795 7.11374 12.9368 7.06374 12.875 7.03284C12.725 6.98284 12.625 6.93284 12.475 6.88284C12.425 6.83284 12.375 6.83284 12.375 6.78284L12.375 6.68284C12.425 6.58284 12.525 6.48284 12.625 6.33284C12.6384 6.30605 12.6446 6.27566 12.6446 6.24554C12.6446 6.16323 12.5982 6.08284 12.525 6.08284C12.375 6.03284 12.225 6.03284 12.075 5.98284L12.025 5.98284C12.025 5.93284 11.975 5.88284 11.975 5.88284L11.975 5.83284C12.025 5.73284 12.125 5.58284 12.175 5.43284L12.175 5.33284C12.175 5.28284 12.1625 5.24534 12.1375 5.22034C12.1125 5.19534 12.075 5.18284 12.025 5.18284L11.575 5.18284C11.525 5.18284 11.475 5.18284 11.475 5.13284L11.425 5.08284L11.425 5.03284C11.475 4.88284 11.475 4.73284 11.525 4.58284C11.5342 4.56449 11.5383 4.54614 11.5383 4.52872C11.5383 4.45119 11.4566 4.39202 11.375 4.43284C11.225 4.48284 11.075 4.48284 10.925 4.53284L10.875 4.53284L10.825 4.48284ZM5.275 5.53284L9.075 5.53284C9.225 5.53284 9.375 5.53284 9.525 5.58284C9.825 5.68284 10.075 5.83284 10.225 6.03284C10.375 6.18284 10.475 6.38284 10.475 6.63284C10.475 6.83284 10.425 7.03284 10.325 7.23284C10.225 7.38284 10.075 7.53284 9.925 7.63284C9.875 7.68284 9.825 7.73284 9.775 7.73284C9.825 7.78284 9.875 7.78284 9.925 7.83284C10.025 7.93284 10.175 8.03284 10.225 8.18284C10.325 8.33284 10.375 8.53284 10.375 8.68284C10.375 8.73284 10.425 8.78284 10.475 8.83284C10.575 8.93284 10.725 8.93284 10.875 8.93284C10.975 8.93284 11.075 8.88284 11.125 8.83284C11.225 8.73284 11.225 8.63284 11.275 8.53284L11.275 8.28284C11.275 8.23284 11.275 8.23284 11.325 8.23284L11.675 8.23284L11.675 7.58284C11.525 7.53284 11.375 7.43284 11.225 7.38284C11.175 7.33284 11.075 7.33284 11.025 7.28284C10.9125 7.24534 10.8562 7.15159 10.8562 7.02269C10.8562 6.97972 10.8625 6.93284 10.875 6.88284C10.975 6.63284 11.075 6.38284 11.225 6.13284L11.225 6.08284C11.025 5.78284 10.825 5.48284 10.525 5.23284C10.3904 5.11169 10.2485 5.00141 10.0994 4.902C9.69467 4.63218 9.23654 4.44246 8.725 4.33284L8.675 4.33284C8.525 4.48284 8.375 4.63284 8.175 4.78284C8.075 4.88284 7.875 4.88284 7.775 4.78284L7.325 4.33284L7.275 4.33284C7.075 4.38284 6.925 4.43284 6.775 4.48284C6.225 4.68284 5.775 4.98284 5.375 5.38284C5.325 5.43284 5.275 5.48284 5.275 5.53284ZM10.925 10.1328L9.425 10.1328C9.325 10.1328 9.275 10.1328 9.225 10.0828C9.025 9.98284 8.925 9.78284 8.875 9.58284C8.825 9.38284 8.775 9.23284 8.775 9.03284C8.775 8.93284 8.725 8.83284 8.675 8.73284C8.575 8.48284 8.375 8.33284 8.125 8.33284L7.225 8.33284L7.225 8.98284L8.125 8.98284C8.175 8.98284 8.175 8.98284 8.175 9.03284L8.175 10.0328C8.175 10.0828 8.175 10.0828 8.125 10.0828L5.125 10.0828C5.225 10.2328 5.325 10.3328 5.425 10.4328L5.475 10.4328C5.675 10.3828 5.875 10.3328 6.075 10.3328C6.225 10.2828 6.375 10.3828 6.425 10.5328C6.475 10.7328 6.525 10.9828 6.575 11.1828L6.575 11.2328C6.975 11.3828 7.375 11.5328 7.775 11.5328C8.125 11.5828 8.47499 11.5328 8.825 11.4828C9.075 11.4328 9.325 11.3328 9.575 11.2328L9.575 11.1828C9.625 10.9828 9.675 10.7328 9.725 10.5328C9.775 10.3828 9.875 10.2828 10.075 10.3328L10.675 10.4828L10.725 10.4828C10.725 10.3828 10.825 10.2328 10.925 10.1328ZM4.975 6.63284L5.125 6.93284C5.125 6.94951 5.13056 6.96618 5.13611 6.98284C5.14167 6.99951 5.14722 7.01618 5.14722 7.03284C5.14722 7.04951 5.14167 7.06618 5.125 7.08284C5.125 7.18284 5.025 7.23284 4.975 7.28284C4.775 7.38284 4.575 7.48284 4.375 7.53284C4.375 7.53284 4.325 7.53284 4.325 7.58284L4.325 7.83284C4.325 8.18284 4.375 8.53284 4.475 8.93284C4.475 8.93284 4.475 8.98284 4.525 8.98284L5.575 8.98284L5.575 6.63284L4.975 6.63284ZM7.125 7.33284L8.275 7.33284C8.375 7.33284 8.475 7.33284 8.575 7.28284C8.625 7.23284 8.675 7.23284 8.725 7.13284C8.74571 7.09142 8.75784 7.04142 8.75784 6.98995C8.75784 6.91716 8.73358 6.84142 8.675 6.78284C8.575 6.68284 8.425 6.63284 8.325 6.63284L7.075 6.63284C7.125 6.88284 7.125 7.08284 7.125 7.33284ZM4.125 6.83284C4.125 6.98284 4.275 7.13284 4.425 7.13284C4.575 7.13284 4.725 6.98284 4.725 6.83284C4.725 6.68284 4.575 6.53284 4.425 6.53284C4.275 6.53284 4.125 6.68284 4.125 6.83284ZM10.475 11.0328C10.475 10.8828 10.325 10.7328 10.175 10.7328C10.025 10.7328 9.875 10.8828 9.875 11.0328C9.875 11.1828 10.025 11.3328 10.175 11.3328C10.325 11.3328 10.475 11.2328 10.475 11.0328ZM5.775 10.7328C5.625 10.7328 5.475 10.8828 5.475 11.0328C5.475 11.1828 5.625 11.3328 5.775 11.3328C5.925 11.3328 6.075 11.1828 6.075 11.0328C6.075 10.8828 5.925 10.7328 5.775 10.7328ZM8.275 4.18284C8.275 4.03284 8.175 3.88284 7.975 3.88284C7.825 3.88284 7.675 3.98284 7.675 4.18284C7.675 4.33284 7.775 4.48284 7.975 4.48284C8.125 4.48284 8.225 4.33284 8.275 4.18284ZM11.525 7.18284C11.675 7.18284 11.825 7.03284 11.825 6.88284C11.825 6.73284 11.675 6.58284 11.525 6.58284C11.375 6.58284 11.225 6.73284 11.225 6.88284C11.225 7.03284 11.325 7.18284 11.525 7.18284Z" fill="rgb(172,172,173)" fill-rule="evenodd" />
</svg>
