<svg viewBox="0 0 16 16" xmlns="http://www.w3.org/2000/svg" xmlns:xlink="http://www.w3.org/1999/xlink" width="16.000000" height="16.000000" fill="none">
	<defs>
		<filter id="pixso_custom_mask_type_alpha">
			<feColorMatrix type="matrix" values="0 0 0 0 1 0 0 0 0 1 0 0 0 0 1 0 0 0 1 0 " />
		</filter>
	</defs>
	<mask id="mask_0" width="16.000000" height="16.000000" x="0.000000" y="0.000000" maskUnits="userSpaceOnUse">
		<g filter="url(#pixso_custom_mask_type_alpha)">
			<g id="mask279_24990">
				<path d="M0 0L16 0L16 16L0 16L0 0ZM3.60027 1.80001L10.7995 1.80001C12.6777 1.80001 14.1999 3.32222 14.1999 5.2L14.1999 12.4C14.1999 14.2778 12.6777 15.8 10.7995 15.8L3.60027 15.8C1.72201 15.8 0.19987 14.2778 0.19987 12.4L0.19987 5.2C0.19987 3.32222 1.72201 1.80001 3.60027 1.80001Z" fill="rgb(196,196,196)" fill-rule="evenodd" />
			</g>
		</g>
	</mask>
	<rect id="ic_public_select_all" width="16.000000" height="16.000000" x="0.000000" y="0.000000" />
	<rect width="16.000000" height="16.000000" x="0.000000" y="0.000000" opacity="0" fill="rgb(255,255,255)" fill-opacity="0" />
	<path id="path1" d="M1.66377e-05 7.99338C1.66377e-05 6.74338 -0.0033167 5.49338 1.66377e-05 4.24338C-0.0033167 3.63671 0.07335 3.03338 0.220017 2.45005C0.550017 1.21005 1.35668 0.473381 2.59668 0.186714C3.21668 0.0533806 3.85335 -0.00995275 4.48668 4.72467e-05C6.88335 4.72467e-05 9.28002 4.72467e-05 11.68 4.72467e-05C12.2833 -0.00328609 12.8867 0.0633806 13.4767 0.206714C14.7533 0.516714 15.52 1.32671 15.81 2.60005C15.9433 3.20005 16.0033 3.81338 15.9967 4.43005C15.9967 6.85338 15.9967 9.27671 15.9967 11.6967C16 12.2967 15.9333 12.8967 15.7933 13.48C15.48 14.7567 14.6667 15.5167 13.3933 15.81C12.7733 15.9434 12.14 16.0067 11.5033 15.9967C9.11668 15.9967 6.73002 15.9967 4.34335 15.9967C3.73335 16.0034 3.12668 15.9334 2.53002 15.7934C1.25002 15.4834 0.480017 14.67 0.190017 13.39C0.0400166 12.74 1.66377e-05 12.09 1.66377e-05 11.4334C1.66377e-05 10.2867 1.66377e-05 9.14005 1.66377e-05 7.99338Z" opacity="0" fill="rgb(255,255,255)" fill-opacity="0" fill-rule="evenodd" />
	<circle id="path2" cx="8" cy="8" r="8" opacity="0" fill="rgb(255,255,255)" fill-opacity="0" />
	<g id="mask" mask="url(#mask_0)">
		<g>
			<path id="path" d="M14.8 5.20011L14.8 9.20011C14.8 11.4068 13.0067 13.1968 10.8 13.1968L6.80005 13.1968C4.59005 13.1968 2.80005 11.4068 2.80005 9.20011L2.80005 5.20011C2.80005 2.99011 4.59005 1.19678 6.80005 1.19678L10.8 1.19678C13.0067 1.19678 14.8 2.99011 14.8 5.20011Z" fill-rule="evenodd" stroke="rgb(179,179,179)" stroke-linejoin="round" stroke-width="1" />
		</g>
	</g>
	<path id="path4" d="M2.80005 3.19678L10.8 3.19678C11.9034 3.19678 12.8 4.09344 12.8 5.20011L12.8 13.1968C12.8 14.3034 11.9034 15.2001 10.8 15.2001L2.80005 15.2001C1.69338 15.2001 0.800049 14.3034 0.800049 13.1968L0.800049 5.20011C0.800049 4.09344 1.69338 3.19678 2.80005 3.19678Z" opacity="0" fill="rgb(255,255,255)" fill-opacity="0" fill-rule="evenodd" />
	<path id="path4" d="M12.8 5.20011L12.8 13.1968C12.8 14.3034 11.9034 15.2001 10.8 15.2001L2.80005 15.2001C1.69338 15.2001 0.800049 14.3034 0.800049 13.1968L0.800049 5.20011C0.800049 4.09344 1.69338 3.19678 2.80005 3.19678L10.8 3.19678C11.9034 3.19678 12.8 4.09344 12.8 5.20011Z" fill-rule="nonzero" stroke="rgb(179,179,179)" stroke-linejoin="round" stroke-width="1" />
	<path id="path5" d="M3.33325 8.77331L5.83992 11.4L10.2766 6.72998" fill-rule="nonzero" stroke="rgb(179,179,179)" stroke-linecap="round" stroke-linejoin="round" stroke-width="1" />
</svg>
