<?xml version="1.0" encoding="utf-8"?>
<!-- Svg Vector Icons -->
<!DOCTYPE svg PUBLIC "-//W3C//DTD SVG 1.1//EN" "http://www.w3.org/Graphics/SVG/1.1/DTD/svg11.dtd">
<svg version="1.1" xmlns="http://www.w3.org/2000/svg" xmlns:xlink="http://www.w3.org/1999/xlink" x="0px" y="0px" viewBox="0 0 1000 1000" enable-background="new 0 0 1000 1000" xml:space="preserve">
<metadata> Svg Vector Icons </metadata>
<g fill="#C5C5C5"><path d="M384.7,365.6H154.6c-7.6,0-13.6,6.1-13.6,13.6c0,7.5,6.1,13.6,13.6,13.6h230.1c7.5,0,13.6-6.1,13.6-13.6C398.3,371.7,392.2,365.6,384.7,365.6z"/><path d="M384.7,477.8H154.6c-7.6,0-13.6,6.1-13.6,13.6c0,7.5,6.1,13.6,13.6,13.6h230.1c7.5,0,13.6-6.1,13.6-13.6C398.3,483.9,392.2,477.8,384.7,477.8z"/><path d="M384.7,589.9H154.6c-7.6,0-13.6,6.1-13.6,13.6c0,7.5,6.1,13.6,13.6,13.6h230.1c7.5,0,13.6-6.1,13.6-13.6C398.3,596.1,392.2,589.9,384.7,589.9z"/><path d="M600.9,379.3c0,7.5,6.1,13.6,13.6,13.6h230.1c7.5,0,13.6-6.1,13.6-13.6c0-7.5-6.1-13.6-13.6-13.6H614.5C607,365.6,600.9,371.7,600.9,379.3z"/><path d="M844.6,477.8H614.5c-7.5,0-13.6,6.1-13.6,13.6c0,7.5,6.1,13.6,13.6,13.6h230.1c7.5,0,13.6-6.1,13.6-13.6C858.2,483.9,852.1,477.8,844.6,477.8z"/><path d="M844.6,589.9H614.5c-7.5,0-13.6,6.1-13.6,13.6c0,7.5,6.1,13.6,13.6,13.6h230.1c7.5,0,13.6-6.1,13.6-13.6C858.2,596.1,852.1,589.9,844.6,589.9z"/><path d="M728,134.9c-84.4,0-178.8,12.9-228,46.1c-49.2-33.2-143.5-46.1-228-46.1c-120.9,0-262,26.4-262,100.9v595.2c0,10.1,4.4,19.6,12.1,26.1c7.7,6.5,17.8,9.2,27.8,7.5c67-11.6,143.8-17.7,222.1-17.7c78.3,0,155.1,6.1,222.1,17.7c0.9,0.2,1.8,0.2,2.7,0.3c0.7,0.1,1.4,0.1,2.2,0.1c0.3,0,0.6,0.1,0.9,0.1c1.8,0,3.6-0.2,5.4-0.5c0.1,0,0.2,0,0.4,0c67-11.6,143.8-17.7,222.1-17.7c78.3,0,155.1,6.1,222.1,17.7c1.9,0.3,3.9,0.5,5.8,0.5c8,0,15.7-2.8,21.9-8c7.7-6.5,12.1-16,12.1-26.1V235.8C990,161.3,848.9,134.9,728,134.9z M78.1,791.3V240.1C91.9,226.6,160,203,272,203c112,0,180.1,23.6,193.9,37.1v551.2c-60.6-8.3-126.8-12.6-193.9-12.6C204.9,778.7,138.7,783.1,78.1,791.3z M921.9,791.3c-121.2-16.5-266.6-16.5-387.8,0V240.1C547.9,226.6,615.9,203,728,203s180.1,23.6,193.9,37.1L921.9,791.3L921.9,791.3z"/></g>
</svg>
