<svg width="32.000000" height="32.000000" viewBox="0 0 32 32" fill="none" xmlns="http://www.w3.org/2000/svg" xmlns:xlink="http://www.w3.org/1999/xlink">
	<desc>
			Created with Pixso.
	</desc>
	<defs>
		<clipPath id="clip68_9014">
			<rect width="32.000000" height="32.000000" fill="white" fill-opacity="0"/>
		</clipPath>
	</defs>
	<g opacity="0.800000">
		<g clip-path="url(#clip68_9014)">
			<path d="M4.93262 16.0027C4.98779 12.1988 6.94482 8.50562 10.439 6.45587C13.9326 4.40616 18.0669 4.4985 21.3779 6.34509L22.2192 5.8465C19.9146 4.44312 17.189 3.8522 14.5181 4.18457C12.9448 4.3877 11.4268 4.90475 10.0366 5.71725C8.66455 6.52975 7.45703 7.60077 6.48779 8.89337C5.55469 10.1306 4.89648 11.534 4.49365 13.0482C4.20117 14.1746 4.05469 15.3195 4.09131 16.4829L4.93262 16.0027ZM30.7437 12.1249L26.8657 5.38486C26.5181 4.79395 25.7866 4.59082 25.2012 4.94168L1.78662 18.6434C1.20117 18.9942 1 19.7329 1.34766 20.3238L5.22559 27.0823C5.57324 27.6732 6.30469 27.8763 6.89014 27.5255L30.2866 13.8053C30.8721 13.4729 31.0732 12.7158 30.7256 12.1249L30.7437 12.1249ZM29.8843 13.0851L6.46924 26.8053C6.37793 26.8607 6.26807 26.8792 6.17676 26.8423C6.08545 26.8053 5.99365 26.7499 5.93896 26.6576L2.06104 19.9175C1.95117 19.7329 2.02441 19.4928 2.20703 19.382L25.6221 5.64337C25.7134 5.58798 25.8232 5.56952 25.9146 5.60645C26.0059 5.64337 26.0977 5.69879 26.1523 5.79111L30.0303 12.5312C30.1401 12.7158 30.0669 12.9744 29.8843 13.0851ZM25.458 13.196C25.6045 13.436 25.6411 13.6576 25.6226 13.8423C25.5859 14.0454 25.458 14.2116 25.2568 14.3593C25.0376 14.507 24.7446 14.6917 24.3789 14.9133C24.1411 14.6548 23.9214 14.4332 23.6836 14.2116L24.3423 13.8792C24.5801 13.7315 24.6348 13.5468 24.5068 13.3252L24.2144 12.8082L23.0435 13.4914L23.958 15.0795L23.1714 15.5411L22.2568 13.9531L21.0312 14.6732C21.4521 15.5411 21.6348 16.2244 21.5615 16.7045C21.2144 16.6676 20.8848 16.6491 20.5557 16.6491C20.6289 16.0582 20.3359 15.2272 19.7144 14.1562L18.1777 11.4786L22.9336 8.70877L25.4946 13.1775L25.458 13.196ZM22.5498 9.94598L21.3789 10.6292L21.7812 11.3309L22.9521 10.6477L22.5498 9.94598ZM19.7876 12.4943L20.9946 11.7926L20.5923 11.0909L19.3848 11.7926L19.7876 12.4943ZM22.6045 12.7713L23.7754 12.088L23.3726 11.3863L22.2021 12.0695L22.6045 12.7713ZM15.709 13.2698L14.8857 13.7499L15.2148 14.3224L15.855 13.9531C15.7637 14.4701 15.5991 14.9872 15.3247 15.5227C15.6172 15.5965 15.855 15.6888 16.0747 15.7627C16.2212 15.3195 16.3125 14.8763 16.3491 14.3962L16.8428 15.2457L17.5195 14.8579L17.0259 13.99C17.4648 14.1747 17.9224 14.3039 18.3794 14.3593C18.3979 14.1377 18.416 13.8607 18.4712 13.5653C17.9224 13.6022 17.3916 13.5284 16.8794 13.3622L17.7573 12.8451L17.4282 12.2727L16.3857 12.882L16.0747 12.3465L15.3979 12.7343L15.709 13.2698ZM20.6104 13.9346L21.8179 13.2329L21.4155 12.5312L20.208 13.2329L20.6104 13.9346ZM15.2515 15.6335L15.3428 14.9318L14.4282 14.9318L14.3916 14.8948L14.3369 15.3195L14.0991 14.9133L14.9404 14.4147L14.6113 13.8423L13.7695 14.3409L13.459 13.8053L12.7817 14.1931L13.0928 14.7286L12.1235 15.3011L12.4526 15.8735L13.2759 15.3934C13.1846 15.892 13.0195 16.3906 12.7637 16.8522C13.0195 16.9445 13.2573 17.0369 13.4951 17.1477C13.6416 16.7784 13.7515 16.3536 13.7881 15.9104L14.2451 16.7045L14.9224 16.3167L14.5015 15.5781C14.7573 15.5781 15.0137 15.5965 15.2515 15.6335ZM18.4893 14.4701L13.6782 17.2769L14.0073 17.8494L18.8184 15.0425L18.4893 14.4701ZM16.459 18.4218L15.709 18.1263L15.7271 18.1818C15.3428 18.8281 14.9404 19.4005 14.5381 19.8806C14.7759 19.9729 15.0317 20.1022 15.3062 20.2684C15.5806 19.8806 15.8916 19.4374 16.2026 18.9019C16.3491 19.0497 16.5317 19.2528 16.7334 19.4928C17.2817 19.1604 17.6113 18.9573 17.7393 18.8465C17.8672 18.7357 17.9404 18.6065 17.9771 18.4403C18.0137 18.2741 17.959 18.071 17.8306 17.8494L17.4102 17.1292L19.7148 15.7812L19.3672 15.1718L13.7515 18.4403L14.0991 19.0497L16.6416 17.5724L16.9712 18.1263C17.0625 18.2925 17.0439 18.4218 16.8979 18.4957C16.6782 18.6065 16.459 18.7357 16.2212 18.8465C16.2939 18.6988 16.3857 18.5695 16.459 18.4218ZM12.5806 18.828C13.001 18.7726 13.3486 18.7172 13.6411 18.6618C13.8062 19.1789 13.9341 19.5667 14.0254 19.8436C14.0986 20.1206 14.0806 20.3792 13.9341 20.6007C13.7876 20.8223 13.5498 21.0439 13.2207 21.247L10.7695 22.6689C9.96436 23.1306 9.32422 22.9459 8.83057 22.0965L7.43994 19.659L8.28174 19.1789L8.59277 19.7328L11.3184 18.1448L10.623 16.9445L6.90967 19.1235L6.4707 18.3479L11.0439 15.6888L12.6353 18.4587L9.06836 20.5453L9.65332 21.5794C9.87305 21.9672 10.1655 22.0595 10.5132 21.838L12.6167 20.6007C12.7998 20.4899 12.9277 20.3792 13.001 20.2683C13.0742 20.1576 13.0928 20.0098 13.0376 19.8621C12.9829 19.7144 12.8545 19.3635 12.6353 18.8649L12.5806 18.828ZM27.0854 16.2798C27.0303 20.0837 25.0732 23.7769 21.5791 25.8266C18.0854 27.8763 13.9512 27.7655 10.6401 25.9374L9.81689 26.436C10.7866 27.0454 11.8477 27.4886 12.9634 27.784C14.4448 28.1902 16 28.2826 17.5181 28.0979C19.0913 27.8948 20.6279 27.3777 22 26.5652C24.7256 24.9587 26.7192 22.3181 27.5244 19.2343C27.8169 18.1079 27.9634 16.963 27.9268 15.7996L27.1035 16.2982L27.0854 16.2798ZM20.1172 16.6122C19.3491 16.6675 18.6538 16.7414 18.0137 16.8522L17.9951 17.6093C18.709 17.517 19.4038 17.4431 20.1172 17.4247L20.1172 16.6122Z" clip-rule="evenodd" fill="#FFFFFF" fill-opacity="1.000000" fill-rule="evenodd"/>
		</g>
	</g>
</svg>
