<svg width="32.000000" height="32.000000" viewBox="0 0 32 32" fill="none" xmlns="http://www.w3.org/2000/svg" xmlns:xlink="http://www.w3.org/1999/xlink">
	<desc>
			Created with Pixso.
	</desc>
	<defs>
		<clipPath id="clip68_8945">
			<rect width="32.000000" height="32.000000" fill="white" fill-opacity="0"/>
		</clipPath>
	</defs>
	<g opacity="0.800000">
		<g clip-path="url(#clip68_8945)">
			<path d="M10.439 6.45587C6.94482 8.50562 4.98779 12.1988 4.93262 16.0027L4.09131 16.4829C4.05469 15.3195 4.20117 14.1746 4.49365 13.0482C4.89648 11.534 5.55469 10.1306 6.48779 8.89337C7.45703 7.60077 8.66455 6.52975 10.0366 5.71725C11.4268 4.90475 12.9448 4.3877 14.5181 4.18457C17.189 3.8522 19.9146 4.44312 22.2192 5.8465L21.3779 6.34509C18.0669 4.4985 13.9326 4.40616 10.439 6.45587ZM26.8657 5.38486L30.7437 12.1249L30.7256 12.1249C31.0732 12.7158 30.8721 13.4729 30.2866 13.8053L6.89014 27.5255C6.30469 27.8763 5.57324 27.6732 5.22559 27.0823L1.34766 20.3238C1 19.7329 1.20117 18.9942 1.78662 18.6434L25.2012 4.94168C25.7866 4.59082 26.5181 4.79395 26.8657 5.38486ZM6.46924 26.8053L29.8843 13.0851C30.0669 12.9744 30.1401 12.7158 30.0303 12.5312L26.1523 5.79111C26.0977 5.69879 26.0059 5.64337 25.9146 5.60645C25.8232 5.56952 25.7134 5.58798 25.6221 5.64337L2.20703 19.382C2.02441 19.4928 1.95117 19.7329 2.06104 19.9175L5.93896 26.6576C5.99365 26.7499 6.08545 26.8053 6.17676 26.8423C6.26807 26.8792 6.37793 26.8607 6.46924 26.8053ZM24.1768 7.73013L23.4268 8.35797L23.4087 8.37643L23.939 8.85654L22.7319 9.55826L23.939 11.6634C24.4512 12.5867 24.6343 13.3992 24.5244 14.0824C24.8901 14.1562 25.2012 14.2486 25.4941 14.3778C25.5854 13.473 25.3843 12.5312 24.9087 11.5895L26.5186 10.6477L26.7378 11.0171L27.4878 10.5739L25.8599 7.73013L24.7988 8.35797L24.1768 7.73013ZM24.5063 10.8509L23.9209 9.81677L25.5308 8.875L26.1157 9.90909L24.5063 10.8509ZM21.4512 10.6662L20.8477 11.0171L20.8477 11.0355L21.2686 11.7557L21.8721 11.4048L22.439 12.3835L21.8354 12.9006L22.3657 13.6577L22.8779 13.1591L23.4453 14.1562C23.5186 14.2486 23.5366 14.3409 23.5186 14.3963C23.5 14.4517 23.4268 14.5256 23.2988 14.5994C23.2075 14.6548 23.0977 14.7102 22.9697 14.7656C23.2441 15.0242 23.4453 15.2458 23.5913 15.4119C24.1587 15.0796 24.4512 14.821 24.4697 14.6179C24.4878 14.4148 24.4331 14.2301 24.3232 14.027L23.4819 12.5497L23.939 12.125C23.8291 11.9588 23.7012 11.7188 23.5366 11.3864L23.061 11.8111L22.5854 10.9617L23.1709 10.6293L22.75 9.90909L22.1646 10.2415L21.5977 9.24432L20.8843 9.66904L21.4512 10.6662ZM18.542 10.9986C18.9448 11.1833 19.2739 11.3494 19.5298 11.4972L19.2007 12.0327L20.4995 11.2756L20.8472 11.8849L19.896 12.4389L20.2251 13.0298L21.1396 12.4943L21.4692 13.0668L20.5542 13.6023L20.8838 14.1932L21.7983 13.6577L22.1274 14.2301L21.2129 14.7656L21.542 15.3565L22.5664 14.7656L22.896 15.3565L20.335 16.8523L20.5542 17.2401L19.8228 17.6648L18.2495 14.9134C18.2495 15.0796 18.2129 15.2458 18.1948 15.4119C17.9204 15.1534 17.6826 14.9688 17.4629 14.8395C17.5176 13.8793 17.4082 12.8821 17.1152 11.8849L17.9385 11.6634C18.0117 11.9958 18.085 12.3466 18.1396 12.679L18.9995 12.1804C18.7617 12.0142 18.4692 11.848 18.1582 11.6818L18.5239 11.054L18.542 10.9986ZM16.2192 14.6548C16.292 14.5994 16.4019 14.544 16.5298 14.4702C16.5298 14.1747 16.4932 13.8608 16.457 13.5099L17.207 13.3807Q17.3164 14.9041 17.3164 15.929C17.5176 15.7812 17.7554 15.5966 18.0664 15.375C18.1396 15.5781 18.2495 15.8182 18.3774 16.0952C17.7739 16.5199 17.335 16.8523 17.042 17.1108L16.4932 16.5938C16.5483 16.3352 16.5664 15.8921 16.5483 15.3011L16.0361 15.6705L15.4873 15.1719C15.542 14.8395 15.4873 14.1009 15.2861 12.9006L16.0908 12.7159C16.146 13.4546 16.1826 14.1193 16.1826 14.6918L16.2192 14.6548ZM18.6885 13.8977L19.4932 13.4361L19.1641 12.8452L18.3594 13.3068L18.6885 13.8977ZM19.3472 15.0611L20.1519 14.5994L19.8228 14.0085L19.0176 14.4702L19.3472 15.0611ZM12.2515 20.6562L11.4463 21.1179L11.9038 21.8749L17.3184 18.7173L16.8794 17.9602L14.9585 19.0681L13.8242 17.0923L15.4341 16.1505L15.0137 15.4119L13.4038 16.3536L12.4341 14.6548L11.5928 15.1534L14.1172 19.5852L13.0928 20.1761L11.1538 16.7968L10.3306 17.2769L12.2515 20.6562ZM20.0054 16.206L20.8105 15.7443L20.4814 15.1534L19.6763 15.6151L20.0054 16.206ZM21.5791 25.8266C25.0732 23.7769 27.0303 20.0837 27.0854 16.2798L27.1035 16.2982L27.9268 15.7996C27.9634 16.963 27.8169 18.1079 27.5244 19.2343C26.7192 22.3181 24.7256 24.9587 22 26.5652C20.6279 27.3777 19.0913 27.8948 17.5181 28.0979C16 28.2826 14.4448 28.1902 12.9634 27.784C11.8477 27.4886 10.7866 27.0454 9.81689 26.436L10.6401 25.9374C13.9512 27.7655 18.0854 27.8763 21.5791 25.8266ZM17.042 17.794C17.5361 17.4062 18.1396 16.9261 18.8164 16.3537C18.9814 16.6861 19.1274 16.9446 19.2373 17.1477C18.707 17.5724 18.1582 18.0341 17.5908 18.5142L17.042 17.794ZM9.23193 17.8494L5.33545 20.1207L5.00635 19.5667L6.50635 18.6988C6.39648 18.6249 6.28662 18.5326 6.15869 18.4403L6.89014 17.8309C7.03662 17.9602 7.18311 18.071 7.34766 18.2187L8.88428 17.3139L9.23193 17.8494ZM5.81104 20.1392L8.9209 18.3295L9.65234 19.6036L6.54297 21.4133L5.81104 20.1392ZM4.10986 19.4559L4.87793 19.2159C5.00635 19.696 5.09766 20.1761 5.1709 20.6377L7.54883 24.7741L6.85352 25.1803L5.37207 22.5767L5.37207 23.4076C5.15234 23.1306 4.89648 22.8352 4.58545 22.5212C4.58545 21.6903 4.43896 20.6747 4.10986 19.4559ZM8.64648 19.5298L8.48193 19.2343L6.81689 20.213L6.98193 20.5085L8.64648 19.5298ZM6.6709 22.8167L6.15869 21.9303L10.2563 19.5482L10.7686 20.4346L10.0547 20.8593L9.87207 20.5454L7.21973 22.0965L7.40234 22.4105L6.68896 22.8352L6.6709 22.8167ZM10.4756 20.7116L10.8047 21.284L9.63428 21.9673L9.87207 22.392C10.1465 22.8536 10.0913 23.223 9.70752 23.463C9.48779 23.6107 9.17676 23.8139 8.77441 24.0355C8.64648 23.8877 8.48193 23.6846 8.24414 23.4261C8.44531 23.3337 8.68311 23.2045 8.93896 23.0568C9.12207 22.9644 9.15869 22.8167 9.03076 22.5951L8.90234 22.3735L7.4209 23.2414L7.09131 22.669L10.4756 20.7116Z" clip-rule="evenodd" fill="#FFFFFF" fill-opacity="1.000000" fill-rule="evenodd"/>
		</g>
	</g>
</svg>
