<svg width="32.000000" height="32.000000" viewBox="0 0 32 32" fill="none" xmlns="http://www.w3.org/2000/svg" xmlns:xlink="http://www.w3.org/1999/xlink">
	<desc>
			Created with Pixso.
	</desc>
	<defs>
		<clipPath id="clip68_9083">
			<rect width="32.000000" height="32.000000" fill="white" fill-opacity="0"/>
		</clipPath>
	</defs>
	<g opacity="0.800000">
		<g clip-path="url(#clip68_9083)">
			<path d="M4.93262 16.0027C4.98779 12.1988 6.94482 8.50562 10.439 6.45587C13.9326 4.40616 18.0669 4.4985 21.3779 6.34509L22.2192 5.8465C19.9146 4.44312 17.189 3.8522 14.5181 4.18457C12.9448 4.3877 11.4268 4.90475 10.0366 5.71725C8.66455 6.52975 7.45703 7.60077 6.48779 8.89337C5.55469 10.1306 4.89648 11.534 4.49365 13.0482C4.20117 14.1746 4.05469 15.3195 4.09131 16.4829L4.93262 16.0027ZM30.7437 12.1249L26.8657 5.38486C26.5181 4.79395 25.7866 4.59082 25.2012 4.94168L1.78662 18.6434C1.20117 18.9942 1 19.7329 1.34766 20.3238L5.22559 27.0823C5.57324 27.6732 6.30469 27.8763 6.89014 27.5255L30.2866 13.8053C30.8721 13.4729 31.0732 12.7158 30.7256 12.1249L30.7437 12.1249ZM29.8843 13.0851L6.46924 26.8053C6.37793 26.8607 6.26807 26.8792 6.17676 26.8423C6.08545 26.8053 5.99365 26.7499 5.93896 26.6576L2.06104 19.9175C1.95117 19.7329 2.02441 19.4928 2.20703 19.382L25.6221 5.64337C25.7134 5.58798 25.8232 5.56952 25.9146 5.60645C26.0059 5.64337 26.0977 5.69879 26.1523 5.79111L30.0303 12.5312C30.1401 12.7158 30.0669 12.9744 29.8843 13.0851ZM20.356 17.1661L19.7524 16.4459C20.374 15.9658 21.0146 15.4672 21.6548 14.9317C21.7095 15.0609 21.7827 15.1902 21.856 15.3195C22.2036 14.9317 22.5146 14.5255 22.7886 14.1192C22.5508 13.8976 22.2949 13.6206 22.0386 13.2698L21.1606 13.9345L20.667 13.3067L21.5815 12.6234L21.2158 12.0695L20.5205 12.5865L20.3193 12.3095C20.3193 13.159 20.2646 13.8792 20.1914 14.47C20.5024 14.23 20.7583 14.0084 20.9595 13.8422C21.0327 14.0084 21.1426 14.2484 21.3071 14.5808C20.5571 15.1533 20.063 15.5595 19.8438 15.7996L19.2769 15.2825C19.3862 14.9132 19.4595 14.4331 19.4961 13.8237C19.2949 13.953 19.0752 14.1192 18.8193 14.3039L18.2339 13.7683C18.3252 13.1959 18.3071 12.3834 18.1973 11.3124L19.0752 11.1831C19.0752 11.9771 19.0752 12.6419 19.0391 13.2144C19.1851 13.122 19.3315 13.0297 19.5146 12.9189L19.5146 12.1618L20.1914 12.1064L20.063 11.9218L20.7949 11.3862L20.063 10.2229L20.8315 9.77969C21.0508 10.1675 21.2705 10.5183 21.4902 10.8692L22.4229 10.2044C22.0938 10.1675 21.7461 10.149 21.3252 10.1306L21.417 9.42886L22.6426 9.42886L22.5693 10.0936L23.0815 9.7243L23.5391 10.3706L21.9292 11.5524L22.2949 12.088L23.9229 10.8507L24.3804 11.497L23.7402 11.9771L24.4717 12.088C24.3438 12.6973 24.1426 13.2882 23.8862 13.8237C24.1792 13.9899 24.3984 14.0269 24.5269 13.953C24.5996 13.9161 24.6182 13.8422 24.6182 13.713C24.6182 13.6021 24.5269 13.3252 24.3804 12.882C24.728 12.882 25.0024 12.845 25.2217 12.8266C25.4229 13.5098 25.4961 13.9715 25.4414 14.2115C25.4048 14.4516 25.2769 14.6362 25.0938 14.747C24.6182 15.024 24.0693 14.9871 23.4658 14.6178C23.1548 15.1348 22.7891 15.5965 22.3682 16.0581C22.2402 15.9658 22.1118 15.8919 21.9473 15.7996C21.3438 16.2982 20.813 16.7414 20.356 17.1661ZM22.7339 12.7343L23.6611 12.0368Q23.4976 12.6893 23.228 13.2882C23.063 13.122 22.8984 12.9374 22.7339 12.7343ZM18.5981 15.2825C17.7202 15.1533 16.8418 15.0609 15.9824 14.9686L15.7627 15.7626L15.104 14.6362L17.5737 13.1959L17.1162 12.4019L11.665 15.578L12.1226 16.372L14.208 15.1533L16.7505 19.622L17.665 19.0865L15.854 15.9288C16.6226 16.0027 17.4824 16.1504 18.4336 16.3351L18.5981 15.2825ZM27.0854 16.2798C27.0303 20.0837 25.0732 23.7769 21.5791 25.8266C18.0854 27.8763 13.9512 27.7655 10.6401 25.9374L9.81689 26.436C10.7866 27.0454 11.8477 27.4886 12.9634 27.784C14.4448 28.1902 16 28.2826 17.5181 28.0979C19.0913 27.8948 20.6279 27.3777 22 26.5652C24.7256 24.9587 26.7192 22.3181 27.5244 19.2343C27.8169 18.1079 27.9634 16.963 27.9268 15.7996L27.1035 16.2982L27.0854 16.2798ZM12.2891 19.1788C12.71 19.1234 13.0576 19.068 13.3501 19.0126C13.5146 19.5297 13.6431 19.9175 13.7344 20.1945C13.8076 20.4714 13.7891 20.73 13.6431 20.9516C13.4966 21.1732 13.2588 21.3947 12.9297 21.5979L10.4785 23.0197C9.67334 23.4814 9.0332 23.2967 8.53906 22.4473L7.14893 20.0098L7.99072 19.5297L8.30127 20.0836L11.0269 18.4956L10.332 17.2953L6.6001 19.4743L6.16113 18.6987L10.7344 16.0396L12.3076 18.8095L8.74072 20.8962L9.32568 21.9303C9.54541 22.3181 9.83789 22.4104 10.1855 22.1888L12.2891 20.9516C12.4722 20.8408 12.6001 20.73 12.6733 20.6192C12.7466 20.5084 12.7646 20.3607 12.71 20.2129C12.6553 20.0652 12.5269 19.7144 12.3076 19.2158L12.2891 19.1788Z" clip-rule="evenodd" fill="#FFFFFF" fill-opacity="1.000000" fill-rule="evenodd"/>
		</g>
	</g>
</svg>
