<svg viewBox="0 0 16 16" xmlns="http://www.w3.org/2000/svg" xmlns:xlink="http://www.w3.org/1999/xlink" width="16.000000" height="16.000000" fill="none" customFrame="#000000">
	<rect id="third-party icon/svelte" width="16.000000" height="16.000000" x="0.000000" y="0.000000" />
	<path id="Shape" d="M7.24499 4.27479L7.83213 3.9004C9.02563 3.1404 10.6761 3.4944 11.5116 4.6904C11.9124 5.25116 12.0703 5.94978 11.9496 6.6284C11.8917 6.94934 11.7692 7.25517 11.5896 7.5274C11.8516 8.0264 11.9396 8.5984 11.8396 9.1529C11.7279 9.77554 11.3752 10.329 10.8581 10.6934L10.7531 10.7634L8.65713 12.0994C7.46413 12.8594 5.81313 12.5054 4.97713 11.3094C4.57661 10.7485 4.41891 10.05 4.53963 9.3714C4.59763 9.0504 4.71963 8.7449 4.89963 8.4724C4.63778 7.97347 4.54981 7.40146 4.64963 6.8469C4.76135 6.22439 5.11379 5.67094 5.63063 5.3064L5.73563 5.2364L7.24499 4.27479ZM6.49633 4.75216L7.83263 3.9004L7.24499 4.27479L6.49633 4.75216ZM6.49633 4.75216L5.73663 5.2364L5.73613 5.2369L6.49633 4.75216ZM8.86213 4.5789C9.53752 4.4034 10.2507 4.66767 10.6486 5.2409L10.6491 5.2414C10.8898 5.57859 10.9846 5.9985 10.9121 6.4064C10.9001 6.4724 10.8831 6.5379 10.8621 6.6024L10.8226 6.7224L10.7151 6.6439L10.5891 6.5564C10.3746 6.4164 10.1411 6.3079 9.89513 6.2339L9.81763 6.2104L9.82463 6.1324L9.82563 6.0659C9.82063 5.97784 9.79101 5.89295 9.74013 5.8209C9.62013 5.6479 9.40563 5.5684 9.20213 5.6214C9.15649 5.63352 9.11298 5.65258 9.07313 5.6779L6.97713 7.0134L6.92813 7.0494C6.85063 7.11494 6.79846 7.20549 6.78063 7.3054C6.7588 7.42826 6.78726 7.55474 6.85963 7.6564C6.97938 7.82945 7.19444 7.90933 7.39813 7.8564C7.44358 7.8442 7.48691 7.82515 7.52663 7.7999L8.32663 7.2899L8.42713 7.2314C8.53018 7.17626 8.63923 7.13314 8.75213 7.1029C9.42778 6.92727 10.1413 7.19178 10.5391 7.7654C10.78 8.1027 10.8748 8.52284 10.8021 8.9309C10.7303 9.3312 10.4933 9.68276 10.1491 9.8994L8.05313 11.2349L7.95213 11.2939C7.84913 11.3489 7.74013 11.3919 7.62713 11.4219L7.53013 11.4444C6.88072 11.5723 6.21723 11.3033 5.84013 10.7594C5.59925 10.4223 5.50427 10.0024 5.57663 9.5944C5.58875 9.52799 5.60545 9.4625 5.62663 9.3984L5.66663 9.2784L5.77413 9.3574L5.90013 9.4444C6.11484 9.58422 6.34835 9.69281 6.59363 9.7669L6.67163 9.7904L6.66463 9.8684L6.66363 9.9344C6.66857 10.0225 6.6982 10.1074 6.74913 10.1794C6.86881 10.3522 7.0836 10.4321 7.28713 10.3794C7.33259 10.3672 7.37593 10.3482 7.41563 10.3229L9.51163 8.9874L9.56113 8.9514C9.63856 8.88581 9.69071 8.79529 9.70863 8.6954C9.7304 8.57254 9.70194 8.44609 9.62963 8.3444C9.50963 8.1714 9.29463 8.0919 9.09113 8.1444C9.04566 8.15657 9.00233 8.17563 8.96263 8.2009L8.16263 8.7109L8.06213 8.7699C7.95913 8.8244 7.85013 8.8679 7.73713 8.8979C7.06137 9.07343 6.34787 8.80871 5.95013 8.2349C5.70937 7.89773 5.61457 7.4778 5.68713 7.0699C5.75886 6.66958 5.99591 6.318 6.34013 6.1014L8.43613 4.7659L8.53713 4.7069C8.64013 4.6519 8.74913 4.6089 8.86213 4.5789Z" fill="rgb(222,82,88)" fill-rule="evenodd" />
</svg>
