<svg viewBox="0 0 16 16" xmlns="http://www.w3.org/2000/svg" xmlns:xlink="http://www.w3.org/1999/xlink" width="16.000000" height="16.000000" fill="none" customFrame="#000000">
	<rect id="third-party icon/typescript" width="16.000000" height="16.000000" x="0.000000" y="0.000000" />
	<path id="Shape" d="M11.25 8.95C11.4 9.1 11.5 9.25 11.5 9.5C11.5 9.7 11.4 9.9 11.3 10.05C11.15 10.2 10.9 10.25 10.55 10.25C10.2 10.25 9.84998 10.15 9.64998 10C9.39998 9.8 9.29998 9.55 9.29998 9.2L8.09998 9.2C8.04998 9.85 8.34998 10.3 8.79998 10.65C9.24998 11 9.84998 11.15 10.5 11.15C11.15 11.15 11.7 11 12.1 10.7C12.5 10.45 12.7 10 12.7 9.5C12.7 9 12.55 8.6 12.2 8.3C11.85 8 11.35 7.75 10.7 7.55C10.2 7.4 9.89998 7.3 9.69998 7.15C9.49998 7 9.39998 6.85 9.39998 6.65C9.39998 6.45 9.44998 6.25 9.64998 6.1C9.84998 5.95 10.1 5.9 10.4 5.9C10.75 5.9 11 6 11.2 6.15C11.4 6.35 11.5 6.55 11.5 6.85L12.65 6.85C12.65 6.35 12.45 5.9 12.05 5.55C11.65 5.2 11.1 5 10.45 5C9.79998 5 9.24998 5.15 8.84998 5.45C8.39998 5.75 8.19998 6.15 8.19998 6.65C8.19998 7.15 8.39998 7.5 8.74998 7.8C9.14998 8.1 9.69998 8.35 10.4 8.55C10.8 8.7 11.1 8.8 11.25 8.95ZM7.6 5.9501L5.95 5.9501L5.95 11.0501L4.7 11.0501L4.7 5.9501L3 5.9501L3 5.0501L7.6 5.0501L7.6 5.9501Z" fill="rgb(108,186,225)" fill-rule="evenodd" />
</svg>
