<svg viewBox="0 0 16 16" xmlns="http://www.w3.org/2000/svg" xmlns:xlink="http://www.w3.org/1999/xlink" width="16.000000" height="16.000000" fill="none" customFrame="#000000">
	<defs>
		<linearGradient id="paint_linear_4" x1="2.2372663" x2="14.7246313" y1="4.37107849" y2="4.47354126" gradientUnits="userSpaceOnUse">
			<stop stop-color="rgb(66,135,255)" offset="0" stop-opacity="1" />
			<stop stop-color="rgb(22,83,224)" offset="1" stop-opacity="1" />
		</linearGradient>
		<linearGradient id="paint_linear_5" x1="12.9555397" x2="5.83173752" y1="13.0949326" y2="5.98630571" gradientUnits="userSpaceOnUse">
			<stop stop-color="rgb(255,255,255)" offset="0.021285329" stop-opacity="1" />
			<stop stop-color="rgb(156,190,255)" offset="0.9671821" stop-opacity="1" />
		</linearGradient>
		<linearGradient id="paint_linear_6" x1="6.49826908" x2="1.73028326" y1="9.93712139" y2="4.67194414" gradientUnits="userSpaceOnUse">
			<stop stop-color="rgb(255,255,255)" offset="0.021285329" stop-opacity="1" />
			<stop stop-color="rgb(156,190,255)" offset="0.9671821" stop-opacity="1" />
		</linearGradient>
		<linearGradient id="paint_linear_7" x1="13.5000019" x2="0.740818024" y1="3.49999905" y2="14.7282848" gradientUnits="userSpaceOnUse">
			<stop stop-color="rgb(255,255,255)" offset="0" stop-opacity="1" />
			<stop stop-color="rgb(255,255,255)" offset="1" stop-opacity="0" />
		</linearGradient>
	</defs>
	<g id="组合 9008">
		<g id="组合 8926">
			<g id="组合 8911">
				<path id="矩形 6978" d="M8 0C12.4183 0 16 3.58172 16 8C16 12.4183 12.4183 16 8 16C3.58172 16 0 12.4183 0 8C0 3.58172 3.58172 0 8 0Z" fill="url(#paint_linear_4)" fill-rule="evenodd" />
				<path id="矩形 6978" d="M16 8C16 3.58172 12.4183 0 8 0C3.58172 0 0 3.58172 0 8C0 12.4183 3.58172 16 8 16C12.4183 16 16 12.4183 16 8ZM1.17318 9.56005C1.05773 9.05318 1 8.53316 1 8C1 7.46683 1.05773 6.94681 1.17319 6.43994C1.26342 6.04379 1.38892 5.65567 1.54968 5.27559C1.71428 4.88643 1.91042 4.51792 2.1381 4.17004C2.40032 3.7694 2.70437 3.39614 3.05025 3.05025C3.39613 2.70437 3.7694 2.40032 4.17004 2.13811C4.51791 1.91043 4.88643 1.71429 5.27559 1.54968C5.65567 1.38893 6.04377 1.26343 6.43991 1.17319C6.94679 1.05773 7.46682 1 8 1C8.53317 1 9.05319 1.05773 9.56006 1.17319C9.95621 1.26342 10.3443 1.38892 10.7244 1.54968C11.1136 1.71429 11.4821 1.91043 11.83 2.13812C12.2306 2.40033 12.6039 2.70438 12.9497 3.05025C13.2956 3.39613 13.5997 3.76938 13.8619 4.17002C14.0896 4.5179 14.2857 4.88642 14.4503 5.27559C14.6111 5.65566 14.7366 6.04376 14.8268 6.4399C14.9423 6.94678 15 7.46682 15 8C15 8.53319 14.9423 9.05323 14.8268 9.56011C14.7366 9.95624 14.6111 10.3443 14.4503 10.7244C14.2857 11.1136 14.0896 11.4821 13.8619 11.83C13.5997 12.2306 13.2956 12.6039 12.9497 12.9497C12.6039 13.2956 12.2307 13.5996 11.83 13.8618C11.4821 14.0895 11.1136 14.2857 10.7244 14.4503C10.3443 14.6111 9.95623 14.7366 9.5601 14.8268C9.05322 14.9423 8.53318 15 8 15C7.4668 15 6.94676 14.9423 6.43986 14.8268C6.04374 14.7366 5.65565 14.6111 5.27559 14.4503C4.88643 14.2857 4.51791 14.0896 4.17004 13.8619C3.7694 13.5997 3.39614 13.2956 3.05025 12.9497C2.70439 12.6039 2.40036 12.2307 2.13816 11.83C1.91046 11.4821 1.7143 11.1136 1.54968 10.7244C1.38892 10.3443 1.26342 9.9562 1.17318 9.56005Z" fill="rgb(223,225,230)" fill-opacity="0" fill-rule="evenodd" />
				<g id="组合 4719">
					<g style="mix-blend-mode:normal">
						<path id="矢量 3" d="M8.15295 12.5647L9.86021 12.5647C9.99559 12.3212 12.9242 5.25692 13.0968 5.02424L14.0001 4.14691L10.7986 4.14691L8.15295 12.5647Z" fill="url(#paint_linear_5)" fill-rule="evenodd" />
					</g>
					<g style="mix-blend-mode:normal">
						<path id="矢量 2" d="M6.44334 12.5647L9.35821 12.5647L6.47146 5.17157L6.98936 4.15631L6.41212 4.15631L2 4.15631L6.44334 12.5647Z" fill="url(#paint_linear_6)" fill-rule="evenodd" />
					</g>
					<g style="mix-blend-mode:normal">
						<path id="矢量 790" d="M8.79431 10.5083L10.0056 6.68878L9.85234 12.565L8.79431 10.5083Z" fill="rgb(9,80,222)" fill-rule="evenodd" />
					</g>
					<path id="矢量 5(边框)" d="M6.64372 5.19443L7.15218 4.15681L6.61292 4.15678L6.10095 5.14863L7.83212 8.97339L9.34139 12.565L9.84836 12.565L8.26539 8.77728L6.64372 5.19443Z" fill="rgb(255,255,255)" fill-rule="evenodd" />
				</g>
			</g>
		</g>
		<path id="减去顶层" d="M1.21289 12.2378C2.62675 14.4972 5.13765 16 7.99953 16C12.4178 16 15.9995 12.4183 15.9995 8C15.9995 6.11894 15.3503 4.38951 14.2637 3.02356C10.1309 4.18473 5.1506 8.22159 1.21289 12.2378Z" opacity="0.400000006" fill="url(#paint_linear_7)" fill-rule="evenodd" />
		<path id="减去顶层" d="M1.21289 12.2378C2.62675 14.4972 5.13765 16 7.99953 16C12.4178 16 15.9995 12.4183 15.9995 8C15.9995 6.11894 15.3503 4.38951 14.2637 3.02356C10.1309 4.18473 5.1506 8.22159 1.21289 12.2378Z" opacity="0.400000006" fill-rule="evenodd" stroke="rgb(151,151,151)" stroke-opacity="0" stroke-width="0.800000012" />
	</g>
</svg>
