<?xml version="1.0" encoding="iso-8859-1" ?>
<!-- Generator: Adobe Illustrator 23.0.0, SVG Export Plug-In . SVG Version: 6.00 Build 0)  -->
<svg version="1.1" id="&#x56FE;&#x5C42;_1" xmlns="http://www.w3.org/2000/svg" xmlns:xlink="http://www.w3.org/1999/xlink" x="0px" y="0px" viewBox="0 0 1024 1024" style="enable-background:new 0 0 1024 1024;" xml:space="preserve">
	<g>
		<path style="fill:#C52D37;" d="M208.64,204.849c0,0,434.026-192.888,447.493-198.916c13.467-6.028,30.301-5.928,30.301-5.928
		V160.77L208.64,261.744V204.849z" />
		<path style="fill:#C52D37;" d="M208.64,819.272l444.626,197.643c0,0-0.011,0.028,1.261,0.572c16.106,6.9,31.906,6.494,31.906,6.494
		V863.502L208.64,762.377V819.272z" />
		<polygon style="fill:#C52D37;" points="686.434,863.502 589.677,842.901 589.677,567.951 686.434,573.712 	" />
		<polygon style="fill:#C52D37;" points="305.398,465.504 208.64,471.266 208.64,261.744 305.398,241.294 	" />
		<path style="fill:#DD3A36;" d="M896.444,939.053c-34.429,15.178-126.758,55.896-176.754,77.941
		c-0.511,0.228-1.006,0.467-1.516,0.672c-17.139,6.989-31.74,6.316-31.74,6.316L686.473,0.005c0,0,16.034-0.439,32.423,6.784
		c16.39,7.223,177.898,78.43,177.898,78.43s47.668,20.545,47.668,72.396c0,170.109,0,704.409,0,706.926
		C944.462,867.535,944.656,917.791,896.444,939.053z" />
		<path style="fill:#DD3A36;" d="M208.64,819.272l-81.765-36.056l-1.667-0.733c0,0-41.698-18.1-45.576-67.99c-0.212,1,0-1.4,0-1.4
		V313.884v-1.661c0,0-1.278-48.384,47.653-71.496c1.328-0.628,1.342-0.595,1.342-0.595l80.012-35.284V819.272z" />
		<polygon style="fill:#DD3A36;" points="686.378,573.712 208.685,545.267 208.685,471.266 686.378,442.82 	" />
	</g>
</svg>
