<svg viewBox="0 0 16 16" xmlns="http://www.w3.org/2000/svg" xmlns:xlink="http://www.w3.org/1999/xlink" width="16.000000" height="16.000000" fill="none">
	<rect id="ic_public_minus" width="16.000000" height="16.000000" x="0.000000" y="0.000000" />
	<path id="path1" d="M0.999831 7.99409C0.999831 6.90034 0.996915 5.80659 0.999831 4.71284C0.996915 4.182 1.064 3.65409 1.19233 3.14367C1.48108 2.05867 2.18691 1.41409 3.27191 1.16325C3.81441 1.04659 4.3715 0.991169 4.92566 0.999919C7.02275 0.999919 9.11983 0.999919 11.2198 0.999919C11.7477 0.997003 12.2757 1.05534 12.7919 1.18075C13.909 1.452 14.5798 2.16075 14.8336 3.27492C14.9502 3.79992 15.0027 4.33659 14.9969 4.87617C14.9969 6.99659 14.9969 9.117 14.9969 11.2345C14.9998 11.7595 14.9415 12.2845 14.819 12.7949C14.5448 13.912 13.8332 14.577 12.7219 14.8337C12.1765 14.9503 11.6223 15.0058 11.0652 14.997C8.97691 14.997 6.88858 14.997 4.80025 14.997C4.2665 15.0028 3.73566 14.9416 3.2165 14.8191C2.09358 14.5478 1.41983 13.8362 1.16608 12.7162C1.03483 12.1474 0.999831 11.5787 0.999831 11.0041C0.999831 10.0008 0.999831 8.99742 0.999831 7.99409Z" fill="rgb(255,255,255)" fill-opacity="0" fill-rule="evenodd" />
	<circle id="path2" cx="8" cy="8" r="7" fill="rgb(255,255,255)" fill-opacity="0" />
	<path id="path3" d="M2 8L14 8" stroke="rgb(255,255,255)" stroke-linecap="round" stroke-linejoin="round" stroke-width="1.25" />
	<path id="path4" d="M14.1368 7.7085C14.2914 7.7085 14.4168 7.83683 14.4168 8.00016C14.4168 8.16058 14.2914 8.29183 14.1368 8.29183L1.86058 8.29183C1.706 8.29183 1.5835 8.16058 1.5835 8.00016C1.5835 7.83683 1.706 7.7085 1.86058 7.7085L14.1368 7.7085Z" fill="rgb(255,255,255)" fill-opacity="0" fill-rule="evenodd" />
	<path id="path4" d="M14.4168 8.00016C14.4168 8.16058 14.2914 8.29183 14.1368 8.29183L1.86058 8.29183C1.706 8.29183 1.5835 8.16058 1.5835 8.00016C1.5835 7.83683 1.706 7.7085 1.86058 7.7085L14.1368 7.7085C14.2914 7.7085 14.4168 7.83683 14.4168 8.00016Z" fill="rgb(179,179,179)" fill-opacity="0" fill-rule="nonzero" />
	<path id="path4" d="M14.1368 8.29183L1.86058 8.29183C1.706 8.29183 1.5835 8.16058 1.5835 8.00016C1.5835 7.83683 1.706 7.7085 1.86058 7.7085L14.1368 7.7085C14.2914 7.7085 14.4168 7.83683 14.4168 8.00016C14.4168 8.16058 14.2914 8.29183 14.1368 8.29183Z" fill-rule="nonzero" stroke="rgb(255,255,255)" stroke-opacity="0" stroke-width="0.997500002" />
</svg>
