<svg viewBox="0 0 16 16" xmlns="http://www.w3.org/2000/svg" xmlns:xlink="http://www.w3.org/1999/xlink" width="16.000000" height="16.000000" fill="none">
	<rect id="ic_public_close" width="16.000000" height="16.000000" x="0.000000" y="0.000000" />
	<path id="path1" d="M2.00013 7.99479C2.00013 7.05729 1.99763 6.11979 2.00013 5.18229C1.99763 4.72729 2.05513 4.27479 2.16513 3.83729C2.41263 2.90729 3.01763 2.35479 3.94763 2.13979C4.41263 2.03979 4.89013 1.99229 5.36513 1.99979C7.16263 1.99979 8.96013 1.99979 10.7601 1.99979C11.2126 1.99729 11.6651 2.04729 12.1076 2.15479C13.0651 2.38729 13.6401 2.99479 13.8576 3.94979C13.9576 4.39979 14.0026 4.85979 13.9976 5.32229C13.9976 7.13979 13.9976 8.95729 13.9976 10.7723C14.0001 11.2223 13.9501 11.6723 13.8451 12.1098C13.6101 13.0673 13.0001 13.6373 12.0476 13.8573C11.5801 13.9573 11.1051 14.0048 10.6276 13.9973C8.83764 13.9973 7.04763 13.9973 5.25763 13.9973C4.80013 14.0023 4.34513 13.9498 3.90013 13.8448C2.93763 13.6123 2.36013 13.0023 2.14263 12.0423C2.03013 11.5548 2.00013 11.0673 2.00013 10.5748C2.00013 9.71479 2.00013 8.85479 2.00013 7.99479Z" fill="rgb(255,255,255)" fill-opacity="0" fill-rule="evenodd" />
	<circle id="path2" cx="8" cy="8" r="6" fill="rgb(255,255,255)" fill-opacity="0" />
	<path id="path" d="M0 0L14.1245 0" stroke="rgb(255,255,255)" stroke-linecap="round" stroke-linejoin="round" stroke-width="1.25" transform="matrix(0.707107,0.707107,-0.707107,0.707107,3.00488,3.00488)" />
	<path id="path" d="M0 0L14.1245 0" stroke="rgb(255,255,255)" stroke-linecap="round" stroke-linejoin="round" stroke-width="1.25" transform="matrix(0.707107,-0.707107,0.707107,0.707107,3.00488,12.9922)" />
	<path id="path4" d="M13.1699 3.17994L8.35244 7.99994L13.1699 12.8174C13.2699 12.9149 13.2699 13.0724 13.1699 13.1699C13.0724 13.2699 12.9149 13.2699 12.8174 13.1699L7.99994 8.35244L3.17994 13.1699C3.08244 13.2699 2.92494 13.2699 2.82744 13.1699C2.72744 13.0724 2.72744 12.9149 2.82744 12.8174L7.64494 7.99994L2.82744 3.17994C2.72744 3.08244 2.72744 2.92494 2.82744 2.82744C2.92494 2.72744 3.08244 2.72744 3.17994 2.82744L7.99994 7.64494L12.8174 2.82744C12.9149 2.72744 13.0724 2.72744 13.1699 2.82744C13.2699 2.92494 13.2699 3.08244 13.1699 3.17994Z" fill="rgb(255,255,255)" fill-opacity="0" fill-rule="evenodd" />
	<path id="path4" d="M8.35244 7.99994L13.1699 12.8174C13.2699 12.9149 13.2699 13.0724 13.1699 13.1699C13.0724 13.2699 12.9149 13.2699 12.8174 13.1699L7.99994 8.35244L3.17994 13.1699C3.08244 13.2699 2.92494 13.2699 2.82744 13.1699C2.72744 13.0724 2.72744 12.9149 2.82744 12.8174L7.64494 7.99994L2.82744 3.17994C2.72744 3.08244 2.72744 2.92494 2.82744 2.82744C2.92494 2.72744 3.08244 2.72744 3.17994 2.82744L7.99994 7.64494L12.8174 2.82744C12.9149 2.72744 13.0724 2.72744 13.1699 2.82744C13.2699 2.92494 13.2699 3.08244 13.1699 3.17994L8.35244 7.99994Z" fill="rgb(179,179,179)" fill-opacity="0" fill-rule="nonzero" />
	<path id="path4" d="M13.1699 12.8174C13.2699 12.9149 13.2699 13.0724 13.1699 13.1699C13.0724 13.2699 12.9149 13.2699 12.8174 13.1699L7.99994 8.35244L3.17994 13.1699C3.08244 13.2699 2.92494 13.2699 2.82744 13.1699C2.72744 13.0724 2.72744 12.9149 2.82744 12.8174L7.64494 7.99994L2.82744 3.17994C2.72744 3.08244 2.72744 2.92494 2.82744 2.82744C2.92494 2.72744 3.08244 2.72744 3.17994 2.82744L7.99994 7.64494L12.8174 2.82744C12.9149 2.72744 13.0724 2.72744 13.1699 2.82744C13.2699 2.92494 13.2699 3.08244 13.1699 3.17994L8.35244 7.99994L13.1699 12.8174Z" fill-rule="nonzero" stroke="rgb(255,255,255)" stroke-opacity="0" stroke-width="1" />
</svg>
