<svg viewBox="0 0 16 16" xmlns="http://www.w3.org/2000/svg" xmlns:xlink="http://www.w3.org/1999/xlink" width="16.000000" height="16.000000" fill="none" customFrame="#000000">
	<rect id="third-party icon/xml" width="16.000000" height="16.000000" x="0.000000" y="0.000000" />
	<path id="Shape" d="M11.3999 11.3506C11.4999 8.10059 8.64989 4.95059 5.0499 5.00059C5.0499 5.45059 5.0499 5.90059 5.0999 6.35059C6.44989 6.35059 7.6999 6.80059 8.64989 7.80059C9.5999 8.80059 10.0499 9.95059 10.0999 11.3506L11.3999 11.3506ZM9.35029 11.4006L8.05029 11.4006C8.00029 11.1506 7.95029 10.8506 7.90029 10.6006C7.50029 9.40059 6.75029 8.70059 5.50029 8.45059C5.40029 8.40059 5.30029 8.40059 5.15029 8.40059C5.05029 8.40059 5.05029 8.35059 5.05029 8.30059L5.05029 7.05059C6.10029 7.05059 7.00029 7.40059 7.80029 8.05059C8.80029 8.95059 9.30029 10.0506 9.35029 11.4006ZM5.9 11.4006C6.4 11.4006 6.8 11.0006 6.8 10.5006C6.8 10.0006 6.4 9.60061 5.9 9.60061C5.4 9.60061 5 10.0006 5 10.5006C5.05 11.0006 5.4 11.4006 5.9 11.4006Z" fill="rgb(239,118,35)" fill-rule="evenodd" />
</svg>
