<?xml version="1.0" encoding="UTF-8"?>
<svg xmlns="http://www.w3.org/2000/svg" viewBox="0 0 1200 600" width="1200" height="600">
  <rect width="100%" height="100%" fill="white"/>
  <path d="M 120 250 C 150 180, 250 150, 350 250 M 300 250 L 300 480 M 770 180 L 1070 180 M 770 330 L 1070 330 M 920 180 L 920 480 M 1540 150 L 1540 500 M 1390 280 L 1690 280 M 2060 200 L 2060 480 M 2060 200 L 2260 200 M 2260 200 L 2260 450 M 2060 480 L 2260 450 M 2620 220 L 2940 220 M 2780 220 C 2760 300, 2740 380, 2780 520 " fill="none" stroke="black" stroke-width="8" stroke-linecap="round" stroke-linejoin="round"/>
  <text x="10" y="20" font-size="12" fill="#aaa">龍中华民魂</text>
</svg>