<svg xmlns="http://www.w3.org/2000/svg" viewBox="0 0 600 600">
<path d="M 132.56967972997404 119.91546324922683 L 492.56967972997404 119.91546324922683" fill="none" stroke="black" stroke-width="12" stroke-linecap="butt" stroke-linejoin="miter"/><path d="M 487.56967972997404 125.91546324922683 L 502.56967972997404 119.91546324922683" fill="none" stroke="black" stroke-width="12" stroke-linecap="butt" stroke-linejoin="miter"/><path d="M 502.56967972997404 119.91546324922683 L 487.56967972997404 113.91546324922683" fill="none" stroke="black" stroke-width="12" stroke-linecap="butt" stroke-linejoin="miter"/><path d="M 137.56967972997404 113.91546324922683 L 122.56967972997404 119.91546324922683" fill="none" stroke="black" stroke-width="12" stroke-linecap="butt" stroke-linejoin="miter"/><path d="M 122.56967972997404 119.91546324922683 L 137.56967972997404 125.91546324922683" fill="none" stroke="black" stroke-width="12" stroke-linecap="butt" stroke-linejoin="miter"/><path d="M 492.56967972997404 119.91546324922683 L 474.685826907868 479.91546324922683" fill="none" stroke="black" stroke-width="12" stroke-linecap="butt" stroke-linejoin="miter"/><path d="M 468.9412976771526 474.62392435043216 L 474.1896650653776 489.9031468358277" fill="none" stroke="black" stroke-width="12" stroke-linecap="butt" stroke-linejoin="miter"/><path d="M 474.1896650653776 489.9031468358277 L 480.9265179810737 475.21931856142066" fill="none" stroke="black" stroke-width="12" stroke-linecap="butt" stroke-linejoin="miter"/><path d="M 498.3142089606894 125.20700214802149 L 493.0658415724644 109.92777966262595" fill="none" stroke="black" stroke-width="12" stroke-linecap="butt" stroke-linejoin="miter"/><path d="M 493.0658415724644 109.92777966262595 L 486.32898865676833 124.61160793703304" fill="none" stroke="black" stroke-width="12" stroke-linecap="butt" stroke-linejoin="miter"/><path d="M 474.685826907868 479.91546324922683 L 114.68582690786798 479.91546324922683" fill="none" stroke="black" stroke-width="12" stroke-linecap="butt" stroke-linejoin="miter"/><path d="M 119.68582690786798 473.91546324922683 L 104.68582690786798 479.91546324922683" fill="none" stroke="black" stroke-width="12" stroke-linecap="butt" stroke-linejoin="miter"/><path d="M 104.68582690786798 479.91546324922683 L 119.68582690786798 485.91546324922683" fill="none" stroke="black" stroke-width="12" stroke-linecap="butt" stroke-linejoin="miter"/><path d="M 469.685826907868 485.91546324922683 L 484.685826907868 479.91546324922683" fill="none" stroke="black" stroke-width="12" stroke-linecap="butt" stroke-linejoin="miter"/><path d="M 484.685826907868 479.91546324922683 L 469.685826907868 473.91546324922683" fill="none" stroke="black" stroke-width="12" stroke-linecap="butt" stroke-linejoin="miter"/><path d="M 114.68582690786798 479.91546324922683 L 132.56967972997404 119.91546324922683" fill="none" stroke="black" stroke-width="12" stroke-linecap="butt" stroke-linejoin="miter"/><path d="M 138.31420896068937 125.20700214802149 L 133.06584157246442 109.92777966262595" fill="none" stroke="black" stroke-width="12" stroke-linecap="butt" stroke-linejoin="miter"/><path d="M 133.06584157246442 109.92777966262595 L 126.32898865676833 124.61160793703304" fill="none" stroke="black" stroke-width="12" stroke-linecap="butt" stroke-linejoin="miter"/><path d="M 108.94129767715265 474.62392435043216 L 114.1896650653776 489.9031468358277" fill="none" stroke="black" stroke-width="12" stroke-linecap="butt" stroke-linejoin="miter"/><path d="M 114.1896650653776 489.9031468358277 L 120.92651798107369 475.21931856142066" fill="none" stroke="black" stroke-width="12" stroke-linecap="butt" stroke-linejoin="miter"/><path d="M 132.56967972997404 119.91546324922683 L 180.3359952755864 162.15982661445562" fill="none" stroke="black" stroke-width="12" stroke-linecap="butt" stroke-linejoin="miter"/><path d="M 180.3359952755864 162.15982661445562 L 226.6732259216629 205.1915147324762" fill="none" stroke="black" stroke-width="12" stroke-linecap="butt" stroke-linejoin="miter"/><path d="M 226.6732259216629 205.1915147324762 L 271.5813716682035 249.01052760328852" fill="none" stroke="black" stroke-width="12" stroke-linecap="butt" stroke-linejoin="miter"/><path d="M 271.5813716682035 249.01052760328852 L 315.06043251520816 293.6168652268926" fill="none" stroke="black" stroke-width="12" stroke-linecap="butt" stroke-linejoin="miter"/><path d="M 315.06043251520816 293.6168652268926 L 357.1104084626769 339.01052760328855" fill="none" stroke="black" stroke-width="12" stroke-linecap="butt" stroke-linejoin="miter"/><path d="M 357.1104084626769 339.01052760328855 L 397.7312995106098 385.1915147324762" fill="none" stroke="black" stroke-width="12" stroke-linecap="butt" stroke-linejoin="miter"/><path d="M 397.7312995106098 385.1915147324762 L 436.92310565900686 432.15982661445565" fill="none" stroke="black" stroke-width="12" stroke-linecap="butt" stroke-linejoin="miter"/><path d="M 436.92310565900686 432.15982661445565 L 474.685826907868 479.91546324922683" fill="none" stroke="black" stroke-width="12" stroke-linecap="butt" stroke-linejoin="miter"/><path d="M 466.8781491068556 479.71504529699274 L 480.8884303983036 487.7594233422178" fill="none" stroke="black" stroke-width="12" stroke-linecap="butt" stroke-linejoin="miter"/><path d="M 480.8884303983036 487.7594233422178 L 476.29090121844473 472.27192110846994" fill="none" stroke="black" stroke-width="12" stroke-linecap="butt" stroke-linejoin="miter"/><path d="M 140.28996074418936 118.73340527199115 L 125.0789005603854 113.29064420019184" fill="none" stroke="black" stroke-width="12" stroke-linecap="butt" stroke-linejoin="miter"/><path d="M 125.0789005603854 113.29064420019184 L 132.34017788534734 127.7223402754975" fill="none" stroke="black" stroke-width="12" stroke-linecap="butt" stroke-linejoin="miter"/><path d="M 492.56967972997404 119.91546324922683 L 442.14748832887744 159.91459157089312" fill="none" stroke="black" stroke-width="12" stroke-linecap="butt" stroke-linejoin="miter"/><path d="M 442.14748832887744 159.91459157089312 L 392.6357854415903 201.34254037208333" fill="none" stroke="black" stroke-width="12" stroke-linecap="butt" stroke-linejoin="miter"/><path d="M 392.6357854415903 201.34254037208333 L 344.0345710681127 244.19930965279747" fill="none" stroke="black" stroke-width="12" stroke-linecap="butt" stroke-linejoin="miter"/><path d="M 344.0345710681127 244.19930965279747 L 296.3438452084447 288.4848994130355" fill="none" stroke="black" stroke-width="12" stroke-linecap="butt" stroke-linejoin="miter"/><path d="M 296.3438452084447 288.4848994130355 L 249.56360786258617 334.19930965279747" fill="none" stroke="black" stroke-width="12" stroke-linecap="butt" stroke-linejoin="miter"/><path d="M 249.56360786258617 334.19930965279747 L 203.69385903053725 381.3425403720833" fill="none" stroke="black" stroke-width="12" stroke-linecap="butt" stroke-linejoin="miter"/><path d="M 203.69385903053725 381.3425403720833 L 158.73459871229784 429.91459157089315" fill="none" stroke="black" stroke-width="12" stroke-linecap="butt" stroke-linejoin="miter"/><path d="M 158.73459871229784 429.91459157089315 L 114.68582690786798 479.91546324922683" fill="none" stroke="black" stroke-width="12" stroke-linecap="butt" stroke-linejoin="miter"/><path d="M 113.48885910094359 472.1974798293699 L 108.07548895958607 487.4190245510024" fill="none" stroke="black" stroke-width="12" stroke-linecap="butt" stroke-linejoin="miter"/><path d="M 108.07548895958607 487.4190245510024 L 122.49313266307428 480.1298853673082" fill="none" stroke="black" stroke-width="12" stroke-linecap="butt" stroke-linejoin="miter"/><path d="M 492.38142593220107 127.72344381449619 L 500.40396700546273 113.70064684927453" fill="none" stroke="black" stroke-width="12" stroke-linecap="butt" stroke-linejoin="miter"/><path d="M 500.40396700546273 113.70064684927453 L 484.9236462522583 118.32229908390977" fill="none" stroke="black" stroke-width="12" stroke-linecap="butt" stroke-linejoin="miter"/><path d="M 263.627753318921 249.91546324922683 L 261.315253318921 261.16546324922683" fill="none" stroke="black" stroke-width="12" stroke-linecap="butt" stroke-linejoin="miter"/><path d="M 261.315253318921 261.16546324922683 L 257.877753318921 272.41546324922683" fill="none" stroke="black" stroke-width="12" stroke-linecap="butt" stroke-linejoin="miter"/><path d="M 257.877753318921 272.41546324922683 L 253.31525331892104 283.66546324922683" fill="none" stroke="black" stroke-width="12" stroke-linecap="butt" stroke-linejoin="miter"/><path d="M 253.31525331892104 283.66546324922683 L 247.627753318921 294.91546324922683" fill="none" stroke="black" stroke-width="12" stroke-linecap="butt" stroke-linejoin="miter"/><path d="M 247.627753318921 294.91546324922683 L 240.815253318921 306.16546324922683" fill="none" stroke="black" stroke-width="12" stroke-linecap="butt" stroke-linejoin="miter"/><path d="M 240.815253318921 306.16546324922683 L 232.877753318921 317.41546324922683" fill="none" stroke="black" stroke-width="12" stroke-linecap="butt" stroke-linejoin="miter"/><path d="M 232.877753318921 317.41546324922683 L 223.815253318921 328.66546324922683" fill="none" stroke="black" stroke-width="12" stroke-linecap="butt" stroke-linejoin="miter"/><path d="M 223.815253318921 328.66546324922683 L 213.627753318921 339.91546324922683" fill="none" stroke="black" stroke-width="12" stroke-linecap="butt" stroke-linejoin="miter"/><path d="M 212.53647885579358 332.181827619969 L 206.91538586647678 347.3278935648094" fill="none" stroke="black" stroke-width="12" stroke-linecap="butt" stroke-linejoin="miter"/><path d="M 206.91538586647678 347.3278935648094 L 221.43139523449264 340.2366685629021" fill="none" stroke="black" stroke-width="12" stroke-linecap="butt" stroke-linejoin="miter"/><path d="M 268.49814551946855 256.02113928164505 L 265.64121154708033 240.1202610581816" fill="none" stroke="black" stroke-width="12" stroke-linecap="butt" stroke-linejoin="miter"/><path d="M 265.64121154708033 240.1202610581816 L 256.7439028902142 253.60498940785388" fill="none" stroke="black" stroke-width="12" stroke-linecap="butt" stroke-linejoin="miter"/><path d="M 343.627753318921 249.91546324922683 L 345.940253318921 261.16546324922683" fill="none" stroke="black" stroke-width="12" stroke-linecap="butt" stroke-linejoin="miter"/><path d="M 345.940253318921 261.16546324922683 L 349.37775331892107 272.41546324922683" fill="none" stroke="black" stroke-width="12" stroke-linecap="butt" stroke-linejoin="miter"/><path d="M 349.37775331892107 272.41546324922683 L 353.94025331892095 283.66546324922683" fill="none" stroke="black" stroke-width="12" stroke-linecap="butt" stroke-linejoin="miter"/><path d="M 353.94025331892095 283.66546324922683 L 359.627753318921 294.91546324922683" fill="none" stroke="black" stroke-width="12" stroke-linecap="butt" stroke-linejoin="miter"/><path d="M 359.627753318921 294.91546324922683 L 366.440253318921 306.16546324922683" fill="none" stroke="black" stroke-width="12" stroke-linecap="butt" stroke-linejoin="miter"/><path d="M 366.440253318921 306.16546324922683 L 374.377753318921 317.41546324922683" fill="none" stroke="black" stroke-width="12" stroke-linecap="butt" stroke-linejoin="miter"/><path d="M 374.377753318921 317.41546324922683 L 383.440253318921 328.66546324922683" fill="none" stroke="black" stroke-width="12" stroke-linecap="butt" stroke-linejoin="miter"/><path d="M 383.440253318921 328.66546324922683 L 393.627753318921 339.91546324922683" fill="none" stroke="black" stroke-width="12" stroke-linecap="butt" stroke-linejoin="miter"/><path d="M 385.8241114033493 340.2366685629021 L 400.3401207713652 347.3278935648094" fill="none" stroke="black" stroke-width="12" stroke-linecap="butt" stroke-linejoin="miter"/><path d="M 400.3401207713652 347.3278935648094 L 394.71902778204844 332.181827619969" fill="none" stroke="black" stroke-width="12" stroke-linecap="butt" stroke-linejoin="miter"/><path d="M 350.5116037476278 253.60498940785388 L 341.6142950907617 240.1202610581816" fill="none" stroke="black" stroke-width="12" stroke-linecap="butt" stroke-linejoin="miter"/><path d="M 341.6142950907617 240.1202610581816 L 338.75736111837347 256.02113928164505" fill="none" stroke="black" stroke-width="12" stroke-linecap="butt" stroke-linejoin="miter"/><path d="M 497.5 520.0 L 506.5 508.0" fill="none" stroke="black" stroke-width="12" stroke-linecap="butt" stroke-linejoin="miter"/><path d="M 506.5 508.0 L 521.5 505.0" fill="none" stroke="black" stroke-width="12" stroke-linecap="butt" stroke-linejoin="miter"/><path d="M 521.5 505.0 L 536.5 511.0" fill="none" stroke="black" stroke-width="12" stroke-linecap="butt" stroke-linejoin="miter"/><path d="M 536.5 511.0 L 542.5 523.0" fill="none" stroke="black" stroke-width="12" stroke-linecap="butt" stroke-linejoin="miter"/><path d="M 542.5 523.0 L 533.5 535.0" fill="none" stroke="black" stroke-width="12" stroke-linecap="butt" stroke-linejoin="miter"/><path d="M 533.5 535.0 L 518.5 538.0" fill="none" stroke="black" stroke-width="12" stroke-linecap="butt" stroke-linejoin="miter"/><path d="M 518.5 538.0 L 503.5 532.0" fill="none" stroke="black" stroke-width="12" stroke-linecap="butt" stroke-linejoin="miter"/><path d="M 503.5 532.0 L 497.5 520.0" fill="none" stroke="black" stroke-width="12" stroke-linecap="butt" stroke-linejoin="miter"/><path d="M 515.5 514.0 L 514.62132 516.12132" fill="none" stroke="black" stroke-width="12" stroke-linecap="butt" stroke-linejoin="miter"/><path d="M 514.62132 516.12132 L 512.5 517.0" fill="none" stroke="black" stroke-width="12" stroke-linecap="butt" stroke-linejoin="miter"/><path d="M 512.5 517.0 L 510.37868 516.12132" fill="none" stroke="black" stroke-width="12" stroke-linecap="butt" stroke-linejoin="miter"/><path d="M 510.37868 516.12132 L 509.5 514.0" fill="none" stroke="black" stroke-width="12" stroke-linecap="butt" stroke-linejoin="miter"/><path d="M 509.5 514.0 L 510.37868 511.87868" fill="none" stroke="black" stroke-width="12" stroke-linecap="butt" stroke-linejoin="miter"/><path d="M 510.37868 511.87868 L 512.5 511.0" fill="none" stroke="black" stroke-width="12" stroke-linecap="butt" stroke-linejoin="miter"/><path d="M 512.5 511.0 L 514.62132 511.87868" fill="none" stroke="black" stroke-width="12" stroke-linecap="butt" stroke-linejoin="miter"/><path d="M 514.62132 511.87868 L 515.5 514.0" fill="none" stroke="black" stroke-width="12" stroke-linecap="butt" stroke-linejoin="miter"/><path d="M 536.5 511.0 L 539.5 502.0" fill="none" stroke="black" stroke-width="12" stroke-linecap="butt" stroke-linejoin="miter"/>
</svg>